%TF.GenerationSoftware,KiCad,Pcbnew,5.1.12-84ad8e8a86~92~ubuntu20.04.1*%
%TF.CreationDate,2022-01-23T19:48:35-05:00*%
%TF.ProjectId,emg-filter,656d672d-6669-46c7-9465-722e6b696361,rev?*%
%TF.SameCoordinates,Original*%
%TF.FileFunction,Soldermask,Bot*%
%TF.FilePolarity,Negative*%
%FSLAX46Y46*%
G04 Gerber Fmt 4.6, Leading zero omitted, Abs format (unit mm)*
G04 Created by KiCad (PCBNEW 5.1.12-84ad8e8a86~92~ubuntu20.04.1) date 2022-01-23 19:48:35*
%MOMM*%
%LPD*%
G01*
G04 APERTURE LIST*
%ADD10C,3.500000*%
%ADD11O,1.700000X1.700000*%
%ADD12R,1.700000X1.700000*%
%ADD13C,2.400000*%
%ADD14R,2.400000X2.400000*%
G04 APERTURE END LIST*
D10*
%TO.C,J20*%
X99609220Y-97358340D03*
X104884220Y-97358340D03*
%TD*%
%TO.C,J8*%
X104884220Y-58369340D03*
X99609220Y-58369340D03*
%TD*%
D11*
%TO.C,RV1*%
X118841520Y6812280D03*
X118841520Y4272280D03*
D12*
X118841520Y1732280D03*
%TD*%
D10*
%TO.C,J51*%
X121116780Y-142836760D03*
X115841780Y-142836760D03*
%TD*%
%TO.C,J50*%
X99588900Y-142849460D03*
X104863900Y-142849460D03*
%TD*%
%TO.C,J49*%
X121116780Y-149336760D03*
X115841780Y-149336760D03*
%TD*%
%TO.C,J48*%
X104863900Y-149349460D03*
X99588900Y-149349460D03*
%TD*%
%TO.C,J47*%
X121116780Y-155836760D03*
X115841780Y-155836760D03*
%TD*%
%TO.C,J46*%
X99588900Y-155849460D03*
X104863900Y-155849460D03*
%TD*%
%TO.C,J45*%
X121119320Y-175336480D03*
X115844320Y-175336480D03*
%TD*%
%TO.C,J44*%
X99591440Y-175349180D03*
X104866440Y-175349180D03*
%TD*%
%TO.C,J43*%
X121119320Y-168836480D03*
X115844320Y-168836480D03*
%TD*%
%TO.C,J42*%
X99591440Y-168849180D03*
X104866440Y-168849180D03*
%TD*%
%TO.C,J41*%
X121119320Y-162336480D03*
X115844320Y-162336480D03*
%TD*%
%TO.C,J40*%
X99591440Y-162349180D03*
X104866440Y-162349180D03*
%TD*%
%TO.C,J39*%
X121129480Y-103847760D03*
X115854480Y-103847760D03*
%TD*%
%TO.C,J38*%
X104881680Y-103847620D03*
X99606680Y-103847620D03*
%TD*%
%TO.C,J37*%
X121129480Y-110347760D03*
X115854480Y-110347760D03*
%TD*%
%TO.C,J36*%
X104881680Y-110347620D03*
X99606680Y-110347620D03*
%TD*%
%TO.C,J35*%
X121129480Y-116847760D03*
X115854480Y-116847760D03*
%TD*%
%TO.C,J34*%
X104881680Y-116847620D03*
X99606680Y-116847620D03*
%TD*%
%TO.C,J33*%
X121132020Y-136347480D03*
X115857020Y-136347480D03*
%TD*%
%TO.C,J32*%
X104884220Y-136347340D03*
X99609220Y-136347340D03*
%TD*%
%TO.C,J31*%
X121132020Y-129847480D03*
X115857020Y-129847480D03*
%TD*%
%TO.C,J30*%
X104884220Y-129847340D03*
X99609220Y-129847340D03*
%TD*%
%TO.C,J29*%
X121132020Y-123347480D03*
X115857020Y-123347480D03*
%TD*%
%TO.C,J28*%
X104884220Y-123347340D03*
X99609220Y-123347340D03*
%TD*%
%TO.C,J27*%
X115867180Y-64871460D03*
X121142180Y-64871460D03*
%TD*%
%TO.C,J26*%
X104881680Y-64858620D03*
X99606680Y-64858620D03*
%TD*%
%TO.C,J25*%
X121142180Y-71371460D03*
X115867180Y-71371460D03*
%TD*%
%TO.C,J24*%
X104881680Y-71358620D03*
X99606680Y-71358620D03*
%TD*%
%TO.C,J23*%
X121142180Y-77871460D03*
X115867180Y-77871460D03*
%TD*%
%TO.C,J22*%
X104881680Y-77858620D03*
X99606680Y-77858620D03*
%TD*%
%TO.C,J21*%
X121144720Y-97371180D03*
X115869720Y-97371180D03*
%TD*%
%TO.C,J19*%
X121144720Y-90871180D03*
X115869720Y-90871180D03*
%TD*%
%TO.C,J18*%
X104884220Y-90858340D03*
X99609220Y-90858340D03*
%TD*%
%TO.C,J17*%
X121144720Y-84371180D03*
X115869720Y-84371180D03*
%TD*%
%TO.C,J16*%
X104884220Y-84358340D03*
X99609220Y-84358340D03*
%TD*%
%TO.C,J15*%
X121091380Y-25882460D03*
X115816380Y-25882460D03*
%TD*%
%TO.C,J14*%
X99606680Y-25869620D03*
X104881680Y-25869620D03*
%TD*%
%TO.C,J13*%
X121091380Y-32382460D03*
X115816380Y-32382460D03*
%TD*%
%TO.C,J12*%
X99606680Y-32369620D03*
X104881680Y-32369620D03*
%TD*%
%TO.C,J11*%
X121091380Y-38882460D03*
X115816380Y-38882460D03*
%TD*%
%TO.C,J10*%
X99606680Y-38869620D03*
X104881680Y-38869620D03*
%TD*%
%TO.C,J9*%
X121093920Y-58382180D03*
X115818920Y-58382180D03*
%TD*%
%TO.C,J7*%
X121093920Y-51882180D03*
X115818920Y-51882180D03*
%TD*%
%TO.C,J6*%
X99609220Y-51869340D03*
X104884220Y-51869340D03*
%TD*%
%TO.C,J5*%
X121093920Y-45382180D03*
X115818920Y-45382180D03*
%TD*%
%TO.C,J4*%
X99609220Y-45369340D03*
X104884220Y-45369340D03*
%TD*%
D11*
%TO.C,J3*%
X86360000Y-189865000D03*
X86360000Y-187325000D03*
X88900000Y-189865000D03*
X88900000Y-187325000D03*
X91440000Y-189865000D03*
X91440000Y-187325000D03*
X93980000Y-189865000D03*
X93980000Y-187325000D03*
X96520000Y-189865000D03*
X96520000Y-187325000D03*
X99060000Y-189865000D03*
X99060000Y-187325000D03*
X101600000Y-189865000D03*
X101600000Y-187325000D03*
X104140000Y-189865000D03*
X104140000Y-187325000D03*
X106680000Y-189865000D03*
X106680000Y-187325000D03*
X109220000Y-189865000D03*
X109220000Y-187325000D03*
X111760000Y-189865000D03*
X111760000Y-187325000D03*
X114300000Y-189865000D03*
X114300000Y-187325000D03*
X116840000Y-189865000D03*
X116840000Y-187325000D03*
X119380000Y-189865000D03*
X119380000Y-187325000D03*
X121920000Y-189865000D03*
X121920000Y-187325000D03*
X124460000Y-189865000D03*
X124460000Y-187325000D03*
X127000000Y-189865000D03*
X127000000Y-187325000D03*
X129540000Y-189865000D03*
X129540000Y-187325000D03*
X132080000Y-189865000D03*
X132080000Y-187325000D03*
X134620000Y-189865000D03*
D12*
X134620000Y-187325000D03*
%TD*%
D10*
%TO.C,J2*%
X88234520Y-6971720D03*
X88234520Y-1696720D03*
X88234520Y3578280D03*
%TD*%
%TO.C,J1*%
X76804520Y-4304720D03*
X76804520Y970280D03*
%TD*%
D13*
%TO.C,C53*%
X97712520Y-8681720D03*
D14*
X102712520Y-8681720D03*
%TD*%
D13*
%TO.C,C52*%
X102759520Y5288280D03*
D14*
X97759520Y5288280D03*
%TD*%
M02*
