%TF.GenerationSoftware,KiCad,Pcbnew,5.1.12-84ad8e8a86~92~ubuntu20.04.1*%
%TF.CreationDate,2022-02-03T20:06:24-05:00*%
%TF.ProjectId,emg-filter,656d672d-6669-46c7-9465-722e6b696361,rev?*%
%TF.SameCoordinates,Original*%
%TF.FileFunction,Legend,Bot*%
%TF.FilePolarity,Positive*%
%FSLAX46Y46*%
G04 Gerber Fmt 4.6, Leading zero omitted, Abs format (unit mm)*
G04 Created by KiCad (PCBNEW 5.1.12-84ad8e8a86~92~ubuntu20.04.1) date 2022-02-03 20:06:24*
%MOMM*%
%LPD*%
G01*
G04 APERTURE LIST*
%ADD10C,0.150000*%
%ADD11C,0.120000*%
G04 APERTURE END LIST*
D10*
X84992857Y-131511904D02*
X84992857Y-130711904D01*
X84688095Y-130711904D01*
X84611904Y-130750000D01*
X84573809Y-130788095D01*
X84535714Y-130864285D01*
X84535714Y-130978571D01*
X84573809Y-131054761D01*
X84611904Y-131092857D01*
X84688095Y-131130952D01*
X84992857Y-131130952D01*
X84192857Y-131511904D02*
X84192857Y-130978571D01*
X84192857Y-131130952D02*
X84154761Y-131054761D01*
X84116666Y-131016666D01*
X84040476Y-130978571D01*
X83964285Y-130978571D01*
X83583333Y-131511904D02*
X83659523Y-131473809D01*
X83697619Y-131435714D01*
X83735714Y-131359523D01*
X83735714Y-131130952D01*
X83697619Y-131054761D01*
X83659523Y-131016666D01*
X83583333Y-130978571D01*
X83469047Y-130978571D01*
X83392857Y-131016666D01*
X83354761Y-131054761D01*
X83316666Y-131130952D01*
X83316666Y-131359523D01*
X83354761Y-131435714D01*
X83392857Y-131473809D01*
X83469047Y-131511904D01*
X83583333Y-131511904D01*
X83011904Y-131473809D02*
X82935714Y-131511904D01*
X82783333Y-131511904D01*
X82707142Y-131473809D01*
X82669047Y-131397619D01*
X82669047Y-131359523D01*
X82707142Y-131283333D01*
X82783333Y-131245238D01*
X82897619Y-131245238D01*
X82973809Y-131207142D01*
X83011904Y-131130952D01*
X83011904Y-131092857D01*
X82973809Y-131016666D01*
X82897619Y-130978571D01*
X82783333Y-130978571D01*
X82707142Y-131016666D01*
X82440476Y-130978571D02*
X82135714Y-130978571D01*
X82326190Y-130711904D02*
X82326190Y-131397619D01*
X82288095Y-131473809D01*
X82211904Y-131511904D01*
X82135714Y-131511904D01*
X81869047Y-131511904D02*
X81869047Y-130711904D01*
X81526190Y-131511904D02*
X81526190Y-131092857D01*
X81564285Y-131016666D01*
X81640476Y-130978571D01*
X81754761Y-130978571D01*
X81830952Y-131016666D01*
X81869047Y-131054761D01*
X80840476Y-131473809D02*
X80916666Y-131511904D01*
X81069047Y-131511904D01*
X81145238Y-131473809D01*
X81183333Y-131397619D01*
X81183333Y-131092857D01*
X81145238Y-131016666D01*
X81069047Y-130978571D01*
X80916666Y-130978571D01*
X80840476Y-131016666D01*
X80802380Y-131092857D01*
X80802380Y-131169047D01*
X81183333Y-131245238D01*
X80573809Y-130978571D02*
X80269047Y-130978571D01*
X80459523Y-130711904D02*
X80459523Y-131397619D01*
X80421428Y-131473809D01*
X80345238Y-131511904D01*
X80269047Y-131511904D01*
X80002380Y-131511904D02*
X80002380Y-130978571D01*
X80002380Y-130711904D02*
X80040476Y-130750000D01*
X80002380Y-130788095D01*
X79964285Y-130750000D01*
X80002380Y-130711904D01*
X80002380Y-130788095D01*
X79278571Y-131473809D02*
X79354761Y-131511904D01*
X79507142Y-131511904D01*
X79583333Y-131473809D01*
X79621428Y-131435714D01*
X79659523Y-131359523D01*
X79659523Y-131130952D01*
X79621428Y-131054761D01*
X79583333Y-131016666D01*
X79507142Y-130978571D01*
X79354761Y-130978571D01*
X79278571Y-131016666D01*
X77945238Y-131511904D02*
X78326190Y-131511904D01*
X78326190Y-130711904D01*
X77678571Y-131511904D02*
X77678571Y-130978571D01*
X77678571Y-130711904D02*
X77716666Y-130750000D01*
X77678571Y-130788095D01*
X77640476Y-130750000D01*
X77678571Y-130711904D01*
X77678571Y-130788095D01*
X77297619Y-131511904D02*
X77297619Y-130978571D01*
X77297619Y-131054761D02*
X77259523Y-131016666D01*
X77183333Y-130978571D01*
X77069047Y-130978571D01*
X76992857Y-131016666D01*
X76954761Y-131092857D01*
X76954761Y-131511904D01*
X76954761Y-131092857D02*
X76916666Y-131016666D01*
X76840476Y-130978571D01*
X76726190Y-130978571D01*
X76650000Y-131016666D01*
X76611904Y-131092857D01*
X76611904Y-131511904D01*
X76230952Y-131511904D02*
X76230952Y-130711904D01*
X76230952Y-131016666D02*
X76154761Y-130978571D01*
X76002380Y-130978571D01*
X75926190Y-131016666D01*
X75888095Y-131054761D01*
X75850000Y-131130952D01*
X75850000Y-131359523D01*
X75888095Y-131435714D01*
X75926190Y-131473809D01*
X76002380Y-131511904D01*
X76154761Y-131511904D01*
X76230952Y-131473809D01*
X74897619Y-131092857D02*
X74630952Y-131092857D01*
X74516666Y-131511904D02*
X74897619Y-131511904D01*
X74897619Y-130711904D01*
X74516666Y-130711904D01*
X74173809Y-131511904D02*
X74173809Y-130711904D01*
X73907142Y-131283333D01*
X73640476Y-130711904D01*
X73640476Y-131511904D01*
X72840476Y-130750000D02*
X72916666Y-130711904D01*
X73030952Y-130711904D01*
X73145238Y-130750000D01*
X73221428Y-130826190D01*
X73259523Y-130902380D01*
X73297619Y-131054761D01*
X73297619Y-131169047D01*
X73259523Y-131321428D01*
X73221428Y-131397619D01*
X73145238Y-131473809D01*
X73030952Y-131511904D01*
X72954761Y-131511904D01*
X72840476Y-131473809D01*
X72802380Y-131435714D01*
X72802380Y-131169047D01*
X72954761Y-131169047D01*
X71583333Y-131092857D02*
X71850000Y-131092857D01*
X71850000Y-131511904D02*
X71850000Y-130711904D01*
X71469047Y-130711904D01*
X71164285Y-131511904D02*
X71164285Y-130978571D01*
X71164285Y-130711904D02*
X71202380Y-130750000D01*
X71164285Y-130788095D01*
X71126190Y-130750000D01*
X71164285Y-130711904D01*
X71164285Y-130788095D01*
X70669047Y-131511904D02*
X70745238Y-131473809D01*
X70783333Y-131397619D01*
X70783333Y-130711904D01*
X70478571Y-130978571D02*
X70173809Y-130978571D01*
X70364285Y-130711904D02*
X70364285Y-131397619D01*
X70326190Y-131473809D01*
X70250000Y-131511904D01*
X70173809Y-131511904D01*
X69602380Y-131473809D02*
X69678571Y-131511904D01*
X69830952Y-131511904D01*
X69907142Y-131473809D01*
X69945238Y-131397619D01*
X69945238Y-131092857D01*
X69907142Y-131016666D01*
X69830952Y-130978571D01*
X69678571Y-130978571D01*
X69602380Y-131016666D01*
X69564285Y-131092857D01*
X69564285Y-131169047D01*
X69945238Y-131245238D01*
X69221428Y-131511904D02*
X69221428Y-130978571D01*
X69221428Y-131130952D02*
X69183333Y-131054761D01*
X69145238Y-131016666D01*
X69069047Y-130978571D01*
X68992857Y-130978571D01*
X68116666Y-131511904D02*
X68116666Y-130711904D01*
X67850000Y-131283333D01*
X67583333Y-130711904D01*
X67583333Y-131511904D01*
X67088095Y-131511904D02*
X67164285Y-131473809D01*
X67202380Y-131435714D01*
X67240476Y-131359523D01*
X67240476Y-131130952D01*
X67202380Y-131054761D01*
X67164285Y-131016666D01*
X67088095Y-130978571D01*
X66973809Y-130978571D01*
X66897619Y-131016666D01*
X66859523Y-131054761D01*
X66821428Y-131130952D01*
X66821428Y-131359523D01*
X66859523Y-131435714D01*
X66897619Y-131473809D01*
X66973809Y-131511904D01*
X67088095Y-131511904D01*
X66135714Y-131511904D02*
X66135714Y-130711904D01*
X66135714Y-131473809D02*
X66211904Y-131511904D01*
X66364285Y-131511904D01*
X66440476Y-131473809D01*
X66478571Y-131435714D01*
X66516666Y-131359523D01*
X66516666Y-131130952D01*
X66478571Y-131054761D01*
X66440476Y-131016666D01*
X66364285Y-130978571D01*
X66211904Y-130978571D01*
X66135714Y-131016666D01*
X65411904Y-130978571D02*
X65411904Y-131511904D01*
X65754761Y-130978571D02*
X65754761Y-131397619D01*
X65716666Y-131473809D01*
X65640476Y-131511904D01*
X65526190Y-131511904D01*
X65450000Y-131473809D01*
X65411904Y-131435714D01*
X64916666Y-131511904D02*
X64992857Y-131473809D01*
X65030952Y-131397619D01*
X65030952Y-130711904D01*
X64307142Y-131473809D02*
X64383333Y-131511904D01*
X64535714Y-131511904D01*
X64611904Y-131473809D01*
X64650000Y-131397619D01*
X64650000Y-131092857D01*
X64611904Y-131016666D01*
X64535714Y-130978571D01*
X64383333Y-130978571D01*
X64307142Y-131016666D01*
X64269047Y-131092857D01*
X64269047Y-131169047D01*
X64650000Y-131245238D01*
X85088095Y-132785714D02*
X85126190Y-132823809D01*
X85240476Y-132861904D01*
X85316666Y-132861904D01*
X85430952Y-132823809D01*
X85507142Y-132747619D01*
X85545238Y-132671428D01*
X85583333Y-132519047D01*
X85583333Y-132404761D01*
X85545238Y-132252380D01*
X85507142Y-132176190D01*
X85430952Y-132100000D01*
X85316666Y-132061904D01*
X85240476Y-132061904D01*
X85126190Y-132100000D01*
X85088095Y-132138095D01*
X84630952Y-132861904D02*
X84707142Y-132823809D01*
X84745238Y-132785714D01*
X84783333Y-132709523D01*
X84783333Y-132480952D01*
X84745238Y-132404761D01*
X84707142Y-132366666D01*
X84630952Y-132328571D01*
X84516666Y-132328571D01*
X84440476Y-132366666D01*
X84402380Y-132404761D01*
X84364285Y-132480952D01*
X84364285Y-132709523D01*
X84402380Y-132785714D01*
X84440476Y-132823809D01*
X84516666Y-132861904D01*
X84630952Y-132861904D01*
X84021428Y-132328571D02*
X84021428Y-132861904D01*
X84021428Y-132404761D02*
X83983333Y-132366666D01*
X83907142Y-132328571D01*
X83792857Y-132328571D01*
X83716666Y-132366666D01*
X83678571Y-132442857D01*
X83678571Y-132861904D01*
X82954761Y-132823809D02*
X83030952Y-132861904D01*
X83183333Y-132861904D01*
X83259523Y-132823809D01*
X83297619Y-132785714D01*
X83335714Y-132709523D01*
X83335714Y-132480952D01*
X83297619Y-132404761D01*
X83259523Y-132366666D01*
X83183333Y-132328571D01*
X83030952Y-132328571D01*
X82954761Y-132366666D01*
X82497619Y-132861904D02*
X82573809Y-132823809D01*
X82611904Y-132785714D01*
X82650000Y-132709523D01*
X82650000Y-132480952D01*
X82611904Y-132404761D01*
X82573809Y-132366666D01*
X82497619Y-132328571D01*
X82383333Y-132328571D01*
X82307142Y-132366666D01*
X82269047Y-132404761D01*
X82230952Y-132480952D01*
X82230952Y-132709523D01*
X82269047Y-132785714D01*
X82307142Y-132823809D01*
X82383333Y-132861904D01*
X82497619Y-132861904D01*
X81888095Y-132861904D02*
X81888095Y-132328571D01*
X81888095Y-132480952D02*
X81850000Y-132404761D01*
X81811904Y-132366666D01*
X81735714Y-132328571D01*
X81659523Y-132328571D01*
X81050000Y-132861904D02*
X81050000Y-132061904D01*
X81050000Y-132823809D02*
X81126190Y-132861904D01*
X81278571Y-132861904D01*
X81354761Y-132823809D01*
X81392857Y-132785714D01*
X81430952Y-132709523D01*
X81430952Y-132480952D01*
X81392857Y-132404761D01*
X81354761Y-132366666D01*
X81278571Y-132328571D01*
X81126190Y-132328571D01*
X81050000Y-132366666D01*
X80669047Y-132861904D02*
X80669047Y-132328571D01*
X80669047Y-132061904D02*
X80707142Y-132100000D01*
X80669047Y-132138095D01*
X80630952Y-132100000D01*
X80669047Y-132061904D01*
X80669047Y-132138095D01*
X79945238Y-132861904D02*
X79945238Y-132442857D01*
X79983333Y-132366666D01*
X80059523Y-132328571D01*
X80211904Y-132328571D01*
X80288095Y-132366666D01*
X79945238Y-132823809D02*
X80021428Y-132861904D01*
X80211904Y-132861904D01*
X80288095Y-132823809D01*
X80326190Y-132747619D01*
X80326190Y-132671428D01*
X80288095Y-132595238D01*
X80211904Y-132557142D01*
X80021428Y-132557142D01*
X79945238Y-132519047D01*
X78954761Y-132061904D02*
X78954761Y-132709523D01*
X78916666Y-132785714D01*
X78878571Y-132823809D01*
X78802380Y-132861904D01*
X78650000Y-132861904D01*
X78573809Y-132823809D01*
X78535714Y-132785714D01*
X78497619Y-132709523D01*
X78497619Y-132061904D01*
X78116666Y-132328571D02*
X78116666Y-132861904D01*
X78116666Y-132404761D02*
X78078571Y-132366666D01*
X78002380Y-132328571D01*
X77888095Y-132328571D01*
X77811904Y-132366666D01*
X77773809Y-132442857D01*
X77773809Y-132861904D01*
X77392857Y-132861904D02*
X77392857Y-132328571D01*
X77392857Y-132061904D02*
X77430952Y-132100000D01*
X77392857Y-132138095D01*
X77354761Y-132100000D01*
X77392857Y-132061904D01*
X77392857Y-132138095D01*
X77088095Y-132328571D02*
X76897619Y-132861904D01*
X76707142Y-132328571D01*
X76097619Y-132823809D02*
X76173809Y-132861904D01*
X76326190Y-132861904D01*
X76402380Y-132823809D01*
X76440476Y-132747619D01*
X76440476Y-132442857D01*
X76402380Y-132366666D01*
X76326190Y-132328571D01*
X76173809Y-132328571D01*
X76097619Y-132366666D01*
X76059523Y-132442857D01*
X76059523Y-132519047D01*
X76440476Y-132595238D01*
X75716666Y-132861904D02*
X75716666Y-132328571D01*
X75716666Y-132480952D02*
X75678571Y-132404761D01*
X75640476Y-132366666D01*
X75564285Y-132328571D01*
X75488095Y-132328571D01*
X75259523Y-132823809D02*
X75183333Y-132861904D01*
X75030952Y-132861904D01*
X74954761Y-132823809D01*
X74916666Y-132747619D01*
X74916666Y-132709523D01*
X74954761Y-132633333D01*
X75030952Y-132595238D01*
X75145238Y-132595238D01*
X75221428Y-132557142D01*
X75259523Y-132480952D01*
X75259523Y-132442857D01*
X75221428Y-132366666D01*
X75145238Y-132328571D01*
X75030952Y-132328571D01*
X74954761Y-132366666D01*
X74573809Y-132861904D02*
X74573809Y-132328571D01*
X74573809Y-132061904D02*
X74611904Y-132100000D01*
X74573809Y-132138095D01*
X74535714Y-132100000D01*
X74573809Y-132061904D01*
X74573809Y-132138095D01*
X74307142Y-132328571D02*
X74002380Y-132328571D01*
X74192857Y-132061904D02*
X74192857Y-132747619D01*
X74154761Y-132823809D01*
X74078571Y-132861904D01*
X74002380Y-132861904D01*
X73811904Y-132328571D02*
X73621428Y-132861904D01*
X73430952Y-132328571D02*
X73621428Y-132861904D01*
X73697619Y-133052380D01*
X73735714Y-133090476D01*
X73811904Y-133128571D01*
X72059523Y-132785714D02*
X72097619Y-132823809D01*
X72211904Y-132861904D01*
X72288095Y-132861904D01*
X72402380Y-132823809D01*
X72478571Y-132747619D01*
X72516666Y-132671428D01*
X72554761Y-132519047D01*
X72554761Y-132404761D01*
X72516666Y-132252380D01*
X72478571Y-132176190D01*
X72402380Y-132100000D01*
X72288095Y-132061904D01*
X72211904Y-132061904D01*
X72097619Y-132100000D01*
X72059523Y-132138095D01*
X71373809Y-132861904D02*
X71373809Y-132442857D01*
X71411904Y-132366666D01*
X71488095Y-132328571D01*
X71640476Y-132328571D01*
X71716666Y-132366666D01*
X71373809Y-132823809D02*
X71450000Y-132861904D01*
X71640476Y-132861904D01*
X71716666Y-132823809D01*
X71754761Y-132747619D01*
X71754761Y-132671428D01*
X71716666Y-132595238D01*
X71640476Y-132557142D01*
X71450000Y-132557142D01*
X71373809Y-132519047D01*
X70992857Y-132328571D02*
X70992857Y-133128571D01*
X70992857Y-132366666D02*
X70916666Y-132328571D01*
X70764285Y-132328571D01*
X70688095Y-132366666D01*
X70650000Y-132404761D01*
X70611904Y-132480952D01*
X70611904Y-132709523D01*
X70650000Y-132785714D01*
X70688095Y-132823809D01*
X70764285Y-132861904D01*
X70916666Y-132861904D01*
X70992857Y-132823809D01*
X70307142Y-132823809D02*
X70230952Y-132861904D01*
X70078571Y-132861904D01*
X70002380Y-132823809D01*
X69964285Y-132747619D01*
X69964285Y-132709523D01*
X70002380Y-132633333D01*
X70078571Y-132595238D01*
X70192857Y-132595238D01*
X70269047Y-132557142D01*
X70307142Y-132480952D01*
X70307142Y-132442857D01*
X70269047Y-132366666D01*
X70192857Y-132328571D01*
X70078571Y-132328571D01*
X70002380Y-132366666D01*
X69735714Y-132328571D02*
X69430952Y-132328571D01*
X69621428Y-132061904D02*
X69621428Y-132747619D01*
X69583333Y-132823809D01*
X69507142Y-132861904D01*
X69430952Y-132861904D01*
X69050000Y-132861904D02*
X69126190Y-132823809D01*
X69164285Y-132785714D01*
X69202380Y-132709523D01*
X69202380Y-132480952D01*
X69164285Y-132404761D01*
X69126190Y-132366666D01*
X69050000Y-132328571D01*
X68935714Y-132328571D01*
X68859523Y-132366666D01*
X68821428Y-132404761D01*
X68783333Y-132480952D01*
X68783333Y-132709523D01*
X68821428Y-132785714D01*
X68859523Y-132823809D01*
X68935714Y-132861904D01*
X69050000Y-132861904D01*
X68440476Y-132328571D02*
X68440476Y-132861904D01*
X68440476Y-132404761D02*
X68402380Y-132366666D01*
X68326190Y-132328571D01*
X68211904Y-132328571D01*
X68135714Y-132366666D01*
X68097619Y-132442857D01*
X68097619Y-132861904D01*
X67411904Y-132823809D02*
X67488095Y-132861904D01*
X67640476Y-132861904D01*
X67716666Y-132823809D01*
X67754761Y-132747619D01*
X67754761Y-132442857D01*
X67716666Y-132366666D01*
X67640476Y-132328571D01*
X67488095Y-132328571D01*
X67411904Y-132366666D01*
X67373809Y-132442857D01*
X67373809Y-132519047D01*
X67754761Y-132595238D01*
X66459523Y-132138095D02*
X66421428Y-132100000D01*
X66345238Y-132061904D01*
X66154761Y-132061904D01*
X66078571Y-132100000D01*
X66040476Y-132138095D01*
X66002380Y-132214285D01*
X66002380Y-132290476D01*
X66040476Y-132404761D01*
X66497619Y-132861904D01*
X66002380Y-132861904D01*
X65507142Y-132061904D02*
X65430952Y-132061904D01*
X65354761Y-132100000D01*
X65316666Y-132138095D01*
X65278571Y-132214285D01*
X65240476Y-132366666D01*
X65240476Y-132557142D01*
X65278571Y-132709523D01*
X65316666Y-132785714D01*
X65354761Y-132823809D01*
X65430952Y-132861904D01*
X65507142Y-132861904D01*
X65583333Y-132823809D01*
X65621428Y-132785714D01*
X65659523Y-132709523D01*
X65697619Y-132557142D01*
X65697619Y-132366666D01*
X65659523Y-132214285D01*
X65621428Y-132138095D01*
X65583333Y-132100000D01*
X65507142Y-132061904D01*
X64935714Y-132138095D02*
X64897619Y-132100000D01*
X64821428Y-132061904D01*
X64630952Y-132061904D01*
X64554761Y-132100000D01*
X64516666Y-132138095D01*
X64478571Y-132214285D01*
X64478571Y-132290476D01*
X64516666Y-132404761D01*
X64973809Y-132861904D01*
X64478571Y-132861904D01*
X64173809Y-132138095D02*
X64135714Y-132100000D01*
X64059523Y-132061904D01*
X63869047Y-132061904D01*
X63792857Y-132100000D01*
X63754761Y-132138095D01*
X63716666Y-132214285D01*
X63716666Y-132290476D01*
X63754761Y-132404761D01*
X64211904Y-132861904D01*
X63716666Y-132861904D01*
X79259523Y-133411904D02*
X78992857Y-134211904D01*
X78726190Y-133411904D01*
X78192857Y-133792857D02*
X78078571Y-133830952D01*
X78040476Y-133869047D01*
X78002380Y-133945238D01*
X78002380Y-134059523D01*
X78040476Y-134135714D01*
X78078571Y-134173809D01*
X78154761Y-134211904D01*
X78459523Y-134211904D01*
X78459523Y-133411904D01*
X78192857Y-133411904D01*
X78116666Y-133450000D01*
X78078571Y-133488095D01*
X78040476Y-133564285D01*
X78040476Y-133640476D01*
X78078571Y-133716666D01*
X78116666Y-133754761D01*
X78192857Y-133792857D01*
X78459523Y-133792857D01*
X77659523Y-134211904D02*
X77659523Y-133411904D01*
X77202380Y-134211904D02*
X77545238Y-133754761D01*
X77202380Y-133411904D02*
X77659523Y-133869047D01*
X76859523Y-134211904D02*
X76859523Y-133411904D01*
X76402380Y-134211904D01*
X76402380Y-133411904D01*
X76021428Y-134211904D02*
X76021428Y-133411904D01*
X75754761Y-133983333D01*
X75488095Y-133411904D01*
X75488095Y-134211904D01*
X75183333Y-133411904D02*
X74650000Y-133411904D01*
X75183333Y-134211904D01*
X74650000Y-134211904D01*
X74383333Y-134173809D02*
X74269047Y-134211904D01*
X74078571Y-134211904D01*
X74002380Y-134173809D01*
X73964285Y-134135714D01*
X73926190Y-134059523D01*
X73926190Y-133983333D01*
X73964285Y-133907142D01*
X74002380Y-133869047D01*
X74078571Y-133830952D01*
X74230952Y-133792857D01*
X74307142Y-133754761D01*
X74345238Y-133716666D01*
X74383333Y-133640476D01*
X74383333Y-133564285D01*
X74345238Y-133488095D01*
X74307142Y-133450000D01*
X74230952Y-133411904D01*
X74040476Y-133411904D01*
X73926190Y-133450000D01*
X73316666Y-133792857D02*
X73583333Y-133792857D01*
X73583333Y-134211904D02*
X73583333Y-133411904D01*
X73202380Y-133411904D01*
X72935714Y-134173809D02*
X72821428Y-134211904D01*
X72630952Y-134211904D01*
X72554761Y-134173809D01*
X72516666Y-134135714D01*
X72478571Y-134059523D01*
X72478571Y-133983333D01*
X72516666Y-133907142D01*
X72554761Y-133869047D01*
X72630952Y-133830952D01*
X72783333Y-133792857D01*
X72859523Y-133754761D01*
X72897619Y-133716666D01*
X72935714Y-133640476D01*
X72935714Y-133564285D01*
X72897619Y-133488095D01*
X72859523Y-133450000D01*
X72783333Y-133411904D01*
X72592857Y-133411904D01*
X72478571Y-133450000D01*
X72173809Y-134173809D02*
X72059523Y-134211904D01*
X71869047Y-134211904D01*
X71792857Y-134173809D01*
X71754761Y-134135714D01*
X71716666Y-134059523D01*
X71716666Y-133983333D01*
X71754761Y-133907142D01*
X71792857Y-133869047D01*
X71869047Y-133830952D01*
X72021428Y-133792857D01*
X72097619Y-133754761D01*
X72135714Y-133716666D01*
X72173809Y-133640476D01*
X72173809Y-133564285D01*
X72135714Y-133488095D01*
X72097619Y-133450000D01*
X72021428Y-133411904D01*
X71830952Y-133411904D01*
X71716666Y-133450000D01*
X71373809Y-134211904D02*
X71373809Y-133411904D01*
X71373809Y-133792857D02*
X70916666Y-133792857D01*
X70916666Y-134211904D02*
X70916666Y-133411904D01*
X70573809Y-134173809D02*
X70459523Y-134211904D01*
X70269047Y-134211904D01*
X70192857Y-134173809D01*
X70154761Y-134135714D01*
X70116666Y-134059523D01*
X70116666Y-133983333D01*
X70154761Y-133907142D01*
X70192857Y-133869047D01*
X70269047Y-133830952D01*
X70421428Y-133792857D01*
X70497619Y-133754761D01*
X70535714Y-133716666D01*
X70573809Y-133640476D01*
X70573809Y-133564285D01*
X70535714Y-133488095D01*
X70497619Y-133450000D01*
X70421428Y-133411904D01*
X70230952Y-133411904D01*
X70116666Y-133450000D01*
D11*
%TO.C,C3*%
X74938748Y-114265000D02*
X75461252Y-114265000D01*
X74938748Y-115735000D02*
X75461252Y-115735000D01*
%TO.C,C10*%
X71111252Y-115735000D02*
X70588748Y-115735000D01*
X71111252Y-114265000D02*
X70588748Y-114265000D01*
%TO.C,J1*%
X67530000Y-100370000D02*
X66200000Y-100370000D01*
X67530000Y-101700000D02*
X67530000Y-100370000D01*
X67530000Y-102970000D02*
X64870000Y-102970000D01*
X64870000Y-102970000D02*
X64870000Y-105570000D01*
X67530000Y-102970000D02*
X67530000Y-105570000D01*
X67530000Y-105570000D02*
X64870000Y-105570000D01*
%TO.C,J3*%
X67530000Y-129620000D02*
X64870000Y-129620000D01*
X67530000Y-127020000D02*
X67530000Y-129620000D01*
X64870000Y-127020000D02*
X64870000Y-129620000D01*
X67530000Y-127020000D02*
X64870000Y-127020000D01*
X67530000Y-125750000D02*
X67530000Y-124420000D01*
X67530000Y-124420000D02*
X66200000Y-124420000D01*
%TO.C,J2*%
X97830000Y-108595000D02*
X96500000Y-108595000D01*
X97830000Y-109925000D02*
X97830000Y-108595000D01*
X97830000Y-111195000D02*
X95170000Y-111195000D01*
X95170000Y-111195000D02*
X95170000Y-121415000D01*
X97830000Y-111195000D02*
X97830000Y-121415000D01*
X97830000Y-121415000D02*
X95170000Y-121415000D01*
%TO.C,C1*%
X91113748Y-117140000D02*
X91636252Y-117140000D01*
X91113748Y-118610000D02*
X91636252Y-118610000D01*
%TO.C,C4*%
X84811252Y-118610000D02*
X84288748Y-118610000D01*
X84811252Y-117140000D02*
X84288748Y-117140000D01*
%TO.C,C9*%
X85411252Y-112810000D02*
X84888748Y-112810000D01*
X85411252Y-111340000D02*
X84888748Y-111340000D01*
%TO.C,C2*%
X91713748Y-111340000D02*
X92236252Y-111340000D01*
X91713748Y-112810000D02*
X92236252Y-112810000D01*
%TO.C,C11*%
X78275000Y-127686252D02*
X78275000Y-127163748D01*
X79745000Y-127686252D02*
X79745000Y-127163748D01*
%TO.C,C12*%
X91136252Y-131585000D02*
X90613748Y-131585000D01*
X91136252Y-130115000D02*
X90613748Y-130115000D01*
%TO.C,C16*%
X84075000Y-128286252D02*
X84075000Y-127763748D01*
X85545000Y-128286252D02*
X85545000Y-127763748D01*
%TO.C,C17*%
X91213748Y-124315000D02*
X91736252Y-124315000D01*
X91213748Y-125785000D02*
X91736252Y-125785000D01*
%TO.C,C18*%
X78275000Y-101096252D02*
X78275000Y-100573748D01*
X79745000Y-101096252D02*
X79745000Y-100573748D01*
%TO.C,C19*%
X91136252Y-104995000D02*
X90613748Y-104995000D01*
X91136252Y-103525000D02*
X90613748Y-103525000D01*
%TO.C,C23*%
X84075000Y-101696252D02*
X84075000Y-101173748D01*
X85545000Y-101696252D02*
X85545000Y-101173748D01*
%TO.C,C24*%
X91213748Y-97725000D02*
X91736252Y-97725000D01*
X91213748Y-99195000D02*
X91736252Y-99195000D01*
%TO.C,R37*%
X91357064Y-101255000D02*
X90902936Y-101255000D01*
X91357064Y-99785000D02*
X90902936Y-99785000D01*
%TO.C,R24*%
X91361064Y-127845000D02*
X90906936Y-127845000D01*
X91361064Y-126375000D02*
X90906936Y-126375000D01*
%TO.C,C3*%
D10*
X76486666Y-117027142D02*
X76534285Y-117074761D01*
X76677142Y-117122380D01*
X76772380Y-117122380D01*
X76915238Y-117074761D01*
X77010476Y-116979523D01*
X77058095Y-116884285D01*
X77105714Y-116693809D01*
X77105714Y-116550952D01*
X77058095Y-116360476D01*
X77010476Y-116265238D01*
X76915238Y-116170000D01*
X76772380Y-116122380D01*
X76677142Y-116122380D01*
X76534285Y-116170000D01*
X76486666Y-116217619D01*
X76153333Y-116122380D02*
X75534285Y-116122380D01*
X75867619Y-116503333D01*
X75724761Y-116503333D01*
X75629523Y-116550952D01*
X75581904Y-116598571D01*
X75534285Y-116693809D01*
X75534285Y-116931904D01*
X75581904Y-117027142D01*
X75629523Y-117074761D01*
X75724761Y-117122380D01*
X76010476Y-117122380D01*
X76105714Y-117074761D01*
X76153333Y-117027142D01*
%TO.C,C10*%
X70212857Y-113607142D02*
X70260476Y-113654761D01*
X70403333Y-113702380D01*
X70498571Y-113702380D01*
X70641428Y-113654761D01*
X70736666Y-113559523D01*
X70784285Y-113464285D01*
X70831904Y-113273809D01*
X70831904Y-113130952D01*
X70784285Y-112940476D01*
X70736666Y-112845238D01*
X70641428Y-112750000D01*
X70498571Y-112702380D01*
X70403333Y-112702380D01*
X70260476Y-112750000D01*
X70212857Y-112797619D01*
X69260476Y-113702380D02*
X69831904Y-113702380D01*
X69546190Y-113702380D02*
X69546190Y-112702380D01*
X69641428Y-112845238D01*
X69736666Y-112940476D01*
X69831904Y-112988095D01*
X68641428Y-112702380D02*
X68546190Y-112702380D01*
X68450952Y-112750000D01*
X68403333Y-112797619D01*
X68355714Y-112892857D01*
X68308095Y-113083333D01*
X68308095Y-113321428D01*
X68355714Y-113511904D01*
X68403333Y-113607142D01*
X68450952Y-113654761D01*
X68546190Y-113702380D01*
X68641428Y-113702380D01*
X68736666Y-113654761D01*
X68784285Y-113607142D01*
X68831904Y-113511904D01*
X68879523Y-113321428D01*
X68879523Y-113083333D01*
X68831904Y-112892857D01*
X68784285Y-112797619D01*
X68736666Y-112750000D01*
X68641428Y-112702380D01*
%TO.C,J1*%
X66533333Y-98822380D02*
X66533333Y-99536666D01*
X66580952Y-99679523D01*
X66676190Y-99774761D01*
X66819047Y-99822380D01*
X66914285Y-99822380D01*
X65533333Y-99822380D02*
X66104761Y-99822380D01*
X65819047Y-99822380D02*
X65819047Y-98822380D01*
X65914285Y-98965238D01*
X66009523Y-99060476D01*
X66104761Y-99108095D01*
%TO.C,J3*%
X66533333Y-122872380D02*
X66533333Y-123586666D01*
X66580952Y-123729523D01*
X66676190Y-123824761D01*
X66819047Y-123872380D01*
X66914285Y-123872380D01*
X66152380Y-122872380D02*
X65533333Y-122872380D01*
X65866666Y-123253333D01*
X65723809Y-123253333D01*
X65628571Y-123300952D01*
X65580952Y-123348571D01*
X65533333Y-123443809D01*
X65533333Y-123681904D01*
X65580952Y-123777142D01*
X65628571Y-123824761D01*
X65723809Y-123872380D01*
X66009523Y-123872380D01*
X66104761Y-123824761D01*
X66152380Y-123777142D01*
%TO.C,J2*%
X96833333Y-107047380D02*
X96833333Y-107761666D01*
X96880952Y-107904523D01*
X96976190Y-107999761D01*
X97119047Y-108047380D01*
X97214285Y-108047380D01*
X96404761Y-107142619D02*
X96357142Y-107095000D01*
X96261904Y-107047380D01*
X96023809Y-107047380D01*
X95928571Y-107095000D01*
X95880952Y-107142619D01*
X95833333Y-107237857D01*
X95833333Y-107333095D01*
X95880952Y-107475952D01*
X96452380Y-108047380D01*
X95833333Y-108047380D01*
%TO.C,C1*%
X91541666Y-119912142D02*
X91589285Y-119959761D01*
X91732142Y-120007380D01*
X91827380Y-120007380D01*
X91970238Y-119959761D01*
X92065476Y-119864523D01*
X92113095Y-119769285D01*
X92160714Y-119578809D01*
X92160714Y-119435952D01*
X92113095Y-119245476D01*
X92065476Y-119150238D01*
X91970238Y-119055000D01*
X91827380Y-119007380D01*
X91732142Y-119007380D01*
X91589285Y-119055000D01*
X91541666Y-119102619D01*
X90589285Y-120007380D02*
X91160714Y-120007380D01*
X90875000Y-120007380D02*
X90875000Y-119007380D01*
X90970238Y-119150238D01*
X91065476Y-119245476D01*
X91160714Y-119293095D01*
%TO.C,C4*%
X86466666Y-116547142D02*
X86514285Y-116594761D01*
X86657142Y-116642380D01*
X86752380Y-116642380D01*
X86895238Y-116594761D01*
X86990476Y-116499523D01*
X87038095Y-116404285D01*
X87085714Y-116213809D01*
X87085714Y-116070952D01*
X87038095Y-115880476D01*
X86990476Y-115785238D01*
X86895238Y-115690000D01*
X86752380Y-115642380D01*
X86657142Y-115642380D01*
X86514285Y-115690000D01*
X86466666Y-115737619D01*
X85609523Y-115975714D02*
X85609523Y-116642380D01*
X85847619Y-115594761D02*
X86085714Y-116309047D01*
X85466666Y-116309047D01*
%TO.C,C9*%
X85316666Y-110752142D02*
X85364285Y-110799761D01*
X85507142Y-110847380D01*
X85602380Y-110847380D01*
X85745238Y-110799761D01*
X85840476Y-110704523D01*
X85888095Y-110609285D01*
X85935714Y-110418809D01*
X85935714Y-110275952D01*
X85888095Y-110085476D01*
X85840476Y-109990238D01*
X85745238Y-109895000D01*
X85602380Y-109847380D01*
X85507142Y-109847380D01*
X85364285Y-109895000D01*
X85316666Y-109942619D01*
X84840476Y-110847380D02*
X84650000Y-110847380D01*
X84554761Y-110799761D01*
X84507142Y-110752142D01*
X84411904Y-110609285D01*
X84364285Y-110418809D01*
X84364285Y-110037857D01*
X84411904Y-109942619D01*
X84459523Y-109895000D01*
X84554761Y-109847380D01*
X84745238Y-109847380D01*
X84840476Y-109895000D01*
X84888095Y-109942619D01*
X84935714Y-110037857D01*
X84935714Y-110275952D01*
X84888095Y-110371190D01*
X84840476Y-110418809D01*
X84745238Y-110466428D01*
X84554761Y-110466428D01*
X84459523Y-110418809D01*
X84411904Y-110371190D01*
X84364285Y-110275952D01*
%TO.C,C2*%
X92206666Y-110797142D02*
X92254285Y-110844761D01*
X92397142Y-110892380D01*
X92492380Y-110892380D01*
X92635238Y-110844761D01*
X92730476Y-110749523D01*
X92778095Y-110654285D01*
X92825714Y-110463809D01*
X92825714Y-110320952D01*
X92778095Y-110130476D01*
X92730476Y-110035238D01*
X92635238Y-109940000D01*
X92492380Y-109892380D01*
X92397142Y-109892380D01*
X92254285Y-109940000D01*
X92206666Y-109987619D01*
X91825714Y-109987619D02*
X91778095Y-109940000D01*
X91682857Y-109892380D01*
X91444761Y-109892380D01*
X91349523Y-109940000D01*
X91301904Y-109987619D01*
X91254285Y-110082857D01*
X91254285Y-110178095D01*
X91301904Y-110320952D01*
X91873333Y-110892380D01*
X91254285Y-110892380D01*
%TO.C,C11*%
X79312857Y-125387142D02*
X79360476Y-125434761D01*
X79503333Y-125482380D01*
X79598571Y-125482380D01*
X79741428Y-125434761D01*
X79836666Y-125339523D01*
X79884285Y-125244285D01*
X79931904Y-125053809D01*
X79931904Y-124910952D01*
X79884285Y-124720476D01*
X79836666Y-124625238D01*
X79741428Y-124530000D01*
X79598571Y-124482380D01*
X79503333Y-124482380D01*
X79360476Y-124530000D01*
X79312857Y-124577619D01*
X78360476Y-125482380D02*
X78931904Y-125482380D01*
X78646190Y-125482380D02*
X78646190Y-124482380D01*
X78741428Y-124625238D01*
X78836666Y-124720476D01*
X78931904Y-124768095D01*
X77408095Y-125482380D02*
X77979523Y-125482380D01*
X77693809Y-125482380D02*
X77693809Y-124482380D01*
X77789047Y-124625238D01*
X77884285Y-124720476D01*
X77979523Y-124768095D01*
%TO.C,C12*%
X94722857Y-131267142D02*
X94770476Y-131314761D01*
X94913333Y-131362380D01*
X95008571Y-131362380D01*
X95151428Y-131314761D01*
X95246666Y-131219523D01*
X95294285Y-131124285D01*
X95341904Y-130933809D01*
X95341904Y-130790952D01*
X95294285Y-130600476D01*
X95246666Y-130505238D01*
X95151428Y-130410000D01*
X95008571Y-130362380D01*
X94913333Y-130362380D01*
X94770476Y-130410000D01*
X94722857Y-130457619D01*
X93770476Y-131362380D02*
X94341904Y-131362380D01*
X94056190Y-131362380D02*
X94056190Y-130362380D01*
X94151428Y-130505238D01*
X94246666Y-130600476D01*
X94341904Y-130648095D01*
X93389523Y-130457619D02*
X93341904Y-130410000D01*
X93246666Y-130362380D01*
X93008571Y-130362380D01*
X92913333Y-130410000D01*
X92865714Y-130457619D01*
X92818095Y-130552857D01*
X92818095Y-130648095D01*
X92865714Y-130790952D01*
X93437142Y-131362380D01*
X92818095Y-131362380D01*
%TO.C,C16*%
X88212857Y-129257142D02*
X88260476Y-129304761D01*
X88403333Y-129352380D01*
X88498571Y-129352380D01*
X88641428Y-129304761D01*
X88736666Y-129209523D01*
X88784285Y-129114285D01*
X88831904Y-128923809D01*
X88831904Y-128780952D01*
X88784285Y-128590476D01*
X88736666Y-128495238D01*
X88641428Y-128400000D01*
X88498571Y-128352380D01*
X88403333Y-128352380D01*
X88260476Y-128400000D01*
X88212857Y-128447619D01*
X87260476Y-129352380D02*
X87831904Y-129352380D01*
X87546190Y-129352380D02*
X87546190Y-128352380D01*
X87641428Y-128495238D01*
X87736666Y-128590476D01*
X87831904Y-128638095D01*
X86403333Y-128352380D02*
X86593809Y-128352380D01*
X86689047Y-128400000D01*
X86736666Y-128447619D01*
X86831904Y-128590476D01*
X86879523Y-128780952D01*
X86879523Y-129161904D01*
X86831904Y-129257142D01*
X86784285Y-129304761D01*
X86689047Y-129352380D01*
X86498571Y-129352380D01*
X86403333Y-129304761D01*
X86355714Y-129257142D01*
X86308095Y-129161904D01*
X86308095Y-128923809D01*
X86355714Y-128828571D01*
X86403333Y-128780952D01*
X86498571Y-128733333D01*
X86689047Y-128733333D01*
X86784285Y-128780952D01*
X86831904Y-128828571D01*
X86879523Y-128923809D01*
%TO.C,C17*%
X89192857Y-124427142D02*
X89240476Y-124474761D01*
X89383333Y-124522380D01*
X89478571Y-124522380D01*
X89621428Y-124474761D01*
X89716666Y-124379523D01*
X89764285Y-124284285D01*
X89811904Y-124093809D01*
X89811904Y-123950952D01*
X89764285Y-123760476D01*
X89716666Y-123665238D01*
X89621428Y-123570000D01*
X89478571Y-123522380D01*
X89383333Y-123522380D01*
X89240476Y-123570000D01*
X89192857Y-123617619D01*
X88240476Y-124522380D02*
X88811904Y-124522380D01*
X88526190Y-124522380D02*
X88526190Y-123522380D01*
X88621428Y-123665238D01*
X88716666Y-123760476D01*
X88811904Y-123808095D01*
X87907142Y-123522380D02*
X87240476Y-123522380D01*
X87669047Y-124522380D01*
%TO.C,C18*%
X79742857Y-98757142D02*
X79790476Y-98804761D01*
X79933333Y-98852380D01*
X80028571Y-98852380D01*
X80171428Y-98804761D01*
X80266666Y-98709523D01*
X80314285Y-98614285D01*
X80361904Y-98423809D01*
X80361904Y-98280952D01*
X80314285Y-98090476D01*
X80266666Y-97995238D01*
X80171428Y-97900000D01*
X80028571Y-97852380D01*
X79933333Y-97852380D01*
X79790476Y-97900000D01*
X79742857Y-97947619D01*
X78790476Y-98852380D02*
X79361904Y-98852380D01*
X79076190Y-98852380D02*
X79076190Y-97852380D01*
X79171428Y-97995238D01*
X79266666Y-98090476D01*
X79361904Y-98138095D01*
X78219047Y-98280952D02*
X78314285Y-98233333D01*
X78361904Y-98185714D01*
X78409523Y-98090476D01*
X78409523Y-98042857D01*
X78361904Y-97947619D01*
X78314285Y-97900000D01*
X78219047Y-97852380D01*
X78028571Y-97852380D01*
X77933333Y-97900000D01*
X77885714Y-97947619D01*
X77838095Y-98042857D01*
X77838095Y-98090476D01*
X77885714Y-98185714D01*
X77933333Y-98233333D01*
X78028571Y-98280952D01*
X78219047Y-98280952D01*
X78314285Y-98328571D01*
X78361904Y-98376190D01*
X78409523Y-98471428D01*
X78409523Y-98661904D01*
X78361904Y-98757142D01*
X78314285Y-98804761D01*
X78219047Y-98852380D01*
X78028571Y-98852380D01*
X77933333Y-98804761D01*
X77885714Y-98757142D01*
X77838095Y-98661904D01*
X77838095Y-98471428D01*
X77885714Y-98376190D01*
X77933333Y-98328571D01*
X78028571Y-98280952D01*
%TO.C,C19*%
X90602857Y-106367142D02*
X90650476Y-106414761D01*
X90793333Y-106462380D01*
X90888571Y-106462380D01*
X91031428Y-106414761D01*
X91126666Y-106319523D01*
X91174285Y-106224285D01*
X91221904Y-106033809D01*
X91221904Y-105890952D01*
X91174285Y-105700476D01*
X91126666Y-105605238D01*
X91031428Y-105510000D01*
X90888571Y-105462380D01*
X90793333Y-105462380D01*
X90650476Y-105510000D01*
X90602857Y-105557619D01*
X89650476Y-106462380D02*
X90221904Y-106462380D01*
X89936190Y-106462380D02*
X89936190Y-105462380D01*
X90031428Y-105605238D01*
X90126666Y-105700476D01*
X90221904Y-105748095D01*
X89174285Y-106462380D02*
X88983809Y-106462380D01*
X88888571Y-106414761D01*
X88840952Y-106367142D01*
X88745714Y-106224285D01*
X88698095Y-106033809D01*
X88698095Y-105652857D01*
X88745714Y-105557619D01*
X88793333Y-105510000D01*
X88888571Y-105462380D01*
X89079047Y-105462380D01*
X89174285Y-105510000D01*
X89221904Y-105557619D01*
X89269523Y-105652857D01*
X89269523Y-105890952D01*
X89221904Y-105986190D01*
X89174285Y-106033809D01*
X89079047Y-106081428D01*
X88888571Y-106081428D01*
X88793333Y-106033809D01*
X88745714Y-105986190D01*
X88698095Y-105890952D01*
%TO.C,C23*%
X85602857Y-104217142D02*
X85650476Y-104264761D01*
X85793333Y-104312380D01*
X85888571Y-104312380D01*
X86031428Y-104264761D01*
X86126666Y-104169523D01*
X86174285Y-104074285D01*
X86221904Y-103883809D01*
X86221904Y-103740952D01*
X86174285Y-103550476D01*
X86126666Y-103455238D01*
X86031428Y-103360000D01*
X85888571Y-103312380D01*
X85793333Y-103312380D01*
X85650476Y-103360000D01*
X85602857Y-103407619D01*
X85221904Y-103407619D02*
X85174285Y-103360000D01*
X85079047Y-103312380D01*
X84840952Y-103312380D01*
X84745714Y-103360000D01*
X84698095Y-103407619D01*
X84650476Y-103502857D01*
X84650476Y-103598095D01*
X84698095Y-103740952D01*
X85269523Y-104312380D01*
X84650476Y-104312380D01*
X84317142Y-103312380D02*
X83698095Y-103312380D01*
X84031428Y-103693333D01*
X83888571Y-103693333D01*
X83793333Y-103740952D01*
X83745714Y-103788571D01*
X83698095Y-103883809D01*
X83698095Y-104121904D01*
X83745714Y-104217142D01*
X83793333Y-104264761D01*
X83888571Y-104312380D01*
X84174285Y-104312380D01*
X84269523Y-104264761D01*
X84317142Y-104217142D01*
%TO.C,C24*%
X95402857Y-98727142D02*
X95450476Y-98774761D01*
X95593333Y-98822380D01*
X95688571Y-98822380D01*
X95831428Y-98774761D01*
X95926666Y-98679523D01*
X95974285Y-98584285D01*
X96021904Y-98393809D01*
X96021904Y-98250952D01*
X95974285Y-98060476D01*
X95926666Y-97965238D01*
X95831428Y-97870000D01*
X95688571Y-97822380D01*
X95593333Y-97822380D01*
X95450476Y-97870000D01*
X95402857Y-97917619D01*
X95021904Y-97917619D02*
X94974285Y-97870000D01*
X94879047Y-97822380D01*
X94640952Y-97822380D01*
X94545714Y-97870000D01*
X94498095Y-97917619D01*
X94450476Y-98012857D01*
X94450476Y-98108095D01*
X94498095Y-98250952D01*
X95069523Y-98822380D01*
X94450476Y-98822380D01*
X93593333Y-98155714D02*
X93593333Y-98822380D01*
X93831428Y-97774761D02*
X94069523Y-98489047D01*
X93450476Y-98489047D01*
%TO.C,R37*%
X94952857Y-101012380D02*
X95286190Y-100536190D01*
X95524285Y-101012380D02*
X95524285Y-100012380D01*
X95143333Y-100012380D01*
X95048095Y-100060000D01*
X95000476Y-100107619D01*
X94952857Y-100202857D01*
X94952857Y-100345714D01*
X95000476Y-100440952D01*
X95048095Y-100488571D01*
X95143333Y-100536190D01*
X95524285Y-100536190D01*
X94619523Y-100012380D02*
X94000476Y-100012380D01*
X94333809Y-100393333D01*
X94190952Y-100393333D01*
X94095714Y-100440952D01*
X94048095Y-100488571D01*
X94000476Y-100583809D01*
X94000476Y-100821904D01*
X94048095Y-100917142D01*
X94095714Y-100964761D01*
X94190952Y-101012380D01*
X94476666Y-101012380D01*
X94571904Y-100964761D01*
X94619523Y-100917142D01*
X93667142Y-100012380D02*
X93000476Y-100012380D01*
X93429047Y-101012380D01*
%TO.C,R24*%
X88652857Y-127512380D02*
X88986190Y-127036190D01*
X89224285Y-127512380D02*
X89224285Y-126512380D01*
X88843333Y-126512380D01*
X88748095Y-126560000D01*
X88700476Y-126607619D01*
X88652857Y-126702857D01*
X88652857Y-126845714D01*
X88700476Y-126940952D01*
X88748095Y-126988571D01*
X88843333Y-127036190D01*
X89224285Y-127036190D01*
X88271904Y-126607619D02*
X88224285Y-126560000D01*
X88129047Y-126512380D01*
X87890952Y-126512380D01*
X87795714Y-126560000D01*
X87748095Y-126607619D01*
X87700476Y-126702857D01*
X87700476Y-126798095D01*
X87748095Y-126940952D01*
X88319523Y-127512380D01*
X87700476Y-127512380D01*
X86843333Y-126845714D02*
X86843333Y-127512380D01*
X87081428Y-126464761D02*
X87319523Y-127179047D01*
X86700476Y-127179047D01*
%TD*%
M02*
