%TF.GenerationSoftware,KiCad,Pcbnew,5.1.12-84ad8e8a86~92~ubuntu20.04.1*%
%TF.CreationDate,2022-02-03T20:06:24-05:00*%
%TF.ProjectId,emg-filter,656d672d-6669-46c7-9465-722e6b696361,rev?*%
%TF.SameCoordinates,Original*%
%TF.FileFunction,Copper,L3,Inr*%
%TF.FilePolarity,Positive*%
%FSLAX46Y46*%
G04 Gerber Fmt 4.6, Leading zero omitted, Abs format (unit mm)*
G04 Created by KiCad (PCBNEW 5.1.12-84ad8e8a86~92~ubuntu20.04.1) date 2022-02-03 20:06:24*
%MOMM*%
%LPD*%
G01*
G04 APERTURE LIST*
%TA.AperFunction,ComponentPad*%
%ADD10O,1.700000X1.700000*%
%TD*%
%TA.AperFunction,ComponentPad*%
%ADD11R,1.700000X1.700000*%
%TD*%
%TA.AperFunction,ComponentPad*%
%ADD12C,3.500000*%
%TD*%
%TA.AperFunction,ViaPad*%
%ADD13C,0.800000*%
%TD*%
%TA.AperFunction,Conductor*%
%ADD14C,0.254000*%
%TD*%
%TA.AperFunction,Conductor*%
%ADD15C,0.100000*%
%TD*%
G04 APERTURE END LIST*
D10*
%TO.N,/emg_module/REF_A*%
%TO.C,J1*%
X66200000Y-104240000D03*
D11*
%TO.N,/emg_module/+VIN_A*%
X66200000Y-101700000D03*
%TD*%
%TO.N,/emg_module/REF_B*%
%TO.C,J3*%
X66200000Y-125750000D03*
D10*
%TO.N,/emg_module/-VIN_B*%
X66200000Y-128290000D03*
%TD*%
D12*
%TO.N,GND*%
%TO.C,J4*%
X54500000Y-100000000D03*
%TO.N,/emg_module/+VIN_A*%
X59800000Y-100000000D03*
%TD*%
%TO.N,GND*%
%TO.C,J5*%
X54500000Y-106000000D03*
%TO.N,/emg_module/REF_A*%
X59800000Y-106000000D03*
%TD*%
%TO.N,GND*%
%TO.C,J6*%
X54500000Y-112000000D03*
%TO.N,/emg_module/sheet625420FC/-VIN_A_INA*%
X59800000Y-112000000D03*
%TD*%
D10*
%TO.N,/emg_module/REF_B*%
%TO.C,J8*%
X79750000Y-116300000D03*
D11*
%TO.N,/emg_module/REF_A*%
X79750000Y-113760000D03*
%TD*%
D12*
%TO.N,GND*%
%TO.C,J9*%
X54500000Y-118000000D03*
%TO.N,/emg_module/sheet625420FC/+VIN_B_INA*%
X59800000Y-118000000D03*
%TD*%
D10*
%TO.N,-5V*%
%TO.C,J2*%
X96500000Y-120085000D03*
%TO.N,/emg_module/OUT_B*%
X96500000Y-117545000D03*
%TO.N,GND*%
X96500000Y-115005000D03*
%TO.N,/emg_module/OUT_A*%
X96500000Y-112465000D03*
D11*
%TO.N,+5V*%
X96500000Y-109925000D03*
%TD*%
D10*
%TO.N,/emg_module/sheet625420FC/-VIN_A_INA*%
%TO.C,J7*%
X66200000Y-113750000D03*
D11*
%TO.N,/emg_module/sheet625420FC/+VIN_B_INA*%
X66200000Y-116290000D03*
%TD*%
D12*
%TO.N,GND*%
%TO.C,J10*%
X54500000Y-124000000D03*
%TO.N,/emg_module/REF_B*%
X59800000Y-124000000D03*
%TD*%
%TO.N,GND*%
%TO.C,J11*%
X54500000Y-130000000D03*
%TO.N,/emg_module/-VIN_B*%
X59800000Y-130000000D03*
%TD*%
D13*
%TO.N,-5V*%
X82800000Y-112075000D03*
X89625000Y-112075000D03*
X84810000Y-125675000D03*
X89125000Y-125050000D03*
X84810000Y-99085000D03*
X89125000Y-98460000D03*
X68500000Y-115000000D03*
%TO.N,GND*%
X76050000Y-118550000D03*
X87250000Y-105225000D03*
X73425000Y-121975000D03*
X86550000Y-123860000D03*
X90525000Y-133525000D03*
X90525000Y-96450000D03*
X73425000Y-107950000D03*
X65350000Y-121950000D03*
X65350000Y-107950000D03*
X76050000Y-111450000D03*
X79000000Y-107150000D03*
X79000000Y-122975002D03*
%TO.N,+5V*%
X77500000Y-115000000D03*
X77500000Y-112749990D03*
X77500000Y-117250000D03*
X93725000Y-117875000D03*
X79010000Y-129775000D03*
X92150000Y-132475000D03*
X79010000Y-103185000D03*
X92150000Y-105885000D03*
X86900000Y-117875000D03*
%TO.N,/emg_module/sheet625420F9/BP_NOTCH*%
X87625000Y-121950000D03*
X71974996Y-128300000D03*
%TO.N,/emg_module/sheet625420FA/BP_NOTCH*%
X88275000Y-108050000D03*
X71974996Y-101710000D03*
%TO.N,/emg_module/sheet625420F9/RECT_AMP*%
X91025000Y-116050000D03*
X92000000Y-128875000D03*
X93750000Y-128300000D03*
%TO.N,/emg_module/sheet625420FA/RECT_AMP*%
X91025000Y-113925000D03*
X92000000Y-102285000D03*
X93750000Y-101710000D03*
%TO.N,/emg_module/OUT_A*%
X92325000Y-113925000D03*
%TO.N,/emg_module/OUT_B*%
X92325000Y-116065000D03*
%TO.N,/emg_module/REF_A*%
X73500004Y-113500000D03*
%TO.N,/emg_module/REF_B*%
X73499999Y-116500000D03*
%TO.N,/emg_module/sheet625420FC/+VIN_B_INA*%
X71700000Y-116550002D03*
%TO.N,Net-(C5-Pad2)*%
X84850000Y-113750000D03*
%TO.N,Net-(C8-Pad2)*%
X84850000Y-116200000D03*
%TO.N,Net-(C15-Pad1)*%
X75075000Y-127400000D03*
X82650000Y-127400000D03*
%TO.N,Net-(C22-Pad1)*%
X75075000Y-100810000D03*
X82650000Y-100810000D03*
%TO.N,Net-(R22-Pad1)*%
X90275000Y-128875000D03*
%TO.N,Net-(R35-Pad1)*%
X90275000Y-102285000D03*
%TO.N,/emg_module/sheet625420FC/-VIN_A_INA*%
X71825000Y-113400000D03*
%TD*%
D14*
%TO.N,-5V*%
X89721063Y-95790226D02*
X89607795Y-95959744D01*
X89529774Y-96148102D01*
X89490000Y-96348061D01*
X89490000Y-96551939D01*
X89529774Y-96751898D01*
X89607795Y-96940256D01*
X89721063Y-97109774D01*
X89865226Y-97253937D01*
X90034744Y-97367205D01*
X90223102Y-97445226D01*
X90423061Y-97485000D01*
X90626939Y-97485000D01*
X90826898Y-97445226D01*
X91015256Y-97367205D01*
X91184774Y-97253937D01*
X91328937Y-97109774D01*
X91442205Y-96940256D01*
X91520226Y-96751898D01*
X91560000Y-96551939D01*
X91560000Y-96348061D01*
X91520226Y-96148102D01*
X91442205Y-95959744D01*
X91328937Y-95790226D01*
X91198711Y-95660000D01*
X98840000Y-95660000D01*
X98840001Y-134340000D01*
X91168217Y-134340000D01*
X91184774Y-134328937D01*
X91328937Y-134184774D01*
X91442205Y-134015256D01*
X91520226Y-133826898D01*
X91560000Y-133626939D01*
X91560000Y-133423061D01*
X91537633Y-133310613D01*
X91659744Y-133392205D01*
X91848102Y-133470226D01*
X92048061Y-133510000D01*
X92251939Y-133510000D01*
X92451898Y-133470226D01*
X92640256Y-133392205D01*
X92809774Y-133278937D01*
X92953937Y-133134774D01*
X93067205Y-132965256D01*
X93145226Y-132776898D01*
X93185000Y-132576939D01*
X93185000Y-132373061D01*
X93145226Y-132173102D01*
X93067205Y-131984744D01*
X92953937Y-131815226D01*
X92809774Y-131671063D01*
X92640256Y-131557795D01*
X92451898Y-131479774D01*
X92251939Y-131440000D01*
X92048061Y-131440000D01*
X91848102Y-131479774D01*
X91659744Y-131557795D01*
X91490226Y-131671063D01*
X91346063Y-131815226D01*
X91232795Y-131984744D01*
X91154774Y-132173102D01*
X91115000Y-132373061D01*
X91115000Y-132576939D01*
X91137367Y-132689387D01*
X91015256Y-132607795D01*
X90826898Y-132529774D01*
X90626939Y-132490000D01*
X90423061Y-132490000D01*
X90223102Y-132529774D01*
X90034744Y-132607795D01*
X89865226Y-132721063D01*
X89721063Y-132865226D01*
X89607795Y-133034744D01*
X89529774Y-133223102D01*
X89490000Y-133423061D01*
X89490000Y-133626939D01*
X89529774Y-133826898D01*
X89607795Y-134015256D01*
X89721063Y-134184774D01*
X89865226Y-134328937D01*
X89881783Y-134340000D01*
X50160000Y-134340000D01*
X50160000Y-129765098D01*
X52115000Y-129765098D01*
X52115000Y-130234902D01*
X52206654Y-130695679D01*
X52386440Y-131129721D01*
X52647450Y-131520349D01*
X52979651Y-131852550D01*
X53370279Y-132113560D01*
X53804321Y-132293346D01*
X54265098Y-132385000D01*
X54734902Y-132385000D01*
X55195679Y-132293346D01*
X55629721Y-132113560D01*
X56020349Y-131852550D01*
X56352550Y-131520349D01*
X56613560Y-131129721D01*
X56793346Y-130695679D01*
X56885000Y-130234902D01*
X56885000Y-129765098D01*
X57415000Y-129765098D01*
X57415000Y-130234902D01*
X57506654Y-130695679D01*
X57686440Y-131129721D01*
X57947450Y-131520349D01*
X58279651Y-131852550D01*
X58670279Y-132113560D01*
X59104321Y-132293346D01*
X59565098Y-132385000D01*
X60034902Y-132385000D01*
X60495679Y-132293346D01*
X60929721Y-132113560D01*
X61320349Y-131852550D01*
X61652550Y-131520349D01*
X61913560Y-131129721D01*
X62093346Y-130695679D01*
X62185000Y-130234902D01*
X62185000Y-129765098D01*
X62093346Y-129304321D01*
X61913560Y-128870279D01*
X61652550Y-128479651D01*
X61320349Y-128147450D01*
X60929721Y-127886440D01*
X60495679Y-127706654D01*
X60034902Y-127615000D01*
X59565098Y-127615000D01*
X59104321Y-127706654D01*
X58670279Y-127886440D01*
X58279651Y-128147450D01*
X57947450Y-128479651D01*
X57686440Y-128870279D01*
X57506654Y-129304321D01*
X57415000Y-129765098D01*
X56885000Y-129765098D01*
X56793346Y-129304321D01*
X56613560Y-128870279D01*
X56352550Y-128479651D01*
X56020349Y-128147450D01*
X55629721Y-127886440D01*
X55195679Y-127706654D01*
X54734902Y-127615000D01*
X54265098Y-127615000D01*
X53804321Y-127706654D01*
X53370279Y-127886440D01*
X52979651Y-128147450D01*
X52647450Y-128479651D01*
X52386440Y-128870279D01*
X52206654Y-129304321D01*
X52115000Y-129765098D01*
X50160000Y-129765098D01*
X50160000Y-123765098D01*
X52115000Y-123765098D01*
X52115000Y-124234902D01*
X52206654Y-124695679D01*
X52386440Y-125129721D01*
X52647450Y-125520349D01*
X52979651Y-125852550D01*
X53370279Y-126113560D01*
X53804321Y-126293346D01*
X54265098Y-126385000D01*
X54734902Y-126385000D01*
X55195679Y-126293346D01*
X55629721Y-126113560D01*
X56020349Y-125852550D01*
X56352550Y-125520349D01*
X56613560Y-125129721D01*
X56793346Y-124695679D01*
X56885000Y-124234902D01*
X56885000Y-123765098D01*
X57415000Y-123765098D01*
X57415000Y-124234902D01*
X57506654Y-124695679D01*
X57686440Y-125129721D01*
X57947450Y-125520349D01*
X58279651Y-125852550D01*
X58670279Y-126113560D01*
X59104321Y-126293346D01*
X59565098Y-126385000D01*
X60034902Y-126385000D01*
X60495679Y-126293346D01*
X60929721Y-126113560D01*
X61320349Y-125852550D01*
X61652550Y-125520349D01*
X61913560Y-125129721D01*
X62008713Y-124900000D01*
X64711928Y-124900000D01*
X64711928Y-126600000D01*
X64724188Y-126724482D01*
X64760498Y-126844180D01*
X64819463Y-126954494D01*
X64898815Y-127051185D01*
X64995506Y-127130537D01*
X65105820Y-127189502D01*
X65178380Y-127211513D01*
X65046525Y-127343368D01*
X64884010Y-127586589D01*
X64772068Y-127856842D01*
X64715000Y-128143740D01*
X64715000Y-128436260D01*
X64772068Y-128723158D01*
X64884010Y-128993411D01*
X65046525Y-129236632D01*
X65253368Y-129443475D01*
X65496589Y-129605990D01*
X65766842Y-129717932D01*
X66053740Y-129775000D01*
X66346260Y-129775000D01*
X66633158Y-129717932D01*
X66741486Y-129673061D01*
X77975000Y-129673061D01*
X77975000Y-129876939D01*
X78014774Y-130076898D01*
X78092795Y-130265256D01*
X78206063Y-130434774D01*
X78350226Y-130578937D01*
X78519744Y-130692205D01*
X78708102Y-130770226D01*
X78908061Y-130810000D01*
X79111939Y-130810000D01*
X79311898Y-130770226D01*
X79500256Y-130692205D01*
X79669774Y-130578937D01*
X79813937Y-130434774D01*
X79927205Y-130265256D01*
X80005226Y-130076898D01*
X80045000Y-129876939D01*
X80045000Y-129673061D01*
X80005226Y-129473102D01*
X79927205Y-129284744D01*
X79813937Y-129115226D01*
X79669774Y-128971063D01*
X79500256Y-128857795D01*
X79311898Y-128779774D01*
X79278150Y-128773061D01*
X89240000Y-128773061D01*
X89240000Y-128976939D01*
X89279774Y-129176898D01*
X89357795Y-129365256D01*
X89471063Y-129534774D01*
X89615226Y-129678937D01*
X89784744Y-129792205D01*
X89973102Y-129870226D01*
X90173061Y-129910000D01*
X90376939Y-129910000D01*
X90576898Y-129870226D01*
X90765256Y-129792205D01*
X90934774Y-129678937D01*
X91078937Y-129534774D01*
X91137500Y-129447128D01*
X91196063Y-129534774D01*
X91340226Y-129678937D01*
X91509744Y-129792205D01*
X91698102Y-129870226D01*
X91898061Y-129910000D01*
X92101939Y-129910000D01*
X92301898Y-129870226D01*
X92490256Y-129792205D01*
X92659774Y-129678937D01*
X92803937Y-129534774D01*
X92917205Y-129365256D01*
X92995226Y-129176898D01*
X93023092Y-129036803D01*
X93090226Y-129103937D01*
X93259744Y-129217205D01*
X93448102Y-129295226D01*
X93648061Y-129335000D01*
X93851939Y-129335000D01*
X94051898Y-129295226D01*
X94240256Y-129217205D01*
X94409774Y-129103937D01*
X94553937Y-128959774D01*
X94667205Y-128790256D01*
X94745226Y-128601898D01*
X94785000Y-128401939D01*
X94785000Y-128198061D01*
X94745226Y-127998102D01*
X94667205Y-127809744D01*
X94553937Y-127640226D01*
X94409774Y-127496063D01*
X94240256Y-127382795D01*
X94051898Y-127304774D01*
X93851939Y-127265000D01*
X93648061Y-127265000D01*
X93448102Y-127304774D01*
X93259744Y-127382795D01*
X93090226Y-127496063D01*
X92946063Y-127640226D01*
X92832795Y-127809744D01*
X92754774Y-127998102D01*
X92726908Y-128138197D01*
X92659774Y-128071063D01*
X92490256Y-127957795D01*
X92301898Y-127879774D01*
X92101939Y-127840000D01*
X91898061Y-127840000D01*
X91698102Y-127879774D01*
X91509744Y-127957795D01*
X91340226Y-128071063D01*
X91196063Y-128215226D01*
X91137500Y-128302872D01*
X91078937Y-128215226D01*
X90934774Y-128071063D01*
X90765256Y-127957795D01*
X90576898Y-127879774D01*
X90376939Y-127840000D01*
X90173061Y-127840000D01*
X89973102Y-127879774D01*
X89784744Y-127957795D01*
X89615226Y-128071063D01*
X89471063Y-128215226D01*
X89357795Y-128384744D01*
X89279774Y-128573102D01*
X89240000Y-128773061D01*
X79278150Y-128773061D01*
X79111939Y-128740000D01*
X78908061Y-128740000D01*
X78708102Y-128779774D01*
X78519744Y-128857795D01*
X78350226Y-128971063D01*
X78206063Y-129115226D01*
X78092795Y-129284744D01*
X78014774Y-129473102D01*
X77975000Y-129673061D01*
X66741486Y-129673061D01*
X66903411Y-129605990D01*
X67146632Y-129443475D01*
X67353475Y-129236632D01*
X67515990Y-128993411D01*
X67627932Y-128723158D01*
X67685000Y-128436260D01*
X67685000Y-128198061D01*
X70939996Y-128198061D01*
X70939996Y-128401939D01*
X70979770Y-128601898D01*
X71057791Y-128790256D01*
X71171059Y-128959774D01*
X71315222Y-129103937D01*
X71484740Y-129217205D01*
X71673098Y-129295226D01*
X71873057Y-129335000D01*
X72076935Y-129335000D01*
X72276894Y-129295226D01*
X72465252Y-129217205D01*
X72634770Y-129103937D01*
X72778933Y-128959774D01*
X72892201Y-128790256D01*
X72970222Y-128601898D01*
X73009996Y-128401939D01*
X73009996Y-128198061D01*
X72970222Y-127998102D01*
X72892201Y-127809744D01*
X72778933Y-127640226D01*
X72634770Y-127496063D01*
X72465252Y-127382795D01*
X72276894Y-127304774D01*
X72243146Y-127298061D01*
X74040000Y-127298061D01*
X74040000Y-127501939D01*
X74079774Y-127701898D01*
X74157795Y-127890256D01*
X74271063Y-128059774D01*
X74415226Y-128203937D01*
X74584744Y-128317205D01*
X74773102Y-128395226D01*
X74973061Y-128435000D01*
X75176939Y-128435000D01*
X75376898Y-128395226D01*
X75565256Y-128317205D01*
X75734774Y-128203937D01*
X75878937Y-128059774D01*
X75992205Y-127890256D01*
X76070226Y-127701898D01*
X76110000Y-127501939D01*
X76110000Y-127298061D01*
X81615000Y-127298061D01*
X81615000Y-127501939D01*
X81654774Y-127701898D01*
X81732795Y-127890256D01*
X81846063Y-128059774D01*
X81990226Y-128203937D01*
X82159744Y-128317205D01*
X82348102Y-128395226D01*
X82548061Y-128435000D01*
X82751939Y-128435000D01*
X82951898Y-128395226D01*
X83140256Y-128317205D01*
X83309774Y-128203937D01*
X83453937Y-128059774D01*
X83567205Y-127890256D01*
X83645226Y-127701898D01*
X83685000Y-127501939D01*
X83685000Y-127298061D01*
X83645226Y-127098102D01*
X83567205Y-126909744D01*
X83453937Y-126740226D01*
X83309774Y-126596063D01*
X83140256Y-126482795D01*
X82951898Y-126404774D01*
X82751939Y-126365000D01*
X82548061Y-126365000D01*
X82348102Y-126404774D01*
X82159744Y-126482795D01*
X81990226Y-126596063D01*
X81846063Y-126740226D01*
X81732795Y-126909744D01*
X81654774Y-127098102D01*
X81615000Y-127298061D01*
X76110000Y-127298061D01*
X76070226Y-127098102D01*
X75992205Y-126909744D01*
X75878937Y-126740226D01*
X75734774Y-126596063D01*
X75565256Y-126482795D01*
X75376898Y-126404774D01*
X75176939Y-126365000D01*
X74973061Y-126365000D01*
X74773102Y-126404774D01*
X74584744Y-126482795D01*
X74415226Y-126596063D01*
X74271063Y-126740226D01*
X74157795Y-126909744D01*
X74079774Y-127098102D01*
X74040000Y-127298061D01*
X72243146Y-127298061D01*
X72076935Y-127265000D01*
X71873057Y-127265000D01*
X71673098Y-127304774D01*
X71484740Y-127382795D01*
X71315222Y-127496063D01*
X71171059Y-127640226D01*
X71057791Y-127809744D01*
X70979770Y-127998102D01*
X70939996Y-128198061D01*
X67685000Y-128198061D01*
X67685000Y-128143740D01*
X67627932Y-127856842D01*
X67515990Y-127586589D01*
X67353475Y-127343368D01*
X67221620Y-127211513D01*
X67294180Y-127189502D01*
X67404494Y-127130537D01*
X67501185Y-127051185D01*
X67580537Y-126954494D01*
X67639502Y-126844180D01*
X67675812Y-126724482D01*
X67688072Y-126600000D01*
X67688072Y-124900000D01*
X67675812Y-124775518D01*
X67639502Y-124655820D01*
X67580537Y-124545506D01*
X67501185Y-124448815D01*
X67404494Y-124369463D01*
X67294180Y-124310498D01*
X67174482Y-124274188D01*
X67050000Y-124261928D01*
X65350000Y-124261928D01*
X65225518Y-124274188D01*
X65105820Y-124310498D01*
X64995506Y-124369463D01*
X64898815Y-124448815D01*
X64819463Y-124545506D01*
X64760498Y-124655820D01*
X64724188Y-124775518D01*
X64711928Y-124900000D01*
X62008713Y-124900000D01*
X62093346Y-124695679D01*
X62185000Y-124234902D01*
X62185000Y-123765098D01*
X62093346Y-123304321D01*
X61913560Y-122870279D01*
X61652550Y-122479651D01*
X61320349Y-122147450D01*
X60929721Y-121886440D01*
X60837066Y-121848061D01*
X64315000Y-121848061D01*
X64315000Y-122051939D01*
X64354774Y-122251898D01*
X64432795Y-122440256D01*
X64546063Y-122609774D01*
X64690226Y-122753937D01*
X64859744Y-122867205D01*
X65048102Y-122945226D01*
X65248061Y-122985000D01*
X65451939Y-122985000D01*
X65651898Y-122945226D01*
X65840256Y-122867205D01*
X66009774Y-122753937D01*
X66153937Y-122609774D01*
X66267205Y-122440256D01*
X66345226Y-122251898D01*
X66385000Y-122051939D01*
X66385000Y-121873061D01*
X72390000Y-121873061D01*
X72390000Y-122076939D01*
X72429774Y-122276898D01*
X72507795Y-122465256D01*
X72621063Y-122634774D01*
X72765226Y-122778937D01*
X72934744Y-122892205D01*
X73123102Y-122970226D01*
X73323061Y-123010000D01*
X73526939Y-123010000D01*
X73726898Y-122970226D01*
X73915256Y-122892205D01*
X73943904Y-122873063D01*
X77965000Y-122873063D01*
X77965000Y-123076941D01*
X78004774Y-123276900D01*
X78082795Y-123465258D01*
X78196063Y-123634776D01*
X78340226Y-123778939D01*
X78509744Y-123892207D01*
X78698102Y-123970228D01*
X78898061Y-124010002D01*
X79101939Y-124010002D01*
X79301898Y-123970228D01*
X79490256Y-123892207D01*
X79659774Y-123778939D01*
X79680652Y-123758061D01*
X85515000Y-123758061D01*
X85515000Y-123961939D01*
X85554774Y-124161898D01*
X85632795Y-124350256D01*
X85746063Y-124519774D01*
X85890226Y-124663937D01*
X86059744Y-124777205D01*
X86248102Y-124855226D01*
X86448061Y-124895000D01*
X86651939Y-124895000D01*
X86851898Y-124855226D01*
X87040256Y-124777205D01*
X87209774Y-124663937D01*
X87353937Y-124519774D01*
X87467205Y-124350256D01*
X87545226Y-124161898D01*
X87585000Y-123961939D01*
X87585000Y-123758061D01*
X87545226Y-123558102D01*
X87467205Y-123369744D01*
X87353937Y-123200226D01*
X87209774Y-123056063D01*
X87040256Y-122942795D01*
X86851898Y-122864774D01*
X86651939Y-122825000D01*
X86448061Y-122825000D01*
X86248102Y-122864774D01*
X86059744Y-122942795D01*
X85890226Y-123056063D01*
X85746063Y-123200226D01*
X85632795Y-123369744D01*
X85554774Y-123558102D01*
X85515000Y-123758061D01*
X79680652Y-123758061D01*
X79803937Y-123634776D01*
X79917205Y-123465258D01*
X79995226Y-123276900D01*
X80035000Y-123076941D01*
X80035000Y-122873063D01*
X79995226Y-122673104D01*
X79917205Y-122484746D01*
X79803937Y-122315228D01*
X79659774Y-122171065D01*
X79490256Y-122057797D01*
X79301898Y-121979776D01*
X79101939Y-121940002D01*
X78898061Y-121940002D01*
X78698102Y-121979776D01*
X78509744Y-122057797D01*
X78340226Y-122171065D01*
X78196063Y-122315228D01*
X78082795Y-122484746D01*
X78004774Y-122673104D01*
X77965000Y-122873063D01*
X73943904Y-122873063D01*
X74084774Y-122778937D01*
X74228937Y-122634774D01*
X74342205Y-122465256D01*
X74420226Y-122276898D01*
X74460000Y-122076939D01*
X74460000Y-121873061D01*
X74455028Y-121848061D01*
X86590000Y-121848061D01*
X86590000Y-122051939D01*
X86629774Y-122251898D01*
X86707795Y-122440256D01*
X86821063Y-122609774D01*
X86965226Y-122753937D01*
X87134744Y-122867205D01*
X87323102Y-122945226D01*
X87523061Y-122985000D01*
X87726939Y-122985000D01*
X87926898Y-122945226D01*
X88115256Y-122867205D01*
X88284774Y-122753937D01*
X88428937Y-122609774D01*
X88542205Y-122440256D01*
X88620226Y-122251898D01*
X88660000Y-122051939D01*
X88660000Y-121848061D01*
X88620226Y-121648102D01*
X88542205Y-121459744D01*
X88428937Y-121290226D01*
X88284774Y-121146063D01*
X88115256Y-121032795D01*
X87926898Y-120954774D01*
X87726939Y-120915000D01*
X87523061Y-120915000D01*
X87323102Y-120954774D01*
X87134744Y-121032795D01*
X86965226Y-121146063D01*
X86821063Y-121290226D01*
X86707795Y-121459744D01*
X86629774Y-121648102D01*
X86590000Y-121848061D01*
X74455028Y-121848061D01*
X74420226Y-121673102D01*
X74342205Y-121484744D01*
X74228937Y-121315226D01*
X74084774Y-121171063D01*
X73915256Y-121057795D01*
X73726898Y-120979774D01*
X73526939Y-120940000D01*
X73323061Y-120940000D01*
X73123102Y-120979774D01*
X72934744Y-121057795D01*
X72765226Y-121171063D01*
X72621063Y-121315226D01*
X72507795Y-121484744D01*
X72429774Y-121673102D01*
X72390000Y-121873061D01*
X66385000Y-121873061D01*
X66385000Y-121848061D01*
X66345226Y-121648102D01*
X66267205Y-121459744D01*
X66153937Y-121290226D01*
X66009774Y-121146063D01*
X65840256Y-121032795D01*
X65651898Y-120954774D01*
X65451939Y-120915000D01*
X65248061Y-120915000D01*
X65048102Y-120954774D01*
X64859744Y-121032795D01*
X64690226Y-121146063D01*
X64546063Y-121290226D01*
X64432795Y-121459744D01*
X64354774Y-121648102D01*
X64315000Y-121848061D01*
X60837066Y-121848061D01*
X60495679Y-121706654D01*
X60034902Y-121615000D01*
X59565098Y-121615000D01*
X59104321Y-121706654D01*
X58670279Y-121886440D01*
X58279651Y-122147450D01*
X57947450Y-122479651D01*
X57686440Y-122870279D01*
X57506654Y-123304321D01*
X57415000Y-123765098D01*
X56885000Y-123765098D01*
X56793346Y-123304321D01*
X56613560Y-122870279D01*
X56352550Y-122479651D01*
X56020349Y-122147450D01*
X55629721Y-121886440D01*
X55195679Y-121706654D01*
X54734902Y-121615000D01*
X54265098Y-121615000D01*
X53804321Y-121706654D01*
X53370279Y-121886440D01*
X52979651Y-122147450D01*
X52647450Y-122479651D01*
X52386440Y-122870279D01*
X52206654Y-123304321D01*
X52115000Y-123765098D01*
X50160000Y-123765098D01*
X50160000Y-117765098D01*
X52115000Y-117765098D01*
X52115000Y-118234902D01*
X52206654Y-118695679D01*
X52386440Y-119129721D01*
X52647450Y-119520349D01*
X52979651Y-119852550D01*
X53370279Y-120113560D01*
X53804321Y-120293346D01*
X54265098Y-120385000D01*
X54734902Y-120385000D01*
X55195679Y-120293346D01*
X55629721Y-120113560D01*
X56020349Y-119852550D01*
X56352550Y-119520349D01*
X56613560Y-119129721D01*
X56793346Y-118695679D01*
X56885000Y-118234902D01*
X56885000Y-117765098D01*
X57415000Y-117765098D01*
X57415000Y-118234902D01*
X57506654Y-118695679D01*
X57686440Y-119129721D01*
X57947450Y-119520349D01*
X58279651Y-119852550D01*
X58670279Y-120113560D01*
X59104321Y-120293346D01*
X59565098Y-120385000D01*
X60034902Y-120385000D01*
X60495679Y-120293346D01*
X60929721Y-120113560D01*
X61320349Y-119852550D01*
X61652550Y-119520349D01*
X61913560Y-119129721D01*
X62093346Y-118695679D01*
X62185000Y-118234902D01*
X62185000Y-117765098D01*
X62093346Y-117304321D01*
X61913560Y-116870279D01*
X61652550Y-116479651D01*
X61320349Y-116147450D01*
X60929721Y-115886440D01*
X60495679Y-115706654D01*
X60034902Y-115615000D01*
X59565098Y-115615000D01*
X59104321Y-115706654D01*
X58670279Y-115886440D01*
X58279651Y-116147450D01*
X57947450Y-116479651D01*
X57686440Y-116870279D01*
X57506654Y-117304321D01*
X57415000Y-117765098D01*
X56885000Y-117765098D01*
X56793346Y-117304321D01*
X56613560Y-116870279D01*
X56352550Y-116479651D01*
X56020349Y-116147450D01*
X55629721Y-115886440D01*
X55195679Y-115706654D01*
X54734902Y-115615000D01*
X54265098Y-115615000D01*
X53804321Y-115706654D01*
X53370279Y-115886440D01*
X52979651Y-116147450D01*
X52647450Y-116479651D01*
X52386440Y-116870279D01*
X52206654Y-117304321D01*
X52115000Y-117765098D01*
X50160000Y-117765098D01*
X50160000Y-115440000D01*
X64711928Y-115440000D01*
X64711928Y-117140000D01*
X64724188Y-117264482D01*
X64760498Y-117384180D01*
X64819463Y-117494494D01*
X64898815Y-117591185D01*
X64995506Y-117670537D01*
X65105820Y-117729502D01*
X65225518Y-117765812D01*
X65350000Y-117778072D01*
X67050000Y-117778072D01*
X67174482Y-117765812D01*
X67294180Y-117729502D01*
X67404494Y-117670537D01*
X67501185Y-117591185D01*
X67580537Y-117494494D01*
X67639502Y-117384180D01*
X67675812Y-117264482D01*
X67688072Y-117140000D01*
X67688072Y-116448063D01*
X70665000Y-116448063D01*
X70665000Y-116651941D01*
X70704774Y-116851900D01*
X70782795Y-117040258D01*
X70896063Y-117209776D01*
X71040226Y-117353939D01*
X71209744Y-117467207D01*
X71398102Y-117545228D01*
X71598061Y-117585002D01*
X71801939Y-117585002D01*
X72001898Y-117545228D01*
X72190256Y-117467207D01*
X72359774Y-117353939D01*
X72503937Y-117209776D01*
X72616705Y-117041007D01*
X72696062Y-117159774D01*
X72840225Y-117303937D01*
X73009743Y-117417205D01*
X73198101Y-117495226D01*
X73398060Y-117535000D01*
X73601938Y-117535000D01*
X73801897Y-117495226D01*
X73990255Y-117417205D01*
X74159773Y-117303937D01*
X74303936Y-117159774D01*
X74417204Y-116990256D01*
X74495225Y-116801898D01*
X74534999Y-116601939D01*
X74534999Y-116398061D01*
X74495225Y-116198102D01*
X74417204Y-116009744D01*
X74303936Y-115840226D01*
X74159773Y-115696063D01*
X73990255Y-115582795D01*
X73801897Y-115504774D01*
X73601938Y-115465000D01*
X73398060Y-115465000D01*
X73198101Y-115504774D01*
X73009743Y-115582795D01*
X72840225Y-115696063D01*
X72696062Y-115840226D01*
X72583294Y-116008995D01*
X72503937Y-115890228D01*
X72359774Y-115746065D01*
X72190256Y-115632797D01*
X72001898Y-115554776D01*
X71801939Y-115515002D01*
X71598061Y-115515002D01*
X71398102Y-115554776D01*
X71209744Y-115632797D01*
X71040226Y-115746065D01*
X70896063Y-115890228D01*
X70782795Y-116059746D01*
X70704774Y-116248104D01*
X70665000Y-116448063D01*
X67688072Y-116448063D01*
X67688072Y-115440000D01*
X67675812Y-115315518D01*
X67639502Y-115195820D01*
X67580537Y-115085506D01*
X67501185Y-114988815D01*
X67404494Y-114909463D01*
X67294180Y-114850498D01*
X67221620Y-114828487D01*
X67353475Y-114696632D01*
X67515990Y-114453411D01*
X67627932Y-114183158D01*
X67685000Y-113896260D01*
X67685000Y-113603740D01*
X67627932Y-113316842D01*
X67620153Y-113298061D01*
X70790000Y-113298061D01*
X70790000Y-113501939D01*
X70829774Y-113701898D01*
X70907795Y-113890256D01*
X71021063Y-114059774D01*
X71165226Y-114203937D01*
X71334744Y-114317205D01*
X71523102Y-114395226D01*
X71723061Y-114435000D01*
X71926939Y-114435000D01*
X72126898Y-114395226D01*
X72315256Y-114317205D01*
X72484774Y-114203937D01*
X72628937Y-114059774D01*
X72629093Y-114059540D01*
X72696067Y-114159774D01*
X72840230Y-114303937D01*
X73009748Y-114417205D01*
X73198106Y-114495226D01*
X73398065Y-114535000D01*
X73601943Y-114535000D01*
X73801902Y-114495226D01*
X73990260Y-114417205D01*
X74159778Y-114303937D01*
X74303941Y-114159774D01*
X74417209Y-113990256D01*
X74495230Y-113801898D01*
X74535004Y-113601939D01*
X74535004Y-113398061D01*
X74495230Y-113198102D01*
X74417209Y-113009744D01*
X74303941Y-112840226D01*
X74159778Y-112696063D01*
X73990260Y-112582795D01*
X73801902Y-112504774D01*
X73601943Y-112465000D01*
X73398065Y-112465000D01*
X73198106Y-112504774D01*
X73009748Y-112582795D01*
X72840230Y-112696063D01*
X72696067Y-112840226D01*
X72695911Y-112840460D01*
X72628937Y-112740226D01*
X72484774Y-112596063D01*
X72315256Y-112482795D01*
X72126898Y-112404774D01*
X71926939Y-112365000D01*
X71723061Y-112365000D01*
X71523102Y-112404774D01*
X71334744Y-112482795D01*
X71165226Y-112596063D01*
X71021063Y-112740226D01*
X70907795Y-112909744D01*
X70829774Y-113098102D01*
X70790000Y-113298061D01*
X67620153Y-113298061D01*
X67515990Y-113046589D01*
X67353475Y-112803368D01*
X67146632Y-112596525D01*
X66903411Y-112434010D01*
X66633158Y-112322068D01*
X66346260Y-112265000D01*
X66053740Y-112265000D01*
X65766842Y-112322068D01*
X65496589Y-112434010D01*
X65253368Y-112596525D01*
X65046525Y-112803368D01*
X64884010Y-113046589D01*
X64772068Y-113316842D01*
X64715000Y-113603740D01*
X64715000Y-113896260D01*
X64772068Y-114183158D01*
X64884010Y-114453411D01*
X65046525Y-114696632D01*
X65178380Y-114828487D01*
X65105820Y-114850498D01*
X64995506Y-114909463D01*
X64898815Y-114988815D01*
X64819463Y-115085506D01*
X64760498Y-115195820D01*
X64724188Y-115315518D01*
X64711928Y-115440000D01*
X50160000Y-115440000D01*
X50160000Y-111765098D01*
X52115000Y-111765098D01*
X52115000Y-112234902D01*
X52206654Y-112695679D01*
X52386440Y-113129721D01*
X52647450Y-113520349D01*
X52979651Y-113852550D01*
X53370279Y-114113560D01*
X53804321Y-114293346D01*
X54265098Y-114385000D01*
X54734902Y-114385000D01*
X55195679Y-114293346D01*
X55629721Y-114113560D01*
X56020349Y-113852550D01*
X56352550Y-113520349D01*
X56613560Y-113129721D01*
X56793346Y-112695679D01*
X56885000Y-112234902D01*
X56885000Y-111765098D01*
X57415000Y-111765098D01*
X57415000Y-112234902D01*
X57506654Y-112695679D01*
X57686440Y-113129721D01*
X57947450Y-113520349D01*
X58279651Y-113852550D01*
X58670279Y-114113560D01*
X59104321Y-114293346D01*
X59565098Y-114385000D01*
X60034902Y-114385000D01*
X60495679Y-114293346D01*
X60929721Y-114113560D01*
X61320349Y-113852550D01*
X61652550Y-113520349D01*
X61913560Y-113129721D01*
X62093346Y-112695679D01*
X62185000Y-112234902D01*
X62185000Y-111765098D01*
X62102047Y-111348061D01*
X75015000Y-111348061D01*
X75015000Y-111551939D01*
X75054774Y-111751898D01*
X75132795Y-111940256D01*
X75246063Y-112109774D01*
X75390226Y-112253937D01*
X75559744Y-112367205D01*
X75748102Y-112445226D01*
X75948061Y-112485000D01*
X76151939Y-112485000D01*
X76351898Y-112445226D01*
X76537869Y-112368194D01*
X76504774Y-112448092D01*
X76465000Y-112648051D01*
X76465000Y-112851929D01*
X76504774Y-113051888D01*
X76582795Y-113240246D01*
X76696063Y-113409764D01*
X76840226Y-113553927D01*
X77009744Y-113667195D01*
X77198102Y-113745216D01*
X77398061Y-113784990D01*
X77601939Y-113784990D01*
X77801898Y-113745216D01*
X77990256Y-113667195D01*
X78159774Y-113553927D01*
X78261928Y-113451773D01*
X78261928Y-114298217D01*
X78159774Y-114196063D01*
X77990256Y-114082795D01*
X77801898Y-114004774D01*
X77601939Y-113965000D01*
X77398061Y-113965000D01*
X77198102Y-114004774D01*
X77009744Y-114082795D01*
X76840226Y-114196063D01*
X76696063Y-114340226D01*
X76582795Y-114509744D01*
X76504774Y-114698102D01*
X76465000Y-114898061D01*
X76465000Y-115101939D01*
X76504774Y-115301898D01*
X76582795Y-115490256D01*
X76696063Y-115659774D01*
X76840226Y-115803937D01*
X77009744Y-115917205D01*
X77198102Y-115995226D01*
X77398061Y-116035000D01*
X77601939Y-116035000D01*
X77801898Y-115995226D01*
X77990256Y-115917205D01*
X78159774Y-115803937D01*
X78303937Y-115659774D01*
X78417205Y-115490256D01*
X78495226Y-115301898D01*
X78529874Y-115127708D01*
X78545506Y-115140537D01*
X78655820Y-115199502D01*
X78728380Y-115221513D01*
X78596525Y-115353368D01*
X78434010Y-115596589D01*
X78322068Y-115866842D01*
X78265000Y-116153740D01*
X78265000Y-116446260D01*
X78291079Y-116577368D01*
X78159774Y-116446063D01*
X77990256Y-116332795D01*
X77801898Y-116254774D01*
X77601939Y-116215000D01*
X77398061Y-116215000D01*
X77198102Y-116254774D01*
X77009744Y-116332795D01*
X76840226Y-116446063D01*
X76696063Y-116590226D01*
X76582795Y-116759744D01*
X76504774Y-116948102D01*
X76465000Y-117148061D01*
X76465000Y-117351939D01*
X76504774Y-117551898D01*
X76537874Y-117631808D01*
X76351898Y-117554774D01*
X76151939Y-117515000D01*
X75948061Y-117515000D01*
X75748102Y-117554774D01*
X75559744Y-117632795D01*
X75390226Y-117746063D01*
X75246063Y-117890226D01*
X75132795Y-118059744D01*
X75054774Y-118248102D01*
X75015000Y-118448061D01*
X75015000Y-118651939D01*
X75054774Y-118851898D01*
X75132795Y-119040256D01*
X75246063Y-119209774D01*
X75390226Y-119353937D01*
X75559744Y-119467205D01*
X75748102Y-119545226D01*
X75948061Y-119585000D01*
X76151939Y-119585000D01*
X76351898Y-119545226D01*
X76540256Y-119467205D01*
X76709774Y-119353937D01*
X76853937Y-119209774D01*
X76967205Y-119040256D01*
X77045226Y-118851898D01*
X77085000Y-118651939D01*
X77085000Y-118448061D01*
X77045226Y-118248102D01*
X77012126Y-118168192D01*
X77198102Y-118245226D01*
X77398061Y-118285000D01*
X77601939Y-118285000D01*
X77801898Y-118245226D01*
X77990256Y-118167205D01*
X78159774Y-118053937D01*
X78303937Y-117909774D01*
X78417205Y-117740256D01*
X78495226Y-117551898D01*
X78535000Y-117351939D01*
X78535000Y-117154553D01*
X78596525Y-117246632D01*
X78803368Y-117453475D01*
X79046589Y-117615990D01*
X79316842Y-117727932D01*
X79603740Y-117785000D01*
X79896260Y-117785000D01*
X79956280Y-117773061D01*
X85865000Y-117773061D01*
X85865000Y-117976939D01*
X85904774Y-118176898D01*
X85982795Y-118365256D01*
X86096063Y-118534774D01*
X86240226Y-118678937D01*
X86409744Y-118792205D01*
X86598102Y-118870226D01*
X86798061Y-118910000D01*
X87001939Y-118910000D01*
X87201898Y-118870226D01*
X87390256Y-118792205D01*
X87559774Y-118678937D01*
X87703937Y-118534774D01*
X87817205Y-118365256D01*
X87895226Y-118176898D01*
X87935000Y-117976939D01*
X87935000Y-117773061D01*
X92690000Y-117773061D01*
X92690000Y-117976939D01*
X92729774Y-118176898D01*
X92807795Y-118365256D01*
X92921063Y-118534774D01*
X93065226Y-118678937D01*
X93234744Y-118792205D01*
X93423102Y-118870226D01*
X93623061Y-118910000D01*
X93826939Y-118910000D01*
X94026898Y-118870226D01*
X94215256Y-118792205D01*
X94384774Y-118678937D01*
X94528937Y-118534774D01*
X94642205Y-118365256D01*
X94720226Y-118176898D01*
X94760000Y-117976939D01*
X94760000Y-117773061D01*
X94720226Y-117573102D01*
X94642205Y-117384744D01*
X94528937Y-117215226D01*
X94384774Y-117071063D01*
X94215256Y-116957795D01*
X94026898Y-116879774D01*
X93826939Y-116840000D01*
X93623061Y-116840000D01*
X93423102Y-116879774D01*
X93234744Y-116957795D01*
X93065226Y-117071063D01*
X92921063Y-117215226D01*
X92807795Y-117384744D01*
X92729774Y-117573102D01*
X92690000Y-117773061D01*
X87935000Y-117773061D01*
X87895226Y-117573102D01*
X87817205Y-117384744D01*
X87703937Y-117215226D01*
X87559774Y-117071063D01*
X87390256Y-116957795D01*
X87201898Y-116879774D01*
X87001939Y-116840000D01*
X86798061Y-116840000D01*
X86598102Y-116879774D01*
X86409744Y-116957795D01*
X86240226Y-117071063D01*
X86096063Y-117215226D01*
X85982795Y-117384744D01*
X85904774Y-117573102D01*
X85865000Y-117773061D01*
X79956280Y-117773061D01*
X80183158Y-117727932D01*
X80453411Y-117615990D01*
X80696632Y-117453475D01*
X80903475Y-117246632D01*
X81065990Y-117003411D01*
X81177932Y-116733158D01*
X81235000Y-116446260D01*
X81235000Y-116153740D01*
X81223925Y-116098061D01*
X83815000Y-116098061D01*
X83815000Y-116301939D01*
X83854774Y-116501898D01*
X83932795Y-116690256D01*
X84046063Y-116859774D01*
X84190226Y-117003937D01*
X84359744Y-117117205D01*
X84548102Y-117195226D01*
X84748061Y-117235000D01*
X84951939Y-117235000D01*
X85151898Y-117195226D01*
X85340256Y-117117205D01*
X85509774Y-117003937D01*
X85653937Y-116859774D01*
X85767205Y-116690256D01*
X85845226Y-116501898D01*
X85885000Y-116301939D01*
X85885000Y-116098061D01*
X85855164Y-115948061D01*
X89990000Y-115948061D01*
X89990000Y-116151939D01*
X90029774Y-116351898D01*
X90107795Y-116540256D01*
X90221063Y-116709774D01*
X90365226Y-116853937D01*
X90534744Y-116967205D01*
X90723102Y-117045226D01*
X90923061Y-117085000D01*
X91126939Y-117085000D01*
X91326898Y-117045226D01*
X91515256Y-116967205D01*
X91664064Y-116867775D01*
X91665226Y-116868937D01*
X91834744Y-116982205D01*
X92023102Y-117060226D01*
X92223061Y-117100000D01*
X92426939Y-117100000D01*
X92626898Y-117060226D01*
X92815256Y-116982205D01*
X92984774Y-116868937D01*
X93128937Y-116724774D01*
X93242205Y-116555256D01*
X93320226Y-116366898D01*
X93360000Y-116166939D01*
X93360000Y-115963061D01*
X93320226Y-115763102D01*
X93242205Y-115574744D01*
X93128937Y-115405226D01*
X92984774Y-115261063D01*
X92815256Y-115147795D01*
X92626898Y-115069774D01*
X92426939Y-115030000D01*
X92223061Y-115030000D01*
X92023102Y-115069774D01*
X91834744Y-115147795D01*
X91685936Y-115247225D01*
X91684774Y-115246063D01*
X91515256Y-115132795D01*
X91326898Y-115054774D01*
X91126939Y-115015000D01*
X90923061Y-115015000D01*
X90723102Y-115054774D01*
X90534744Y-115132795D01*
X90365226Y-115246063D01*
X90221063Y-115390226D01*
X90107795Y-115559744D01*
X90029774Y-115748102D01*
X89990000Y-115948061D01*
X85855164Y-115948061D01*
X85845226Y-115898102D01*
X85767205Y-115709744D01*
X85653937Y-115540226D01*
X85509774Y-115396063D01*
X85340256Y-115282795D01*
X85151898Y-115204774D01*
X84951939Y-115165000D01*
X84748061Y-115165000D01*
X84548102Y-115204774D01*
X84359744Y-115282795D01*
X84190226Y-115396063D01*
X84046063Y-115540226D01*
X83932795Y-115709744D01*
X83854774Y-115898102D01*
X83815000Y-116098061D01*
X81223925Y-116098061D01*
X81177932Y-115866842D01*
X81065990Y-115596589D01*
X80903475Y-115353368D01*
X80771620Y-115221513D01*
X80844180Y-115199502D01*
X80954494Y-115140537D01*
X81051185Y-115061185D01*
X81130537Y-114964494D01*
X81189502Y-114854180D01*
X81225812Y-114734482D01*
X81238072Y-114610000D01*
X81238072Y-113648061D01*
X83815000Y-113648061D01*
X83815000Y-113851939D01*
X83854774Y-114051898D01*
X83932795Y-114240256D01*
X84046063Y-114409774D01*
X84190226Y-114553937D01*
X84359744Y-114667205D01*
X84548102Y-114745226D01*
X84748061Y-114785000D01*
X84951939Y-114785000D01*
X85151898Y-114745226D01*
X85340256Y-114667205D01*
X85509774Y-114553937D01*
X85653937Y-114409774D01*
X85767205Y-114240256D01*
X85845226Y-114051898D01*
X85885000Y-113851939D01*
X85885000Y-113823061D01*
X89990000Y-113823061D01*
X89990000Y-114026939D01*
X90029774Y-114226898D01*
X90107795Y-114415256D01*
X90221063Y-114584774D01*
X90365226Y-114728937D01*
X90534744Y-114842205D01*
X90723102Y-114920226D01*
X90923061Y-114960000D01*
X91126939Y-114960000D01*
X91326898Y-114920226D01*
X91515256Y-114842205D01*
X91675000Y-114735468D01*
X91834744Y-114842205D01*
X92023102Y-114920226D01*
X92223061Y-114960000D01*
X92426939Y-114960000D01*
X92626898Y-114920226D01*
X92815256Y-114842205D01*
X92984774Y-114728937D01*
X93128937Y-114584774D01*
X93242205Y-114415256D01*
X93320226Y-114226898D01*
X93360000Y-114026939D01*
X93360000Y-113823061D01*
X93320226Y-113623102D01*
X93242205Y-113434744D01*
X93128937Y-113265226D01*
X92984774Y-113121063D01*
X92815256Y-113007795D01*
X92626898Y-112929774D01*
X92426939Y-112890000D01*
X92223061Y-112890000D01*
X92023102Y-112929774D01*
X91834744Y-113007795D01*
X91675000Y-113114532D01*
X91515256Y-113007795D01*
X91326898Y-112929774D01*
X91126939Y-112890000D01*
X90923061Y-112890000D01*
X90723102Y-112929774D01*
X90534744Y-113007795D01*
X90365226Y-113121063D01*
X90221063Y-113265226D01*
X90107795Y-113434744D01*
X90029774Y-113623102D01*
X89990000Y-113823061D01*
X85885000Y-113823061D01*
X85885000Y-113648061D01*
X85845226Y-113448102D01*
X85767205Y-113259744D01*
X85653937Y-113090226D01*
X85509774Y-112946063D01*
X85340256Y-112832795D01*
X85151898Y-112754774D01*
X84951939Y-112715000D01*
X84748061Y-112715000D01*
X84548102Y-112754774D01*
X84359744Y-112832795D01*
X84190226Y-112946063D01*
X84046063Y-113090226D01*
X83932795Y-113259744D01*
X83854774Y-113448102D01*
X83815000Y-113648061D01*
X81238072Y-113648061D01*
X81238072Y-112910000D01*
X81225812Y-112785518D01*
X81189502Y-112665820D01*
X81130537Y-112555506D01*
X81051185Y-112458815D01*
X80954494Y-112379463D01*
X80844180Y-112320498D01*
X80724482Y-112284188D01*
X80600000Y-112271928D01*
X78900000Y-112271928D01*
X78775518Y-112284188D01*
X78655820Y-112320498D01*
X78545506Y-112379463D01*
X78486767Y-112427669D01*
X78417205Y-112259734D01*
X78303937Y-112090216D01*
X78159774Y-111946053D01*
X77990256Y-111832785D01*
X77801898Y-111754764D01*
X77601939Y-111714990D01*
X77398061Y-111714990D01*
X77198102Y-111754764D01*
X77012131Y-111831796D01*
X77045226Y-111751898D01*
X77085000Y-111551939D01*
X77085000Y-111348061D01*
X77045226Y-111148102D01*
X76967205Y-110959744D01*
X76853937Y-110790226D01*
X76709774Y-110646063D01*
X76540256Y-110532795D01*
X76351898Y-110454774D01*
X76151939Y-110415000D01*
X75948061Y-110415000D01*
X75748102Y-110454774D01*
X75559744Y-110532795D01*
X75390226Y-110646063D01*
X75246063Y-110790226D01*
X75132795Y-110959744D01*
X75054774Y-111148102D01*
X75015000Y-111348061D01*
X62102047Y-111348061D01*
X62093346Y-111304321D01*
X61913560Y-110870279D01*
X61652550Y-110479651D01*
X61320349Y-110147450D01*
X60929721Y-109886440D01*
X60495679Y-109706654D01*
X60034902Y-109615000D01*
X59565098Y-109615000D01*
X59104321Y-109706654D01*
X58670279Y-109886440D01*
X58279651Y-110147450D01*
X57947450Y-110479651D01*
X57686440Y-110870279D01*
X57506654Y-111304321D01*
X57415000Y-111765098D01*
X56885000Y-111765098D01*
X56793346Y-111304321D01*
X56613560Y-110870279D01*
X56352550Y-110479651D01*
X56020349Y-110147450D01*
X55629721Y-109886440D01*
X55195679Y-109706654D01*
X54734902Y-109615000D01*
X54265098Y-109615000D01*
X53804321Y-109706654D01*
X53370279Y-109886440D01*
X52979651Y-110147450D01*
X52647450Y-110479651D01*
X52386440Y-110870279D01*
X52206654Y-111304321D01*
X52115000Y-111765098D01*
X50160000Y-111765098D01*
X50160000Y-105765098D01*
X52115000Y-105765098D01*
X52115000Y-106234902D01*
X52206654Y-106695679D01*
X52386440Y-107129721D01*
X52647450Y-107520349D01*
X52979651Y-107852550D01*
X53370279Y-108113560D01*
X53804321Y-108293346D01*
X54265098Y-108385000D01*
X54734902Y-108385000D01*
X55195679Y-108293346D01*
X55629721Y-108113560D01*
X56020349Y-107852550D01*
X56352550Y-107520349D01*
X56613560Y-107129721D01*
X56793346Y-106695679D01*
X56885000Y-106234902D01*
X56885000Y-105765098D01*
X57415000Y-105765098D01*
X57415000Y-106234902D01*
X57506654Y-106695679D01*
X57686440Y-107129721D01*
X57947450Y-107520349D01*
X58279651Y-107852550D01*
X58670279Y-108113560D01*
X59104321Y-108293346D01*
X59565098Y-108385000D01*
X60034902Y-108385000D01*
X60495679Y-108293346D01*
X60929721Y-108113560D01*
X61320349Y-107852550D01*
X61324838Y-107848061D01*
X64315000Y-107848061D01*
X64315000Y-108051939D01*
X64354774Y-108251898D01*
X64432795Y-108440256D01*
X64546063Y-108609774D01*
X64690226Y-108753937D01*
X64859744Y-108867205D01*
X65048102Y-108945226D01*
X65248061Y-108985000D01*
X65451939Y-108985000D01*
X65651898Y-108945226D01*
X65840256Y-108867205D01*
X66009774Y-108753937D01*
X66153937Y-108609774D01*
X66267205Y-108440256D01*
X66345226Y-108251898D01*
X66385000Y-108051939D01*
X66385000Y-107848061D01*
X72390000Y-107848061D01*
X72390000Y-108051939D01*
X72429774Y-108251898D01*
X72507795Y-108440256D01*
X72621063Y-108609774D01*
X72765226Y-108753937D01*
X72934744Y-108867205D01*
X73123102Y-108945226D01*
X73323061Y-108985000D01*
X73526939Y-108985000D01*
X73726898Y-108945226D01*
X73915256Y-108867205D01*
X74084774Y-108753937D01*
X74228937Y-108609774D01*
X74342205Y-108440256D01*
X74420226Y-108251898D01*
X74460000Y-108051939D01*
X74460000Y-107848061D01*
X74420226Y-107648102D01*
X74342205Y-107459744D01*
X74228937Y-107290226D01*
X74084774Y-107146063D01*
X73938104Y-107048061D01*
X77965000Y-107048061D01*
X77965000Y-107251939D01*
X78004774Y-107451898D01*
X78082795Y-107640256D01*
X78196063Y-107809774D01*
X78340226Y-107953937D01*
X78509744Y-108067205D01*
X78698102Y-108145226D01*
X78898061Y-108185000D01*
X79101939Y-108185000D01*
X79301898Y-108145226D01*
X79490256Y-108067205D01*
X79659774Y-107953937D01*
X79665650Y-107948061D01*
X87240000Y-107948061D01*
X87240000Y-108151939D01*
X87279774Y-108351898D01*
X87357795Y-108540256D01*
X87471063Y-108709774D01*
X87615226Y-108853937D01*
X87784744Y-108967205D01*
X87973102Y-109045226D01*
X88173061Y-109085000D01*
X88376939Y-109085000D01*
X88427212Y-109075000D01*
X95011928Y-109075000D01*
X95011928Y-110775000D01*
X95024188Y-110899482D01*
X95060498Y-111019180D01*
X95119463Y-111129494D01*
X95198815Y-111226185D01*
X95295506Y-111305537D01*
X95405820Y-111364502D01*
X95478380Y-111386513D01*
X95346525Y-111518368D01*
X95184010Y-111761589D01*
X95072068Y-112031842D01*
X95015000Y-112318740D01*
X95015000Y-112611260D01*
X95072068Y-112898158D01*
X95184010Y-113168411D01*
X95346525Y-113411632D01*
X95553368Y-113618475D01*
X95727760Y-113735000D01*
X95553368Y-113851525D01*
X95346525Y-114058368D01*
X95184010Y-114301589D01*
X95072068Y-114571842D01*
X95015000Y-114858740D01*
X95015000Y-115151260D01*
X95072068Y-115438158D01*
X95184010Y-115708411D01*
X95346525Y-115951632D01*
X95553368Y-116158475D01*
X95727760Y-116275000D01*
X95553368Y-116391525D01*
X95346525Y-116598368D01*
X95184010Y-116841589D01*
X95072068Y-117111842D01*
X95015000Y-117398740D01*
X95015000Y-117691260D01*
X95072068Y-117978158D01*
X95184010Y-118248411D01*
X95346525Y-118491632D01*
X95553368Y-118698475D01*
X95796589Y-118860990D01*
X96066842Y-118972932D01*
X96353740Y-119030000D01*
X96646260Y-119030000D01*
X96933158Y-118972932D01*
X97203411Y-118860990D01*
X97446632Y-118698475D01*
X97653475Y-118491632D01*
X97815990Y-118248411D01*
X97927932Y-117978158D01*
X97985000Y-117691260D01*
X97985000Y-117398740D01*
X97927932Y-117111842D01*
X97815990Y-116841589D01*
X97653475Y-116598368D01*
X97446632Y-116391525D01*
X97272240Y-116275000D01*
X97446632Y-116158475D01*
X97653475Y-115951632D01*
X97815990Y-115708411D01*
X97927932Y-115438158D01*
X97985000Y-115151260D01*
X97985000Y-114858740D01*
X97927932Y-114571842D01*
X97815990Y-114301589D01*
X97653475Y-114058368D01*
X97446632Y-113851525D01*
X97272240Y-113735000D01*
X97446632Y-113618475D01*
X97653475Y-113411632D01*
X97815990Y-113168411D01*
X97927932Y-112898158D01*
X97985000Y-112611260D01*
X97985000Y-112318740D01*
X97927932Y-112031842D01*
X97815990Y-111761589D01*
X97653475Y-111518368D01*
X97521620Y-111386513D01*
X97594180Y-111364502D01*
X97704494Y-111305537D01*
X97801185Y-111226185D01*
X97880537Y-111129494D01*
X97939502Y-111019180D01*
X97975812Y-110899482D01*
X97988072Y-110775000D01*
X97988072Y-109075000D01*
X97975812Y-108950518D01*
X97939502Y-108830820D01*
X97880537Y-108720506D01*
X97801185Y-108623815D01*
X97704494Y-108544463D01*
X97594180Y-108485498D01*
X97474482Y-108449188D01*
X97350000Y-108436928D01*
X95650000Y-108436928D01*
X95525518Y-108449188D01*
X95405820Y-108485498D01*
X95295506Y-108544463D01*
X95198815Y-108623815D01*
X95119463Y-108720506D01*
X95060498Y-108830820D01*
X95024188Y-108950518D01*
X95011928Y-109075000D01*
X88427212Y-109075000D01*
X88576898Y-109045226D01*
X88765256Y-108967205D01*
X88934774Y-108853937D01*
X89078937Y-108709774D01*
X89192205Y-108540256D01*
X89270226Y-108351898D01*
X89310000Y-108151939D01*
X89310000Y-107948061D01*
X89270226Y-107748102D01*
X89192205Y-107559744D01*
X89078937Y-107390226D01*
X88934774Y-107246063D01*
X88765256Y-107132795D01*
X88576898Y-107054774D01*
X88376939Y-107015000D01*
X88173061Y-107015000D01*
X87973102Y-107054774D01*
X87784744Y-107132795D01*
X87615226Y-107246063D01*
X87471063Y-107390226D01*
X87357795Y-107559744D01*
X87279774Y-107748102D01*
X87240000Y-107948061D01*
X79665650Y-107948061D01*
X79803937Y-107809774D01*
X79917205Y-107640256D01*
X79995226Y-107451898D01*
X80035000Y-107251939D01*
X80035000Y-107048061D01*
X79995226Y-106848102D01*
X79917205Y-106659744D01*
X79803937Y-106490226D01*
X79659774Y-106346063D01*
X79490256Y-106232795D01*
X79301898Y-106154774D01*
X79101939Y-106115000D01*
X78898061Y-106115000D01*
X78698102Y-106154774D01*
X78509744Y-106232795D01*
X78340226Y-106346063D01*
X78196063Y-106490226D01*
X78082795Y-106659744D01*
X78004774Y-106848102D01*
X77965000Y-107048061D01*
X73938104Y-107048061D01*
X73915256Y-107032795D01*
X73726898Y-106954774D01*
X73526939Y-106915000D01*
X73323061Y-106915000D01*
X73123102Y-106954774D01*
X72934744Y-107032795D01*
X72765226Y-107146063D01*
X72621063Y-107290226D01*
X72507795Y-107459744D01*
X72429774Y-107648102D01*
X72390000Y-107848061D01*
X66385000Y-107848061D01*
X66345226Y-107648102D01*
X66267205Y-107459744D01*
X66153937Y-107290226D01*
X66009774Y-107146063D01*
X65840256Y-107032795D01*
X65651898Y-106954774D01*
X65451939Y-106915000D01*
X65248061Y-106915000D01*
X65048102Y-106954774D01*
X64859744Y-107032795D01*
X64690226Y-107146063D01*
X64546063Y-107290226D01*
X64432795Y-107459744D01*
X64354774Y-107648102D01*
X64315000Y-107848061D01*
X61324838Y-107848061D01*
X61652550Y-107520349D01*
X61913560Y-107129721D01*
X62093346Y-106695679D01*
X62185000Y-106234902D01*
X62185000Y-105765098D01*
X62093346Y-105304321D01*
X61913560Y-104870279D01*
X61652550Y-104479651D01*
X61320349Y-104147450D01*
X60929721Y-103886440D01*
X60495679Y-103706654D01*
X60034902Y-103615000D01*
X59565098Y-103615000D01*
X59104321Y-103706654D01*
X58670279Y-103886440D01*
X58279651Y-104147450D01*
X57947450Y-104479651D01*
X57686440Y-104870279D01*
X57506654Y-105304321D01*
X57415000Y-105765098D01*
X56885000Y-105765098D01*
X56793346Y-105304321D01*
X56613560Y-104870279D01*
X56352550Y-104479651D01*
X56020349Y-104147450D01*
X55629721Y-103886440D01*
X55195679Y-103706654D01*
X54734902Y-103615000D01*
X54265098Y-103615000D01*
X53804321Y-103706654D01*
X53370279Y-103886440D01*
X52979651Y-104147450D01*
X52647450Y-104479651D01*
X52386440Y-104870279D01*
X52206654Y-105304321D01*
X52115000Y-105765098D01*
X50160000Y-105765098D01*
X50160000Y-99765098D01*
X52115000Y-99765098D01*
X52115000Y-100234902D01*
X52206654Y-100695679D01*
X52386440Y-101129721D01*
X52647450Y-101520349D01*
X52979651Y-101852550D01*
X53370279Y-102113560D01*
X53804321Y-102293346D01*
X54265098Y-102385000D01*
X54734902Y-102385000D01*
X55195679Y-102293346D01*
X55629721Y-102113560D01*
X56020349Y-101852550D01*
X56352550Y-101520349D01*
X56613560Y-101129721D01*
X56793346Y-100695679D01*
X56885000Y-100234902D01*
X56885000Y-99765098D01*
X57415000Y-99765098D01*
X57415000Y-100234902D01*
X57506654Y-100695679D01*
X57686440Y-101129721D01*
X57947450Y-101520349D01*
X58279651Y-101852550D01*
X58670279Y-102113560D01*
X59104321Y-102293346D01*
X59565098Y-102385000D01*
X60034902Y-102385000D01*
X60495679Y-102293346D01*
X60929721Y-102113560D01*
X61320349Y-101852550D01*
X61652550Y-101520349D01*
X61913560Y-101129721D01*
X62029424Y-100850000D01*
X64711928Y-100850000D01*
X64711928Y-102550000D01*
X64724188Y-102674482D01*
X64760498Y-102794180D01*
X64819463Y-102904494D01*
X64898815Y-103001185D01*
X64995506Y-103080537D01*
X65105820Y-103139502D01*
X65178380Y-103161513D01*
X65046525Y-103293368D01*
X64884010Y-103536589D01*
X64772068Y-103806842D01*
X64715000Y-104093740D01*
X64715000Y-104386260D01*
X64772068Y-104673158D01*
X64884010Y-104943411D01*
X65046525Y-105186632D01*
X65253368Y-105393475D01*
X65496589Y-105555990D01*
X65766842Y-105667932D01*
X66053740Y-105725000D01*
X66346260Y-105725000D01*
X66633158Y-105667932D01*
X66903411Y-105555990D01*
X67146632Y-105393475D01*
X67353475Y-105186632D01*
X67395951Y-105123061D01*
X86215000Y-105123061D01*
X86215000Y-105326939D01*
X86254774Y-105526898D01*
X86332795Y-105715256D01*
X86446063Y-105884774D01*
X86590226Y-106028937D01*
X86759744Y-106142205D01*
X86948102Y-106220226D01*
X87148061Y-106260000D01*
X87351939Y-106260000D01*
X87551898Y-106220226D01*
X87740256Y-106142205D01*
X87909774Y-106028937D01*
X88053937Y-105884774D01*
X88121899Y-105783061D01*
X91115000Y-105783061D01*
X91115000Y-105986939D01*
X91154774Y-106186898D01*
X91232795Y-106375256D01*
X91346063Y-106544774D01*
X91490226Y-106688937D01*
X91659744Y-106802205D01*
X91848102Y-106880226D01*
X92048061Y-106920000D01*
X92251939Y-106920000D01*
X92451898Y-106880226D01*
X92640256Y-106802205D01*
X92809774Y-106688937D01*
X92953937Y-106544774D01*
X93067205Y-106375256D01*
X93145226Y-106186898D01*
X93185000Y-105986939D01*
X93185000Y-105783061D01*
X93145226Y-105583102D01*
X93067205Y-105394744D01*
X92953937Y-105225226D01*
X92809774Y-105081063D01*
X92640256Y-104967795D01*
X92451898Y-104889774D01*
X92251939Y-104850000D01*
X92048061Y-104850000D01*
X91848102Y-104889774D01*
X91659744Y-104967795D01*
X91490226Y-105081063D01*
X91346063Y-105225226D01*
X91232795Y-105394744D01*
X91154774Y-105583102D01*
X91115000Y-105783061D01*
X88121899Y-105783061D01*
X88167205Y-105715256D01*
X88245226Y-105526898D01*
X88285000Y-105326939D01*
X88285000Y-105123061D01*
X88245226Y-104923102D01*
X88167205Y-104734744D01*
X88053937Y-104565226D01*
X87909774Y-104421063D01*
X87740256Y-104307795D01*
X87551898Y-104229774D01*
X87351939Y-104190000D01*
X87148061Y-104190000D01*
X86948102Y-104229774D01*
X86759744Y-104307795D01*
X86590226Y-104421063D01*
X86446063Y-104565226D01*
X86332795Y-104734744D01*
X86254774Y-104923102D01*
X86215000Y-105123061D01*
X67395951Y-105123061D01*
X67515990Y-104943411D01*
X67627932Y-104673158D01*
X67685000Y-104386260D01*
X67685000Y-104093740D01*
X67627932Y-103806842D01*
X67515990Y-103536589D01*
X67353475Y-103293368D01*
X67221620Y-103161513D01*
X67294180Y-103139502D01*
X67399772Y-103083061D01*
X77975000Y-103083061D01*
X77975000Y-103286939D01*
X78014774Y-103486898D01*
X78092795Y-103675256D01*
X78206063Y-103844774D01*
X78350226Y-103988937D01*
X78519744Y-104102205D01*
X78708102Y-104180226D01*
X78908061Y-104220000D01*
X79111939Y-104220000D01*
X79311898Y-104180226D01*
X79500256Y-104102205D01*
X79669774Y-103988937D01*
X79813937Y-103844774D01*
X79927205Y-103675256D01*
X80005226Y-103486898D01*
X80045000Y-103286939D01*
X80045000Y-103083061D01*
X80005226Y-102883102D01*
X79927205Y-102694744D01*
X79813937Y-102525226D01*
X79669774Y-102381063D01*
X79500256Y-102267795D01*
X79311898Y-102189774D01*
X79278150Y-102183061D01*
X89240000Y-102183061D01*
X89240000Y-102386939D01*
X89279774Y-102586898D01*
X89357795Y-102775256D01*
X89471063Y-102944774D01*
X89615226Y-103088937D01*
X89784744Y-103202205D01*
X89973102Y-103280226D01*
X90173061Y-103320000D01*
X90376939Y-103320000D01*
X90576898Y-103280226D01*
X90765256Y-103202205D01*
X90934774Y-103088937D01*
X91078937Y-102944774D01*
X91137500Y-102857128D01*
X91196063Y-102944774D01*
X91340226Y-103088937D01*
X91509744Y-103202205D01*
X91698102Y-103280226D01*
X91898061Y-103320000D01*
X92101939Y-103320000D01*
X92301898Y-103280226D01*
X92490256Y-103202205D01*
X92659774Y-103088937D01*
X92803937Y-102944774D01*
X92917205Y-102775256D01*
X92995226Y-102586898D01*
X93023092Y-102446803D01*
X93090226Y-102513937D01*
X93259744Y-102627205D01*
X93448102Y-102705226D01*
X93648061Y-102745000D01*
X93851939Y-102745000D01*
X94051898Y-102705226D01*
X94240256Y-102627205D01*
X94409774Y-102513937D01*
X94553937Y-102369774D01*
X94667205Y-102200256D01*
X94745226Y-102011898D01*
X94785000Y-101811939D01*
X94785000Y-101608061D01*
X94745226Y-101408102D01*
X94667205Y-101219744D01*
X94553937Y-101050226D01*
X94409774Y-100906063D01*
X94240256Y-100792795D01*
X94051898Y-100714774D01*
X93851939Y-100675000D01*
X93648061Y-100675000D01*
X93448102Y-100714774D01*
X93259744Y-100792795D01*
X93090226Y-100906063D01*
X92946063Y-101050226D01*
X92832795Y-101219744D01*
X92754774Y-101408102D01*
X92726908Y-101548197D01*
X92659774Y-101481063D01*
X92490256Y-101367795D01*
X92301898Y-101289774D01*
X92101939Y-101250000D01*
X91898061Y-101250000D01*
X91698102Y-101289774D01*
X91509744Y-101367795D01*
X91340226Y-101481063D01*
X91196063Y-101625226D01*
X91137500Y-101712872D01*
X91078937Y-101625226D01*
X90934774Y-101481063D01*
X90765256Y-101367795D01*
X90576898Y-101289774D01*
X90376939Y-101250000D01*
X90173061Y-101250000D01*
X89973102Y-101289774D01*
X89784744Y-101367795D01*
X89615226Y-101481063D01*
X89471063Y-101625226D01*
X89357795Y-101794744D01*
X89279774Y-101983102D01*
X89240000Y-102183061D01*
X79278150Y-102183061D01*
X79111939Y-102150000D01*
X78908061Y-102150000D01*
X78708102Y-102189774D01*
X78519744Y-102267795D01*
X78350226Y-102381063D01*
X78206063Y-102525226D01*
X78092795Y-102694744D01*
X78014774Y-102883102D01*
X77975000Y-103083061D01*
X67399772Y-103083061D01*
X67404494Y-103080537D01*
X67501185Y-103001185D01*
X67580537Y-102904494D01*
X67639502Y-102794180D01*
X67675812Y-102674482D01*
X67688072Y-102550000D01*
X67688072Y-101608061D01*
X70939996Y-101608061D01*
X70939996Y-101811939D01*
X70979770Y-102011898D01*
X71057791Y-102200256D01*
X71171059Y-102369774D01*
X71315222Y-102513937D01*
X71484740Y-102627205D01*
X71673098Y-102705226D01*
X71873057Y-102745000D01*
X72076935Y-102745000D01*
X72276894Y-102705226D01*
X72465252Y-102627205D01*
X72634770Y-102513937D01*
X72778933Y-102369774D01*
X72892201Y-102200256D01*
X72970222Y-102011898D01*
X73009996Y-101811939D01*
X73009996Y-101608061D01*
X72970222Y-101408102D01*
X72892201Y-101219744D01*
X72778933Y-101050226D01*
X72634770Y-100906063D01*
X72465252Y-100792795D01*
X72276894Y-100714774D01*
X72243146Y-100708061D01*
X74040000Y-100708061D01*
X74040000Y-100911939D01*
X74079774Y-101111898D01*
X74157795Y-101300256D01*
X74271063Y-101469774D01*
X74415226Y-101613937D01*
X74584744Y-101727205D01*
X74773102Y-101805226D01*
X74973061Y-101845000D01*
X75176939Y-101845000D01*
X75376898Y-101805226D01*
X75565256Y-101727205D01*
X75734774Y-101613937D01*
X75878937Y-101469774D01*
X75992205Y-101300256D01*
X76070226Y-101111898D01*
X76110000Y-100911939D01*
X76110000Y-100708061D01*
X81615000Y-100708061D01*
X81615000Y-100911939D01*
X81654774Y-101111898D01*
X81732795Y-101300256D01*
X81846063Y-101469774D01*
X81990226Y-101613937D01*
X82159744Y-101727205D01*
X82348102Y-101805226D01*
X82548061Y-101845000D01*
X82751939Y-101845000D01*
X82951898Y-101805226D01*
X83140256Y-101727205D01*
X83309774Y-101613937D01*
X83453937Y-101469774D01*
X83567205Y-101300256D01*
X83645226Y-101111898D01*
X83685000Y-100911939D01*
X83685000Y-100708061D01*
X83645226Y-100508102D01*
X83567205Y-100319744D01*
X83453937Y-100150226D01*
X83309774Y-100006063D01*
X83140256Y-99892795D01*
X82951898Y-99814774D01*
X82751939Y-99775000D01*
X82548061Y-99775000D01*
X82348102Y-99814774D01*
X82159744Y-99892795D01*
X81990226Y-100006063D01*
X81846063Y-100150226D01*
X81732795Y-100319744D01*
X81654774Y-100508102D01*
X81615000Y-100708061D01*
X76110000Y-100708061D01*
X76070226Y-100508102D01*
X75992205Y-100319744D01*
X75878937Y-100150226D01*
X75734774Y-100006063D01*
X75565256Y-99892795D01*
X75376898Y-99814774D01*
X75176939Y-99775000D01*
X74973061Y-99775000D01*
X74773102Y-99814774D01*
X74584744Y-99892795D01*
X74415226Y-100006063D01*
X74271063Y-100150226D01*
X74157795Y-100319744D01*
X74079774Y-100508102D01*
X74040000Y-100708061D01*
X72243146Y-100708061D01*
X72076935Y-100675000D01*
X71873057Y-100675000D01*
X71673098Y-100714774D01*
X71484740Y-100792795D01*
X71315222Y-100906063D01*
X71171059Y-101050226D01*
X71057791Y-101219744D01*
X70979770Y-101408102D01*
X70939996Y-101608061D01*
X67688072Y-101608061D01*
X67688072Y-100850000D01*
X67675812Y-100725518D01*
X67639502Y-100605820D01*
X67580537Y-100495506D01*
X67501185Y-100398815D01*
X67404494Y-100319463D01*
X67294180Y-100260498D01*
X67174482Y-100224188D01*
X67050000Y-100211928D01*
X65350000Y-100211928D01*
X65225518Y-100224188D01*
X65105820Y-100260498D01*
X64995506Y-100319463D01*
X64898815Y-100398815D01*
X64819463Y-100495506D01*
X64760498Y-100605820D01*
X64724188Y-100725518D01*
X64711928Y-100850000D01*
X62029424Y-100850000D01*
X62093346Y-100695679D01*
X62185000Y-100234902D01*
X62185000Y-99765098D01*
X62093346Y-99304321D01*
X61913560Y-98870279D01*
X61652550Y-98479651D01*
X61320349Y-98147450D01*
X60929721Y-97886440D01*
X60495679Y-97706654D01*
X60034902Y-97615000D01*
X59565098Y-97615000D01*
X59104321Y-97706654D01*
X58670279Y-97886440D01*
X58279651Y-98147450D01*
X57947450Y-98479651D01*
X57686440Y-98870279D01*
X57506654Y-99304321D01*
X57415000Y-99765098D01*
X56885000Y-99765098D01*
X56793346Y-99304321D01*
X56613560Y-98870279D01*
X56352550Y-98479651D01*
X56020349Y-98147450D01*
X55629721Y-97886440D01*
X55195679Y-97706654D01*
X54734902Y-97615000D01*
X54265098Y-97615000D01*
X53804321Y-97706654D01*
X53370279Y-97886440D01*
X52979651Y-98147450D01*
X52647450Y-98479651D01*
X52386440Y-98870279D01*
X52206654Y-99304321D01*
X52115000Y-99765098D01*
X50160000Y-99765098D01*
X50160000Y-95660000D01*
X89851289Y-95660000D01*
X89721063Y-95790226D01*
%TA.AperFunction,Conductor*%
D15*
G36*
X89721063Y-95790226D02*
G01*
X89607795Y-95959744D01*
X89529774Y-96148102D01*
X89490000Y-96348061D01*
X89490000Y-96551939D01*
X89529774Y-96751898D01*
X89607795Y-96940256D01*
X89721063Y-97109774D01*
X89865226Y-97253937D01*
X90034744Y-97367205D01*
X90223102Y-97445226D01*
X90423061Y-97485000D01*
X90626939Y-97485000D01*
X90826898Y-97445226D01*
X91015256Y-97367205D01*
X91184774Y-97253937D01*
X91328937Y-97109774D01*
X91442205Y-96940256D01*
X91520226Y-96751898D01*
X91560000Y-96551939D01*
X91560000Y-96348061D01*
X91520226Y-96148102D01*
X91442205Y-95959744D01*
X91328937Y-95790226D01*
X91198711Y-95660000D01*
X98840000Y-95660000D01*
X98840001Y-134340000D01*
X91168217Y-134340000D01*
X91184774Y-134328937D01*
X91328937Y-134184774D01*
X91442205Y-134015256D01*
X91520226Y-133826898D01*
X91560000Y-133626939D01*
X91560000Y-133423061D01*
X91537633Y-133310613D01*
X91659744Y-133392205D01*
X91848102Y-133470226D01*
X92048061Y-133510000D01*
X92251939Y-133510000D01*
X92451898Y-133470226D01*
X92640256Y-133392205D01*
X92809774Y-133278937D01*
X92953937Y-133134774D01*
X93067205Y-132965256D01*
X93145226Y-132776898D01*
X93185000Y-132576939D01*
X93185000Y-132373061D01*
X93145226Y-132173102D01*
X93067205Y-131984744D01*
X92953937Y-131815226D01*
X92809774Y-131671063D01*
X92640256Y-131557795D01*
X92451898Y-131479774D01*
X92251939Y-131440000D01*
X92048061Y-131440000D01*
X91848102Y-131479774D01*
X91659744Y-131557795D01*
X91490226Y-131671063D01*
X91346063Y-131815226D01*
X91232795Y-131984744D01*
X91154774Y-132173102D01*
X91115000Y-132373061D01*
X91115000Y-132576939D01*
X91137367Y-132689387D01*
X91015256Y-132607795D01*
X90826898Y-132529774D01*
X90626939Y-132490000D01*
X90423061Y-132490000D01*
X90223102Y-132529774D01*
X90034744Y-132607795D01*
X89865226Y-132721063D01*
X89721063Y-132865226D01*
X89607795Y-133034744D01*
X89529774Y-133223102D01*
X89490000Y-133423061D01*
X89490000Y-133626939D01*
X89529774Y-133826898D01*
X89607795Y-134015256D01*
X89721063Y-134184774D01*
X89865226Y-134328937D01*
X89881783Y-134340000D01*
X50160000Y-134340000D01*
X50160000Y-129765098D01*
X52115000Y-129765098D01*
X52115000Y-130234902D01*
X52206654Y-130695679D01*
X52386440Y-131129721D01*
X52647450Y-131520349D01*
X52979651Y-131852550D01*
X53370279Y-132113560D01*
X53804321Y-132293346D01*
X54265098Y-132385000D01*
X54734902Y-132385000D01*
X55195679Y-132293346D01*
X55629721Y-132113560D01*
X56020349Y-131852550D01*
X56352550Y-131520349D01*
X56613560Y-131129721D01*
X56793346Y-130695679D01*
X56885000Y-130234902D01*
X56885000Y-129765098D01*
X57415000Y-129765098D01*
X57415000Y-130234902D01*
X57506654Y-130695679D01*
X57686440Y-131129721D01*
X57947450Y-131520349D01*
X58279651Y-131852550D01*
X58670279Y-132113560D01*
X59104321Y-132293346D01*
X59565098Y-132385000D01*
X60034902Y-132385000D01*
X60495679Y-132293346D01*
X60929721Y-132113560D01*
X61320349Y-131852550D01*
X61652550Y-131520349D01*
X61913560Y-131129721D01*
X62093346Y-130695679D01*
X62185000Y-130234902D01*
X62185000Y-129765098D01*
X62093346Y-129304321D01*
X61913560Y-128870279D01*
X61652550Y-128479651D01*
X61320349Y-128147450D01*
X60929721Y-127886440D01*
X60495679Y-127706654D01*
X60034902Y-127615000D01*
X59565098Y-127615000D01*
X59104321Y-127706654D01*
X58670279Y-127886440D01*
X58279651Y-128147450D01*
X57947450Y-128479651D01*
X57686440Y-128870279D01*
X57506654Y-129304321D01*
X57415000Y-129765098D01*
X56885000Y-129765098D01*
X56793346Y-129304321D01*
X56613560Y-128870279D01*
X56352550Y-128479651D01*
X56020349Y-128147450D01*
X55629721Y-127886440D01*
X55195679Y-127706654D01*
X54734902Y-127615000D01*
X54265098Y-127615000D01*
X53804321Y-127706654D01*
X53370279Y-127886440D01*
X52979651Y-128147450D01*
X52647450Y-128479651D01*
X52386440Y-128870279D01*
X52206654Y-129304321D01*
X52115000Y-129765098D01*
X50160000Y-129765098D01*
X50160000Y-123765098D01*
X52115000Y-123765098D01*
X52115000Y-124234902D01*
X52206654Y-124695679D01*
X52386440Y-125129721D01*
X52647450Y-125520349D01*
X52979651Y-125852550D01*
X53370279Y-126113560D01*
X53804321Y-126293346D01*
X54265098Y-126385000D01*
X54734902Y-126385000D01*
X55195679Y-126293346D01*
X55629721Y-126113560D01*
X56020349Y-125852550D01*
X56352550Y-125520349D01*
X56613560Y-125129721D01*
X56793346Y-124695679D01*
X56885000Y-124234902D01*
X56885000Y-123765098D01*
X57415000Y-123765098D01*
X57415000Y-124234902D01*
X57506654Y-124695679D01*
X57686440Y-125129721D01*
X57947450Y-125520349D01*
X58279651Y-125852550D01*
X58670279Y-126113560D01*
X59104321Y-126293346D01*
X59565098Y-126385000D01*
X60034902Y-126385000D01*
X60495679Y-126293346D01*
X60929721Y-126113560D01*
X61320349Y-125852550D01*
X61652550Y-125520349D01*
X61913560Y-125129721D01*
X62008713Y-124900000D01*
X64711928Y-124900000D01*
X64711928Y-126600000D01*
X64724188Y-126724482D01*
X64760498Y-126844180D01*
X64819463Y-126954494D01*
X64898815Y-127051185D01*
X64995506Y-127130537D01*
X65105820Y-127189502D01*
X65178380Y-127211513D01*
X65046525Y-127343368D01*
X64884010Y-127586589D01*
X64772068Y-127856842D01*
X64715000Y-128143740D01*
X64715000Y-128436260D01*
X64772068Y-128723158D01*
X64884010Y-128993411D01*
X65046525Y-129236632D01*
X65253368Y-129443475D01*
X65496589Y-129605990D01*
X65766842Y-129717932D01*
X66053740Y-129775000D01*
X66346260Y-129775000D01*
X66633158Y-129717932D01*
X66741486Y-129673061D01*
X77975000Y-129673061D01*
X77975000Y-129876939D01*
X78014774Y-130076898D01*
X78092795Y-130265256D01*
X78206063Y-130434774D01*
X78350226Y-130578937D01*
X78519744Y-130692205D01*
X78708102Y-130770226D01*
X78908061Y-130810000D01*
X79111939Y-130810000D01*
X79311898Y-130770226D01*
X79500256Y-130692205D01*
X79669774Y-130578937D01*
X79813937Y-130434774D01*
X79927205Y-130265256D01*
X80005226Y-130076898D01*
X80045000Y-129876939D01*
X80045000Y-129673061D01*
X80005226Y-129473102D01*
X79927205Y-129284744D01*
X79813937Y-129115226D01*
X79669774Y-128971063D01*
X79500256Y-128857795D01*
X79311898Y-128779774D01*
X79278150Y-128773061D01*
X89240000Y-128773061D01*
X89240000Y-128976939D01*
X89279774Y-129176898D01*
X89357795Y-129365256D01*
X89471063Y-129534774D01*
X89615226Y-129678937D01*
X89784744Y-129792205D01*
X89973102Y-129870226D01*
X90173061Y-129910000D01*
X90376939Y-129910000D01*
X90576898Y-129870226D01*
X90765256Y-129792205D01*
X90934774Y-129678937D01*
X91078937Y-129534774D01*
X91137500Y-129447128D01*
X91196063Y-129534774D01*
X91340226Y-129678937D01*
X91509744Y-129792205D01*
X91698102Y-129870226D01*
X91898061Y-129910000D01*
X92101939Y-129910000D01*
X92301898Y-129870226D01*
X92490256Y-129792205D01*
X92659774Y-129678937D01*
X92803937Y-129534774D01*
X92917205Y-129365256D01*
X92995226Y-129176898D01*
X93023092Y-129036803D01*
X93090226Y-129103937D01*
X93259744Y-129217205D01*
X93448102Y-129295226D01*
X93648061Y-129335000D01*
X93851939Y-129335000D01*
X94051898Y-129295226D01*
X94240256Y-129217205D01*
X94409774Y-129103937D01*
X94553937Y-128959774D01*
X94667205Y-128790256D01*
X94745226Y-128601898D01*
X94785000Y-128401939D01*
X94785000Y-128198061D01*
X94745226Y-127998102D01*
X94667205Y-127809744D01*
X94553937Y-127640226D01*
X94409774Y-127496063D01*
X94240256Y-127382795D01*
X94051898Y-127304774D01*
X93851939Y-127265000D01*
X93648061Y-127265000D01*
X93448102Y-127304774D01*
X93259744Y-127382795D01*
X93090226Y-127496063D01*
X92946063Y-127640226D01*
X92832795Y-127809744D01*
X92754774Y-127998102D01*
X92726908Y-128138197D01*
X92659774Y-128071063D01*
X92490256Y-127957795D01*
X92301898Y-127879774D01*
X92101939Y-127840000D01*
X91898061Y-127840000D01*
X91698102Y-127879774D01*
X91509744Y-127957795D01*
X91340226Y-128071063D01*
X91196063Y-128215226D01*
X91137500Y-128302872D01*
X91078937Y-128215226D01*
X90934774Y-128071063D01*
X90765256Y-127957795D01*
X90576898Y-127879774D01*
X90376939Y-127840000D01*
X90173061Y-127840000D01*
X89973102Y-127879774D01*
X89784744Y-127957795D01*
X89615226Y-128071063D01*
X89471063Y-128215226D01*
X89357795Y-128384744D01*
X89279774Y-128573102D01*
X89240000Y-128773061D01*
X79278150Y-128773061D01*
X79111939Y-128740000D01*
X78908061Y-128740000D01*
X78708102Y-128779774D01*
X78519744Y-128857795D01*
X78350226Y-128971063D01*
X78206063Y-129115226D01*
X78092795Y-129284744D01*
X78014774Y-129473102D01*
X77975000Y-129673061D01*
X66741486Y-129673061D01*
X66903411Y-129605990D01*
X67146632Y-129443475D01*
X67353475Y-129236632D01*
X67515990Y-128993411D01*
X67627932Y-128723158D01*
X67685000Y-128436260D01*
X67685000Y-128198061D01*
X70939996Y-128198061D01*
X70939996Y-128401939D01*
X70979770Y-128601898D01*
X71057791Y-128790256D01*
X71171059Y-128959774D01*
X71315222Y-129103937D01*
X71484740Y-129217205D01*
X71673098Y-129295226D01*
X71873057Y-129335000D01*
X72076935Y-129335000D01*
X72276894Y-129295226D01*
X72465252Y-129217205D01*
X72634770Y-129103937D01*
X72778933Y-128959774D01*
X72892201Y-128790256D01*
X72970222Y-128601898D01*
X73009996Y-128401939D01*
X73009996Y-128198061D01*
X72970222Y-127998102D01*
X72892201Y-127809744D01*
X72778933Y-127640226D01*
X72634770Y-127496063D01*
X72465252Y-127382795D01*
X72276894Y-127304774D01*
X72243146Y-127298061D01*
X74040000Y-127298061D01*
X74040000Y-127501939D01*
X74079774Y-127701898D01*
X74157795Y-127890256D01*
X74271063Y-128059774D01*
X74415226Y-128203937D01*
X74584744Y-128317205D01*
X74773102Y-128395226D01*
X74973061Y-128435000D01*
X75176939Y-128435000D01*
X75376898Y-128395226D01*
X75565256Y-128317205D01*
X75734774Y-128203937D01*
X75878937Y-128059774D01*
X75992205Y-127890256D01*
X76070226Y-127701898D01*
X76110000Y-127501939D01*
X76110000Y-127298061D01*
X81615000Y-127298061D01*
X81615000Y-127501939D01*
X81654774Y-127701898D01*
X81732795Y-127890256D01*
X81846063Y-128059774D01*
X81990226Y-128203937D01*
X82159744Y-128317205D01*
X82348102Y-128395226D01*
X82548061Y-128435000D01*
X82751939Y-128435000D01*
X82951898Y-128395226D01*
X83140256Y-128317205D01*
X83309774Y-128203937D01*
X83453937Y-128059774D01*
X83567205Y-127890256D01*
X83645226Y-127701898D01*
X83685000Y-127501939D01*
X83685000Y-127298061D01*
X83645226Y-127098102D01*
X83567205Y-126909744D01*
X83453937Y-126740226D01*
X83309774Y-126596063D01*
X83140256Y-126482795D01*
X82951898Y-126404774D01*
X82751939Y-126365000D01*
X82548061Y-126365000D01*
X82348102Y-126404774D01*
X82159744Y-126482795D01*
X81990226Y-126596063D01*
X81846063Y-126740226D01*
X81732795Y-126909744D01*
X81654774Y-127098102D01*
X81615000Y-127298061D01*
X76110000Y-127298061D01*
X76070226Y-127098102D01*
X75992205Y-126909744D01*
X75878937Y-126740226D01*
X75734774Y-126596063D01*
X75565256Y-126482795D01*
X75376898Y-126404774D01*
X75176939Y-126365000D01*
X74973061Y-126365000D01*
X74773102Y-126404774D01*
X74584744Y-126482795D01*
X74415226Y-126596063D01*
X74271063Y-126740226D01*
X74157795Y-126909744D01*
X74079774Y-127098102D01*
X74040000Y-127298061D01*
X72243146Y-127298061D01*
X72076935Y-127265000D01*
X71873057Y-127265000D01*
X71673098Y-127304774D01*
X71484740Y-127382795D01*
X71315222Y-127496063D01*
X71171059Y-127640226D01*
X71057791Y-127809744D01*
X70979770Y-127998102D01*
X70939996Y-128198061D01*
X67685000Y-128198061D01*
X67685000Y-128143740D01*
X67627932Y-127856842D01*
X67515990Y-127586589D01*
X67353475Y-127343368D01*
X67221620Y-127211513D01*
X67294180Y-127189502D01*
X67404494Y-127130537D01*
X67501185Y-127051185D01*
X67580537Y-126954494D01*
X67639502Y-126844180D01*
X67675812Y-126724482D01*
X67688072Y-126600000D01*
X67688072Y-124900000D01*
X67675812Y-124775518D01*
X67639502Y-124655820D01*
X67580537Y-124545506D01*
X67501185Y-124448815D01*
X67404494Y-124369463D01*
X67294180Y-124310498D01*
X67174482Y-124274188D01*
X67050000Y-124261928D01*
X65350000Y-124261928D01*
X65225518Y-124274188D01*
X65105820Y-124310498D01*
X64995506Y-124369463D01*
X64898815Y-124448815D01*
X64819463Y-124545506D01*
X64760498Y-124655820D01*
X64724188Y-124775518D01*
X64711928Y-124900000D01*
X62008713Y-124900000D01*
X62093346Y-124695679D01*
X62185000Y-124234902D01*
X62185000Y-123765098D01*
X62093346Y-123304321D01*
X61913560Y-122870279D01*
X61652550Y-122479651D01*
X61320349Y-122147450D01*
X60929721Y-121886440D01*
X60837066Y-121848061D01*
X64315000Y-121848061D01*
X64315000Y-122051939D01*
X64354774Y-122251898D01*
X64432795Y-122440256D01*
X64546063Y-122609774D01*
X64690226Y-122753937D01*
X64859744Y-122867205D01*
X65048102Y-122945226D01*
X65248061Y-122985000D01*
X65451939Y-122985000D01*
X65651898Y-122945226D01*
X65840256Y-122867205D01*
X66009774Y-122753937D01*
X66153937Y-122609774D01*
X66267205Y-122440256D01*
X66345226Y-122251898D01*
X66385000Y-122051939D01*
X66385000Y-121873061D01*
X72390000Y-121873061D01*
X72390000Y-122076939D01*
X72429774Y-122276898D01*
X72507795Y-122465256D01*
X72621063Y-122634774D01*
X72765226Y-122778937D01*
X72934744Y-122892205D01*
X73123102Y-122970226D01*
X73323061Y-123010000D01*
X73526939Y-123010000D01*
X73726898Y-122970226D01*
X73915256Y-122892205D01*
X73943904Y-122873063D01*
X77965000Y-122873063D01*
X77965000Y-123076941D01*
X78004774Y-123276900D01*
X78082795Y-123465258D01*
X78196063Y-123634776D01*
X78340226Y-123778939D01*
X78509744Y-123892207D01*
X78698102Y-123970228D01*
X78898061Y-124010002D01*
X79101939Y-124010002D01*
X79301898Y-123970228D01*
X79490256Y-123892207D01*
X79659774Y-123778939D01*
X79680652Y-123758061D01*
X85515000Y-123758061D01*
X85515000Y-123961939D01*
X85554774Y-124161898D01*
X85632795Y-124350256D01*
X85746063Y-124519774D01*
X85890226Y-124663937D01*
X86059744Y-124777205D01*
X86248102Y-124855226D01*
X86448061Y-124895000D01*
X86651939Y-124895000D01*
X86851898Y-124855226D01*
X87040256Y-124777205D01*
X87209774Y-124663937D01*
X87353937Y-124519774D01*
X87467205Y-124350256D01*
X87545226Y-124161898D01*
X87585000Y-123961939D01*
X87585000Y-123758061D01*
X87545226Y-123558102D01*
X87467205Y-123369744D01*
X87353937Y-123200226D01*
X87209774Y-123056063D01*
X87040256Y-122942795D01*
X86851898Y-122864774D01*
X86651939Y-122825000D01*
X86448061Y-122825000D01*
X86248102Y-122864774D01*
X86059744Y-122942795D01*
X85890226Y-123056063D01*
X85746063Y-123200226D01*
X85632795Y-123369744D01*
X85554774Y-123558102D01*
X85515000Y-123758061D01*
X79680652Y-123758061D01*
X79803937Y-123634776D01*
X79917205Y-123465258D01*
X79995226Y-123276900D01*
X80035000Y-123076941D01*
X80035000Y-122873063D01*
X79995226Y-122673104D01*
X79917205Y-122484746D01*
X79803937Y-122315228D01*
X79659774Y-122171065D01*
X79490256Y-122057797D01*
X79301898Y-121979776D01*
X79101939Y-121940002D01*
X78898061Y-121940002D01*
X78698102Y-121979776D01*
X78509744Y-122057797D01*
X78340226Y-122171065D01*
X78196063Y-122315228D01*
X78082795Y-122484746D01*
X78004774Y-122673104D01*
X77965000Y-122873063D01*
X73943904Y-122873063D01*
X74084774Y-122778937D01*
X74228937Y-122634774D01*
X74342205Y-122465256D01*
X74420226Y-122276898D01*
X74460000Y-122076939D01*
X74460000Y-121873061D01*
X74455028Y-121848061D01*
X86590000Y-121848061D01*
X86590000Y-122051939D01*
X86629774Y-122251898D01*
X86707795Y-122440256D01*
X86821063Y-122609774D01*
X86965226Y-122753937D01*
X87134744Y-122867205D01*
X87323102Y-122945226D01*
X87523061Y-122985000D01*
X87726939Y-122985000D01*
X87926898Y-122945226D01*
X88115256Y-122867205D01*
X88284774Y-122753937D01*
X88428937Y-122609774D01*
X88542205Y-122440256D01*
X88620226Y-122251898D01*
X88660000Y-122051939D01*
X88660000Y-121848061D01*
X88620226Y-121648102D01*
X88542205Y-121459744D01*
X88428937Y-121290226D01*
X88284774Y-121146063D01*
X88115256Y-121032795D01*
X87926898Y-120954774D01*
X87726939Y-120915000D01*
X87523061Y-120915000D01*
X87323102Y-120954774D01*
X87134744Y-121032795D01*
X86965226Y-121146063D01*
X86821063Y-121290226D01*
X86707795Y-121459744D01*
X86629774Y-121648102D01*
X86590000Y-121848061D01*
X74455028Y-121848061D01*
X74420226Y-121673102D01*
X74342205Y-121484744D01*
X74228937Y-121315226D01*
X74084774Y-121171063D01*
X73915256Y-121057795D01*
X73726898Y-120979774D01*
X73526939Y-120940000D01*
X73323061Y-120940000D01*
X73123102Y-120979774D01*
X72934744Y-121057795D01*
X72765226Y-121171063D01*
X72621063Y-121315226D01*
X72507795Y-121484744D01*
X72429774Y-121673102D01*
X72390000Y-121873061D01*
X66385000Y-121873061D01*
X66385000Y-121848061D01*
X66345226Y-121648102D01*
X66267205Y-121459744D01*
X66153937Y-121290226D01*
X66009774Y-121146063D01*
X65840256Y-121032795D01*
X65651898Y-120954774D01*
X65451939Y-120915000D01*
X65248061Y-120915000D01*
X65048102Y-120954774D01*
X64859744Y-121032795D01*
X64690226Y-121146063D01*
X64546063Y-121290226D01*
X64432795Y-121459744D01*
X64354774Y-121648102D01*
X64315000Y-121848061D01*
X60837066Y-121848061D01*
X60495679Y-121706654D01*
X60034902Y-121615000D01*
X59565098Y-121615000D01*
X59104321Y-121706654D01*
X58670279Y-121886440D01*
X58279651Y-122147450D01*
X57947450Y-122479651D01*
X57686440Y-122870279D01*
X57506654Y-123304321D01*
X57415000Y-123765098D01*
X56885000Y-123765098D01*
X56793346Y-123304321D01*
X56613560Y-122870279D01*
X56352550Y-122479651D01*
X56020349Y-122147450D01*
X55629721Y-121886440D01*
X55195679Y-121706654D01*
X54734902Y-121615000D01*
X54265098Y-121615000D01*
X53804321Y-121706654D01*
X53370279Y-121886440D01*
X52979651Y-122147450D01*
X52647450Y-122479651D01*
X52386440Y-122870279D01*
X52206654Y-123304321D01*
X52115000Y-123765098D01*
X50160000Y-123765098D01*
X50160000Y-117765098D01*
X52115000Y-117765098D01*
X52115000Y-118234902D01*
X52206654Y-118695679D01*
X52386440Y-119129721D01*
X52647450Y-119520349D01*
X52979651Y-119852550D01*
X53370279Y-120113560D01*
X53804321Y-120293346D01*
X54265098Y-120385000D01*
X54734902Y-120385000D01*
X55195679Y-120293346D01*
X55629721Y-120113560D01*
X56020349Y-119852550D01*
X56352550Y-119520349D01*
X56613560Y-119129721D01*
X56793346Y-118695679D01*
X56885000Y-118234902D01*
X56885000Y-117765098D01*
X57415000Y-117765098D01*
X57415000Y-118234902D01*
X57506654Y-118695679D01*
X57686440Y-119129721D01*
X57947450Y-119520349D01*
X58279651Y-119852550D01*
X58670279Y-120113560D01*
X59104321Y-120293346D01*
X59565098Y-120385000D01*
X60034902Y-120385000D01*
X60495679Y-120293346D01*
X60929721Y-120113560D01*
X61320349Y-119852550D01*
X61652550Y-119520349D01*
X61913560Y-119129721D01*
X62093346Y-118695679D01*
X62185000Y-118234902D01*
X62185000Y-117765098D01*
X62093346Y-117304321D01*
X61913560Y-116870279D01*
X61652550Y-116479651D01*
X61320349Y-116147450D01*
X60929721Y-115886440D01*
X60495679Y-115706654D01*
X60034902Y-115615000D01*
X59565098Y-115615000D01*
X59104321Y-115706654D01*
X58670279Y-115886440D01*
X58279651Y-116147450D01*
X57947450Y-116479651D01*
X57686440Y-116870279D01*
X57506654Y-117304321D01*
X57415000Y-117765098D01*
X56885000Y-117765098D01*
X56793346Y-117304321D01*
X56613560Y-116870279D01*
X56352550Y-116479651D01*
X56020349Y-116147450D01*
X55629721Y-115886440D01*
X55195679Y-115706654D01*
X54734902Y-115615000D01*
X54265098Y-115615000D01*
X53804321Y-115706654D01*
X53370279Y-115886440D01*
X52979651Y-116147450D01*
X52647450Y-116479651D01*
X52386440Y-116870279D01*
X52206654Y-117304321D01*
X52115000Y-117765098D01*
X50160000Y-117765098D01*
X50160000Y-115440000D01*
X64711928Y-115440000D01*
X64711928Y-117140000D01*
X64724188Y-117264482D01*
X64760498Y-117384180D01*
X64819463Y-117494494D01*
X64898815Y-117591185D01*
X64995506Y-117670537D01*
X65105820Y-117729502D01*
X65225518Y-117765812D01*
X65350000Y-117778072D01*
X67050000Y-117778072D01*
X67174482Y-117765812D01*
X67294180Y-117729502D01*
X67404494Y-117670537D01*
X67501185Y-117591185D01*
X67580537Y-117494494D01*
X67639502Y-117384180D01*
X67675812Y-117264482D01*
X67688072Y-117140000D01*
X67688072Y-116448063D01*
X70665000Y-116448063D01*
X70665000Y-116651941D01*
X70704774Y-116851900D01*
X70782795Y-117040258D01*
X70896063Y-117209776D01*
X71040226Y-117353939D01*
X71209744Y-117467207D01*
X71398102Y-117545228D01*
X71598061Y-117585002D01*
X71801939Y-117585002D01*
X72001898Y-117545228D01*
X72190256Y-117467207D01*
X72359774Y-117353939D01*
X72503937Y-117209776D01*
X72616705Y-117041007D01*
X72696062Y-117159774D01*
X72840225Y-117303937D01*
X73009743Y-117417205D01*
X73198101Y-117495226D01*
X73398060Y-117535000D01*
X73601938Y-117535000D01*
X73801897Y-117495226D01*
X73990255Y-117417205D01*
X74159773Y-117303937D01*
X74303936Y-117159774D01*
X74417204Y-116990256D01*
X74495225Y-116801898D01*
X74534999Y-116601939D01*
X74534999Y-116398061D01*
X74495225Y-116198102D01*
X74417204Y-116009744D01*
X74303936Y-115840226D01*
X74159773Y-115696063D01*
X73990255Y-115582795D01*
X73801897Y-115504774D01*
X73601938Y-115465000D01*
X73398060Y-115465000D01*
X73198101Y-115504774D01*
X73009743Y-115582795D01*
X72840225Y-115696063D01*
X72696062Y-115840226D01*
X72583294Y-116008995D01*
X72503937Y-115890228D01*
X72359774Y-115746065D01*
X72190256Y-115632797D01*
X72001898Y-115554776D01*
X71801939Y-115515002D01*
X71598061Y-115515002D01*
X71398102Y-115554776D01*
X71209744Y-115632797D01*
X71040226Y-115746065D01*
X70896063Y-115890228D01*
X70782795Y-116059746D01*
X70704774Y-116248104D01*
X70665000Y-116448063D01*
X67688072Y-116448063D01*
X67688072Y-115440000D01*
X67675812Y-115315518D01*
X67639502Y-115195820D01*
X67580537Y-115085506D01*
X67501185Y-114988815D01*
X67404494Y-114909463D01*
X67294180Y-114850498D01*
X67221620Y-114828487D01*
X67353475Y-114696632D01*
X67515990Y-114453411D01*
X67627932Y-114183158D01*
X67685000Y-113896260D01*
X67685000Y-113603740D01*
X67627932Y-113316842D01*
X67620153Y-113298061D01*
X70790000Y-113298061D01*
X70790000Y-113501939D01*
X70829774Y-113701898D01*
X70907795Y-113890256D01*
X71021063Y-114059774D01*
X71165226Y-114203937D01*
X71334744Y-114317205D01*
X71523102Y-114395226D01*
X71723061Y-114435000D01*
X71926939Y-114435000D01*
X72126898Y-114395226D01*
X72315256Y-114317205D01*
X72484774Y-114203937D01*
X72628937Y-114059774D01*
X72629093Y-114059540D01*
X72696067Y-114159774D01*
X72840230Y-114303937D01*
X73009748Y-114417205D01*
X73198106Y-114495226D01*
X73398065Y-114535000D01*
X73601943Y-114535000D01*
X73801902Y-114495226D01*
X73990260Y-114417205D01*
X74159778Y-114303937D01*
X74303941Y-114159774D01*
X74417209Y-113990256D01*
X74495230Y-113801898D01*
X74535004Y-113601939D01*
X74535004Y-113398061D01*
X74495230Y-113198102D01*
X74417209Y-113009744D01*
X74303941Y-112840226D01*
X74159778Y-112696063D01*
X73990260Y-112582795D01*
X73801902Y-112504774D01*
X73601943Y-112465000D01*
X73398065Y-112465000D01*
X73198106Y-112504774D01*
X73009748Y-112582795D01*
X72840230Y-112696063D01*
X72696067Y-112840226D01*
X72695911Y-112840460D01*
X72628937Y-112740226D01*
X72484774Y-112596063D01*
X72315256Y-112482795D01*
X72126898Y-112404774D01*
X71926939Y-112365000D01*
X71723061Y-112365000D01*
X71523102Y-112404774D01*
X71334744Y-112482795D01*
X71165226Y-112596063D01*
X71021063Y-112740226D01*
X70907795Y-112909744D01*
X70829774Y-113098102D01*
X70790000Y-113298061D01*
X67620153Y-113298061D01*
X67515990Y-113046589D01*
X67353475Y-112803368D01*
X67146632Y-112596525D01*
X66903411Y-112434010D01*
X66633158Y-112322068D01*
X66346260Y-112265000D01*
X66053740Y-112265000D01*
X65766842Y-112322068D01*
X65496589Y-112434010D01*
X65253368Y-112596525D01*
X65046525Y-112803368D01*
X64884010Y-113046589D01*
X64772068Y-113316842D01*
X64715000Y-113603740D01*
X64715000Y-113896260D01*
X64772068Y-114183158D01*
X64884010Y-114453411D01*
X65046525Y-114696632D01*
X65178380Y-114828487D01*
X65105820Y-114850498D01*
X64995506Y-114909463D01*
X64898815Y-114988815D01*
X64819463Y-115085506D01*
X64760498Y-115195820D01*
X64724188Y-115315518D01*
X64711928Y-115440000D01*
X50160000Y-115440000D01*
X50160000Y-111765098D01*
X52115000Y-111765098D01*
X52115000Y-112234902D01*
X52206654Y-112695679D01*
X52386440Y-113129721D01*
X52647450Y-113520349D01*
X52979651Y-113852550D01*
X53370279Y-114113560D01*
X53804321Y-114293346D01*
X54265098Y-114385000D01*
X54734902Y-114385000D01*
X55195679Y-114293346D01*
X55629721Y-114113560D01*
X56020349Y-113852550D01*
X56352550Y-113520349D01*
X56613560Y-113129721D01*
X56793346Y-112695679D01*
X56885000Y-112234902D01*
X56885000Y-111765098D01*
X57415000Y-111765098D01*
X57415000Y-112234902D01*
X57506654Y-112695679D01*
X57686440Y-113129721D01*
X57947450Y-113520349D01*
X58279651Y-113852550D01*
X58670279Y-114113560D01*
X59104321Y-114293346D01*
X59565098Y-114385000D01*
X60034902Y-114385000D01*
X60495679Y-114293346D01*
X60929721Y-114113560D01*
X61320349Y-113852550D01*
X61652550Y-113520349D01*
X61913560Y-113129721D01*
X62093346Y-112695679D01*
X62185000Y-112234902D01*
X62185000Y-111765098D01*
X62102047Y-111348061D01*
X75015000Y-111348061D01*
X75015000Y-111551939D01*
X75054774Y-111751898D01*
X75132795Y-111940256D01*
X75246063Y-112109774D01*
X75390226Y-112253937D01*
X75559744Y-112367205D01*
X75748102Y-112445226D01*
X75948061Y-112485000D01*
X76151939Y-112485000D01*
X76351898Y-112445226D01*
X76537869Y-112368194D01*
X76504774Y-112448092D01*
X76465000Y-112648051D01*
X76465000Y-112851929D01*
X76504774Y-113051888D01*
X76582795Y-113240246D01*
X76696063Y-113409764D01*
X76840226Y-113553927D01*
X77009744Y-113667195D01*
X77198102Y-113745216D01*
X77398061Y-113784990D01*
X77601939Y-113784990D01*
X77801898Y-113745216D01*
X77990256Y-113667195D01*
X78159774Y-113553927D01*
X78261928Y-113451773D01*
X78261928Y-114298217D01*
X78159774Y-114196063D01*
X77990256Y-114082795D01*
X77801898Y-114004774D01*
X77601939Y-113965000D01*
X77398061Y-113965000D01*
X77198102Y-114004774D01*
X77009744Y-114082795D01*
X76840226Y-114196063D01*
X76696063Y-114340226D01*
X76582795Y-114509744D01*
X76504774Y-114698102D01*
X76465000Y-114898061D01*
X76465000Y-115101939D01*
X76504774Y-115301898D01*
X76582795Y-115490256D01*
X76696063Y-115659774D01*
X76840226Y-115803937D01*
X77009744Y-115917205D01*
X77198102Y-115995226D01*
X77398061Y-116035000D01*
X77601939Y-116035000D01*
X77801898Y-115995226D01*
X77990256Y-115917205D01*
X78159774Y-115803937D01*
X78303937Y-115659774D01*
X78417205Y-115490256D01*
X78495226Y-115301898D01*
X78529874Y-115127708D01*
X78545506Y-115140537D01*
X78655820Y-115199502D01*
X78728380Y-115221513D01*
X78596525Y-115353368D01*
X78434010Y-115596589D01*
X78322068Y-115866842D01*
X78265000Y-116153740D01*
X78265000Y-116446260D01*
X78291079Y-116577368D01*
X78159774Y-116446063D01*
X77990256Y-116332795D01*
X77801898Y-116254774D01*
X77601939Y-116215000D01*
X77398061Y-116215000D01*
X77198102Y-116254774D01*
X77009744Y-116332795D01*
X76840226Y-116446063D01*
X76696063Y-116590226D01*
X76582795Y-116759744D01*
X76504774Y-116948102D01*
X76465000Y-117148061D01*
X76465000Y-117351939D01*
X76504774Y-117551898D01*
X76537874Y-117631808D01*
X76351898Y-117554774D01*
X76151939Y-117515000D01*
X75948061Y-117515000D01*
X75748102Y-117554774D01*
X75559744Y-117632795D01*
X75390226Y-117746063D01*
X75246063Y-117890226D01*
X75132795Y-118059744D01*
X75054774Y-118248102D01*
X75015000Y-118448061D01*
X75015000Y-118651939D01*
X75054774Y-118851898D01*
X75132795Y-119040256D01*
X75246063Y-119209774D01*
X75390226Y-119353937D01*
X75559744Y-119467205D01*
X75748102Y-119545226D01*
X75948061Y-119585000D01*
X76151939Y-119585000D01*
X76351898Y-119545226D01*
X76540256Y-119467205D01*
X76709774Y-119353937D01*
X76853937Y-119209774D01*
X76967205Y-119040256D01*
X77045226Y-118851898D01*
X77085000Y-118651939D01*
X77085000Y-118448061D01*
X77045226Y-118248102D01*
X77012126Y-118168192D01*
X77198102Y-118245226D01*
X77398061Y-118285000D01*
X77601939Y-118285000D01*
X77801898Y-118245226D01*
X77990256Y-118167205D01*
X78159774Y-118053937D01*
X78303937Y-117909774D01*
X78417205Y-117740256D01*
X78495226Y-117551898D01*
X78535000Y-117351939D01*
X78535000Y-117154553D01*
X78596525Y-117246632D01*
X78803368Y-117453475D01*
X79046589Y-117615990D01*
X79316842Y-117727932D01*
X79603740Y-117785000D01*
X79896260Y-117785000D01*
X79956280Y-117773061D01*
X85865000Y-117773061D01*
X85865000Y-117976939D01*
X85904774Y-118176898D01*
X85982795Y-118365256D01*
X86096063Y-118534774D01*
X86240226Y-118678937D01*
X86409744Y-118792205D01*
X86598102Y-118870226D01*
X86798061Y-118910000D01*
X87001939Y-118910000D01*
X87201898Y-118870226D01*
X87390256Y-118792205D01*
X87559774Y-118678937D01*
X87703937Y-118534774D01*
X87817205Y-118365256D01*
X87895226Y-118176898D01*
X87935000Y-117976939D01*
X87935000Y-117773061D01*
X92690000Y-117773061D01*
X92690000Y-117976939D01*
X92729774Y-118176898D01*
X92807795Y-118365256D01*
X92921063Y-118534774D01*
X93065226Y-118678937D01*
X93234744Y-118792205D01*
X93423102Y-118870226D01*
X93623061Y-118910000D01*
X93826939Y-118910000D01*
X94026898Y-118870226D01*
X94215256Y-118792205D01*
X94384774Y-118678937D01*
X94528937Y-118534774D01*
X94642205Y-118365256D01*
X94720226Y-118176898D01*
X94760000Y-117976939D01*
X94760000Y-117773061D01*
X94720226Y-117573102D01*
X94642205Y-117384744D01*
X94528937Y-117215226D01*
X94384774Y-117071063D01*
X94215256Y-116957795D01*
X94026898Y-116879774D01*
X93826939Y-116840000D01*
X93623061Y-116840000D01*
X93423102Y-116879774D01*
X93234744Y-116957795D01*
X93065226Y-117071063D01*
X92921063Y-117215226D01*
X92807795Y-117384744D01*
X92729774Y-117573102D01*
X92690000Y-117773061D01*
X87935000Y-117773061D01*
X87895226Y-117573102D01*
X87817205Y-117384744D01*
X87703937Y-117215226D01*
X87559774Y-117071063D01*
X87390256Y-116957795D01*
X87201898Y-116879774D01*
X87001939Y-116840000D01*
X86798061Y-116840000D01*
X86598102Y-116879774D01*
X86409744Y-116957795D01*
X86240226Y-117071063D01*
X86096063Y-117215226D01*
X85982795Y-117384744D01*
X85904774Y-117573102D01*
X85865000Y-117773061D01*
X79956280Y-117773061D01*
X80183158Y-117727932D01*
X80453411Y-117615990D01*
X80696632Y-117453475D01*
X80903475Y-117246632D01*
X81065990Y-117003411D01*
X81177932Y-116733158D01*
X81235000Y-116446260D01*
X81235000Y-116153740D01*
X81223925Y-116098061D01*
X83815000Y-116098061D01*
X83815000Y-116301939D01*
X83854774Y-116501898D01*
X83932795Y-116690256D01*
X84046063Y-116859774D01*
X84190226Y-117003937D01*
X84359744Y-117117205D01*
X84548102Y-117195226D01*
X84748061Y-117235000D01*
X84951939Y-117235000D01*
X85151898Y-117195226D01*
X85340256Y-117117205D01*
X85509774Y-117003937D01*
X85653937Y-116859774D01*
X85767205Y-116690256D01*
X85845226Y-116501898D01*
X85885000Y-116301939D01*
X85885000Y-116098061D01*
X85855164Y-115948061D01*
X89990000Y-115948061D01*
X89990000Y-116151939D01*
X90029774Y-116351898D01*
X90107795Y-116540256D01*
X90221063Y-116709774D01*
X90365226Y-116853937D01*
X90534744Y-116967205D01*
X90723102Y-117045226D01*
X90923061Y-117085000D01*
X91126939Y-117085000D01*
X91326898Y-117045226D01*
X91515256Y-116967205D01*
X91664064Y-116867775D01*
X91665226Y-116868937D01*
X91834744Y-116982205D01*
X92023102Y-117060226D01*
X92223061Y-117100000D01*
X92426939Y-117100000D01*
X92626898Y-117060226D01*
X92815256Y-116982205D01*
X92984774Y-116868937D01*
X93128937Y-116724774D01*
X93242205Y-116555256D01*
X93320226Y-116366898D01*
X93360000Y-116166939D01*
X93360000Y-115963061D01*
X93320226Y-115763102D01*
X93242205Y-115574744D01*
X93128937Y-115405226D01*
X92984774Y-115261063D01*
X92815256Y-115147795D01*
X92626898Y-115069774D01*
X92426939Y-115030000D01*
X92223061Y-115030000D01*
X92023102Y-115069774D01*
X91834744Y-115147795D01*
X91685936Y-115247225D01*
X91684774Y-115246063D01*
X91515256Y-115132795D01*
X91326898Y-115054774D01*
X91126939Y-115015000D01*
X90923061Y-115015000D01*
X90723102Y-115054774D01*
X90534744Y-115132795D01*
X90365226Y-115246063D01*
X90221063Y-115390226D01*
X90107795Y-115559744D01*
X90029774Y-115748102D01*
X89990000Y-115948061D01*
X85855164Y-115948061D01*
X85845226Y-115898102D01*
X85767205Y-115709744D01*
X85653937Y-115540226D01*
X85509774Y-115396063D01*
X85340256Y-115282795D01*
X85151898Y-115204774D01*
X84951939Y-115165000D01*
X84748061Y-115165000D01*
X84548102Y-115204774D01*
X84359744Y-115282795D01*
X84190226Y-115396063D01*
X84046063Y-115540226D01*
X83932795Y-115709744D01*
X83854774Y-115898102D01*
X83815000Y-116098061D01*
X81223925Y-116098061D01*
X81177932Y-115866842D01*
X81065990Y-115596589D01*
X80903475Y-115353368D01*
X80771620Y-115221513D01*
X80844180Y-115199502D01*
X80954494Y-115140537D01*
X81051185Y-115061185D01*
X81130537Y-114964494D01*
X81189502Y-114854180D01*
X81225812Y-114734482D01*
X81238072Y-114610000D01*
X81238072Y-113648061D01*
X83815000Y-113648061D01*
X83815000Y-113851939D01*
X83854774Y-114051898D01*
X83932795Y-114240256D01*
X84046063Y-114409774D01*
X84190226Y-114553937D01*
X84359744Y-114667205D01*
X84548102Y-114745226D01*
X84748061Y-114785000D01*
X84951939Y-114785000D01*
X85151898Y-114745226D01*
X85340256Y-114667205D01*
X85509774Y-114553937D01*
X85653937Y-114409774D01*
X85767205Y-114240256D01*
X85845226Y-114051898D01*
X85885000Y-113851939D01*
X85885000Y-113823061D01*
X89990000Y-113823061D01*
X89990000Y-114026939D01*
X90029774Y-114226898D01*
X90107795Y-114415256D01*
X90221063Y-114584774D01*
X90365226Y-114728937D01*
X90534744Y-114842205D01*
X90723102Y-114920226D01*
X90923061Y-114960000D01*
X91126939Y-114960000D01*
X91326898Y-114920226D01*
X91515256Y-114842205D01*
X91675000Y-114735468D01*
X91834744Y-114842205D01*
X92023102Y-114920226D01*
X92223061Y-114960000D01*
X92426939Y-114960000D01*
X92626898Y-114920226D01*
X92815256Y-114842205D01*
X92984774Y-114728937D01*
X93128937Y-114584774D01*
X93242205Y-114415256D01*
X93320226Y-114226898D01*
X93360000Y-114026939D01*
X93360000Y-113823061D01*
X93320226Y-113623102D01*
X93242205Y-113434744D01*
X93128937Y-113265226D01*
X92984774Y-113121063D01*
X92815256Y-113007795D01*
X92626898Y-112929774D01*
X92426939Y-112890000D01*
X92223061Y-112890000D01*
X92023102Y-112929774D01*
X91834744Y-113007795D01*
X91675000Y-113114532D01*
X91515256Y-113007795D01*
X91326898Y-112929774D01*
X91126939Y-112890000D01*
X90923061Y-112890000D01*
X90723102Y-112929774D01*
X90534744Y-113007795D01*
X90365226Y-113121063D01*
X90221063Y-113265226D01*
X90107795Y-113434744D01*
X90029774Y-113623102D01*
X89990000Y-113823061D01*
X85885000Y-113823061D01*
X85885000Y-113648061D01*
X85845226Y-113448102D01*
X85767205Y-113259744D01*
X85653937Y-113090226D01*
X85509774Y-112946063D01*
X85340256Y-112832795D01*
X85151898Y-112754774D01*
X84951939Y-112715000D01*
X84748061Y-112715000D01*
X84548102Y-112754774D01*
X84359744Y-112832795D01*
X84190226Y-112946063D01*
X84046063Y-113090226D01*
X83932795Y-113259744D01*
X83854774Y-113448102D01*
X83815000Y-113648061D01*
X81238072Y-113648061D01*
X81238072Y-112910000D01*
X81225812Y-112785518D01*
X81189502Y-112665820D01*
X81130537Y-112555506D01*
X81051185Y-112458815D01*
X80954494Y-112379463D01*
X80844180Y-112320498D01*
X80724482Y-112284188D01*
X80600000Y-112271928D01*
X78900000Y-112271928D01*
X78775518Y-112284188D01*
X78655820Y-112320498D01*
X78545506Y-112379463D01*
X78486767Y-112427669D01*
X78417205Y-112259734D01*
X78303937Y-112090216D01*
X78159774Y-111946053D01*
X77990256Y-111832785D01*
X77801898Y-111754764D01*
X77601939Y-111714990D01*
X77398061Y-111714990D01*
X77198102Y-111754764D01*
X77012131Y-111831796D01*
X77045226Y-111751898D01*
X77085000Y-111551939D01*
X77085000Y-111348061D01*
X77045226Y-111148102D01*
X76967205Y-110959744D01*
X76853937Y-110790226D01*
X76709774Y-110646063D01*
X76540256Y-110532795D01*
X76351898Y-110454774D01*
X76151939Y-110415000D01*
X75948061Y-110415000D01*
X75748102Y-110454774D01*
X75559744Y-110532795D01*
X75390226Y-110646063D01*
X75246063Y-110790226D01*
X75132795Y-110959744D01*
X75054774Y-111148102D01*
X75015000Y-111348061D01*
X62102047Y-111348061D01*
X62093346Y-111304321D01*
X61913560Y-110870279D01*
X61652550Y-110479651D01*
X61320349Y-110147450D01*
X60929721Y-109886440D01*
X60495679Y-109706654D01*
X60034902Y-109615000D01*
X59565098Y-109615000D01*
X59104321Y-109706654D01*
X58670279Y-109886440D01*
X58279651Y-110147450D01*
X57947450Y-110479651D01*
X57686440Y-110870279D01*
X57506654Y-111304321D01*
X57415000Y-111765098D01*
X56885000Y-111765098D01*
X56793346Y-111304321D01*
X56613560Y-110870279D01*
X56352550Y-110479651D01*
X56020349Y-110147450D01*
X55629721Y-109886440D01*
X55195679Y-109706654D01*
X54734902Y-109615000D01*
X54265098Y-109615000D01*
X53804321Y-109706654D01*
X53370279Y-109886440D01*
X52979651Y-110147450D01*
X52647450Y-110479651D01*
X52386440Y-110870279D01*
X52206654Y-111304321D01*
X52115000Y-111765098D01*
X50160000Y-111765098D01*
X50160000Y-105765098D01*
X52115000Y-105765098D01*
X52115000Y-106234902D01*
X52206654Y-106695679D01*
X52386440Y-107129721D01*
X52647450Y-107520349D01*
X52979651Y-107852550D01*
X53370279Y-108113560D01*
X53804321Y-108293346D01*
X54265098Y-108385000D01*
X54734902Y-108385000D01*
X55195679Y-108293346D01*
X55629721Y-108113560D01*
X56020349Y-107852550D01*
X56352550Y-107520349D01*
X56613560Y-107129721D01*
X56793346Y-106695679D01*
X56885000Y-106234902D01*
X56885000Y-105765098D01*
X57415000Y-105765098D01*
X57415000Y-106234902D01*
X57506654Y-106695679D01*
X57686440Y-107129721D01*
X57947450Y-107520349D01*
X58279651Y-107852550D01*
X58670279Y-108113560D01*
X59104321Y-108293346D01*
X59565098Y-108385000D01*
X60034902Y-108385000D01*
X60495679Y-108293346D01*
X60929721Y-108113560D01*
X61320349Y-107852550D01*
X61324838Y-107848061D01*
X64315000Y-107848061D01*
X64315000Y-108051939D01*
X64354774Y-108251898D01*
X64432795Y-108440256D01*
X64546063Y-108609774D01*
X64690226Y-108753937D01*
X64859744Y-108867205D01*
X65048102Y-108945226D01*
X65248061Y-108985000D01*
X65451939Y-108985000D01*
X65651898Y-108945226D01*
X65840256Y-108867205D01*
X66009774Y-108753937D01*
X66153937Y-108609774D01*
X66267205Y-108440256D01*
X66345226Y-108251898D01*
X66385000Y-108051939D01*
X66385000Y-107848061D01*
X72390000Y-107848061D01*
X72390000Y-108051939D01*
X72429774Y-108251898D01*
X72507795Y-108440256D01*
X72621063Y-108609774D01*
X72765226Y-108753937D01*
X72934744Y-108867205D01*
X73123102Y-108945226D01*
X73323061Y-108985000D01*
X73526939Y-108985000D01*
X73726898Y-108945226D01*
X73915256Y-108867205D01*
X74084774Y-108753937D01*
X74228937Y-108609774D01*
X74342205Y-108440256D01*
X74420226Y-108251898D01*
X74460000Y-108051939D01*
X74460000Y-107848061D01*
X74420226Y-107648102D01*
X74342205Y-107459744D01*
X74228937Y-107290226D01*
X74084774Y-107146063D01*
X73938104Y-107048061D01*
X77965000Y-107048061D01*
X77965000Y-107251939D01*
X78004774Y-107451898D01*
X78082795Y-107640256D01*
X78196063Y-107809774D01*
X78340226Y-107953937D01*
X78509744Y-108067205D01*
X78698102Y-108145226D01*
X78898061Y-108185000D01*
X79101939Y-108185000D01*
X79301898Y-108145226D01*
X79490256Y-108067205D01*
X79659774Y-107953937D01*
X79665650Y-107948061D01*
X87240000Y-107948061D01*
X87240000Y-108151939D01*
X87279774Y-108351898D01*
X87357795Y-108540256D01*
X87471063Y-108709774D01*
X87615226Y-108853937D01*
X87784744Y-108967205D01*
X87973102Y-109045226D01*
X88173061Y-109085000D01*
X88376939Y-109085000D01*
X88427212Y-109075000D01*
X95011928Y-109075000D01*
X95011928Y-110775000D01*
X95024188Y-110899482D01*
X95060498Y-111019180D01*
X95119463Y-111129494D01*
X95198815Y-111226185D01*
X95295506Y-111305537D01*
X95405820Y-111364502D01*
X95478380Y-111386513D01*
X95346525Y-111518368D01*
X95184010Y-111761589D01*
X95072068Y-112031842D01*
X95015000Y-112318740D01*
X95015000Y-112611260D01*
X95072068Y-112898158D01*
X95184010Y-113168411D01*
X95346525Y-113411632D01*
X95553368Y-113618475D01*
X95727760Y-113735000D01*
X95553368Y-113851525D01*
X95346525Y-114058368D01*
X95184010Y-114301589D01*
X95072068Y-114571842D01*
X95015000Y-114858740D01*
X95015000Y-115151260D01*
X95072068Y-115438158D01*
X95184010Y-115708411D01*
X95346525Y-115951632D01*
X95553368Y-116158475D01*
X95727760Y-116275000D01*
X95553368Y-116391525D01*
X95346525Y-116598368D01*
X95184010Y-116841589D01*
X95072068Y-117111842D01*
X95015000Y-117398740D01*
X95015000Y-117691260D01*
X95072068Y-117978158D01*
X95184010Y-118248411D01*
X95346525Y-118491632D01*
X95553368Y-118698475D01*
X95796589Y-118860990D01*
X96066842Y-118972932D01*
X96353740Y-119030000D01*
X96646260Y-119030000D01*
X96933158Y-118972932D01*
X97203411Y-118860990D01*
X97446632Y-118698475D01*
X97653475Y-118491632D01*
X97815990Y-118248411D01*
X97927932Y-117978158D01*
X97985000Y-117691260D01*
X97985000Y-117398740D01*
X97927932Y-117111842D01*
X97815990Y-116841589D01*
X97653475Y-116598368D01*
X97446632Y-116391525D01*
X97272240Y-116275000D01*
X97446632Y-116158475D01*
X97653475Y-115951632D01*
X97815990Y-115708411D01*
X97927932Y-115438158D01*
X97985000Y-115151260D01*
X97985000Y-114858740D01*
X97927932Y-114571842D01*
X97815990Y-114301589D01*
X97653475Y-114058368D01*
X97446632Y-113851525D01*
X97272240Y-113735000D01*
X97446632Y-113618475D01*
X97653475Y-113411632D01*
X97815990Y-113168411D01*
X97927932Y-112898158D01*
X97985000Y-112611260D01*
X97985000Y-112318740D01*
X97927932Y-112031842D01*
X97815990Y-111761589D01*
X97653475Y-111518368D01*
X97521620Y-111386513D01*
X97594180Y-111364502D01*
X97704494Y-111305537D01*
X97801185Y-111226185D01*
X97880537Y-111129494D01*
X97939502Y-111019180D01*
X97975812Y-110899482D01*
X97988072Y-110775000D01*
X97988072Y-109075000D01*
X97975812Y-108950518D01*
X97939502Y-108830820D01*
X97880537Y-108720506D01*
X97801185Y-108623815D01*
X97704494Y-108544463D01*
X97594180Y-108485498D01*
X97474482Y-108449188D01*
X97350000Y-108436928D01*
X95650000Y-108436928D01*
X95525518Y-108449188D01*
X95405820Y-108485498D01*
X95295506Y-108544463D01*
X95198815Y-108623815D01*
X95119463Y-108720506D01*
X95060498Y-108830820D01*
X95024188Y-108950518D01*
X95011928Y-109075000D01*
X88427212Y-109075000D01*
X88576898Y-109045226D01*
X88765256Y-108967205D01*
X88934774Y-108853937D01*
X89078937Y-108709774D01*
X89192205Y-108540256D01*
X89270226Y-108351898D01*
X89310000Y-108151939D01*
X89310000Y-107948061D01*
X89270226Y-107748102D01*
X89192205Y-107559744D01*
X89078937Y-107390226D01*
X88934774Y-107246063D01*
X88765256Y-107132795D01*
X88576898Y-107054774D01*
X88376939Y-107015000D01*
X88173061Y-107015000D01*
X87973102Y-107054774D01*
X87784744Y-107132795D01*
X87615226Y-107246063D01*
X87471063Y-107390226D01*
X87357795Y-107559744D01*
X87279774Y-107748102D01*
X87240000Y-107948061D01*
X79665650Y-107948061D01*
X79803937Y-107809774D01*
X79917205Y-107640256D01*
X79995226Y-107451898D01*
X80035000Y-107251939D01*
X80035000Y-107048061D01*
X79995226Y-106848102D01*
X79917205Y-106659744D01*
X79803937Y-106490226D01*
X79659774Y-106346063D01*
X79490256Y-106232795D01*
X79301898Y-106154774D01*
X79101939Y-106115000D01*
X78898061Y-106115000D01*
X78698102Y-106154774D01*
X78509744Y-106232795D01*
X78340226Y-106346063D01*
X78196063Y-106490226D01*
X78082795Y-106659744D01*
X78004774Y-106848102D01*
X77965000Y-107048061D01*
X73938104Y-107048061D01*
X73915256Y-107032795D01*
X73726898Y-106954774D01*
X73526939Y-106915000D01*
X73323061Y-106915000D01*
X73123102Y-106954774D01*
X72934744Y-107032795D01*
X72765226Y-107146063D01*
X72621063Y-107290226D01*
X72507795Y-107459744D01*
X72429774Y-107648102D01*
X72390000Y-107848061D01*
X66385000Y-107848061D01*
X66345226Y-107648102D01*
X66267205Y-107459744D01*
X66153937Y-107290226D01*
X66009774Y-107146063D01*
X65840256Y-107032795D01*
X65651898Y-106954774D01*
X65451939Y-106915000D01*
X65248061Y-106915000D01*
X65048102Y-106954774D01*
X64859744Y-107032795D01*
X64690226Y-107146063D01*
X64546063Y-107290226D01*
X64432795Y-107459744D01*
X64354774Y-107648102D01*
X64315000Y-107848061D01*
X61324838Y-107848061D01*
X61652550Y-107520349D01*
X61913560Y-107129721D01*
X62093346Y-106695679D01*
X62185000Y-106234902D01*
X62185000Y-105765098D01*
X62093346Y-105304321D01*
X61913560Y-104870279D01*
X61652550Y-104479651D01*
X61320349Y-104147450D01*
X60929721Y-103886440D01*
X60495679Y-103706654D01*
X60034902Y-103615000D01*
X59565098Y-103615000D01*
X59104321Y-103706654D01*
X58670279Y-103886440D01*
X58279651Y-104147450D01*
X57947450Y-104479651D01*
X57686440Y-104870279D01*
X57506654Y-105304321D01*
X57415000Y-105765098D01*
X56885000Y-105765098D01*
X56793346Y-105304321D01*
X56613560Y-104870279D01*
X56352550Y-104479651D01*
X56020349Y-104147450D01*
X55629721Y-103886440D01*
X55195679Y-103706654D01*
X54734902Y-103615000D01*
X54265098Y-103615000D01*
X53804321Y-103706654D01*
X53370279Y-103886440D01*
X52979651Y-104147450D01*
X52647450Y-104479651D01*
X52386440Y-104870279D01*
X52206654Y-105304321D01*
X52115000Y-105765098D01*
X50160000Y-105765098D01*
X50160000Y-99765098D01*
X52115000Y-99765098D01*
X52115000Y-100234902D01*
X52206654Y-100695679D01*
X52386440Y-101129721D01*
X52647450Y-101520349D01*
X52979651Y-101852550D01*
X53370279Y-102113560D01*
X53804321Y-102293346D01*
X54265098Y-102385000D01*
X54734902Y-102385000D01*
X55195679Y-102293346D01*
X55629721Y-102113560D01*
X56020349Y-101852550D01*
X56352550Y-101520349D01*
X56613560Y-101129721D01*
X56793346Y-100695679D01*
X56885000Y-100234902D01*
X56885000Y-99765098D01*
X57415000Y-99765098D01*
X57415000Y-100234902D01*
X57506654Y-100695679D01*
X57686440Y-101129721D01*
X57947450Y-101520349D01*
X58279651Y-101852550D01*
X58670279Y-102113560D01*
X59104321Y-102293346D01*
X59565098Y-102385000D01*
X60034902Y-102385000D01*
X60495679Y-102293346D01*
X60929721Y-102113560D01*
X61320349Y-101852550D01*
X61652550Y-101520349D01*
X61913560Y-101129721D01*
X62029424Y-100850000D01*
X64711928Y-100850000D01*
X64711928Y-102550000D01*
X64724188Y-102674482D01*
X64760498Y-102794180D01*
X64819463Y-102904494D01*
X64898815Y-103001185D01*
X64995506Y-103080537D01*
X65105820Y-103139502D01*
X65178380Y-103161513D01*
X65046525Y-103293368D01*
X64884010Y-103536589D01*
X64772068Y-103806842D01*
X64715000Y-104093740D01*
X64715000Y-104386260D01*
X64772068Y-104673158D01*
X64884010Y-104943411D01*
X65046525Y-105186632D01*
X65253368Y-105393475D01*
X65496589Y-105555990D01*
X65766842Y-105667932D01*
X66053740Y-105725000D01*
X66346260Y-105725000D01*
X66633158Y-105667932D01*
X66903411Y-105555990D01*
X67146632Y-105393475D01*
X67353475Y-105186632D01*
X67395951Y-105123061D01*
X86215000Y-105123061D01*
X86215000Y-105326939D01*
X86254774Y-105526898D01*
X86332795Y-105715256D01*
X86446063Y-105884774D01*
X86590226Y-106028937D01*
X86759744Y-106142205D01*
X86948102Y-106220226D01*
X87148061Y-106260000D01*
X87351939Y-106260000D01*
X87551898Y-106220226D01*
X87740256Y-106142205D01*
X87909774Y-106028937D01*
X88053937Y-105884774D01*
X88121899Y-105783061D01*
X91115000Y-105783061D01*
X91115000Y-105986939D01*
X91154774Y-106186898D01*
X91232795Y-106375256D01*
X91346063Y-106544774D01*
X91490226Y-106688937D01*
X91659744Y-106802205D01*
X91848102Y-106880226D01*
X92048061Y-106920000D01*
X92251939Y-106920000D01*
X92451898Y-106880226D01*
X92640256Y-106802205D01*
X92809774Y-106688937D01*
X92953937Y-106544774D01*
X93067205Y-106375256D01*
X93145226Y-106186898D01*
X93185000Y-105986939D01*
X93185000Y-105783061D01*
X93145226Y-105583102D01*
X93067205Y-105394744D01*
X92953937Y-105225226D01*
X92809774Y-105081063D01*
X92640256Y-104967795D01*
X92451898Y-104889774D01*
X92251939Y-104850000D01*
X92048061Y-104850000D01*
X91848102Y-104889774D01*
X91659744Y-104967795D01*
X91490226Y-105081063D01*
X91346063Y-105225226D01*
X91232795Y-105394744D01*
X91154774Y-105583102D01*
X91115000Y-105783061D01*
X88121899Y-105783061D01*
X88167205Y-105715256D01*
X88245226Y-105526898D01*
X88285000Y-105326939D01*
X88285000Y-105123061D01*
X88245226Y-104923102D01*
X88167205Y-104734744D01*
X88053937Y-104565226D01*
X87909774Y-104421063D01*
X87740256Y-104307795D01*
X87551898Y-104229774D01*
X87351939Y-104190000D01*
X87148061Y-104190000D01*
X86948102Y-104229774D01*
X86759744Y-104307795D01*
X86590226Y-104421063D01*
X86446063Y-104565226D01*
X86332795Y-104734744D01*
X86254774Y-104923102D01*
X86215000Y-105123061D01*
X67395951Y-105123061D01*
X67515990Y-104943411D01*
X67627932Y-104673158D01*
X67685000Y-104386260D01*
X67685000Y-104093740D01*
X67627932Y-103806842D01*
X67515990Y-103536589D01*
X67353475Y-103293368D01*
X67221620Y-103161513D01*
X67294180Y-103139502D01*
X67399772Y-103083061D01*
X77975000Y-103083061D01*
X77975000Y-103286939D01*
X78014774Y-103486898D01*
X78092795Y-103675256D01*
X78206063Y-103844774D01*
X78350226Y-103988937D01*
X78519744Y-104102205D01*
X78708102Y-104180226D01*
X78908061Y-104220000D01*
X79111939Y-104220000D01*
X79311898Y-104180226D01*
X79500256Y-104102205D01*
X79669774Y-103988937D01*
X79813937Y-103844774D01*
X79927205Y-103675256D01*
X80005226Y-103486898D01*
X80045000Y-103286939D01*
X80045000Y-103083061D01*
X80005226Y-102883102D01*
X79927205Y-102694744D01*
X79813937Y-102525226D01*
X79669774Y-102381063D01*
X79500256Y-102267795D01*
X79311898Y-102189774D01*
X79278150Y-102183061D01*
X89240000Y-102183061D01*
X89240000Y-102386939D01*
X89279774Y-102586898D01*
X89357795Y-102775256D01*
X89471063Y-102944774D01*
X89615226Y-103088937D01*
X89784744Y-103202205D01*
X89973102Y-103280226D01*
X90173061Y-103320000D01*
X90376939Y-103320000D01*
X90576898Y-103280226D01*
X90765256Y-103202205D01*
X90934774Y-103088937D01*
X91078937Y-102944774D01*
X91137500Y-102857128D01*
X91196063Y-102944774D01*
X91340226Y-103088937D01*
X91509744Y-103202205D01*
X91698102Y-103280226D01*
X91898061Y-103320000D01*
X92101939Y-103320000D01*
X92301898Y-103280226D01*
X92490256Y-103202205D01*
X92659774Y-103088937D01*
X92803937Y-102944774D01*
X92917205Y-102775256D01*
X92995226Y-102586898D01*
X93023092Y-102446803D01*
X93090226Y-102513937D01*
X93259744Y-102627205D01*
X93448102Y-102705226D01*
X93648061Y-102745000D01*
X93851939Y-102745000D01*
X94051898Y-102705226D01*
X94240256Y-102627205D01*
X94409774Y-102513937D01*
X94553937Y-102369774D01*
X94667205Y-102200256D01*
X94745226Y-102011898D01*
X94785000Y-101811939D01*
X94785000Y-101608061D01*
X94745226Y-101408102D01*
X94667205Y-101219744D01*
X94553937Y-101050226D01*
X94409774Y-100906063D01*
X94240256Y-100792795D01*
X94051898Y-100714774D01*
X93851939Y-100675000D01*
X93648061Y-100675000D01*
X93448102Y-100714774D01*
X93259744Y-100792795D01*
X93090226Y-100906063D01*
X92946063Y-101050226D01*
X92832795Y-101219744D01*
X92754774Y-101408102D01*
X92726908Y-101548197D01*
X92659774Y-101481063D01*
X92490256Y-101367795D01*
X92301898Y-101289774D01*
X92101939Y-101250000D01*
X91898061Y-101250000D01*
X91698102Y-101289774D01*
X91509744Y-101367795D01*
X91340226Y-101481063D01*
X91196063Y-101625226D01*
X91137500Y-101712872D01*
X91078937Y-101625226D01*
X90934774Y-101481063D01*
X90765256Y-101367795D01*
X90576898Y-101289774D01*
X90376939Y-101250000D01*
X90173061Y-101250000D01*
X89973102Y-101289774D01*
X89784744Y-101367795D01*
X89615226Y-101481063D01*
X89471063Y-101625226D01*
X89357795Y-101794744D01*
X89279774Y-101983102D01*
X89240000Y-102183061D01*
X79278150Y-102183061D01*
X79111939Y-102150000D01*
X78908061Y-102150000D01*
X78708102Y-102189774D01*
X78519744Y-102267795D01*
X78350226Y-102381063D01*
X78206063Y-102525226D01*
X78092795Y-102694744D01*
X78014774Y-102883102D01*
X77975000Y-103083061D01*
X67399772Y-103083061D01*
X67404494Y-103080537D01*
X67501185Y-103001185D01*
X67580537Y-102904494D01*
X67639502Y-102794180D01*
X67675812Y-102674482D01*
X67688072Y-102550000D01*
X67688072Y-101608061D01*
X70939996Y-101608061D01*
X70939996Y-101811939D01*
X70979770Y-102011898D01*
X71057791Y-102200256D01*
X71171059Y-102369774D01*
X71315222Y-102513937D01*
X71484740Y-102627205D01*
X71673098Y-102705226D01*
X71873057Y-102745000D01*
X72076935Y-102745000D01*
X72276894Y-102705226D01*
X72465252Y-102627205D01*
X72634770Y-102513937D01*
X72778933Y-102369774D01*
X72892201Y-102200256D01*
X72970222Y-102011898D01*
X73009996Y-101811939D01*
X73009996Y-101608061D01*
X72970222Y-101408102D01*
X72892201Y-101219744D01*
X72778933Y-101050226D01*
X72634770Y-100906063D01*
X72465252Y-100792795D01*
X72276894Y-100714774D01*
X72243146Y-100708061D01*
X74040000Y-100708061D01*
X74040000Y-100911939D01*
X74079774Y-101111898D01*
X74157795Y-101300256D01*
X74271063Y-101469774D01*
X74415226Y-101613937D01*
X74584744Y-101727205D01*
X74773102Y-101805226D01*
X74973061Y-101845000D01*
X75176939Y-101845000D01*
X75376898Y-101805226D01*
X75565256Y-101727205D01*
X75734774Y-101613937D01*
X75878937Y-101469774D01*
X75992205Y-101300256D01*
X76070226Y-101111898D01*
X76110000Y-100911939D01*
X76110000Y-100708061D01*
X81615000Y-100708061D01*
X81615000Y-100911939D01*
X81654774Y-101111898D01*
X81732795Y-101300256D01*
X81846063Y-101469774D01*
X81990226Y-101613937D01*
X82159744Y-101727205D01*
X82348102Y-101805226D01*
X82548061Y-101845000D01*
X82751939Y-101845000D01*
X82951898Y-101805226D01*
X83140256Y-101727205D01*
X83309774Y-101613937D01*
X83453937Y-101469774D01*
X83567205Y-101300256D01*
X83645226Y-101111898D01*
X83685000Y-100911939D01*
X83685000Y-100708061D01*
X83645226Y-100508102D01*
X83567205Y-100319744D01*
X83453937Y-100150226D01*
X83309774Y-100006063D01*
X83140256Y-99892795D01*
X82951898Y-99814774D01*
X82751939Y-99775000D01*
X82548061Y-99775000D01*
X82348102Y-99814774D01*
X82159744Y-99892795D01*
X81990226Y-100006063D01*
X81846063Y-100150226D01*
X81732795Y-100319744D01*
X81654774Y-100508102D01*
X81615000Y-100708061D01*
X76110000Y-100708061D01*
X76070226Y-100508102D01*
X75992205Y-100319744D01*
X75878937Y-100150226D01*
X75734774Y-100006063D01*
X75565256Y-99892795D01*
X75376898Y-99814774D01*
X75176939Y-99775000D01*
X74973061Y-99775000D01*
X74773102Y-99814774D01*
X74584744Y-99892795D01*
X74415226Y-100006063D01*
X74271063Y-100150226D01*
X74157795Y-100319744D01*
X74079774Y-100508102D01*
X74040000Y-100708061D01*
X72243146Y-100708061D01*
X72076935Y-100675000D01*
X71873057Y-100675000D01*
X71673098Y-100714774D01*
X71484740Y-100792795D01*
X71315222Y-100906063D01*
X71171059Y-101050226D01*
X71057791Y-101219744D01*
X70979770Y-101408102D01*
X70939996Y-101608061D01*
X67688072Y-101608061D01*
X67688072Y-100850000D01*
X67675812Y-100725518D01*
X67639502Y-100605820D01*
X67580537Y-100495506D01*
X67501185Y-100398815D01*
X67404494Y-100319463D01*
X67294180Y-100260498D01*
X67174482Y-100224188D01*
X67050000Y-100211928D01*
X65350000Y-100211928D01*
X65225518Y-100224188D01*
X65105820Y-100260498D01*
X64995506Y-100319463D01*
X64898815Y-100398815D01*
X64819463Y-100495506D01*
X64760498Y-100605820D01*
X64724188Y-100725518D01*
X64711928Y-100850000D01*
X62029424Y-100850000D01*
X62093346Y-100695679D01*
X62185000Y-100234902D01*
X62185000Y-99765098D01*
X62093346Y-99304321D01*
X61913560Y-98870279D01*
X61652550Y-98479651D01*
X61320349Y-98147450D01*
X60929721Y-97886440D01*
X60495679Y-97706654D01*
X60034902Y-97615000D01*
X59565098Y-97615000D01*
X59104321Y-97706654D01*
X58670279Y-97886440D01*
X58279651Y-98147450D01*
X57947450Y-98479651D01*
X57686440Y-98870279D01*
X57506654Y-99304321D01*
X57415000Y-99765098D01*
X56885000Y-99765098D01*
X56793346Y-99304321D01*
X56613560Y-98870279D01*
X56352550Y-98479651D01*
X56020349Y-98147450D01*
X55629721Y-97886440D01*
X55195679Y-97706654D01*
X54734902Y-97615000D01*
X54265098Y-97615000D01*
X53804321Y-97706654D01*
X53370279Y-97886440D01*
X52979651Y-98147450D01*
X52647450Y-98479651D01*
X52386440Y-98870279D01*
X52206654Y-99304321D01*
X52115000Y-99765098D01*
X50160000Y-99765098D01*
X50160000Y-95660000D01*
X89851289Y-95660000D01*
X89721063Y-95790226D01*
G37*
%TD.AperFunction*%
%TD*%
M02*
