%TF.GenerationSoftware,KiCad,Pcbnew,5.1.12-84ad8e8a86~92~ubuntu20.04.1*%
%TF.CreationDate,2022-02-02T22:35:22-05:00*%
%TF.ProjectId,emg-filter,656d672d-6669-46c7-9465-722e6b696361,rev?*%
%TF.SameCoordinates,Original*%
%TF.FileFunction,Copper,L4,Bot*%
%TF.FilePolarity,Positive*%
%FSLAX46Y46*%
G04 Gerber Fmt 4.6, Leading zero omitted, Abs format (unit mm)*
G04 Created by KiCad (PCBNEW 5.1.12-84ad8e8a86~92~ubuntu20.04.1) date 2022-02-02 22:35:22*
%MOMM*%
%LPD*%
G01*
G04 APERTURE LIST*
%TA.AperFunction,ComponentPad*%
%ADD10C,3.500000*%
%TD*%
%TA.AperFunction,ComponentPad*%
%ADD11O,1.700000X1.700000*%
%TD*%
%TA.AperFunction,ComponentPad*%
%ADD12R,1.700000X1.700000*%
%TD*%
%TA.AperFunction,ViaPad*%
%ADD13C,0.800000*%
%TD*%
%TA.AperFunction,Conductor*%
%ADD14C,0.250000*%
%TD*%
%TA.AperFunction,Conductor*%
%ADD15C,0.254000*%
%TD*%
%TA.AperFunction,Conductor*%
%ADD16C,0.100000*%
%TD*%
G04 APERTURE END LIST*
D10*
%TO.P,J11,1*%
%TO.N,GND*%
X54500000Y-130000000D03*
%TO.P,J11,2*%
%TO.N,/emg_module/-VIN_B*%
X59800000Y-130000000D03*
%TD*%
%TO.P,J10,1*%
%TO.N,GND*%
X54500000Y-124000000D03*
%TO.P,J10,2*%
%TO.N,/emg_module/REF_B*%
X59800000Y-124000000D03*
%TD*%
D11*
%TO.P,J7,2*%
%TO.N,/emg_module/sheet625420FC/-VIN_A_INA*%
X66200000Y-113750000D03*
D12*
%TO.P,J7,1*%
%TO.N,/emg_module/sheet625420FC/+VIN_B_INA*%
X66200000Y-116290000D03*
%TD*%
%TO.P,R24,2*%
%TO.N,Net-(R22-Pad1)*%
%TA.AperFunction,SMDPad,CuDef*%
G36*
G01*
X90734000Y-126659998D02*
X90734000Y-127560002D01*
G75*
G02*
X90484002Y-127810000I-249998J0D01*
G01*
X89958998Y-127810000D01*
G75*
G02*
X89709000Y-127560002I0J249998D01*
G01*
X89709000Y-126659998D01*
G75*
G02*
X89958998Y-126410000I249998J0D01*
G01*
X90484002Y-126410000D01*
G75*
G02*
X90734000Y-126659998I0J-249998D01*
G01*
G37*
%TD.AperFunction*%
%TO.P,R24,1*%
%TO.N,/emg_module/sheet625420F9/RECT_AMP*%
%TA.AperFunction,SMDPad,CuDef*%
G36*
G01*
X92559000Y-126659998D02*
X92559000Y-127560002D01*
G75*
G02*
X92309002Y-127810000I-249998J0D01*
G01*
X91783998Y-127810000D01*
G75*
G02*
X91534000Y-127560002I0J249998D01*
G01*
X91534000Y-126659998D01*
G75*
G02*
X91783998Y-126410000I249998J0D01*
G01*
X92309002Y-126410000D01*
G75*
G02*
X92559000Y-126659998I0J-249998D01*
G01*
G37*
%TD.AperFunction*%
%TD*%
%TO.P,R37,2*%
%TO.N,Net-(R35-Pad1)*%
%TA.AperFunction,SMDPad,CuDef*%
G36*
G01*
X90730000Y-100069998D02*
X90730000Y-100970002D01*
G75*
G02*
X90480002Y-101220000I-249998J0D01*
G01*
X89954998Y-101220000D01*
G75*
G02*
X89705000Y-100970002I0J249998D01*
G01*
X89705000Y-100069998D01*
G75*
G02*
X89954998Y-99820000I249998J0D01*
G01*
X90480002Y-99820000D01*
G75*
G02*
X90730000Y-100069998I0J-249998D01*
G01*
G37*
%TD.AperFunction*%
%TO.P,R37,1*%
%TO.N,/emg_module/sheet625420FA/RECT_AMP*%
%TA.AperFunction,SMDPad,CuDef*%
G36*
G01*
X92555000Y-100069998D02*
X92555000Y-100970002D01*
G75*
G02*
X92305002Y-101220000I-249998J0D01*
G01*
X91779998Y-101220000D01*
G75*
G02*
X91530000Y-100970002I0J249998D01*
G01*
X91530000Y-100069998D01*
G75*
G02*
X91779998Y-99820000I249998J0D01*
G01*
X92305002Y-99820000D01*
G75*
G02*
X92555000Y-100069998I0J-249998D01*
G01*
G37*
%TD.AperFunction*%
%TD*%
%TO.P,C24,2*%
%TO.N,GND*%
%TA.AperFunction,SMDPad,CuDef*%
G36*
G01*
X91925000Y-98935000D02*
X91925000Y-97985000D01*
G75*
G02*
X92175000Y-97735000I250000J0D01*
G01*
X92675000Y-97735000D01*
G75*
G02*
X92925000Y-97985000I0J-250000D01*
G01*
X92925000Y-98935000D01*
G75*
G02*
X92675000Y-99185000I-250000J0D01*
G01*
X92175000Y-99185000D01*
G75*
G02*
X91925000Y-98935000I0J250000D01*
G01*
G37*
%TD.AperFunction*%
%TO.P,C24,1*%
%TO.N,-5V*%
%TA.AperFunction,SMDPad,CuDef*%
G36*
G01*
X90025000Y-98935000D02*
X90025000Y-97985000D01*
G75*
G02*
X90275000Y-97735000I250000J0D01*
G01*
X90775000Y-97735000D01*
G75*
G02*
X91025000Y-97985000I0J-250000D01*
G01*
X91025000Y-98935000D01*
G75*
G02*
X90775000Y-99185000I-250000J0D01*
G01*
X90275000Y-99185000D01*
G75*
G02*
X90025000Y-98935000I0J250000D01*
G01*
G37*
%TD.AperFunction*%
%TD*%
%TO.P,C23,2*%
%TO.N,-5V*%
%TA.AperFunction,SMDPad,CuDef*%
G36*
G01*
X85285000Y-100985000D02*
X84335000Y-100985000D01*
G75*
G02*
X84085000Y-100735000I0J250000D01*
G01*
X84085000Y-100235000D01*
G75*
G02*
X84335000Y-99985000I250000J0D01*
G01*
X85285000Y-99985000D01*
G75*
G02*
X85535000Y-100235000I0J-250000D01*
G01*
X85535000Y-100735000D01*
G75*
G02*
X85285000Y-100985000I-250000J0D01*
G01*
G37*
%TD.AperFunction*%
%TO.P,C23,1*%
%TO.N,GND*%
%TA.AperFunction,SMDPad,CuDef*%
G36*
G01*
X85285000Y-102885000D02*
X84335000Y-102885000D01*
G75*
G02*
X84085000Y-102635000I0J250000D01*
G01*
X84085000Y-102135000D01*
G75*
G02*
X84335000Y-101885000I250000J0D01*
G01*
X85285000Y-101885000D01*
G75*
G02*
X85535000Y-102135000I0J-250000D01*
G01*
X85535000Y-102635000D01*
G75*
G02*
X85285000Y-102885000I-250000J0D01*
G01*
G37*
%TD.AperFunction*%
%TD*%
%TO.P,C19,2*%
%TO.N,GND*%
%TA.AperFunction,SMDPad,CuDef*%
G36*
G01*
X90425000Y-103785000D02*
X90425000Y-104735000D01*
G75*
G02*
X90175000Y-104985000I-250000J0D01*
G01*
X89675000Y-104985000D01*
G75*
G02*
X89425000Y-104735000I0J250000D01*
G01*
X89425000Y-103785000D01*
G75*
G02*
X89675000Y-103535000I250000J0D01*
G01*
X90175000Y-103535000D01*
G75*
G02*
X90425000Y-103785000I0J-250000D01*
G01*
G37*
%TD.AperFunction*%
%TO.P,C19,1*%
%TO.N,+5V*%
%TA.AperFunction,SMDPad,CuDef*%
G36*
G01*
X92325000Y-103785000D02*
X92325000Y-104735000D01*
G75*
G02*
X92075000Y-104985000I-250000J0D01*
G01*
X91575000Y-104985000D01*
G75*
G02*
X91325000Y-104735000I0J250000D01*
G01*
X91325000Y-103785000D01*
G75*
G02*
X91575000Y-103535000I250000J0D01*
G01*
X92075000Y-103535000D01*
G75*
G02*
X92325000Y-103785000I0J-250000D01*
G01*
G37*
%TD.AperFunction*%
%TD*%
%TO.P,C18,2*%
%TO.N,GND*%
%TA.AperFunction,SMDPad,CuDef*%
G36*
G01*
X79485000Y-100385000D02*
X78535000Y-100385000D01*
G75*
G02*
X78285000Y-100135000I0J250000D01*
G01*
X78285000Y-99635000D01*
G75*
G02*
X78535000Y-99385000I250000J0D01*
G01*
X79485000Y-99385000D01*
G75*
G02*
X79735000Y-99635000I0J-250000D01*
G01*
X79735000Y-100135000D01*
G75*
G02*
X79485000Y-100385000I-250000J0D01*
G01*
G37*
%TD.AperFunction*%
%TO.P,C18,1*%
%TO.N,+5V*%
%TA.AperFunction,SMDPad,CuDef*%
G36*
G01*
X79485000Y-102285000D02*
X78535000Y-102285000D01*
G75*
G02*
X78285000Y-102035000I0J250000D01*
G01*
X78285000Y-101535000D01*
G75*
G02*
X78535000Y-101285000I250000J0D01*
G01*
X79485000Y-101285000D01*
G75*
G02*
X79735000Y-101535000I0J-250000D01*
G01*
X79735000Y-102035000D01*
G75*
G02*
X79485000Y-102285000I-250000J0D01*
G01*
G37*
%TD.AperFunction*%
%TD*%
%TO.P,C17,2*%
%TO.N,GND*%
%TA.AperFunction,SMDPad,CuDef*%
G36*
G01*
X91925000Y-125525000D02*
X91925000Y-124575000D01*
G75*
G02*
X92175000Y-124325000I250000J0D01*
G01*
X92675000Y-124325000D01*
G75*
G02*
X92925000Y-124575000I0J-250000D01*
G01*
X92925000Y-125525000D01*
G75*
G02*
X92675000Y-125775000I-250000J0D01*
G01*
X92175000Y-125775000D01*
G75*
G02*
X91925000Y-125525000I0J250000D01*
G01*
G37*
%TD.AperFunction*%
%TO.P,C17,1*%
%TO.N,-5V*%
%TA.AperFunction,SMDPad,CuDef*%
G36*
G01*
X90025000Y-125525000D02*
X90025000Y-124575000D01*
G75*
G02*
X90275000Y-124325000I250000J0D01*
G01*
X90775000Y-124325000D01*
G75*
G02*
X91025000Y-124575000I0J-250000D01*
G01*
X91025000Y-125525000D01*
G75*
G02*
X90775000Y-125775000I-250000J0D01*
G01*
X90275000Y-125775000D01*
G75*
G02*
X90025000Y-125525000I0J250000D01*
G01*
G37*
%TD.AperFunction*%
%TD*%
%TO.P,C16,2*%
%TO.N,-5V*%
%TA.AperFunction,SMDPad,CuDef*%
G36*
G01*
X85285000Y-127575000D02*
X84335000Y-127575000D01*
G75*
G02*
X84085000Y-127325000I0J250000D01*
G01*
X84085000Y-126825000D01*
G75*
G02*
X84335000Y-126575000I250000J0D01*
G01*
X85285000Y-126575000D01*
G75*
G02*
X85535000Y-126825000I0J-250000D01*
G01*
X85535000Y-127325000D01*
G75*
G02*
X85285000Y-127575000I-250000J0D01*
G01*
G37*
%TD.AperFunction*%
%TO.P,C16,1*%
%TO.N,GND*%
%TA.AperFunction,SMDPad,CuDef*%
G36*
G01*
X85285000Y-129475000D02*
X84335000Y-129475000D01*
G75*
G02*
X84085000Y-129225000I0J250000D01*
G01*
X84085000Y-128725000D01*
G75*
G02*
X84335000Y-128475000I250000J0D01*
G01*
X85285000Y-128475000D01*
G75*
G02*
X85535000Y-128725000I0J-250000D01*
G01*
X85535000Y-129225000D01*
G75*
G02*
X85285000Y-129475000I-250000J0D01*
G01*
G37*
%TD.AperFunction*%
%TD*%
%TO.P,C12,2*%
%TO.N,GND*%
%TA.AperFunction,SMDPad,CuDef*%
G36*
G01*
X90425000Y-130375000D02*
X90425000Y-131325000D01*
G75*
G02*
X90175000Y-131575000I-250000J0D01*
G01*
X89675000Y-131575000D01*
G75*
G02*
X89425000Y-131325000I0J250000D01*
G01*
X89425000Y-130375000D01*
G75*
G02*
X89675000Y-130125000I250000J0D01*
G01*
X90175000Y-130125000D01*
G75*
G02*
X90425000Y-130375000I0J-250000D01*
G01*
G37*
%TD.AperFunction*%
%TO.P,C12,1*%
%TO.N,+5V*%
%TA.AperFunction,SMDPad,CuDef*%
G36*
G01*
X92325000Y-130375000D02*
X92325000Y-131325000D01*
G75*
G02*
X92075000Y-131575000I-250000J0D01*
G01*
X91575000Y-131575000D01*
G75*
G02*
X91325000Y-131325000I0J250000D01*
G01*
X91325000Y-130375000D01*
G75*
G02*
X91575000Y-130125000I250000J0D01*
G01*
X92075000Y-130125000D01*
G75*
G02*
X92325000Y-130375000I0J-250000D01*
G01*
G37*
%TD.AperFunction*%
%TD*%
%TO.P,C11,2*%
%TO.N,GND*%
%TA.AperFunction,SMDPad,CuDef*%
G36*
G01*
X79485000Y-126975000D02*
X78535000Y-126975000D01*
G75*
G02*
X78285000Y-126725000I0J250000D01*
G01*
X78285000Y-126225000D01*
G75*
G02*
X78535000Y-125975000I250000J0D01*
G01*
X79485000Y-125975000D01*
G75*
G02*
X79735000Y-126225000I0J-250000D01*
G01*
X79735000Y-126725000D01*
G75*
G02*
X79485000Y-126975000I-250000J0D01*
G01*
G37*
%TD.AperFunction*%
%TO.P,C11,1*%
%TO.N,+5V*%
%TA.AperFunction,SMDPad,CuDef*%
G36*
G01*
X79485000Y-128875000D02*
X78535000Y-128875000D01*
G75*
G02*
X78285000Y-128625000I0J250000D01*
G01*
X78285000Y-128125000D01*
G75*
G02*
X78535000Y-127875000I250000J0D01*
G01*
X79485000Y-127875000D01*
G75*
G02*
X79735000Y-128125000I0J-250000D01*
G01*
X79735000Y-128625000D01*
G75*
G02*
X79485000Y-128875000I-250000J0D01*
G01*
G37*
%TD.AperFunction*%
%TD*%
%TO.P,C2,2*%
%TO.N,GND*%
%TA.AperFunction,SMDPad,CuDef*%
G36*
G01*
X92425000Y-112550000D02*
X92425000Y-111600000D01*
G75*
G02*
X92675000Y-111350000I250000J0D01*
G01*
X93175000Y-111350000D01*
G75*
G02*
X93425000Y-111600000I0J-250000D01*
G01*
X93425000Y-112550000D01*
G75*
G02*
X93175000Y-112800000I-250000J0D01*
G01*
X92675000Y-112800000D01*
G75*
G02*
X92425000Y-112550000I0J250000D01*
G01*
G37*
%TD.AperFunction*%
%TO.P,C2,1*%
%TO.N,-5V*%
%TA.AperFunction,SMDPad,CuDef*%
G36*
G01*
X90525000Y-112550000D02*
X90525000Y-111600000D01*
G75*
G02*
X90775000Y-111350000I250000J0D01*
G01*
X91275000Y-111350000D01*
G75*
G02*
X91525000Y-111600000I0J-250000D01*
G01*
X91525000Y-112550000D01*
G75*
G02*
X91275000Y-112800000I-250000J0D01*
G01*
X90775000Y-112800000D01*
G75*
G02*
X90525000Y-112550000I0J250000D01*
G01*
G37*
%TD.AperFunction*%
%TD*%
%TO.P,C9,2*%
%TO.N,-5V*%
%TA.AperFunction,SMDPad,CuDef*%
G36*
G01*
X84700000Y-111600000D02*
X84700000Y-112550000D01*
G75*
G02*
X84450000Y-112800000I-250000J0D01*
G01*
X83950000Y-112800000D01*
G75*
G02*
X83700000Y-112550000I0J250000D01*
G01*
X83700000Y-111600000D01*
G75*
G02*
X83950000Y-111350000I250000J0D01*
G01*
X84450000Y-111350000D01*
G75*
G02*
X84700000Y-111600000I0J-250000D01*
G01*
G37*
%TD.AperFunction*%
%TO.P,C9,1*%
%TO.N,GND*%
%TA.AperFunction,SMDPad,CuDef*%
G36*
G01*
X86600000Y-111600000D02*
X86600000Y-112550000D01*
G75*
G02*
X86350000Y-112800000I-250000J0D01*
G01*
X85850000Y-112800000D01*
G75*
G02*
X85600000Y-112550000I0J250000D01*
G01*
X85600000Y-111600000D01*
G75*
G02*
X85850000Y-111350000I250000J0D01*
G01*
X86350000Y-111350000D01*
G75*
G02*
X86600000Y-111600000I0J-250000D01*
G01*
G37*
%TD.AperFunction*%
%TD*%
%TO.P,C4,2*%
%TO.N,GND*%
%TA.AperFunction,SMDPad,CuDef*%
G36*
G01*
X84100000Y-117400000D02*
X84100000Y-118350000D01*
G75*
G02*
X83850000Y-118600000I-250000J0D01*
G01*
X83350000Y-118600000D01*
G75*
G02*
X83100000Y-118350000I0J250000D01*
G01*
X83100000Y-117400000D01*
G75*
G02*
X83350000Y-117150000I250000J0D01*
G01*
X83850000Y-117150000D01*
G75*
G02*
X84100000Y-117400000I0J-250000D01*
G01*
G37*
%TD.AperFunction*%
%TO.P,C4,1*%
%TO.N,+5V*%
%TA.AperFunction,SMDPad,CuDef*%
G36*
G01*
X86000000Y-117400000D02*
X86000000Y-118350000D01*
G75*
G02*
X85750000Y-118600000I-250000J0D01*
G01*
X85250000Y-118600000D01*
G75*
G02*
X85000000Y-118350000I0J250000D01*
G01*
X85000000Y-117400000D01*
G75*
G02*
X85250000Y-117150000I250000J0D01*
G01*
X85750000Y-117150000D01*
G75*
G02*
X86000000Y-117400000I0J-250000D01*
G01*
G37*
%TD.AperFunction*%
%TD*%
%TO.P,C1,2*%
%TO.N,+5V*%
%TA.AperFunction,SMDPad,CuDef*%
G36*
G01*
X91825000Y-118350000D02*
X91825000Y-117400000D01*
G75*
G02*
X92075000Y-117150000I250000J0D01*
G01*
X92575000Y-117150000D01*
G75*
G02*
X92825000Y-117400000I0J-250000D01*
G01*
X92825000Y-118350000D01*
G75*
G02*
X92575000Y-118600000I-250000J0D01*
G01*
X92075000Y-118600000D01*
G75*
G02*
X91825000Y-118350000I0J250000D01*
G01*
G37*
%TD.AperFunction*%
%TO.P,C1,1*%
%TO.N,GND*%
%TA.AperFunction,SMDPad,CuDef*%
G36*
G01*
X89925000Y-118350000D02*
X89925000Y-117400000D01*
G75*
G02*
X90175000Y-117150000I250000J0D01*
G01*
X90675000Y-117150000D01*
G75*
G02*
X90925000Y-117400000I0J-250000D01*
G01*
X90925000Y-118350000D01*
G75*
G02*
X90675000Y-118600000I-250000J0D01*
G01*
X90175000Y-118600000D01*
G75*
G02*
X89925000Y-118350000I0J250000D01*
G01*
G37*
%TD.AperFunction*%
%TD*%
D11*
%TO.P,J2,5*%
%TO.N,-5V*%
X96500000Y-120085000D03*
%TO.P,J2,4*%
%TO.N,/emg_module/OUT_B*%
X96500000Y-117545000D03*
%TO.P,J2,3*%
%TO.N,GND*%
X96500000Y-115005000D03*
%TO.P,J2,2*%
%TO.N,/emg_module/OUT_A*%
X96500000Y-112465000D03*
D12*
%TO.P,J2,1*%
%TO.N,+5V*%
X96500000Y-109925000D03*
%TD*%
D10*
%TO.P,J9,1*%
%TO.N,GND*%
X54500000Y-118000000D03*
%TO.P,J9,2*%
%TO.N,/emg_module/sheet625420FC/+VIN_B_INA*%
X59800000Y-118000000D03*
%TD*%
D11*
%TO.P,J8,2*%
%TO.N,/emg_module/REF_B*%
X79750000Y-116300000D03*
D12*
%TO.P,J8,1*%
%TO.N,/emg_module/REF_A*%
X79750000Y-113760000D03*
%TD*%
D10*
%TO.P,J6,1*%
%TO.N,GND*%
X54500000Y-112000000D03*
%TO.P,J6,2*%
%TO.N,/emg_module/sheet625420FC/-VIN_A_INA*%
X59800000Y-112000000D03*
%TD*%
%TO.P,J5,1*%
%TO.N,GND*%
X54500000Y-106000000D03*
%TO.P,J5,2*%
%TO.N,/emg_module/REF_A*%
X59800000Y-106000000D03*
%TD*%
%TO.P,J4,1*%
%TO.N,GND*%
X54500000Y-100000000D03*
%TO.P,J4,2*%
%TO.N,/emg_module/+VIN_A*%
X59800000Y-100000000D03*
%TD*%
D11*
%TO.P,J3,2*%
%TO.N,/emg_module/-VIN_B*%
X66200000Y-128290000D03*
D12*
%TO.P,J3,1*%
%TO.N,/emg_module/REF_B*%
X66200000Y-125750000D03*
%TD*%
D11*
%TO.P,J1,2*%
%TO.N,/emg_module/REF_A*%
X66200000Y-104240000D03*
D12*
%TO.P,J1,1*%
%TO.N,/emg_module/+VIN_A*%
X66200000Y-101700000D03*
%TD*%
%TO.P,C10,2*%
%TO.N,-5V*%
%TA.AperFunction,SMDPad,CuDef*%
G36*
G01*
X70400000Y-114525000D02*
X70400000Y-115475000D01*
G75*
G02*
X70150000Y-115725000I-250000J0D01*
G01*
X69650000Y-115725000D01*
G75*
G02*
X69400000Y-115475000I0J250000D01*
G01*
X69400000Y-114525000D01*
G75*
G02*
X69650000Y-114275000I250000J0D01*
G01*
X70150000Y-114275000D01*
G75*
G02*
X70400000Y-114525000I0J-250000D01*
G01*
G37*
%TD.AperFunction*%
%TO.P,C10,1*%
%TO.N,GND*%
%TA.AperFunction,SMDPad,CuDef*%
G36*
G01*
X72300000Y-114525000D02*
X72300000Y-115475000D01*
G75*
G02*
X72050000Y-115725000I-250000J0D01*
G01*
X71550000Y-115725000D01*
G75*
G02*
X71300000Y-115475000I0J250000D01*
G01*
X71300000Y-114525000D01*
G75*
G02*
X71550000Y-114275000I250000J0D01*
G01*
X72050000Y-114275000D01*
G75*
G02*
X72300000Y-114525000I0J-250000D01*
G01*
G37*
%TD.AperFunction*%
%TD*%
%TO.P,C3,2*%
%TO.N,+5V*%
%TA.AperFunction,SMDPad,CuDef*%
G36*
G01*
X75650000Y-115475000D02*
X75650000Y-114525000D01*
G75*
G02*
X75900000Y-114275000I250000J0D01*
G01*
X76400000Y-114275000D01*
G75*
G02*
X76650000Y-114525000I0J-250000D01*
G01*
X76650000Y-115475000D01*
G75*
G02*
X76400000Y-115725000I-250000J0D01*
G01*
X75900000Y-115725000D01*
G75*
G02*
X75650000Y-115475000I0J250000D01*
G01*
G37*
%TD.AperFunction*%
%TO.P,C3,1*%
%TO.N,GND*%
%TA.AperFunction,SMDPad,CuDef*%
G36*
G01*
X73750000Y-115475000D02*
X73750000Y-114525000D01*
G75*
G02*
X74000000Y-114275000I250000J0D01*
G01*
X74500000Y-114275000D01*
G75*
G02*
X74750000Y-114525000I0J-250000D01*
G01*
X74750000Y-115475000D01*
G75*
G02*
X74500000Y-115725000I-250000J0D01*
G01*
X74000000Y-115725000D01*
G75*
G02*
X73750000Y-115475000I0J250000D01*
G01*
G37*
%TD.AperFunction*%
%TD*%
D13*
%TO.N,-5V*%
X82800000Y-112075000D03*
X89625000Y-112075000D03*
X84810000Y-125675000D03*
X89125000Y-125050000D03*
X84810000Y-99085000D03*
X89125000Y-98460000D03*
X68500000Y-115000000D03*
%TO.N,GND*%
X76050000Y-118550000D03*
X87250000Y-105225000D03*
X73425000Y-121975000D03*
X86550000Y-123860000D03*
X90525000Y-133525000D03*
X90525000Y-96450000D03*
X73425000Y-107950000D03*
X65350000Y-121950000D03*
X65350000Y-107950000D03*
X76050000Y-111450000D03*
X79000000Y-107150000D03*
X79000000Y-122975002D03*
%TO.N,+5V*%
X77500000Y-115000000D03*
X77500000Y-112749990D03*
X77500000Y-117250000D03*
X93725000Y-117875000D03*
X79010000Y-129775000D03*
X92150000Y-132475000D03*
X79010000Y-103185000D03*
X92150000Y-105885000D03*
X86900000Y-117875000D03*
%TO.N,/emg_module/sheet625420F9/BP_NOTCH*%
X87625000Y-121950000D03*
X71974996Y-128300000D03*
%TO.N,/emg_module/sheet625420FA/BP_NOTCH*%
X88275000Y-108050000D03*
X71974996Y-101710000D03*
%TO.N,/emg_module/sheet625420F9/RECT_AMP*%
X91025000Y-116050000D03*
X92000000Y-128875000D03*
X93750000Y-128300000D03*
%TO.N,/emg_module/sheet625420FA/RECT_AMP*%
X91025000Y-113925000D03*
X92000000Y-102285000D03*
X93750000Y-101710000D03*
%TO.N,/emg_module/OUT_A*%
X92325000Y-113925000D03*
%TO.N,/emg_module/OUT_B*%
X92325000Y-116065000D03*
%TO.N,/emg_module/REF_A*%
X73500004Y-113500000D03*
%TO.N,/emg_module/REF_B*%
X73499999Y-116500000D03*
%TO.N,/emg_module/sheet625420FC/+VIN_B_INA*%
X71700000Y-116550002D03*
%TO.N,Net-(C5-Pad2)*%
X84850000Y-113750000D03*
%TO.N,Net-(C8-Pad2)*%
X84850000Y-116200000D03*
%TO.N,Net-(C15-Pad1)*%
X75075000Y-127400000D03*
X82650000Y-127400000D03*
%TO.N,Net-(C22-Pad1)*%
X75075000Y-100810000D03*
X82650000Y-100810000D03*
%TO.N,Net-(R22-Pad1)*%
X90275000Y-128875000D03*
%TO.N,Net-(R35-Pad1)*%
X90275000Y-102285000D03*
%TO.N,/emg_module/sheet625420FC/-VIN_A_INA*%
X71825000Y-113400000D03*
%TD*%
D14*
%TO.N,-5V*%
X82800000Y-112075000D02*
X84200000Y-112075000D01*
X91025000Y-112075000D02*
X89625000Y-112075000D01*
X84810000Y-127075000D02*
X84810000Y-125675000D01*
X89125000Y-125050000D02*
X90525000Y-125050000D01*
X84810000Y-100485000D02*
X84810000Y-99085000D01*
X89125000Y-98460000D02*
X90525000Y-98460000D01*
X69900000Y-115000000D02*
X68500000Y-115000000D01*
%TO.N,GND*%
X87120000Y-123290000D02*
X86550000Y-123860000D01*
X91670000Y-123290000D02*
X87120000Y-123290000D01*
X92425000Y-124045000D02*
X91670000Y-123290000D01*
X92425000Y-125050000D02*
X92425000Y-124045000D01*
X74250000Y-115000000D02*
X71800000Y-115000000D01*
X76050000Y-112525000D02*
X76050000Y-111450000D01*
X74250000Y-114325000D02*
X76050000Y-112525000D01*
X74250000Y-115000000D02*
X74250000Y-114325000D01*
X74250000Y-115675000D02*
X76050000Y-117475000D01*
X76050000Y-117475000D02*
X76050000Y-118550000D01*
X74250000Y-115000000D02*
X74250000Y-115675000D01*
%TO.N,+5V*%
X76150000Y-115000000D02*
X77500000Y-115000000D01*
X77500000Y-113450000D02*
X77500000Y-112749990D01*
X76150000Y-114800000D02*
X77500000Y-113450000D01*
X76150000Y-115000000D02*
X76150000Y-114800000D01*
X77500000Y-116550000D02*
X77500000Y-117250000D01*
X76150000Y-115200000D02*
X77500000Y-116550000D01*
X76150000Y-115000000D02*
X76150000Y-115200000D01*
X92325000Y-117875000D02*
X93725000Y-117875000D01*
X79010000Y-129775000D02*
X79010000Y-128375000D01*
X92150000Y-131175000D02*
X91825000Y-130850000D01*
X92150000Y-132475000D02*
X92150000Y-131175000D01*
X79010000Y-103185000D02*
X79010000Y-101785000D01*
X92150000Y-104585000D02*
X91825000Y-104260000D01*
X92150000Y-105885000D02*
X92150000Y-104585000D01*
X85500000Y-117875000D02*
X86900000Y-117875000D01*
%TO.N,/emg_module/sheet625420F9/BP_NOTCH*%
X77220000Y-121950000D02*
X87625000Y-121950000D01*
X71974996Y-127195004D02*
X77220000Y-121950000D01*
X71974996Y-128300000D02*
X71974996Y-127195004D01*
%TO.N,/emg_module/sheet625420FA/BP_NOTCH*%
X78314996Y-108050000D02*
X88275000Y-108050000D01*
X71974996Y-101710000D02*
X78314996Y-108050000D01*
%TO.N,/emg_module/sheet625420F9/RECT_AMP*%
X92000000Y-127021500D02*
X92046500Y-126975000D01*
X92000000Y-128875000D02*
X92000000Y-127021500D01*
X92575000Y-128300000D02*
X93750000Y-128300000D01*
X92000000Y-128875000D02*
X92575000Y-128300000D01*
X93750000Y-123950000D02*
X93750000Y-128300000D01*
X88240000Y-118440000D02*
X93750000Y-123950000D01*
X88240000Y-117110000D02*
X88240000Y-118440000D01*
X89300000Y-116050000D02*
X88240000Y-117110000D01*
X91025000Y-116050000D02*
X89300000Y-116050000D01*
%TO.N,/emg_module/sheet625420FA/RECT_AMP*%
X92000000Y-100431500D02*
X92046500Y-100385000D01*
X92000000Y-102285000D02*
X92000000Y-100431500D01*
X92575000Y-101710000D02*
X93750000Y-101710000D01*
X92000000Y-102285000D02*
X92575000Y-101710000D01*
X88225000Y-112850000D02*
X89300000Y-113925000D01*
X89300000Y-113925000D02*
X91025000Y-113925000D01*
X88225000Y-111675000D02*
X88225000Y-112850000D01*
X93750000Y-106150000D02*
X88225000Y-111675000D01*
X93750000Y-101710000D02*
X93750000Y-106150000D01*
%TO.N,/emg_module/OUT_A*%
X95040000Y-113925000D02*
X96500000Y-112465000D01*
X92325000Y-113925000D02*
X95040000Y-113925000D01*
%TO.N,/emg_module/OUT_B*%
X95020000Y-116065000D02*
X96500000Y-117545000D01*
X92325000Y-116065000D02*
X95020000Y-116065000D01*
%TO.N,/emg_module/REF_A*%
X61560000Y-104240000D02*
X59800000Y-106000000D01*
X66225000Y-104240000D02*
X61560000Y-104240000D01*
X73500004Y-111540004D02*
X66200000Y-104240000D01*
X73500004Y-113500000D02*
X73500004Y-111540004D01*
%TO.N,/emg_module/REF_B*%
X61549999Y-125749999D02*
X59800000Y-124000000D01*
X66200000Y-125750000D02*
X61549999Y-125749999D01*
X73499999Y-118450001D02*
X66200000Y-125750000D01*
X73499999Y-116500000D02*
X73499999Y-118450001D01*
%TO.N,/emg_module/sheet625420FC/+VIN_B_INA*%
X61510000Y-116290000D02*
X59800000Y-118000000D01*
X66250000Y-116290000D02*
X61510000Y-116290000D01*
X66210000Y-116300000D02*
X66200000Y-116290000D01*
X66200000Y-116290000D02*
X71439998Y-116290000D01*
X71439998Y-116290000D02*
X71700000Y-116550002D01*
%TO.N,Net-(C15-Pad1)*%
X78396810Y-127400000D02*
X75075000Y-127400000D01*
X82650000Y-127400000D02*
X78396810Y-127400000D01*
%TO.N,Net-(C22-Pad1)*%
X78396810Y-100810000D02*
X75075000Y-100810000D01*
X82650000Y-100810000D02*
X78396810Y-100810000D01*
%TO.N,Net-(R22-Pad1)*%
X90275000Y-127028500D02*
X90221500Y-126975000D01*
X90275000Y-128875000D02*
X90275000Y-127028500D01*
%TO.N,Net-(R35-Pad1)*%
X90275000Y-100438500D02*
X90221500Y-100385000D01*
X90275000Y-102285000D02*
X90275000Y-100438500D01*
%TO.N,/emg_module/+VIN_A*%
X59800000Y-100000000D02*
X59800000Y-100050000D01*
X61500000Y-101700000D02*
X59800000Y-100000000D01*
X66225000Y-101700000D02*
X61500000Y-101700000D01*
%TO.N,/emg_module/-VIN_B*%
X61510000Y-128290000D02*
X59800000Y-130000000D01*
X66200000Y-128290000D02*
X61510000Y-128290000D01*
%TO.N,/emg_module/sheet625420FC/-VIN_A_INA*%
X61549999Y-113749999D02*
X59800000Y-112000000D01*
X66250000Y-113750000D02*
X61549999Y-113749999D01*
X66249995Y-113700005D02*
X66200000Y-113750000D01*
X71475000Y-113750000D02*
X71825000Y-113400000D01*
X66200000Y-113750000D02*
X71475000Y-113750000D01*
%TD*%
D15*
%TO.N,GND*%
X98840001Y-134340000D02*
X50160000Y-134340000D01*
X50160000Y-131669609D01*
X53009997Y-131669609D01*
X53196073Y-132010766D01*
X53613409Y-132226513D01*
X54064815Y-132356696D01*
X54532946Y-132396313D01*
X54999811Y-132343842D01*
X55447468Y-132201297D01*
X55803927Y-132010766D01*
X55990003Y-131669609D01*
X54500000Y-130179605D01*
X53009997Y-131669609D01*
X50160000Y-131669609D01*
X50160000Y-130032946D01*
X52103687Y-130032946D01*
X52156158Y-130499811D01*
X52298703Y-130947468D01*
X52489234Y-131303927D01*
X52830391Y-131490003D01*
X54320395Y-130000000D01*
X54679605Y-130000000D01*
X56169609Y-131490003D01*
X56510766Y-131303927D01*
X56726513Y-130886591D01*
X56856696Y-130435185D01*
X56896313Y-129967054D01*
X56843842Y-129500189D01*
X56701297Y-129052532D01*
X56510766Y-128696073D01*
X56169609Y-128509997D01*
X54679605Y-130000000D01*
X54320395Y-130000000D01*
X52830391Y-128509997D01*
X52489234Y-128696073D01*
X52273487Y-129113409D01*
X52143304Y-129564815D01*
X52103687Y-130032946D01*
X50160000Y-130032946D01*
X50160000Y-128330391D01*
X53009997Y-128330391D01*
X54500000Y-129820395D01*
X55990003Y-128330391D01*
X55803927Y-127989234D01*
X55386591Y-127773487D01*
X54935185Y-127643304D01*
X54467054Y-127603687D01*
X54000189Y-127656158D01*
X53552532Y-127798703D01*
X53196073Y-127989234D01*
X53009997Y-128330391D01*
X50160000Y-128330391D01*
X50160000Y-125669609D01*
X53009997Y-125669609D01*
X53196073Y-126010766D01*
X53613409Y-126226513D01*
X54064815Y-126356696D01*
X54532946Y-126396313D01*
X54999811Y-126343842D01*
X55447468Y-126201297D01*
X55803927Y-126010766D01*
X55990003Y-125669609D01*
X54500000Y-124179605D01*
X53009997Y-125669609D01*
X50160000Y-125669609D01*
X50160000Y-124032946D01*
X52103687Y-124032946D01*
X52156158Y-124499811D01*
X52298703Y-124947468D01*
X52489234Y-125303927D01*
X52830391Y-125490003D01*
X54320395Y-124000000D01*
X54679605Y-124000000D01*
X56169609Y-125490003D01*
X56510766Y-125303927D01*
X56726513Y-124886591D01*
X56856696Y-124435185D01*
X56896313Y-123967054D01*
X56843842Y-123500189D01*
X56701297Y-123052532D01*
X56510766Y-122696073D01*
X56169609Y-122509997D01*
X54679605Y-124000000D01*
X54320395Y-124000000D01*
X52830391Y-122509997D01*
X52489234Y-122696073D01*
X52273487Y-123113409D01*
X52143304Y-123564815D01*
X52103687Y-124032946D01*
X50160000Y-124032946D01*
X50160000Y-122330391D01*
X53009997Y-122330391D01*
X54500000Y-123820395D01*
X55990003Y-122330391D01*
X55803927Y-121989234D01*
X55386591Y-121773487D01*
X54935185Y-121643304D01*
X54467054Y-121603687D01*
X54000189Y-121656158D01*
X53552532Y-121798703D01*
X53196073Y-121989234D01*
X53009997Y-122330391D01*
X50160000Y-122330391D01*
X50160000Y-119669609D01*
X53009997Y-119669609D01*
X53196073Y-120010766D01*
X53613409Y-120226513D01*
X54064815Y-120356696D01*
X54532946Y-120396313D01*
X54999811Y-120343842D01*
X55447468Y-120201297D01*
X55803927Y-120010766D01*
X55990003Y-119669609D01*
X54500000Y-118179605D01*
X53009997Y-119669609D01*
X50160000Y-119669609D01*
X50160000Y-118032946D01*
X52103687Y-118032946D01*
X52156158Y-118499811D01*
X52298703Y-118947468D01*
X52489234Y-119303927D01*
X52830391Y-119490003D01*
X54320395Y-118000000D01*
X54679605Y-118000000D01*
X56169609Y-119490003D01*
X56510766Y-119303927D01*
X56726513Y-118886591D01*
X56856696Y-118435185D01*
X56896313Y-117967054D01*
X56843842Y-117500189D01*
X56701297Y-117052532D01*
X56510766Y-116696073D01*
X56169609Y-116509997D01*
X54679605Y-118000000D01*
X54320395Y-118000000D01*
X52830391Y-116509997D01*
X52489234Y-116696073D01*
X52273487Y-117113409D01*
X52143304Y-117564815D01*
X52103687Y-118032946D01*
X50160000Y-118032946D01*
X50160000Y-116330391D01*
X53009997Y-116330391D01*
X54500000Y-117820395D01*
X55990003Y-116330391D01*
X55803927Y-115989234D01*
X55386591Y-115773487D01*
X54935185Y-115643304D01*
X54467054Y-115603687D01*
X54000189Y-115656158D01*
X53552532Y-115798703D01*
X53196073Y-115989234D01*
X53009997Y-116330391D01*
X50160000Y-116330391D01*
X50160000Y-113669609D01*
X53009997Y-113669609D01*
X53196073Y-114010766D01*
X53613409Y-114226513D01*
X54064815Y-114356696D01*
X54532946Y-114396313D01*
X54999811Y-114343842D01*
X55447468Y-114201297D01*
X55803927Y-114010766D01*
X55990003Y-113669609D01*
X54500000Y-112179605D01*
X53009997Y-113669609D01*
X50160000Y-113669609D01*
X50160000Y-112032946D01*
X52103687Y-112032946D01*
X52156158Y-112499811D01*
X52298703Y-112947468D01*
X52489234Y-113303927D01*
X52830391Y-113490003D01*
X54320395Y-112000000D01*
X54679605Y-112000000D01*
X56169609Y-113490003D01*
X56510766Y-113303927D01*
X56726513Y-112886591D01*
X56856696Y-112435185D01*
X56896313Y-111967054D01*
X56843842Y-111500189D01*
X56701297Y-111052532D01*
X56510766Y-110696073D01*
X56169609Y-110509997D01*
X54679605Y-112000000D01*
X54320395Y-112000000D01*
X52830391Y-110509997D01*
X52489234Y-110696073D01*
X52273487Y-111113409D01*
X52143304Y-111564815D01*
X52103687Y-112032946D01*
X50160000Y-112032946D01*
X50160000Y-110330391D01*
X53009997Y-110330391D01*
X54500000Y-111820395D01*
X55990003Y-110330391D01*
X55803927Y-109989234D01*
X55386591Y-109773487D01*
X54935185Y-109643304D01*
X54467054Y-109603687D01*
X54000189Y-109656158D01*
X53552532Y-109798703D01*
X53196073Y-109989234D01*
X53009997Y-110330391D01*
X50160000Y-110330391D01*
X50160000Y-107669609D01*
X53009997Y-107669609D01*
X53196073Y-108010766D01*
X53613409Y-108226513D01*
X54064815Y-108356696D01*
X54532946Y-108396313D01*
X54999811Y-108343842D01*
X55447468Y-108201297D01*
X55803927Y-108010766D01*
X55990003Y-107669609D01*
X54500000Y-106179605D01*
X53009997Y-107669609D01*
X50160000Y-107669609D01*
X50160000Y-106032946D01*
X52103687Y-106032946D01*
X52156158Y-106499811D01*
X52298703Y-106947468D01*
X52489234Y-107303927D01*
X52830391Y-107490003D01*
X54320395Y-106000000D01*
X54679605Y-106000000D01*
X56169609Y-107490003D01*
X56510766Y-107303927D01*
X56726513Y-106886591D01*
X56856696Y-106435185D01*
X56896313Y-105967054D01*
X56843842Y-105500189D01*
X56701297Y-105052532D01*
X56510766Y-104696073D01*
X56169609Y-104509997D01*
X54679605Y-106000000D01*
X54320395Y-106000000D01*
X52830391Y-104509997D01*
X52489234Y-104696073D01*
X52273487Y-105113409D01*
X52143304Y-105564815D01*
X52103687Y-106032946D01*
X50160000Y-106032946D01*
X50160000Y-104330391D01*
X53009997Y-104330391D01*
X54500000Y-105820395D01*
X55990003Y-104330391D01*
X55803927Y-103989234D01*
X55386591Y-103773487D01*
X54935185Y-103643304D01*
X54467054Y-103603687D01*
X54000189Y-103656158D01*
X53552532Y-103798703D01*
X53196073Y-103989234D01*
X53009997Y-104330391D01*
X50160000Y-104330391D01*
X50160000Y-101669609D01*
X53009997Y-101669609D01*
X53196073Y-102010766D01*
X53613409Y-102226513D01*
X54064815Y-102356696D01*
X54532946Y-102396313D01*
X54999811Y-102343842D01*
X55447468Y-102201297D01*
X55803927Y-102010766D01*
X55990003Y-101669609D01*
X54500000Y-100179605D01*
X53009997Y-101669609D01*
X50160000Y-101669609D01*
X50160000Y-100032946D01*
X52103687Y-100032946D01*
X52156158Y-100499811D01*
X52298703Y-100947468D01*
X52489234Y-101303927D01*
X52830391Y-101490003D01*
X54320395Y-100000000D01*
X54679605Y-100000000D01*
X56169609Y-101490003D01*
X56510766Y-101303927D01*
X56726513Y-100886591D01*
X56856696Y-100435185D01*
X56896313Y-99967054D01*
X56873616Y-99765098D01*
X57415000Y-99765098D01*
X57415000Y-100234902D01*
X57506654Y-100695679D01*
X57686440Y-101129721D01*
X57947450Y-101520349D01*
X58279651Y-101852550D01*
X58670279Y-102113560D01*
X59104321Y-102293346D01*
X59565098Y-102385000D01*
X60034902Y-102385000D01*
X60495679Y-102293346D01*
X60865400Y-102140202D01*
X60936201Y-102211003D01*
X60959999Y-102240001D01*
X60988997Y-102263799D01*
X61075723Y-102334974D01*
X61207753Y-102405546D01*
X61351014Y-102449003D01*
X61462667Y-102460000D01*
X61462676Y-102460000D01*
X61499999Y-102463676D01*
X61537322Y-102460000D01*
X64711928Y-102460000D01*
X64711928Y-102550000D01*
X64724188Y-102674482D01*
X64760498Y-102794180D01*
X64819463Y-102904494D01*
X64898815Y-103001185D01*
X64995506Y-103080537D01*
X65105820Y-103139502D01*
X65178380Y-103161513D01*
X65046525Y-103293368D01*
X64921822Y-103480000D01*
X61597323Y-103480000D01*
X61560000Y-103476324D01*
X61522677Y-103480000D01*
X61522667Y-103480000D01*
X61411014Y-103490997D01*
X61267753Y-103534454D01*
X61135724Y-103605026D01*
X61019999Y-103699999D01*
X60996201Y-103728997D01*
X60865401Y-103859798D01*
X60495679Y-103706654D01*
X60034902Y-103615000D01*
X59565098Y-103615000D01*
X59104321Y-103706654D01*
X58670279Y-103886440D01*
X58279651Y-104147450D01*
X57947450Y-104479651D01*
X57686440Y-104870279D01*
X57506654Y-105304321D01*
X57415000Y-105765098D01*
X57415000Y-106234902D01*
X57506654Y-106695679D01*
X57686440Y-107129721D01*
X57947450Y-107520349D01*
X58279651Y-107852550D01*
X58670279Y-108113560D01*
X59104321Y-108293346D01*
X59565098Y-108385000D01*
X60034902Y-108385000D01*
X60495679Y-108293346D01*
X60929721Y-108113560D01*
X61320349Y-107852550D01*
X61652550Y-107520349D01*
X61913560Y-107129721D01*
X62093346Y-106695679D01*
X62185000Y-106234902D01*
X62185000Y-105765098D01*
X62093346Y-105304321D01*
X61967292Y-105000000D01*
X64921822Y-105000000D01*
X65046525Y-105186632D01*
X65253368Y-105393475D01*
X65496589Y-105555990D01*
X65766842Y-105667932D01*
X66053740Y-105725000D01*
X66346260Y-105725000D01*
X66566408Y-105681209D01*
X72740005Y-111854807D01*
X72740004Y-112796289D01*
X72696067Y-112840226D01*
X72695911Y-112840460D01*
X72628937Y-112740226D01*
X72484774Y-112596063D01*
X72315256Y-112482795D01*
X72126898Y-112404774D01*
X71926939Y-112365000D01*
X71723061Y-112365000D01*
X71523102Y-112404774D01*
X71334744Y-112482795D01*
X71165226Y-112596063D01*
X71021063Y-112740226D01*
X70907795Y-112909744D01*
X70874552Y-112990000D01*
X67478178Y-112990000D01*
X67353475Y-112803368D01*
X67146632Y-112596525D01*
X66903411Y-112434010D01*
X66633158Y-112322068D01*
X66346260Y-112265000D01*
X66053740Y-112265000D01*
X65766842Y-112322068D01*
X65496589Y-112434010D01*
X65253368Y-112596525D01*
X65046525Y-112803368D01*
X64921821Y-112990000D01*
X61971435Y-112989999D01*
X62093346Y-112695679D01*
X62185000Y-112234902D01*
X62185000Y-111765098D01*
X62093346Y-111304321D01*
X61913560Y-110870279D01*
X61652550Y-110479651D01*
X61320349Y-110147450D01*
X60929721Y-109886440D01*
X60495679Y-109706654D01*
X60034902Y-109615000D01*
X59565098Y-109615000D01*
X59104321Y-109706654D01*
X58670279Y-109886440D01*
X58279651Y-110147450D01*
X57947450Y-110479651D01*
X57686440Y-110870279D01*
X57506654Y-111304321D01*
X57415000Y-111765098D01*
X57415000Y-112234902D01*
X57506654Y-112695679D01*
X57686440Y-113129721D01*
X57947450Y-113520349D01*
X58279651Y-113852550D01*
X58670279Y-114113560D01*
X59104321Y-114293346D01*
X59565098Y-114385000D01*
X60034902Y-114385000D01*
X60495679Y-114293346D01*
X60865401Y-114140202D01*
X60986204Y-114261006D01*
X61009998Y-114289999D01*
X61038991Y-114313793D01*
X61038996Y-114313798D01*
X61125722Y-114384972D01*
X61257752Y-114455544D01*
X61401012Y-114499001D01*
X61549998Y-114513675D01*
X61587330Y-114509998D01*
X64921821Y-114509999D01*
X65046525Y-114696632D01*
X65178380Y-114828487D01*
X65105820Y-114850498D01*
X64995506Y-114909463D01*
X64898815Y-114988815D01*
X64819463Y-115085506D01*
X64760498Y-115195820D01*
X64724188Y-115315518D01*
X64711928Y-115440000D01*
X64711928Y-115530000D01*
X61547322Y-115530000D01*
X61509999Y-115526324D01*
X61472676Y-115530000D01*
X61472667Y-115530000D01*
X61361014Y-115540997D01*
X61217753Y-115584454D01*
X61085724Y-115655026D01*
X60969999Y-115749999D01*
X60946201Y-115778997D01*
X60865400Y-115859798D01*
X60495679Y-115706654D01*
X60034902Y-115615000D01*
X59565098Y-115615000D01*
X59104321Y-115706654D01*
X58670279Y-115886440D01*
X58279651Y-116147450D01*
X57947450Y-116479651D01*
X57686440Y-116870279D01*
X57506654Y-117304321D01*
X57415000Y-117765098D01*
X57415000Y-118234902D01*
X57506654Y-118695679D01*
X57686440Y-119129721D01*
X57947450Y-119520349D01*
X58279651Y-119852550D01*
X58670279Y-120113560D01*
X59104321Y-120293346D01*
X59565098Y-120385000D01*
X60034902Y-120385000D01*
X60495679Y-120293346D01*
X60929721Y-120113560D01*
X61320349Y-119852550D01*
X61652550Y-119520349D01*
X61913560Y-119129721D01*
X62093346Y-118695679D01*
X62185000Y-118234902D01*
X62185000Y-117765098D01*
X62093346Y-117304321D01*
X61988003Y-117050000D01*
X64711928Y-117050000D01*
X64711928Y-117140000D01*
X64724188Y-117264482D01*
X64760498Y-117384180D01*
X64819463Y-117494494D01*
X64898815Y-117591185D01*
X64995506Y-117670537D01*
X65105820Y-117729502D01*
X65225518Y-117765812D01*
X65350000Y-117778072D01*
X67050000Y-117778072D01*
X67174482Y-117765812D01*
X67294180Y-117729502D01*
X67404494Y-117670537D01*
X67501185Y-117591185D01*
X67580537Y-117494494D01*
X67639502Y-117384180D01*
X67675812Y-117264482D01*
X67688072Y-117140000D01*
X67688072Y-117050000D01*
X70789304Y-117050000D01*
X70896063Y-117209776D01*
X71040226Y-117353939D01*
X71209744Y-117467207D01*
X71398102Y-117545228D01*
X71598061Y-117585002D01*
X71801939Y-117585002D01*
X72001898Y-117545228D01*
X72190256Y-117467207D01*
X72359774Y-117353939D01*
X72503937Y-117209776D01*
X72616705Y-117041007D01*
X72696062Y-117159774D01*
X72739999Y-117203711D01*
X72740000Y-118135198D01*
X66613271Y-124261928D01*
X65350000Y-124261928D01*
X65225518Y-124274188D01*
X65105820Y-124310498D01*
X64995506Y-124369463D01*
X64898815Y-124448815D01*
X64819463Y-124545506D01*
X64760498Y-124655820D01*
X64724188Y-124775518D01*
X64711928Y-124900000D01*
X64711928Y-124990000D01*
X61971435Y-124989999D01*
X62093346Y-124695679D01*
X62185000Y-124234902D01*
X62185000Y-123765098D01*
X62093346Y-123304321D01*
X61913560Y-122870279D01*
X61652550Y-122479651D01*
X61320349Y-122147450D01*
X60929721Y-121886440D01*
X60495679Y-121706654D01*
X60034902Y-121615000D01*
X59565098Y-121615000D01*
X59104321Y-121706654D01*
X58670279Y-121886440D01*
X58279651Y-122147450D01*
X57947450Y-122479651D01*
X57686440Y-122870279D01*
X57506654Y-123304321D01*
X57415000Y-123765098D01*
X57415000Y-124234902D01*
X57506654Y-124695679D01*
X57686440Y-125129721D01*
X57947450Y-125520349D01*
X58279651Y-125852550D01*
X58670279Y-126113560D01*
X59104321Y-126293346D01*
X59565098Y-126385000D01*
X60034902Y-126385000D01*
X60495679Y-126293346D01*
X60865401Y-126140202D01*
X60986204Y-126261006D01*
X61009998Y-126289999D01*
X61038991Y-126313793D01*
X61038996Y-126313798D01*
X61125722Y-126384972D01*
X61257752Y-126455544D01*
X61401012Y-126499001D01*
X61549998Y-126513675D01*
X61587330Y-126509998D01*
X64711928Y-126509999D01*
X64711928Y-126600000D01*
X64724188Y-126724482D01*
X64760498Y-126844180D01*
X64819463Y-126954494D01*
X64898815Y-127051185D01*
X64995506Y-127130537D01*
X65105820Y-127189502D01*
X65178380Y-127211513D01*
X65046525Y-127343368D01*
X64921822Y-127530000D01*
X61547322Y-127530000D01*
X61509999Y-127526324D01*
X61472676Y-127530000D01*
X61472667Y-127530000D01*
X61361014Y-127540997D01*
X61217753Y-127584454D01*
X61085724Y-127655026D01*
X60969999Y-127749999D01*
X60946201Y-127778997D01*
X60865400Y-127859798D01*
X60495679Y-127706654D01*
X60034902Y-127615000D01*
X59565098Y-127615000D01*
X59104321Y-127706654D01*
X58670279Y-127886440D01*
X58279651Y-128147450D01*
X57947450Y-128479651D01*
X57686440Y-128870279D01*
X57506654Y-129304321D01*
X57415000Y-129765098D01*
X57415000Y-130234902D01*
X57506654Y-130695679D01*
X57686440Y-131129721D01*
X57947450Y-131520349D01*
X58279651Y-131852550D01*
X58670279Y-132113560D01*
X59104321Y-132293346D01*
X59565098Y-132385000D01*
X60034902Y-132385000D01*
X60495679Y-132293346D01*
X60929721Y-132113560D01*
X61320349Y-131852550D01*
X61597899Y-131575000D01*
X88786928Y-131575000D01*
X88799188Y-131699482D01*
X88835498Y-131819180D01*
X88894463Y-131929494D01*
X88973815Y-132026185D01*
X89070506Y-132105537D01*
X89180820Y-132164502D01*
X89300518Y-132200812D01*
X89425000Y-132213072D01*
X89639250Y-132210000D01*
X89798000Y-132051250D01*
X89798000Y-130977000D01*
X88948750Y-130977000D01*
X88790000Y-131135750D01*
X88786928Y-131575000D01*
X61597899Y-131575000D01*
X61652550Y-131520349D01*
X61913560Y-131129721D01*
X62093346Y-130695679D01*
X62185000Y-130234902D01*
X62185000Y-129765098D01*
X62093346Y-129304321D01*
X61988003Y-129050000D01*
X64921822Y-129050000D01*
X65046525Y-129236632D01*
X65253368Y-129443475D01*
X65496589Y-129605990D01*
X65766842Y-129717932D01*
X66053740Y-129775000D01*
X66346260Y-129775000D01*
X66633158Y-129717932D01*
X66903411Y-129605990D01*
X67146632Y-129443475D01*
X67353475Y-129236632D01*
X67515990Y-128993411D01*
X67627932Y-128723158D01*
X67685000Y-128436260D01*
X67685000Y-128198061D01*
X70939996Y-128198061D01*
X70939996Y-128401939D01*
X70979770Y-128601898D01*
X71057791Y-128790256D01*
X71171059Y-128959774D01*
X71315222Y-129103937D01*
X71484740Y-129217205D01*
X71673098Y-129295226D01*
X71873057Y-129335000D01*
X72076935Y-129335000D01*
X72276894Y-129295226D01*
X72465252Y-129217205D01*
X72634770Y-129103937D01*
X72778933Y-128959774D01*
X72892201Y-128790256D01*
X72970222Y-128601898D01*
X73009996Y-128401939D01*
X73009996Y-128198061D01*
X72970222Y-127998102D01*
X72892201Y-127809744D01*
X72778933Y-127640226D01*
X72734996Y-127596289D01*
X72734996Y-127509805D01*
X72946740Y-127298061D01*
X74040000Y-127298061D01*
X74040000Y-127501939D01*
X74079774Y-127701898D01*
X74157795Y-127890256D01*
X74271063Y-128059774D01*
X74415226Y-128203937D01*
X74584744Y-128317205D01*
X74773102Y-128395226D01*
X74973061Y-128435000D01*
X75176939Y-128435000D01*
X75376898Y-128395226D01*
X75565256Y-128317205D01*
X75734774Y-128203937D01*
X75778711Y-128160000D01*
X77646928Y-128160000D01*
X77646928Y-128625000D01*
X77663992Y-128798254D01*
X77714528Y-128964850D01*
X77796595Y-129118386D01*
X77907038Y-129252962D01*
X78041614Y-129363405D01*
X78056841Y-129371544D01*
X78014774Y-129473102D01*
X77975000Y-129673061D01*
X77975000Y-129876939D01*
X78014774Y-130076898D01*
X78092795Y-130265256D01*
X78206063Y-130434774D01*
X78350226Y-130578937D01*
X78519744Y-130692205D01*
X78708102Y-130770226D01*
X78908061Y-130810000D01*
X79111939Y-130810000D01*
X79311898Y-130770226D01*
X79500256Y-130692205D01*
X79669774Y-130578937D01*
X79813937Y-130434774D01*
X79927205Y-130265256D01*
X80005226Y-130076898D01*
X80045000Y-129876939D01*
X80045000Y-129673061D01*
X80005604Y-129475000D01*
X83446928Y-129475000D01*
X83459188Y-129599482D01*
X83495498Y-129719180D01*
X83554463Y-129829494D01*
X83633815Y-129926185D01*
X83730506Y-130005537D01*
X83840820Y-130064502D01*
X83960518Y-130100812D01*
X84085000Y-130113072D01*
X84524250Y-130110000D01*
X84683000Y-129951250D01*
X84683000Y-129102000D01*
X84937000Y-129102000D01*
X84937000Y-129951250D01*
X85095750Y-130110000D01*
X85535000Y-130113072D01*
X85659482Y-130100812D01*
X85779180Y-130064502D01*
X85889494Y-130005537D01*
X85986185Y-129926185D01*
X86065537Y-129829494D01*
X86124502Y-129719180D01*
X86160812Y-129599482D01*
X86173072Y-129475000D01*
X86170000Y-129260750D01*
X86011250Y-129102000D01*
X84937000Y-129102000D01*
X84683000Y-129102000D01*
X83608750Y-129102000D01*
X83450000Y-129260750D01*
X83446928Y-129475000D01*
X80005604Y-129475000D01*
X80005226Y-129473102D01*
X79963159Y-129371544D01*
X79978386Y-129363405D01*
X80112962Y-129252962D01*
X80223405Y-129118386D01*
X80305472Y-128964850D01*
X80356008Y-128798254D01*
X80373072Y-128625000D01*
X80373072Y-128160000D01*
X81946289Y-128160000D01*
X81990226Y-128203937D01*
X82159744Y-128317205D01*
X82348102Y-128395226D01*
X82548061Y-128435000D01*
X82751939Y-128435000D01*
X82951898Y-128395226D01*
X83140256Y-128317205D01*
X83309774Y-128203937D01*
X83453937Y-128059774D01*
X83567205Y-127890256D01*
X83596847Y-127818694D01*
X83707038Y-127952962D01*
X83713594Y-127958342D01*
X83633815Y-128023815D01*
X83554463Y-128120506D01*
X83495498Y-128230820D01*
X83459188Y-128350518D01*
X83446928Y-128475000D01*
X83450000Y-128689250D01*
X83608750Y-128848000D01*
X84683000Y-128848000D01*
X84683000Y-128828000D01*
X84937000Y-128828000D01*
X84937000Y-128848000D01*
X86011250Y-128848000D01*
X86170000Y-128689250D01*
X86173072Y-128475000D01*
X86160812Y-128350518D01*
X86124502Y-128230820D01*
X86065537Y-128120506D01*
X85986185Y-128023815D01*
X85906406Y-127958342D01*
X85912962Y-127952962D01*
X86023405Y-127818386D01*
X86105472Y-127664850D01*
X86156008Y-127498254D01*
X86173072Y-127325000D01*
X86173072Y-126825000D01*
X86156008Y-126651746D01*
X86105472Y-126485150D01*
X86023405Y-126331614D01*
X85912962Y-126197038D01*
X85778386Y-126086595D01*
X85763159Y-126078456D01*
X85805226Y-125976898D01*
X85845000Y-125776939D01*
X85845000Y-125573061D01*
X85805226Y-125373102D01*
X85727205Y-125184744D01*
X85613937Y-125015226D01*
X85469774Y-124871063D01*
X85300256Y-124757795D01*
X85111898Y-124679774D01*
X84911939Y-124640000D01*
X84708061Y-124640000D01*
X84508102Y-124679774D01*
X84319744Y-124757795D01*
X84150226Y-124871063D01*
X84006063Y-125015226D01*
X83892795Y-125184744D01*
X83814774Y-125373102D01*
X83775000Y-125573061D01*
X83775000Y-125776939D01*
X83814774Y-125976898D01*
X83856841Y-126078456D01*
X83841614Y-126086595D01*
X83707038Y-126197038D01*
X83596595Y-126331614D01*
X83514528Y-126485150D01*
X83463992Y-126651746D01*
X83455105Y-126741974D01*
X83453937Y-126740226D01*
X83309774Y-126596063D01*
X83140256Y-126482795D01*
X82951898Y-126404774D01*
X82751939Y-126365000D01*
X82548061Y-126365000D01*
X82348102Y-126404774D01*
X82159744Y-126482795D01*
X81990226Y-126596063D01*
X81946289Y-126640000D01*
X80249250Y-126640000D01*
X80211250Y-126602000D01*
X79137000Y-126602000D01*
X79137000Y-126622000D01*
X78883000Y-126622000D01*
X78883000Y-126602000D01*
X77808750Y-126602000D01*
X77770750Y-126640000D01*
X75778711Y-126640000D01*
X75734774Y-126596063D01*
X75565256Y-126482795D01*
X75376898Y-126404774D01*
X75176939Y-126365000D01*
X74973061Y-126365000D01*
X74773102Y-126404774D01*
X74584744Y-126482795D01*
X74415226Y-126596063D01*
X74271063Y-126740226D01*
X74157795Y-126909744D01*
X74079774Y-127098102D01*
X74040000Y-127298061D01*
X72946740Y-127298061D01*
X74269801Y-125975000D01*
X77646928Y-125975000D01*
X77650000Y-126189250D01*
X77808750Y-126348000D01*
X78883000Y-126348000D01*
X78883000Y-125498750D01*
X79137000Y-125498750D01*
X79137000Y-126348000D01*
X80211250Y-126348000D01*
X80370000Y-126189250D01*
X80373072Y-125975000D01*
X80360812Y-125850518D01*
X80324502Y-125730820D01*
X80265537Y-125620506D01*
X80186185Y-125523815D01*
X80089494Y-125444463D01*
X79979180Y-125385498D01*
X79859482Y-125349188D01*
X79735000Y-125336928D01*
X79295750Y-125340000D01*
X79137000Y-125498750D01*
X78883000Y-125498750D01*
X78724250Y-125340000D01*
X78285000Y-125336928D01*
X78160518Y-125349188D01*
X78040820Y-125385498D01*
X77930506Y-125444463D01*
X77833815Y-125523815D01*
X77754463Y-125620506D01*
X77695498Y-125730820D01*
X77659188Y-125850518D01*
X77646928Y-125975000D01*
X74269801Y-125975000D01*
X77534802Y-122710000D01*
X86921289Y-122710000D01*
X86965226Y-122753937D01*
X87134744Y-122867205D01*
X87323102Y-122945226D01*
X87523061Y-122985000D01*
X87726939Y-122985000D01*
X87926898Y-122945226D01*
X88115256Y-122867205D01*
X88284774Y-122753937D01*
X88428937Y-122609774D01*
X88542205Y-122440256D01*
X88620226Y-122251898D01*
X88660000Y-122051939D01*
X88660000Y-121848061D01*
X88620226Y-121648102D01*
X88542205Y-121459744D01*
X88428937Y-121290226D01*
X88284774Y-121146063D01*
X88115256Y-121032795D01*
X87926898Y-120954774D01*
X87726939Y-120915000D01*
X87523061Y-120915000D01*
X87323102Y-120954774D01*
X87134744Y-121032795D01*
X86965226Y-121146063D01*
X86921289Y-121190000D01*
X77257325Y-121190000D01*
X77220000Y-121186324D01*
X77182675Y-121190000D01*
X77182667Y-121190000D01*
X77071014Y-121200997D01*
X76927753Y-121244454D01*
X76795724Y-121315026D01*
X76679999Y-121409999D01*
X76656201Y-121438997D01*
X71463994Y-126631205D01*
X71434996Y-126655003D01*
X71411198Y-126684001D01*
X71411197Y-126684002D01*
X71340022Y-126770728D01*
X71269450Y-126902758D01*
X71253757Y-126954494D01*
X71225994Y-127046018D01*
X71217080Y-127136525D01*
X71211320Y-127195004D01*
X71214997Y-127232336D01*
X71214997Y-127596288D01*
X71171059Y-127640226D01*
X71057791Y-127809744D01*
X70979770Y-127998102D01*
X70939996Y-128198061D01*
X67685000Y-128198061D01*
X67685000Y-128143740D01*
X67627932Y-127856842D01*
X67515990Y-127586589D01*
X67353475Y-127343368D01*
X67221620Y-127211513D01*
X67294180Y-127189502D01*
X67404494Y-127130537D01*
X67501185Y-127051185D01*
X67580537Y-126954494D01*
X67639502Y-126844180D01*
X67675812Y-126724482D01*
X67688072Y-126600000D01*
X67688072Y-125336729D01*
X74011002Y-119013800D01*
X74040000Y-118990002D01*
X74134973Y-118874277D01*
X74205545Y-118742248D01*
X74248694Y-118600000D01*
X82461928Y-118600000D01*
X82474188Y-118724482D01*
X82510498Y-118844180D01*
X82569463Y-118954494D01*
X82648815Y-119051185D01*
X82745506Y-119130537D01*
X82855820Y-119189502D01*
X82975518Y-119225812D01*
X83100000Y-119238072D01*
X83314250Y-119235000D01*
X83473000Y-119076250D01*
X83473000Y-118002000D01*
X82623750Y-118002000D01*
X82465000Y-118160750D01*
X82461928Y-118600000D01*
X74248694Y-118600000D01*
X74249002Y-118598987D01*
X74259999Y-118487334D01*
X74263676Y-118450001D01*
X74259999Y-118412668D01*
X74259999Y-117203711D01*
X74303936Y-117159774D01*
X74417204Y-116990256D01*
X74495225Y-116801898D01*
X74534999Y-116601939D01*
X74534999Y-116398061D01*
X74525362Y-116349612D01*
X74535750Y-116360000D01*
X74750000Y-116363072D01*
X74874482Y-116350812D01*
X74994180Y-116314502D01*
X75104494Y-116255537D01*
X75201185Y-116176185D01*
X75266658Y-116096406D01*
X75272038Y-116102962D01*
X75406614Y-116213405D01*
X75560150Y-116295472D01*
X75726746Y-116346008D01*
X75900000Y-116363072D01*
X76238271Y-116363072D01*
X76603682Y-116728484D01*
X76582795Y-116759744D01*
X76504774Y-116948102D01*
X76465000Y-117148061D01*
X76465000Y-117351939D01*
X76504774Y-117551898D01*
X76582795Y-117740256D01*
X76696063Y-117909774D01*
X76840226Y-118053937D01*
X77009744Y-118167205D01*
X77198102Y-118245226D01*
X77398061Y-118285000D01*
X77601939Y-118285000D01*
X77801898Y-118245226D01*
X77990256Y-118167205D01*
X78159774Y-118053937D01*
X78303937Y-117909774D01*
X78417205Y-117740256D01*
X78495226Y-117551898D01*
X78535000Y-117351939D01*
X78535000Y-117154553D01*
X78596525Y-117246632D01*
X78803368Y-117453475D01*
X79046589Y-117615990D01*
X79316842Y-117727932D01*
X79603740Y-117785000D01*
X79896260Y-117785000D01*
X80183158Y-117727932D01*
X80453411Y-117615990D01*
X80696632Y-117453475D01*
X80903475Y-117246632D01*
X80968042Y-117150000D01*
X82461928Y-117150000D01*
X82465000Y-117589250D01*
X82623750Y-117748000D01*
X83473000Y-117748000D01*
X83473000Y-116673750D01*
X83727000Y-116673750D01*
X83727000Y-117748000D01*
X83747000Y-117748000D01*
X83747000Y-118002000D01*
X83727000Y-118002000D01*
X83727000Y-119076250D01*
X83885750Y-119235000D01*
X84100000Y-119238072D01*
X84224482Y-119225812D01*
X84344180Y-119189502D01*
X84454494Y-119130537D01*
X84551185Y-119051185D01*
X84616658Y-118971406D01*
X84622038Y-118977962D01*
X84756614Y-119088405D01*
X84910150Y-119170472D01*
X85076746Y-119221008D01*
X85250000Y-119238072D01*
X85750000Y-119238072D01*
X85923254Y-119221008D01*
X86089850Y-119170472D01*
X86243386Y-119088405D01*
X86377962Y-118977962D01*
X86488405Y-118843386D01*
X86496544Y-118828159D01*
X86598102Y-118870226D01*
X86798061Y-118910000D01*
X87001939Y-118910000D01*
X87201898Y-118870226D01*
X87390256Y-118792205D01*
X87525276Y-118701988D01*
X87534454Y-118732246D01*
X87605026Y-118864276D01*
X87673301Y-118947468D01*
X87700000Y-118980001D01*
X87728998Y-119003799D01*
X92415198Y-123690000D01*
X92297998Y-123690000D01*
X92297998Y-123848748D01*
X92139250Y-123690000D01*
X91925000Y-123686928D01*
X91800518Y-123699188D01*
X91680820Y-123735498D01*
X91570506Y-123794463D01*
X91473815Y-123873815D01*
X91408342Y-123953594D01*
X91402962Y-123947038D01*
X91268386Y-123836595D01*
X91114850Y-123754528D01*
X90948254Y-123703992D01*
X90775000Y-123686928D01*
X90275000Y-123686928D01*
X90101746Y-123703992D01*
X89935150Y-123754528D01*
X89781614Y-123836595D01*
X89647038Y-123947038D01*
X89536595Y-124081614D01*
X89528456Y-124096841D01*
X89426898Y-124054774D01*
X89226939Y-124015000D01*
X89023061Y-124015000D01*
X88823102Y-124054774D01*
X88634744Y-124132795D01*
X88465226Y-124246063D01*
X88321063Y-124390226D01*
X88207795Y-124559744D01*
X88129774Y-124748102D01*
X88090000Y-124948061D01*
X88090000Y-125151939D01*
X88129774Y-125351898D01*
X88207795Y-125540256D01*
X88321063Y-125709774D01*
X88465226Y-125853937D01*
X88634744Y-125967205D01*
X88823102Y-126045226D01*
X89023061Y-126085000D01*
X89226939Y-126085000D01*
X89299402Y-126070586D01*
X89220595Y-126166613D01*
X89138528Y-126320148D01*
X89087992Y-126486744D01*
X89070928Y-126659998D01*
X89070928Y-127560002D01*
X89087992Y-127733256D01*
X89138528Y-127899852D01*
X89220595Y-128053387D01*
X89331038Y-128187962D01*
X89433238Y-128271835D01*
X89357795Y-128384744D01*
X89279774Y-128573102D01*
X89240000Y-128773061D01*
X89240000Y-128976939D01*
X89279774Y-129176898D01*
X89357795Y-129365256D01*
X89439230Y-129487132D01*
X89425000Y-129486928D01*
X89300518Y-129499188D01*
X89180820Y-129535498D01*
X89070506Y-129594463D01*
X88973815Y-129673815D01*
X88894463Y-129770506D01*
X88835498Y-129880820D01*
X88799188Y-130000518D01*
X88786928Y-130125000D01*
X88790000Y-130564250D01*
X88948750Y-130723000D01*
X89798000Y-130723000D01*
X89798000Y-130703000D01*
X90052000Y-130703000D01*
X90052000Y-130723000D01*
X90072000Y-130723000D01*
X90072000Y-130977000D01*
X90052000Y-130977000D01*
X90052000Y-132051250D01*
X90210750Y-132210000D01*
X90425000Y-132213072D01*
X90549482Y-132200812D01*
X90669180Y-132164502D01*
X90779494Y-132105537D01*
X90876185Y-132026185D01*
X90941658Y-131946406D01*
X90947038Y-131952962D01*
X91081614Y-132063405D01*
X91178714Y-132115306D01*
X91154774Y-132173102D01*
X91115000Y-132373061D01*
X91115000Y-132576939D01*
X91154774Y-132776898D01*
X91232795Y-132965256D01*
X91346063Y-133134774D01*
X91490226Y-133278937D01*
X91659744Y-133392205D01*
X91848102Y-133470226D01*
X92048061Y-133510000D01*
X92251939Y-133510000D01*
X92451898Y-133470226D01*
X92640256Y-133392205D01*
X92809774Y-133278937D01*
X92953937Y-133134774D01*
X93067205Y-132965256D01*
X93145226Y-132776898D01*
X93185000Y-132576939D01*
X93185000Y-132373061D01*
X93145226Y-132173102D01*
X93067205Y-131984744D01*
X92953937Y-131815226D01*
X92910000Y-131771289D01*
X92910000Y-131616957D01*
X92946008Y-131498254D01*
X92963072Y-131325000D01*
X92963072Y-130375000D01*
X92946008Y-130201746D01*
X92895472Y-130035150D01*
X92813405Y-129881614D01*
X92702962Y-129747038D01*
X92637839Y-129693593D01*
X92659774Y-129678937D01*
X92803937Y-129534774D01*
X92917205Y-129365256D01*
X92995226Y-129176898D01*
X93018478Y-129060000D01*
X93046289Y-129060000D01*
X93090226Y-129103937D01*
X93259744Y-129217205D01*
X93448102Y-129295226D01*
X93648061Y-129335000D01*
X93851939Y-129335000D01*
X94051898Y-129295226D01*
X94240256Y-129217205D01*
X94409774Y-129103937D01*
X94553937Y-128959774D01*
X94667205Y-128790256D01*
X94745226Y-128601898D01*
X94785000Y-128401939D01*
X94785000Y-128198061D01*
X94745226Y-127998102D01*
X94667205Y-127809744D01*
X94553937Y-127640226D01*
X94510000Y-127596289D01*
X94510000Y-123987325D01*
X94513676Y-123950000D01*
X94510000Y-123912675D01*
X94510000Y-123912667D01*
X94499003Y-123801014D01*
X94455546Y-123657753D01*
X94384974Y-123525724D01*
X94290001Y-123409999D01*
X94261004Y-123386202D01*
X90110218Y-119235416D01*
X90139250Y-119235000D01*
X90298000Y-119076250D01*
X90298000Y-118002000D01*
X89448750Y-118002000D01*
X89290000Y-118160750D01*
X89288233Y-118413432D01*
X89000000Y-118125199D01*
X89000000Y-117424801D01*
X89288253Y-117136549D01*
X89286928Y-117150000D01*
X89290000Y-117589250D01*
X89448750Y-117748000D01*
X90298000Y-117748000D01*
X90298000Y-117728000D01*
X90552000Y-117728000D01*
X90552000Y-117748000D01*
X90572000Y-117748000D01*
X90572000Y-118002000D01*
X90552000Y-118002000D01*
X90552000Y-119076250D01*
X90710750Y-119235000D01*
X90925000Y-119238072D01*
X91049482Y-119225812D01*
X91169180Y-119189502D01*
X91279494Y-119130537D01*
X91376185Y-119051185D01*
X91441658Y-118971406D01*
X91447038Y-118977962D01*
X91581614Y-119088405D01*
X91735150Y-119170472D01*
X91901746Y-119221008D01*
X92075000Y-119238072D01*
X92575000Y-119238072D01*
X92748254Y-119221008D01*
X92914850Y-119170472D01*
X93068386Y-119088405D01*
X93202962Y-118977962D01*
X93313405Y-118843386D01*
X93321544Y-118828159D01*
X93423102Y-118870226D01*
X93623061Y-118910000D01*
X93826939Y-118910000D01*
X94026898Y-118870226D01*
X94215256Y-118792205D01*
X94384774Y-118678937D01*
X94528937Y-118534774D01*
X94642205Y-118365256D01*
X94720226Y-118176898D01*
X94760000Y-117976939D01*
X94760000Y-117773061D01*
X94720226Y-117573102D01*
X94642205Y-117384744D01*
X94528937Y-117215226D01*
X94384774Y-117071063D01*
X94215256Y-116957795D01*
X94026898Y-116879774D01*
X93826939Y-116840000D01*
X93623061Y-116840000D01*
X93423102Y-116879774D01*
X93321544Y-116921841D01*
X93313405Y-116906614D01*
X93246427Y-116825000D01*
X94705199Y-116825000D01*
X95058791Y-117178592D01*
X95015000Y-117398740D01*
X95015000Y-117691260D01*
X95072068Y-117978158D01*
X95184010Y-118248411D01*
X95346525Y-118491632D01*
X95553368Y-118698475D01*
X95727760Y-118815000D01*
X95553368Y-118931525D01*
X95346525Y-119138368D01*
X95184010Y-119381589D01*
X95072068Y-119651842D01*
X95015000Y-119938740D01*
X95015000Y-120231260D01*
X95072068Y-120518158D01*
X95184010Y-120788411D01*
X95346525Y-121031632D01*
X95553368Y-121238475D01*
X95796589Y-121400990D01*
X96066842Y-121512932D01*
X96353740Y-121570000D01*
X96646260Y-121570000D01*
X96933158Y-121512932D01*
X97203411Y-121400990D01*
X97446632Y-121238475D01*
X97653475Y-121031632D01*
X97815990Y-120788411D01*
X97927932Y-120518158D01*
X97985000Y-120231260D01*
X97985000Y-119938740D01*
X97927932Y-119651842D01*
X97815990Y-119381589D01*
X97653475Y-119138368D01*
X97446632Y-118931525D01*
X97272240Y-118815000D01*
X97446632Y-118698475D01*
X97653475Y-118491632D01*
X97815990Y-118248411D01*
X97927932Y-117978158D01*
X97985000Y-117691260D01*
X97985000Y-117398740D01*
X97927932Y-117111842D01*
X97815990Y-116841589D01*
X97653475Y-116598368D01*
X97446632Y-116391525D01*
X97264466Y-116269805D01*
X97381355Y-116200178D01*
X97597588Y-116005269D01*
X97771641Y-115771920D01*
X97896825Y-115509099D01*
X97941476Y-115361890D01*
X97820155Y-115132000D01*
X96627000Y-115132000D01*
X96627000Y-115152000D01*
X96373000Y-115152000D01*
X96373000Y-115132000D01*
X95179845Y-115132000D01*
X95087005Y-115307922D01*
X95057333Y-115305000D01*
X95057322Y-115305000D01*
X95020000Y-115301324D01*
X94982678Y-115305000D01*
X93028711Y-115305000D01*
X92984774Y-115261063D01*
X92815256Y-115147795D01*
X92626898Y-115069774D01*
X92426939Y-115030000D01*
X92223061Y-115030000D01*
X92023102Y-115069774D01*
X91834744Y-115147795D01*
X91685936Y-115247225D01*
X91684774Y-115246063D01*
X91515256Y-115132795D01*
X91326898Y-115054774D01*
X91126939Y-115015000D01*
X90923061Y-115015000D01*
X90723102Y-115054774D01*
X90534744Y-115132795D01*
X90365226Y-115246063D01*
X90321289Y-115290000D01*
X89337322Y-115290000D01*
X89299999Y-115286324D01*
X89262676Y-115290000D01*
X89262667Y-115290000D01*
X89151014Y-115300997D01*
X89007753Y-115344454D01*
X88875724Y-115415026D01*
X88875722Y-115415027D01*
X88875723Y-115415027D01*
X88788996Y-115486201D01*
X88788992Y-115486205D01*
X88759999Y-115509999D01*
X88736205Y-115538992D01*
X87729002Y-116546197D01*
X87699999Y-116569999D01*
X87644871Y-116637174D01*
X87605026Y-116685724D01*
X87558890Y-116772038D01*
X87534454Y-116817754D01*
X87490997Y-116961015D01*
X87485074Y-117021150D01*
X87390256Y-116957795D01*
X87201898Y-116879774D01*
X87001939Y-116840000D01*
X86798061Y-116840000D01*
X86598102Y-116879774D01*
X86496544Y-116921841D01*
X86488405Y-116906614D01*
X86377962Y-116772038D01*
X86243386Y-116661595D01*
X86089850Y-116579528D01*
X85923254Y-116528992D01*
X85837502Y-116520546D01*
X85845226Y-116501898D01*
X85885000Y-116301939D01*
X85885000Y-116098061D01*
X85845226Y-115898102D01*
X85767205Y-115709744D01*
X85653937Y-115540226D01*
X85509774Y-115396063D01*
X85340256Y-115282795D01*
X85151898Y-115204774D01*
X84951939Y-115165000D01*
X84748061Y-115165000D01*
X84548102Y-115204774D01*
X84359744Y-115282795D01*
X84190226Y-115396063D01*
X84046063Y-115540226D01*
X83932795Y-115709744D01*
X83854774Y-115898102D01*
X83815000Y-116098061D01*
X83815000Y-116301939D01*
X83854774Y-116501898D01*
X83867684Y-116533066D01*
X83727000Y-116673750D01*
X83473000Y-116673750D01*
X83314250Y-116515000D01*
X83100000Y-116511928D01*
X82975518Y-116524188D01*
X82855820Y-116560498D01*
X82745506Y-116619463D01*
X82648815Y-116698815D01*
X82569463Y-116795506D01*
X82510498Y-116905820D01*
X82474188Y-117025518D01*
X82461928Y-117150000D01*
X80968042Y-117150000D01*
X81065990Y-117003411D01*
X81177932Y-116733158D01*
X81235000Y-116446260D01*
X81235000Y-116153740D01*
X81177932Y-115866842D01*
X81065990Y-115596589D01*
X80903475Y-115353368D01*
X80771620Y-115221513D01*
X80844180Y-115199502D01*
X80954494Y-115140537D01*
X81051185Y-115061185D01*
X81130537Y-114964494D01*
X81189502Y-114854180D01*
X81225812Y-114734482D01*
X81238072Y-114610000D01*
X81238072Y-112910000D01*
X81225812Y-112785518D01*
X81189502Y-112665820D01*
X81130537Y-112555506D01*
X81051185Y-112458815D01*
X80954494Y-112379463D01*
X80844180Y-112320498D01*
X80724482Y-112284188D01*
X80600000Y-112271928D01*
X78900000Y-112271928D01*
X78775518Y-112284188D01*
X78655820Y-112320498D01*
X78545506Y-112379463D01*
X78486767Y-112427669D01*
X78417205Y-112259734D01*
X78303937Y-112090216D01*
X78186782Y-111973061D01*
X81765000Y-111973061D01*
X81765000Y-112176939D01*
X81804774Y-112376898D01*
X81882795Y-112565256D01*
X81996063Y-112734774D01*
X82140226Y-112878937D01*
X82309744Y-112992205D01*
X82498102Y-113070226D01*
X82698061Y-113110000D01*
X82901939Y-113110000D01*
X83101898Y-113070226D01*
X83203456Y-113028159D01*
X83211595Y-113043386D01*
X83322038Y-113177962D01*
X83456614Y-113288405D01*
X83610150Y-113370472D01*
X83776746Y-113421008D01*
X83862498Y-113429454D01*
X83854774Y-113448102D01*
X83815000Y-113648061D01*
X83815000Y-113851939D01*
X83854774Y-114051898D01*
X83932795Y-114240256D01*
X84046063Y-114409774D01*
X84190226Y-114553937D01*
X84359744Y-114667205D01*
X84548102Y-114745226D01*
X84748061Y-114785000D01*
X84951939Y-114785000D01*
X85151898Y-114745226D01*
X85340256Y-114667205D01*
X85509774Y-114553937D01*
X85653937Y-114409774D01*
X85767205Y-114240256D01*
X85845226Y-114051898D01*
X85885000Y-113851939D01*
X85885000Y-113648061D01*
X85845226Y-113448102D01*
X85832316Y-113416934D01*
X85973000Y-113276250D01*
X85973000Y-112202000D01*
X86227000Y-112202000D01*
X86227000Y-113276250D01*
X86385750Y-113435000D01*
X86600000Y-113438072D01*
X86724482Y-113425812D01*
X86844180Y-113389502D01*
X86954494Y-113330537D01*
X87051185Y-113251185D01*
X87130537Y-113154494D01*
X87189502Y-113044180D01*
X87225812Y-112924482D01*
X87238072Y-112800000D01*
X87235000Y-112360750D01*
X87076250Y-112202000D01*
X86227000Y-112202000D01*
X85973000Y-112202000D01*
X85953000Y-112202000D01*
X85953000Y-111948000D01*
X85973000Y-111948000D01*
X85973000Y-110873750D01*
X86227000Y-110873750D01*
X86227000Y-111948000D01*
X87076250Y-111948000D01*
X87235000Y-111789250D01*
X87235799Y-111675000D01*
X87461324Y-111675000D01*
X87465000Y-111712323D01*
X87465001Y-112812668D01*
X87461324Y-112850000D01*
X87465001Y-112887333D01*
X87475998Y-112998986D01*
X87484109Y-113025725D01*
X87519454Y-113142246D01*
X87590026Y-113274276D01*
X87632248Y-113325723D01*
X87685000Y-113390001D01*
X87713998Y-113413799D01*
X88736201Y-114436003D01*
X88759999Y-114465001D01*
X88812094Y-114507754D01*
X88875724Y-114559974D01*
X89007753Y-114630546D01*
X89151014Y-114674003D01*
X89300000Y-114688677D01*
X89337333Y-114685000D01*
X90321289Y-114685000D01*
X90365226Y-114728937D01*
X90534744Y-114842205D01*
X90723102Y-114920226D01*
X90923061Y-114960000D01*
X91126939Y-114960000D01*
X91326898Y-114920226D01*
X91515256Y-114842205D01*
X91675000Y-114735468D01*
X91834744Y-114842205D01*
X92023102Y-114920226D01*
X92223061Y-114960000D01*
X92426939Y-114960000D01*
X92626898Y-114920226D01*
X92815256Y-114842205D01*
X92984774Y-114728937D01*
X93028711Y-114685000D01*
X95002678Y-114685000D01*
X95040000Y-114688676D01*
X95077322Y-114685000D01*
X95077333Y-114685000D01*
X95077960Y-114684938D01*
X95179845Y-114878000D01*
X96373000Y-114878000D01*
X96373000Y-114858000D01*
X96627000Y-114858000D01*
X96627000Y-114878000D01*
X97820155Y-114878000D01*
X97941476Y-114648110D01*
X97896825Y-114500901D01*
X97771641Y-114238080D01*
X97597588Y-114004731D01*
X97381355Y-113809822D01*
X97264466Y-113740195D01*
X97446632Y-113618475D01*
X97653475Y-113411632D01*
X97815990Y-113168411D01*
X97927932Y-112898158D01*
X97985000Y-112611260D01*
X97985000Y-112318740D01*
X97927932Y-112031842D01*
X97815990Y-111761589D01*
X97653475Y-111518368D01*
X97521620Y-111386513D01*
X97594180Y-111364502D01*
X97704494Y-111305537D01*
X97801185Y-111226185D01*
X97880537Y-111129494D01*
X97939502Y-111019180D01*
X97975812Y-110899482D01*
X97988072Y-110775000D01*
X97988072Y-109075000D01*
X97975812Y-108950518D01*
X97939502Y-108830820D01*
X97880537Y-108720506D01*
X97801185Y-108623815D01*
X97704494Y-108544463D01*
X97594180Y-108485498D01*
X97474482Y-108449188D01*
X97350000Y-108436928D01*
X95650000Y-108436928D01*
X95525518Y-108449188D01*
X95405820Y-108485498D01*
X95295506Y-108544463D01*
X95198815Y-108623815D01*
X95119463Y-108720506D01*
X95060498Y-108830820D01*
X95024188Y-108950518D01*
X95011928Y-109075000D01*
X95011928Y-110775000D01*
X95024188Y-110899482D01*
X95060498Y-111019180D01*
X95119463Y-111129494D01*
X95198815Y-111226185D01*
X95295506Y-111305537D01*
X95405820Y-111364502D01*
X95478380Y-111386513D01*
X95346525Y-111518368D01*
X95184010Y-111761589D01*
X95072068Y-112031842D01*
X95015000Y-112318740D01*
X95015000Y-112611260D01*
X95058791Y-112831408D01*
X94725199Y-113165000D01*
X93946915Y-113165000D01*
X93955537Y-113154494D01*
X94014502Y-113044180D01*
X94050812Y-112924482D01*
X94063072Y-112800000D01*
X94060000Y-112360750D01*
X93901250Y-112202000D01*
X93052000Y-112202000D01*
X93052000Y-112222000D01*
X92798000Y-112222000D01*
X92798000Y-112202000D01*
X92778000Y-112202000D01*
X92778000Y-111948000D01*
X92798000Y-111948000D01*
X92798000Y-110873750D01*
X93052000Y-110873750D01*
X93052000Y-111948000D01*
X93901250Y-111948000D01*
X94060000Y-111789250D01*
X94063072Y-111350000D01*
X94050812Y-111225518D01*
X94014502Y-111105820D01*
X93955537Y-110995506D01*
X93876185Y-110898815D01*
X93779494Y-110819463D01*
X93669180Y-110760498D01*
X93549482Y-110724188D01*
X93425000Y-110711928D01*
X93210750Y-110715000D01*
X93052000Y-110873750D01*
X92798000Y-110873750D01*
X92639250Y-110715000D01*
X92425000Y-110711928D01*
X92300518Y-110724188D01*
X92180820Y-110760498D01*
X92070506Y-110819463D01*
X91973815Y-110898815D01*
X91908342Y-110978594D01*
X91902962Y-110972038D01*
X91768386Y-110861595D01*
X91614850Y-110779528D01*
X91448254Y-110728992D01*
X91275000Y-110711928D01*
X90775000Y-110711928D01*
X90601746Y-110728992D01*
X90435150Y-110779528D01*
X90281614Y-110861595D01*
X90147038Y-110972038D01*
X90036595Y-111106614D01*
X90028456Y-111121841D01*
X89926898Y-111079774D01*
X89900315Y-111074486D01*
X94261003Y-106713799D01*
X94290001Y-106690001D01*
X94323915Y-106648677D01*
X94384974Y-106574277D01*
X94455546Y-106442247D01*
X94475867Y-106375256D01*
X94499003Y-106298986D01*
X94510000Y-106187333D01*
X94510000Y-106187323D01*
X94513676Y-106150000D01*
X94510000Y-106112677D01*
X94510000Y-102413711D01*
X94553937Y-102369774D01*
X94667205Y-102200256D01*
X94745226Y-102011898D01*
X94785000Y-101811939D01*
X94785000Y-101608061D01*
X94745226Y-101408102D01*
X94667205Y-101219744D01*
X94553937Y-101050226D01*
X94409774Y-100906063D01*
X94240256Y-100792795D01*
X94051898Y-100714774D01*
X93851939Y-100675000D01*
X93648061Y-100675000D01*
X93448102Y-100714774D01*
X93259744Y-100792795D01*
X93193072Y-100837344D01*
X93193072Y-100069998D01*
X93176008Y-99896744D01*
X93141476Y-99782906D01*
X93169180Y-99774502D01*
X93279494Y-99715537D01*
X93376185Y-99636185D01*
X93455537Y-99539494D01*
X93514502Y-99429180D01*
X93550812Y-99309482D01*
X93563072Y-99185000D01*
X93560000Y-98745750D01*
X93401250Y-98587000D01*
X92552000Y-98587000D01*
X92552000Y-98607000D01*
X92298000Y-98607000D01*
X92298000Y-98587000D01*
X92278000Y-98587000D01*
X92278000Y-98333000D01*
X92298000Y-98333000D01*
X92298000Y-97258750D01*
X92552000Y-97258750D01*
X92552000Y-98333000D01*
X93401250Y-98333000D01*
X93560000Y-98174250D01*
X93563072Y-97735000D01*
X93550812Y-97610518D01*
X93514502Y-97490820D01*
X93455537Y-97380506D01*
X93376185Y-97283815D01*
X93279494Y-97204463D01*
X93169180Y-97145498D01*
X93049482Y-97109188D01*
X92925000Y-97096928D01*
X92710750Y-97100000D01*
X92552000Y-97258750D01*
X92298000Y-97258750D01*
X92139250Y-97100000D01*
X91925000Y-97096928D01*
X91800518Y-97109188D01*
X91680820Y-97145498D01*
X91570506Y-97204463D01*
X91473815Y-97283815D01*
X91408342Y-97363594D01*
X91402962Y-97357038D01*
X91268386Y-97246595D01*
X91114850Y-97164528D01*
X90948254Y-97113992D01*
X90775000Y-97096928D01*
X90275000Y-97096928D01*
X90101746Y-97113992D01*
X89935150Y-97164528D01*
X89781614Y-97246595D01*
X89647038Y-97357038D01*
X89536595Y-97491614D01*
X89528456Y-97506841D01*
X89426898Y-97464774D01*
X89226939Y-97425000D01*
X89023061Y-97425000D01*
X88823102Y-97464774D01*
X88634744Y-97542795D01*
X88465226Y-97656063D01*
X88321063Y-97800226D01*
X88207795Y-97969744D01*
X88129774Y-98158102D01*
X88090000Y-98358061D01*
X88090000Y-98561939D01*
X88129774Y-98761898D01*
X88207795Y-98950256D01*
X88321063Y-99119774D01*
X88465226Y-99263937D01*
X88634744Y-99377205D01*
X88823102Y-99455226D01*
X89023061Y-99495000D01*
X89226939Y-99495000D01*
X89294622Y-99481537D01*
X89216595Y-99576613D01*
X89134528Y-99730148D01*
X89083992Y-99896744D01*
X89066928Y-100069998D01*
X89066928Y-100970002D01*
X89083992Y-101143256D01*
X89134528Y-101309852D01*
X89216595Y-101463387D01*
X89327038Y-101597962D01*
X89431821Y-101683956D01*
X89357795Y-101794744D01*
X89279774Y-101983102D01*
X89240000Y-102183061D01*
X89240000Y-102386939D01*
X89279774Y-102586898D01*
X89357795Y-102775256D01*
X89439230Y-102897132D01*
X89425000Y-102896928D01*
X89300518Y-102909188D01*
X89180820Y-102945498D01*
X89070506Y-103004463D01*
X88973815Y-103083815D01*
X88894463Y-103180506D01*
X88835498Y-103290820D01*
X88799188Y-103410518D01*
X88786928Y-103535000D01*
X88790000Y-103974250D01*
X88948750Y-104133000D01*
X89798000Y-104133000D01*
X89798000Y-104113000D01*
X90052000Y-104113000D01*
X90052000Y-104133000D01*
X90072000Y-104133000D01*
X90072000Y-104387000D01*
X90052000Y-104387000D01*
X90052000Y-105461250D01*
X90210750Y-105620000D01*
X90425000Y-105623072D01*
X90549482Y-105610812D01*
X90669180Y-105574502D01*
X90779494Y-105515537D01*
X90876185Y-105436185D01*
X90941658Y-105356406D01*
X90947038Y-105362962D01*
X91081614Y-105473405D01*
X91178714Y-105525306D01*
X91154774Y-105583102D01*
X91115000Y-105783061D01*
X91115000Y-105986939D01*
X91154774Y-106186898D01*
X91232795Y-106375256D01*
X91346063Y-106544774D01*
X91490226Y-106688937D01*
X91659744Y-106802205D01*
X91848102Y-106880226D01*
X91928901Y-106896298D01*
X87714003Y-111111196D01*
X87684999Y-111134999D01*
X87629871Y-111202174D01*
X87590026Y-111250724D01*
X87536962Y-111350000D01*
X87519454Y-111382754D01*
X87475997Y-111526015D01*
X87465000Y-111637668D01*
X87465000Y-111637678D01*
X87461324Y-111675000D01*
X87235799Y-111675000D01*
X87238072Y-111350000D01*
X87225812Y-111225518D01*
X87189502Y-111105820D01*
X87130537Y-110995506D01*
X87051185Y-110898815D01*
X86954494Y-110819463D01*
X86844180Y-110760498D01*
X86724482Y-110724188D01*
X86600000Y-110711928D01*
X86385750Y-110715000D01*
X86227000Y-110873750D01*
X85973000Y-110873750D01*
X85814250Y-110715000D01*
X85600000Y-110711928D01*
X85475518Y-110724188D01*
X85355820Y-110760498D01*
X85245506Y-110819463D01*
X85148815Y-110898815D01*
X85083342Y-110978594D01*
X85077962Y-110972038D01*
X84943386Y-110861595D01*
X84789850Y-110779528D01*
X84623254Y-110728992D01*
X84450000Y-110711928D01*
X83950000Y-110711928D01*
X83776746Y-110728992D01*
X83610150Y-110779528D01*
X83456614Y-110861595D01*
X83322038Y-110972038D01*
X83211595Y-111106614D01*
X83203456Y-111121841D01*
X83101898Y-111079774D01*
X82901939Y-111040000D01*
X82698061Y-111040000D01*
X82498102Y-111079774D01*
X82309744Y-111157795D01*
X82140226Y-111271063D01*
X81996063Y-111415226D01*
X81882795Y-111584744D01*
X81804774Y-111773102D01*
X81765000Y-111973061D01*
X78186782Y-111973061D01*
X78159774Y-111946053D01*
X77990256Y-111832785D01*
X77801898Y-111754764D01*
X77601939Y-111714990D01*
X77398061Y-111714990D01*
X77198102Y-111754764D01*
X77009744Y-111832785D01*
X76840226Y-111946053D01*
X76696063Y-112090216D01*
X76582795Y-112259734D01*
X76504774Y-112448092D01*
X76465000Y-112648051D01*
X76465000Y-112851929D01*
X76504774Y-113051888D01*
X76582795Y-113240246D01*
X76603686Y-113271512D01*
X76238271Y-113636928D01*
X75900000Y-113636928D01*
X75726746Y-113653992D01*
X75560150Y-113704528D01*
X75406614Y-113786595D01*
X75272038Y-113897038D01*
X75266658Y-113903594D01*
X75201185Y-113823815D01*
X75104494Y-113744463D01*
X74994180Y-113685498D01*
X74874482Y-113649188D01*
X74750000Y-113636928D01*
X74535750Y-113640000D01*
X74525368Y-113650382D01*
X74535004Y-113601939D01*
X74535004Y-113398061D01*
X74495230Y-113198102D01*
X74417209Y-113009744D01*
X74303941Y-112840226D01*
X74260004Y-112796289D01*
X74260004Y-111577329D01*
X74263680Y-111540004D01*
X74260004Y-111502679D01*
X74260004Y-111502671D01*
X74249007Y-111391018D01*
X74205550Y-111247757D01*
X74134978Y-111115728D01*
X74040005Y-111000003D01*
X74011007Y-110976205D01*
X67641209Y-104606408D01*
X67685000Y-104386260D01*
X67685000Y-104093740D01*
X67627932Y-103806842D01*
X67515990Y-103536589D01*
X67353475Y-103293368D01*
X67221620Y-103161513D01*
X67294180Y-103139502D01*
X67404494Y-103080537D01*
X67501185Y-103001185D01*
X67580537Y-102904494D01*
X67639502Y-102794180D01*
X67675812Y-102674482D01*
X67688072Y-102550000D01*
X67688072Y-101608061D01*
X70939996Y-101608061D01*
X70939996Y-101811939D01*
X70979770Y-102011898D01*
X71057791Y-102200256D01*
X71171059Y-102369774D01*
X71315222Y-102513937D01*
X71484740Y-102627205D01*
X71673098Y-102705226D01*
X71873057Y-102745000D01*
X71935195Y-102745000D01*
X77751197Y-108561003D01*
X77774995Y-108590001D01*
X77803993Y-108613799D01*
X77890719Y-108684974D01*
X78022749Y-108755546D01*
X78166010Y-108799003D01*
X78277663Y-108810000D01*
X78277673Y-108810000D01*
X78314996Y-108813676D01*
X78352318Y-108810000D01*
X87571289Y-108810000D01*
X87615226Y-108853937D01*
X87784744Y-108967205D01*
X87973102Y-109045226D01*
X88173061Y-109085000D01*
X88376939Y-109085000D01*
X88576898Y-109045226D01*
X88765256Y-108967205D01*
X88934774Y-108853937D01*
X89078937Y-108709774D01*
X89192205Y-108540256D01*
X89270226Y-108351898D01*
X89310000Y-108151939D01*
X89310000Y-107948061D01*
X89270226Y-107748102D01*
X89192205Y-107559744D01*
X89078937Y-107390226D01*
X88934774Y-107246063D01*
X88765256Y-107132795D01*
X88576898Y-107054774D01*
X88376939Y-107015000D01*
X88173061Y-107015000D01*
X87973102Y-107054774D01*
X87784744Y-107132795D01*
X87615226Y-107246063D01*
X87571289Y-107290000D01*
X78629798Y-107290000D01*
X76324798Y-104985000D01*
X88786928Y-104985000D01*
X88799188Y-105109482D01*
X88835498Y-105229180D01*
X88894463Y-105339494D01*
X88973815Y-105436185D01*
X89070506Y-105515537D01*
X89180820Y-105574502D01*
X89300518Y-105610812D01*
X89425000Y-105623072D01*
X89639250Y-105620000D01*
X89798000Y-105461250D01*
X89798000Y-104387000D01*
X88948750Y-104387000D01*
X88790000Y-104545750D01*
X88786928Y-104985000D01*
X76324798Y-104985000D01*
X73009996Y-101670199D01*
X73009996Y-101608061D01*
X72970222Y-101408102D01*
X72892201Y-101219744D01*
X72778933Y-101050226D01*
X72634770Y-100906063D01*
X72465252Y-100792795D01*
X72276894Y-100714774D01*
X72243146Y-100708061D01*
X74040000Y-100708061D01*
X74040000Y-100911939D01*
X74079774Y-101111898D01*
X74157795Y-101300256D01*
X74271063Y-101469774D01*
X74415226Y-101613937D01*
X74584744Y-101727205D01*
X74773102Y-101805226D01*
X74973061Y-101845000D01*
X75176939Y-101845000D01*
X75376898Y-101805226D01*
X75565256Y-101727205D01*
X75734774Y-101613937D01*
X75778711Y-101570000D01*
X77646928Y-101570000D01*
X77646928Y-102035000D01*
X77663992Y-102208254D01*
X77714528Y-102374850D01*
X77796595Y-102528386D01*
X77907038Y-102662962D01*
X78041614Y-102773405D01*
X78056841Y-102781544D01*
X78014774Y-102883102D01*
X77975000Y-103083061D01*
X77975000Y-103286939D01*
X78014774Y-103486898D01*
X78092795Y-103675256D01*
X78206063Y-103844774D01*
X78350226Y-103988937D01*
X78519744Y-104102205D01*
X78708102Y-104180226D01*
X78908061Y-104220000D01*
X79111939Y-104220000D01*
X79311898Y-104180226D01*
X79500256Y-104102205D01*
X79669774Y-103988937D01*
X79813937Y-103844774D01*
X79927205Y-103675256D01*
X80005226Y-103486898D01*
X80045000Y-103286939D01*
X80045000Y-103083061D01*
X80005604Y-102885000D01*
X83446928Y-102885000D01*
X83459188Y-103009482D01*
X83495498Y-103129180D01*
X83554463Y-103239494D01*
X83633815Y-103336185D01*
X83730506Y-103415537D01*
X83840820Y-103474502D01*
X83960518Y-103510812D01*
X84085000Y-103523072D01*
X84524250Y-103520000D01*
X84683000Y-103361250D01*
X84683000Y-102512000D01*
X84937000Y-102512000D01*
X84937000Y-103361250D01*
X85095750Y-103520000D01*
X85535000Y-103523072D01*
X85659482Y-103510812D01*
X85779180Y-103474502D01*
X85889494Y-103415537D01*
X85986185Y-103336185D01*
X86065537Y-103239494D01*
X86124502Y-103129180D01*
X86160812Y-103009482D01*
X86173072Y-102885000D01*
X86170000Y-102670750D01*
X86011250Y-102512000D01*
X84937000Y-102512000D01*
X84683000Y-102512000D01*
X83608750Y-102512000D01*
X83450000Y-102670750D01*
X83446928Y-102885000D01*
X80005604Y-102885000D01*
X80005226Y-102883102D01*
X79963159Y-102781544D01*
X79978386Y-102773405D01*
X80112962Y-102662962D01*
X80223405Y-102528386D01*
X80305472Y-102374850D01*
X80356008Y-102208254D01*
X80373072Y-102035000D01*
X80373072Y-101570000D01*
X81946289Y-101570000D01*
X81990226Y-101613937D01*
X82159744Y-101727205D01*
X82348102Y-101805226D01*
X82548061Y-101845000D01*
X82751939Y-101845000D01*
X82951898Y-101805226D01*
X83140256Y-101727205D01*
X83309774Y-101613937D01*
X83453937Y-101469774D01*
X83567205Y-101300256D01*
X83596847Y-101228694D01*
X83707038Y-101362962D01*
X83713594Y-101368342D01*
X83633815Y-101433815D01*
X83554463Y-101530506D01*
X83495498Y-101640820D01*
X83459188Y-101760518D01*
X83446928Y-101885000D01*
X83450000Y-102099250D01*
X83608750Y-102258000D01*
X84683000Y-102258000D01*
X84683000Y-102238000D01*
X84937000Y-102238000D01*
X84937000Y-102258000D01*
X86011250Y-102258000D01*
X86170000Y-102099250D01*
X86173072Y-101885000D01*
X86160812Y-101760518D01*
X86124502Y-101640820D01*
X86065537Y-101530506D01*
X85986185Y-101433815D01*
X85906406Y-101368342D01*
X85912962Y-101362962D01*
X86023405Y-101228386D01*
X86105472Y-101074850D01*
X86156008Y-100908254D01*
X86173072Y-100735000D01*
X86173072Y-100235000D01*
X86156008Y-100061746D01*
X86105472Y-99895150D01*
X86023405Y-99741614D01*
X85912962Y-99607038D01*
X85778386Y-99496595D01*
X85763159Y-99488456D01*
X85805226Y-99386898D01*
X85845000Y-99186939D01*
X85845000Y-98983061D01*
X85805226Y-98783102D01*
X85727205Y-98594744D01*
X85613937Y-98425226D01*
X85469774Y-98281063D01*
X85300256Y-98167795D01*
X85111898Y-98089774D01*
X84911939Y-98050000D01*
X84708061Y-98050000D01*
X84508102Y-98089774D01*
X84319744Y-98167795D01*
X84150226Y-98281063D01*
X84006063Y-98425226D01*
X83892795Y-98594744D01*
X83814774Y-98783102D01*
X83775000Y-98983061D01*
X83775000Y-99186939D01*
X83814774Y-99386898D01*
X83856841Y-99488456D01*
X83841614Y-99496595D01*
X83707038Y-99607038D01*
X83596595Y-99741614D01*
X83514528Y-99895150D01*
X83463992Y-100061746D01*
X83455105Y-100151974D01*
X83453937Y-100150226D01*
X83309774Y-100006063D01*
X83140256Y-99892795D01*
X82951898Y-99814774D01*
X82751939Y-99775000D01*
X82548061Y-99775000D01*
X82348102Y-99814774D01*
X82159744Y-99892795D01*
X81990226Y-100006063D01*
X81946289Y-100050000D01*
X80249250Y-100050000D01*
X80211250Y-100012000D01*
X79137000Y-100012000D01*
X79137000Y-100032000D01*
X78883000Y-100032000D01*
X78883000Y-100012000D01*
X77808750Y-100012000D01*
X77770750Y-100050000D01*
X75778711Y-100050000D01*
X75734774Y-100006063D01*
X75565256Y-99892795D01*
X75376898Y-99814774D01*
X75176939Y-99775000D01*
X74973061Y-99775000D01*
X74773102Y-99814774D01*
X74584744Y-99892795D01*
X74415226Y-100006063D01*
X74271063Y-100150226D01*
X74157795Y-100319744D01*
X74079774Y-100508102D01*
X74040000Y-100708061D01*
X72243146Y-100708061D01*
X72076935Y-100675000D01*
X71873057Y-100675000D01*
X71673098Y-100714774D01*
X71484740Y-100792795D01*
X71315222Y-100906063D01*
X71171059Y-101050226D01*
X71057791Y-101219744D01*
X70979770Y-101408102D01*
X70939996Y-101608061D01*
X67688072Y-101608061D01*
X67688072Y-100850000D01*
X67675812Y-100725518D01*
X67639502Y-100605820D01*
X67580537Y-100495506D01*
X67501185Y-100398815D01*
X67404494Y-100319463D01*
X67294180Y-100260498D01*
X67174482Y-100224188D01*
X67050000Y-100211928D01*
X65350000Y-100211928D01*
X65225518Y-100224188D01*
X65105820Y-100260498D01*
X64995506Y-100319463D01*
X64898815Y-100398815D01*
X64819463Y-100495506D01*
X64760498Y-100605820D01*
X64724188Y-100725518D01*
X64711928Y-100850000D01*
X64711928Y-100940000D01*
X61992145Y-100940000D01*
X62093346Y-100695679D01*
X62185000Y-100234902D01*
X62185000Y-99765098D01*
X62109395Y-99385000D01*
X77646928Y-99385000D01*
X77650000Y-99599250D01*
X77808750Y-99758000D01*
X78883000Y-99758000D01*
X78883000Y-98908750D01*
X79137000Y-98908750D01*
X79137000Y-99758000D01*
X80211250Y-99758000D01*
X80370000Y-99599250D01*
X80373072Y-99385000D01*
X80360812Y-99260518D01*
X80324502Y-99140820D01*
X80265537Y-99030506D01*
X80186185Y-98933815D01*
X80089494Y-98854463D01*
X79979180Y-98795498D01*
X79859482Y-98759188D01*
X79735000Y-98746928D01*
X79295750Y-98750000D01*
X79137000Y-98908750D01*
X78883000Y-98908750D01*
X78724250Y-98750000D01*
X78285000Y-98746928D01*
X78160518Y-98759188D01*
X78040820Y-98795498D01*
X77930506Y-98854463D01*
X77833815Y-98933815D01*
X77754463Y-99030506D01*
X77695498Y-99140820D01*
X77659188Y-99260518D01*
X77646928Y-99385000D01*
X62109395Y-99385000D01*
X62093346Y-99304321D01*
X61913560Y-98870279D01*
X61652550Y-98479651D01*
X61320349Y-98147450D01*
X60929721Y-97886440D01*
X60495679Y-97706654D01*
X60034902Y-97615000D01*
X59565098Y-97615000D01*
X59104321Y-97706654D01*
X58670279Y-97886440D01*
X58279651Y-98147450D01*
X57947450Y-98479651D01*
X57686440Y-98870279D01*
X57506654Y-99304321D01*
X57415000Y-99765098D01*
X56873616Y-99765098D01*
X56843842Y-99500189D01*
X56701297Y-99052532D01*
X56510766Y-98696073D01*
X56169609Y-98509997D01*
X54679605Y-100000000D01*
X54320395Y-100000000D01*
X52830391Y-98509997D01*
X52489234Y-98696073D01*
X52273487Y-99113409D01*
X52143304Y-99564815D01*
X52103687Y-100032946D01*
X50160000Y-100032946D01*
X50160000Y-98330391D01*
X53009997Y-98330391D01*
X54500000Y-99820395D01*
X55990003Y-98330391D01*
X55803927Y-97989234D01*
X55386591Y-97773487D01*
X54935185Y-97643304D01*
X54467054Y-97603687D01*
X54000189Y-97656158D01*
X53552532Y-97798703D01*
X53196073Y-97989234D01*
X53009997Y-98330391D01*
X50160000Y-98330391D01*
X50160000Y-95660000D01*
X98840000Y-95660000D01*
X98840001Y-134340000D01*
%TA.AperFunction,Conductor*%
D16*
G36*
X98840001Y-134340000D02*
G01*
X50160000Y-134340000D01*
X50160000Y-131669609D01*
X53009997Y-131669609D01*
X53196073Y-132010766D01*
X53613409Y-132226513D01*
X54064815Y-132356696D01*
X54532946Y-132396313D01*
X54999811Y-132343842D01*
X55447468Y-132201297D01*
X55803927Y-132010766D01*
X55990003Y-131669609D01*
X54500000Y-130179605D01*
X53009997Y-131669609D01*
X50160000Y-131669609D01*
X50160000Y-130032946D01*
X52103687Y-130032946D01*
X52156158Y-130499811D01*
X52298703Y-130947468D01*
X52489234Y-131303927D01*
X52830391Y-131490003D01*
X54320395Y-130000000D01*
X54679605Y-130000000D01*
X56169609Y-131490003D01*
X56510766Y-131303927D01*
X56726513Y-130886591D01*
X56856696Y-130435185D01*
X56896313Y-129967054D01*
X56843842Y-129500189D01*
X56701297Y-129052532D01*
X56510766Y-128696073D01*
X56169609Y-128509997D01*
X54679605Y-130000000D01*
X54320395Y-130000000D01*
X52830391Y-128509997D01*
X52489234Y-128696073D01*
X52273487Y-129113409D01*
X52143304Y-129564815D01*
X52103687Y-130032946D01*
X50160000Y-130032946D01*
X50160000Y-128330391D01*
X53009997Y-128330391D01*
X54500000Y-129820395D01*
X55990003Y-128330391D01*
X55803927Y-127989234D01*
X55386591Y-127773487D01*
X54935185Y-127643304D01*
X54467054Y-127603687D01*
X54000189Y-127656158D01*
X53552532Y-127798703D01*
X53196073Y-127989234D01*
X53009997Y-128330391D01*
X50160000Y-128330391D01*
X50160000Y-125669609D01*
X53009997Y-125669609D01*
X53196073Y-126010766D01*
X53613409Y-126226513D01*
X54064815Y-126356696D01*
X54532946Y-126396313D01*
X54999811Y-126343842D01*
X55447468Y-126201297D01*
X55803927Y-126010766D01*
X55990003Y-125669609D01*
X54500000Y-124179605D01*
X53009997Y-125669609D01*
X50160000Y-125669609D01*
X50160000Y-124032946D01*
X52103687Y-124032946D01*
X52156158Y-124499811D01*
X52298703Y-124947468D01*
X52489234Y-125303927D01*
X52830391Y-125490003D01*
X54320395Y-124000000D01*
X54679605Y-124000000D01*
X56169609Y-125490003D01*
X56510766Y-125303927D01*
X56726513Y-124886591D01*
X56856696Y-124435185D01*
X56896313Y-123967054D01*
X56843842Y-123500189D01*
X56701297Y-123052532D01*
X56510766Y-122696073D01*
X56169609Y-122509997D01*
X54679605Y-124000000D01*
X54320395Y-124000000D01*
X52830391Y-122509997D01*
X52489234Y-122696073D01*
X52273487Y-123113409D01*
X52143304Y-123564815D01*
X52103687Y-124032946D01*
X50160000Y-124032946D01*
X50160000Y-122330391D01*
X53009997Y-122330391D01*
X54500000Y-123820395D01*
X55990003Y-122330391D01*
X55803927Y-121989234D01*
X55386591Y-121773487D01*
X54935185Y-121643304D01*
X54467054Y-121603687D01*
X54000189Y-121656158D01*
X53552532Y-121798703D01*
X53196073Y-121989234D01*
X53009997Y-122330391D01*
X50160000Y-122330391D01*
X50160000Y-119669609D01*
X53009997Y-119669609D01*
X53196073Y-120010766D01*
X53613409Y-120226513D01*
X54064815Y-120356696D01*
X54532946Y-120396313D01*
X54999811Y-120343842D01*
X55447468Y-120201297D01*
X55803927Y-120010766D01*
X55990003Y-119669609D01*
X54500000Y-118179605D01*
X53009997Y-119669609D01*
X50160000Y-119669609D01*
X50160000Y-118032946D01*
X52103687Y-118032946D01*
X52156158Y-118499811D01*
X52298703Y-118947468D01*
X52489234Y-119303927D01*
X52830391Y-119490003D01*
X54320395Y-118000000D01*
X54679605Y-118000000D01*
X56169609Y-119490003D01*
X56510766Y-119303927D01*
X56726513Y-118886591D01*
X56856696Y-118435185D01*
X56896313Y-117967054D01*
X56843842Y-117500189D01*
X56701297Y-117052532D01*
X56510766Y-116696073D01*
X56169609Y-116509997D01*
X54679605Y-118000000D01*
X54320395Y-118000000D01*
X52830391Y-116509997D01*
X52489234Y-116696073D01*
X52273487Y-117113409D01*
X52143304Y-117564815D01*
X52103687Y-118032946D01*
X50160000Y-118032946D01*
X50160000Y-116330391D01*
X53009997Y-116330391D01*
X54500000Y-117820395D01*
X55990003Y-116330391D01*
X55803927Y-115989234D01*
X55386591Y-115773487D01*
X54935185Y-115643304D01*
X54467054Y-115603687D01*
X54000189Y-115656158D01*
X53552532Y-115798703D01*
X53196073Y-115989234D01*
X53009997Y-116330391D01*
X50160000Y-116330391D01*
X50160000Y-113669609D01*
X53009997Y-113669609D01*
X53196073Y-114010766D01*
X53613409Y-114226513D01*
X54064815Y-114356696D01*
X54532946Y-114396313D01*
X54999811Y-114343842D01*
X55447468Y-114201297D01*
X55803927Y-114010766D01*
X55990003Y-113669609D01*
X54500000Y-112179605D01*
X53009997Y-113669609D01*
X50160000Y-113669609D01*
X50160000Y-112032946D01*
X52103687Y-112032946D01*
X52156158Y-112499811D01*
X52298703Y-112947468D01*
X52489234Y-113303927D01*
X52830391Y-113490003D01*
X54320395Y-112000000D01*
X54679605Y-112000000D01*
X56169609Y-113490003D01*
X56510766Y-113303927D01*
X56726513Y-112886591D01*
X56856696Y-112435185D01*
X56896313Y-111967054D01*
X56843842Y-111500189D01*
X56701297Y-111052532D01*
X56510766Y-110696073D01*
X56169609Y-110509997D01*
X54679605Y-112000000D01*
X54320395Y-112000000D01*
X52830391Y-110509997D01*
X52489234Y-110696073D01*
X52273487Y-111113409D01*
X52143304Y-111564815D01*
X52103687Y-112032946D01*
X50160000Y-112032946D01*
X50160000Y-110330391D01*
X53009997Y-110330391D01*
X54500000Y-111820395D01*
X55990003Y-110330391D01*
X55803927Y-109989234D01*
X55386591Y-109773487D01*
X54935185Y-109643304D01*
X54467054Y-109603687D01*
X54000189Y-109656158D01*
X53552532Y-109798703D01*
X53196073Y-109989234D01*
X53009997Y-110330391D01*
X50160000Y-110330391D01*
X50160000Y-107669609D01*
X53009997Y-107669609D01*
X53196073Y-108010766D01*
X53613409Y-108226513D01*
X54064815Y-108356696D01*
X54532946Y-108396313D01*
X54999811Y-108343842D01*
X55447468Y-108201297D01*
X55803927Y-108010766D01*
X55990003Y-107669609D01*
X54500000Y-106179605D01*
X53009997Y-107669609D01*
X50160000Y-107669609D01*
X50160000Y-106032946D01*
X52103687Y-106032946D01*
X52156158Y-106499811D01*
X52298703Y-106947468D01*
X52489234Y-107303927D01*
X52830391Y-107490003D01*
X54320395Y-106000000D01*
X54679605Y-106000000D01*
X56169609Y-107490003D01*
X56510766Y-107303927D01*
X56726513Y-106886591D01*
X56856696Y-106435185D01*
X56896313Y-105967054D01*
X56843842Y-105500189D01*
X56701297Y-105052532D01*
X56510766Y-104696073D01*
X56169609Y-104509997D01*
X54679605Y-106000000D01*
X54320395Y-106000000D01*
X52830391Y-104509997D01*
X52489234Y-104696073D01*
X52273487Y-105113409D01*
X52143304Y-105564815D01*
X52103687Y-106032946D01*
X50160000Y-106032946D01*
X50160000Y-104330391D01*
X53009997Y-104330391D01*
X54500000Y-105820395D01*
X55990003Y-104330391D01*
X55803927Y-103989234D01*
X55386591Y-103773487D01*
X54935185Y-103643304D01*
X54467054Y-103603687D01*
X54000189Y-103656158D01*
X53552532Y-103798703D01*
X53196073Y-103989234D01*
X53009997Y-104330391D01*
X50160000Y-104330391D01*
X50160000Y-101669609D01*
X53009997Y-101669609D01*
X53196073Y-102010766D01*
X53613409Y-102226513D01*
X54064815Y-102356696D01*
X54532946Y-102396313D01*
X54999811Y-102343842D01*
X55447468Y-102201297D01*
X55803927Y-102010766D01*
X55990003Y-101669609D01*
X54500000Y-100179605D01*
X53009997Y-101669609D01*
X50160000Y-101669609D01*
X50160000Y-100032946D01*
X52103687Y-100032946D01*
X52156158Y-100499811D01*
X52298703Y-100947468D01*
X52489234Y-101303927D01*
X52830391Y-101490003D01*
X54320395Y-100000000D01*
X54679605Y-100000000D01*
X56169609Y-101490003D01*
X56510766Y-101303927D01*
X56726513Y-100886591D01*
X56856696Y-100435185D01*
X56896313Y-99967054D01*
X56873616Y-99765098D01*
X57415000Y-99765098D01*
X57415000Y-100234902D01*
X57506654Y-100695679D01*
X57686440Y-101129721D01*
X57947450Y-101520349D01*
X58279651Y-101852550D01*
X58670279Y-102113560D01*
X59104321Y-102293346D01*
X59565098Y-102385000D01*
X60034902Y-102385000D01*
X60495679Y-102293346D01*
X60865400Y-102140202D01*
X60936201Y-102211003D01*
X60959999Y-102240001D01*
X60988997Y-102263799D01*
X61075723Y-102334974D01*
X61207753Y-102405546D01*
X61351014Y-102449003D01*
X61462667Y-102460000D01*
X61462676Y-102460000D01*
X61499999Y-102463676D01*
X61537322Y-102460000D01*
X64711928Y-102460000D01*
X64711928Y-102550000D01*
X64724188Y-102674482D01*
X64760498Y-102794180D01*
X64819463Y-102904494D01*
X64898815Y-103001185D01*
X64995506Y-103080537D01*
X65105820Y-103139502D01*
X65178380Y-103161513D01*
X65046525Y-103293368D01*
X64921822Y-103480000D01*
X61597323Y-103480000D01*
X61560000Y-103476324D01*
X61522677Y-103480000D01*
X61522667Y-103480000D01*
X61411014Y-103490997D01*
X61267753Y-103534454D01*
X61135724Y-103605026D01*
X61019999Y-103699999D01*
X60996201Y-103728997D01*
X60865401Y-103859798D01*
X60495679Y-103706654D01*
X60034902Y-103615000D01*
X59565098Y-103615000D01*
X59104321Y-103706654D01*
X58670279Y-103886440D01*
X58279651Y-104147450D01*
X57947450Y-104479651D01*
X57686440Y-104870279D01*
X57506654Y-105304321D01*
X57415000Y-105765098D01*
X57415000Y-106234902D01*
X57506654Y-106695679D01*
X57686440Y-107129721D01*
X57947450Y-107520349D01*
X58279651Y-107852550D01*
X58670279Y-108113560D01*
X59104321Y-108293346D01*
X59565098Y-108385000D01*
X60034902Y-108385000D01*
X60495679Y-108293346D01*
X60929721Y-108113560D01*
X61320349Y-107852550D01*
X61652550Y-107520349D01*
X61913560Y-107129721D01*
X62093346Y-106695679D01*
X62185000Y-106234902D01*
X62185000Y-105765098D01*
X62093346Y-105304321D01*
X61967292Y-105000000D01*
X64921822Y-105000000D01*
X65046525Y-105186632D01*
X65253368Y-105393475D01*
X65496589Y-105555990D01*
X65766842Y-105667932D01*
X66053740Y-105725000D01*
X66346260Y-105725000D01*
X66566408Y-105681209D01*
X72740005Y-111854807D01*
X72740004Y-112796289D01*
X72696067Y-112840226D01*
X72695911Y-112840460D01*
X72628937Y-112740226D01*
X72484774Y-112596063D01*
X72315256Y-112482795D01*
X72126898Y-112404774D01*
X71926939Y-112365000D01*
X71723061Y-112365000D01*
X71523102Y-112404774D01*
X71334744Y-112482795D01*
X71165226Y-112596063D01*
X71021063Y-112740226D01*
X70907795Y-112909744D01*
X70874552Y-112990000D01*
X67478178Y-112990000D01*
X67353475Y-112803368D01*
X67146632Y-112596525D01*
X66903411Y-112434010D01*
X66633158Y-112322068D01*
X66346260Y-112265000D01*
X66053740Y-112265000D01*
X65766842Y-112322068D01*
X65496589Y-112434010D01*
X65253368Y-112596525D01*
X65046525Y-112803368D01*
X64921821Y-112990000D01*
X61971435Y-112989999D01*
X62093346Y-112695679D01*
X62185000Y-112234902D01*
X62185000Y-111765098D01*
X62093346Y-111304321D01*
X61913560Y-110870279D01*
X61652550Y-110479651D01*
X61320349Y-110147450D01*
X60929721Y-109886440D01*
X60495679Y-109706654D01*
X60034902Y-109615000D01*
X59565098Y-109615000D01*
X59104321Y-109706654D01*
X58670279Y-109886440D01*
X58279651Y-110147450D01*
X57947450Y-110479651D01*
X57686440Y-110870279D01*
X57506654Y-111304321D01*
X57415000Y-111765098D01*
X57415000Y-112234902D01*
X57506654Y-112695679D01*
X57686440Y-113129721D01*
X57947450Y-113520349D01*
X58279651Y-113852550D01*
X58670279Y-114113560D01*
X59104321Y-114293346D01*
X59565098Y-114385000D01*
X60034902Y-114385000D01*
X60495679Y-114293346D01*
X60865401Y-114140202D01*
X60986204Y-114261006D01*
X61009998Y-114289999D01*
X61038991Y-114313793D01*
X61038996Y-114313798D01*
X61125722Y-114384972D01*
X61257752Y-114455544D01*
X61401012Y-114499001D01*
X61549998Y-114513675D01*
X61587330Y-114509998D01*
X64921821Y-114509999D01*
X65046525Y-114696632D01*
X65178380Y-114828487D01*
X65105820Y-114850498D01*
X64995506Y-114909463D01*
X64898815Y-114988815D01*
X64819463Y-115085506D01*
X64760498Y-115195820D01*
X64724188Y-115315518D01*
X64711928Y-115440000D01*
X64711928Y-115530000D01*
X61547322Y-115530000D01*
X61509999Y-115526324D01*
X61472676Y-115530000D01*
X61472667Y-115530000D01*
X61361014Y-115540997D01*
X61217753Y-115584454D01*
X61085724Y-115655026D01*
X60969999Y-115749999D01*
X60946201Y-115778997D01*
X60865400Y-115859798D01*
X60495679Y-115706654D01*
X60034902Y-115615000D01*
X59565098Y-115615000D01*
X59104321Y-115706654D01*
X58670279Y-115886440D01*
X58279651Y-116147450D01*
X57947450Y-116479651D01*
X57686440Y-116870279D01*
X57506654Y-117304321D01*
X57415000Y-117765098D01*
X57415000Y-118234902D01*
X57506654Y-118695679D01*
X57686440Y-119129721D01*
X57947450Y-119520349D01*
X58279651Y-119852550D01*
X58670279Y-120113560D01*
X59104321Y-120293346D01*
X59565098Y-120385000D01*
X60034902Y-120385000D01*
X60495679Y-120293346D01*
X60929721Y-120113560D01*
X61320349Y-119852550D01*
X61652550Y-119520349D01*
X61913560Y-119129721D01*
X62093346Y-118695679D01*
X62185000Y-118234902D01*
X62185000Y-117765098D01*
X62093346Y-117304321D01*
X61988003Y-117050000D01*
X64711928Y-117050000D01*
X64711928Y-117140000D01*
X64724188Y-117264482D01*
X64760498Y-117384180D01*
X64819463Y-117494494D01*
X64898815Y-117591185D01*
X64995506Y-117670537D01*
X65105820Y-117729502D01*
X65225518Y-117765812D01*
X65350000Y-117778072D01*
X67050000Y-117778072D01*
X67174482Y-117765812D01*
X67294180Y-117729502D01*
X67404494Y-117670537D01*
X67501185Y-117591185D01*
X67580537Y-117494494D01*
X67639502Y-117384180D01*
X67675812Y-117264482D01*
X67688072Y-117140000D01*
X67688072Y-117050000D01*
X70789304Y-117050000D01*
X70896063Y-117209776D01*
X71040226Y-117353939D01*
X71209744Y-117467207D01*
X71398102Y-117545228D01*
X71598061Y-117585002D01*
X71801939Y-117585002D01*
X72001898Y-117545228D01*
X72190256Y-117467207D01*
X72359774Y-117353939D01*
X72503937Y-117209776D01*
X72616705Y-117041007D01*
X72696062Y-117159774D01*
X72739999Y-117203711D01*
X72740000Y-118135198D01*
X66613271Y-124261928D01*
X65350000Y-124261928D01*
X65225518Y-124274188D01*
X65105820Y-124310498D01*
X64995506Y-124369463D01*
X64898815Y-124448815D01*
X64819463Y-124545506D01*
X64760498Y-124655820D01*
X64724188Y-124775518D01*
X64711928Y-124900000D01*
X64711928Y-124990000D01*
X61971435Y-124989999D01*
X62093346Y-124695679D01*
X62185000Y-124234902D01*
X62185000Y-123765098D01*
X62093346Y-123304321D01*
X61913560Y-122870279D01*
X61652550Y-122479651D01*
X61320349Y-122147450D01*
X60929721Y-121886440D01*
X60495679Y-121706654D01*
X60034902Y-121615000D01*
X59565098Y-121615000D01*
X59104321Y-121706654D01*
X58670279Y-121886440D01*
X58279651Y-122147450D01*
X57947450Y-122479651D01*
X57686440Y-122870279D01*
X57506654Y-123304321D01*
X57415000Y-123765098D01*
X57415000Y-124234902D01*
X57506654Y-124695679D01*
X57686440Y-125129721D01*
X57947450Y-125520349D01*
X58279651Y-125852550D01*
X58670279Y-126113560D01*
X59104321Y-126293346D01*
X59565098Y-126385000D01*
X60034902Y-126385000D01*
X60495679Y-126293346D01*
X60865401Y-126140202D01*
X60986204Y-126261006D01*
X61009998Y-126289999D01*
X61038991Y-126313793D01*
X61038996Y-126313798D01*
X61125722Y-126384972D01*
X61257752Y-126455544D01*
X61401012Y-126499001D01*
X61549998Y-126513675D01*
X61587330Y-126509998D01*
X64711928Y-126509999D01*
X64711928Y-126600000D01*
X64724188Y-126724482D01*
X64760498Y-126844180D01*
X64819463Y-126954494D01*
X64898815Y-127051185D01*
X64995506Y-127130537D01*
X65105820Y-127189502D01*
X65178380Y-127211513D01*
X65046525Y-127343368D01*
X64921822Y-127530000D01*
X61547322Y-127530000D01*
X61509999Y-127526324D01*
X61472676Y-127530000D01*
X61472667Y-127530000D01*
X61361014Y-127540997D01*
X61217753Y-127584454D01*
X61085724Y-127655026D01*
X60969999Y-127749999D01*
X60946201Y-127778997D01*
X60865400Y-127859798D01*
X60495679Y-127706654D01*
X60034902Y-127615000D01*
X59565098Y-127615000D01*
X59104321Y-127706654D01*
X58670279Y-127886440D01*
X58279651Y-128147450D01*
X57947450Y-128479651D01*
X57686440Y-128870279D01*
X57506654Y-129304321D01*
X57415000Y-129765098D01*
X57415000Y-130234902D01*
X57506654Y-130695679D01*
X57686440Y-131129721D01*
X57947450Y-131520349D01*
X58279651Y-131852550D01*
X58670279Y-132113560D01*
X59104321Y-132293346D01*
X59565098Y-132385000D01*
X60034902Y-132385000D01*
X60495679Y-132293346D01*
X60929721Y-132113560D01*
X61320349Y-131852550D01*
X61597899Y-131575000D01*
X88786928Y-131575000D01*
X88799188Y-131699482D01*
X88835498Y-131819180D01*
X88894463Y-131929494D01*
X88973815Y-132026185D01*
X89070506Y-132105537D01*
X89180820Y-132164502D01*
X89300518Y-132200812D01*
X89425000Y-132213072D01*
X89639250Y-132210000D01*
X89798000Y-132051250D01*
X89798000Y-130977000D01*
X88948750Y-130977000D01*
X88790000Y-131135750D01*
X88786928Y-131575000D01*
X61597899Y-131575000D01*
X61652550Y-131520349D01*
X61913560Y-131129721D01*
X62093346Y-130695679D01*
X62185000Y-130234902D01*
X62185000Y-129765098D01*
X62093346Y-129304321D01*
X61988003Y-129050000D01*
X64921822Y-129050000D01*
X65046525Y-129236632D01*
X65253368Y-129443475D01*
X65496589Y-129605990D01*
X65766842Y-129717932D01*
X66053740Y-129775000D01*
X66346260Y-129775000D01*
X66633158Y-129717932D01*
X66903411Y-129605990D01*
X67146632Y-129443475D01*
X67353475Y-129236632D01*
X67515990Y-128993411D01*
X67627932Y-128723158D01*
X67685000Y-128436260D01*
X67685000Y-128198061D01*
X70939996Y-128198061D01*
X70939996Y-128401939D01*
X70979770Y-128601898D01*
X71057791Y-128790256D01*
X71171059Y-128959774D01*
X71315222Y-129103937D01*
X71484740Y-129217205D01*
X71673098Y-129295226D01*
X71873057Y-129335000D01*
X72076935Y-129335000D01*
X72276894Y-129295226D01*
X72465252Y-129217205D01*
X72634770Y-129103937D01*
X72778933Y-128959774D01*
X72892201Y-128790256D01*
X72970222Y-128601898D01*
X73009996Y-128401939D01*
X73009996Y-128198061D01*
X72970222Y-127998102D01*
X72892201Y-127809744D01*
X72778933Y-127640226D01*
X72734996Y-127596289D01*
X72734996Y-127509805D01*
X72946740Y-127298061D01*
X74040000Y-127298061D01*
X74040000Y-127501939D01*
X74079774Y-127701898D01*
X74157795Y-127890256D01*
X74271063Y-128059774D01*
X74415226Y-128203937D01*
X74584744Y-128317205D01*
X74773102Y-128395226D01*
X74973061Y-128435000D01*
X75176939Y-128435000D01*
X75376898Y-128395226D01*
X75565256Y-128317205D01*
X75734774Y-128203937D01*
X75778711Y-128160000D01*
X77646928Y-128160000D01*
X77646928Y-128625000D01*
X77663992Y-128798254D01*
X77714528Y-128964850D01*
X77796595Y-129118386D01*
X77907038Y-129252962D01*
X78041614Y-129363405D01*
X78056841Y-129371544D01*
X78014774Y-129473102D01*
X77975000Y-129673061D01*
X77975000Y-129876939D01*
X78014774Y-130076898D01*
X78092795Y-130265256D01*
X78206063Y-130434774D01*
X78350226Y-130578937D01*
X78519744Y-130692205D01*
X78708102Y-130770226D01*
X78908061Y-130810000D01*
X79111939Y-130810000D01*
X79311898Y-130770226D01*
X79500256Y-130692205D01*
X79669774Y-130578937D01*
X79813937Y-130434774D01*
X79927205Y-130265256D01*
X80005226Y-130076898D01*
X80045000Y-129876939D01*
X80045000Y-129673061D01*
X80005604Y-129475000D01*
X83446928Y-129475000D01*
X83459188Y-129599482D01*
X83495498Y-129719180D01*
X83554463Y-129829494D01*
X83633815Y-129926185D01*
X83730506Y-130005537D01*
X83840820Y-130064502D01*
X83960518Y-130100812D01*
X84085000Y-130113072D01*
X84524250Y-130110000D01*
X84683000Y-129951250D01*
X84683000Y-129102000D01*
X84937000Y-129102000D01*
X84937000Y-129951250D01*
X85095750Y-130110000D01*
X85535000Y-130113072D01*
X85659482Y-130100812D01*
X85779180Y-130064502D01*
X85889494Y-130005537D01*
X85986185Y-129926185D01*
X86065537Y-129829494D01*
X86124502Y-129719180D01*
X86160812Y-129599482D01*
X86173072Y-129475000D01*
X86170000Y-129260750D01*
X86011250Y-129102000D01*
X84937000Y-129102000D01*
X84683000Y-129102000D01*
X83608750Y-129102000D01*
X83450000Y-129260750D01*
X83446928Y-129475000D01*
X80005604Y-129475000D01*
X80005226Y-129473102D01*
X79963159Y-129371544D01*
X79978386Y-129363405D01*
X80112962Y-129252962D01*
X80223405Y-129118386D01*
X80305472Y-128964850D01*
X80356008Y-128798254D01*
X80373072Y-128625000D01*
X80373072Y-128160000D01*
X81946289Y-128160000D01*
X81990226Y-128203937D01*
X82159744Y-128317205D01*
X82348102Y-128395226D01*
X82548061Y-128435000D01*
X82751939Y-128435000D01*
X82951898Y-128395226D01*
X83140256Y-128317205D01*
X83309774Y-128203937D01*
X83453937Y-128059774D01*
X83567205Y-127890256D01*
X83596847Y-127818694D01*
X83707038Y-127952962D01*
X83713594Y-127958342D01*
X83633815Y-128023815D01*
X83554463Y-128120506D01*
X83495498Y-128230820D01*
X83459188Y-128350518D01*
X83446928Y-128475000D01*
X83450000Y-128689250D01*
X83608750Y-128848000D01*
X84683000Y-128848000D01*
X84683000Y-128828000D01*
X84937000Y-128828000D01*
X84937000Y-128848000D01*
X86011250Y-128848000D01*
X86170000Y-128689250D01*
X86173072Y-128475000D01*
X86160812Y-128350518D01*
X86124502Y-128230820D01*
X86065537Y-128120506D01*
X85986185Y-128023815D01*
X85906406Y-127958342D01*
X85912962Y-127952962D01*
X86023405Y-127818386D01*
X86105472Y-127664850D01*
X86156008Y-127498254D01*
X86173072Y-127325000D01*
X86173072Y-126825000D01*
X86156008Y-126651746D01*
X86105472Y-126485150D01*
X86023405Y-126331614D01*
X85912962Y-126197038D01*
X85778386Y-126086595D01*
X85763159Y-126078456D01*
X85805226Y-125976898D01*
X85845000Y-125776939D01*
X85845000Y-125573061D01*
X85805226Y-125373102D01*
X85727205Y-125184744D01*
X85613937Y-125015226D01*
X85469774Y-124871063D01*
X85300256Y-124757795D01*
X85111898Y-124679774D01*
X84911939Y-124640000D01*
X84708061Y-124640000D01*
X84508102Y-124679774D01*
X84319744Y-124757795D01*
X84150226Y-124871063D01*
X84006063Y-125015226D01*
X83892795Y-125184744D01*
X83814774Y-125373102D01*
X83775000Y-125573061D01*
X83775000Y-125776939D01*
X83814774Y-125976898D01*
X83856841Y-126078456D01*
X83841614Y-126086595D01*
X83707038Y-126197038D01*
X83596595Y-126331614D01*
X83514528Y-126485150D01*
X83463992Y-126651746D01*
X83455105Y-126741974D01*
X83453937Y-126740226D01*
X83309774Y-126596063D01*
X83140256Y-126482795D01*
X82951898Y-126404774D01*
X82751939Y-126365000D01*
X82548061Y-126365000D01*
X82348102Y-126404774D01*
X82159744Y-126482795D01*
X81990226Y-126596063D01*
X81946289Y-126640000D01*
X80249250Y-126640000D01*
X80211250Y-126602000D01*
X79137000Y-126602000D01*
X79137000Y-126622000D01*
X78883000Y-126622000D01*
X78883000Y-126602000D01*
X77808750Y-126602000D01*
X77770750Y-126640000D01*
X75778711Y-126640000D01*
X75734774Y-126596063D01*
X75565256Y-126482795D01*
X75376898Y-126404774D01*
X75176939Y-126365000D01*
X74973061Y-126365000D01*
X74773102Y-126404774D01*
X74584744Y-126482795D01*
X74415226Y-126596063D01*
X74271063Y-126740226D01*
X74157795Y-126909744D01*
X74079774Y-127098102D01*
X74040000Y-127298061D01*
X72946740Y-127298061D01*
X74269801Y-125975000D01*
X77646928Y-125975000D01*
X77650000Y-126189250D01*
X77808750Y-126348000D01*
X78883000Y-126348000D01*
X78883000Y-125498750D01*
X79137000Y-125498750D01*
X79137000Y-126348000D01*
X80211250Y-126348000D01*
X80370000Y-126189250D01*
X80373072Y-125975000D01*
X80360812Y-125850518D01*
X80324502Y-125730820D01*
X80265537Y-125620506D01*
X80186185Y-125523815D01*
X80089494Y-125444463D01*
X79979180Y-125385498D01*
X79859482Y-125349188D01*
X79735000Y-125336928D01*
X79295750Y-125340000D01*
X79137000Y-125498750D01*
X78883000Y-125498750D01*
X78724250Y-125340000D01*
X78285000Y-125336928D01*
X78160518Y-125349188D01*
X78040820Y-125385498D01*
X77930506Y-125444463D01*
X77833815Y-125523815D01*
X77754463Y-125620506D01*
X77695498Y-125730820D01*
X77659188Y-125850518D01*
X77646928Y-125975000D01*
X74269801Y-125975000D01*
X77534802Y-122710000D01*
X86921289Y-122710000D01*
X86965226Y-122753937D01*
X87134744Y-122867205D01*
X87323102Y-122945226D01*
X87523061Y-122985000D01*
X87726939Y-122985000D01*
X87926898Y-122945226D01*
X88115256Y-122867205D01*
X88284774Y-122753937D01*
X88428937Y-122609774D01*
X88542205Y-122440256D01*
X88620226Y-122251898D01*
X88660000Y-122051939D01*
X88660000Y-121848061D01*
X88620226Y-121648102D01*
X88542205Y-121459744D01*
X88428937Y-121290226D01*
X88284774Y-121146063D01*
X88115256Y-121032795D01*
X87926898Y-120954774D01*
X87726939Y-120915000D01*
X87523061Y-120915000D01*
X87323102Y-120954774D01*
X87134744Y-121032795D01*
X86965226Y-121146063D01*
X86921289Y-121190000D01*
X77257325Y-121190000D01*
X77220000Y-121186324D01*
X77182675Y-121190000D01*
X77182667Y-121190000D01*
X77071014Y-121200997D01*
X76927753Y-121244454D01*
X76795724Y-121315026D01*
X76679999Y-121409999D01*
X76656201Y-121438997D01*
X71463994Y-126631205D01*
X71434996Y-126655003D01*
X71411198Y-126684001D01*
X71411197Y-126684002D01*
X71340022Y-126770728D01*
X71269450Y-126902758D01*
X71253757Y-126954494D01*
X71225994Y-127046018D01*
X71217080Y-127136525D01*
X71211320Y-127195004D01*
X71214997Y-127232336D01*
X71214997Y-127596288D01*
X71171059Y-127640226D01*
X71057791Y-127809744D01*
X70979770Y-127998102D01*
X70939996Y-128198061D01*
X67685000Y-128198061D01*
X67685000Y-128143740D01*
X67627932Y-127856842D01*
X67515990Y-127586589D01*
X67353475Y-127343368D01*
X67221620Y-127211513D01*
X67294180Y-127189502D01*
X67404494Y-127130537D01*
X67501185Y-127051185D01*
X67580537Y-126954494D01*
X67639502Y-126844180D01*
X67675812Y-126724482D01*
X67688072Y-126600000D01*
X67688072Y-125336729D01*
X74011002Y-119013800D01*
X74040000Y-118990002D01*
X74134973Y-118874277D01*
X74205545Y-118742248D01*
X74248694Y-118600000D01*
X82461928Y-118600000D01*
X82474188Y-118724482D01*
X82510498Y-118844180D01*
X82569463Y-118954494D01*
X82648815Y-119051185D01*
X82745506Y-119130537D01*
X82855820Y-119189502D01*
X82975518Y-119225812D01*
X83100000Y-119238072D01*
X83314250Y-119235000D01*
X83473000Y-119076250D01*
X83473000Y-118002000D01*
X82623750Y-118002000D01*
X82465000Y-118160750D01*
X82461928Y-118600000D01*
X74248694Y-118600000D01*
X74249002Y-118598987D01*
X74259999Y-118487334D01*
X74263676Y-118450001D01*
X74259999Y-118412668D01*
X74259999Y-117203711D01*
X74303936Y-117159774D01*
X74417204Y-116990256D01*
X74495225Y-116801898D01*
X74534999Y-116601939D01*
X74534999Y-116398061D01*
X74525362Y-116349612D01*
X74535750Y-116360000D01*
X74750000Y-116363072D01*
X74874482Y-116350812D01*
X74994180Y-116314502D01*
X75104494Y-116255537D01*
X75201185Y-116176185D01*
X75266658Y-116096406D01*
X75272038Y-116102962D01*
X75406614Y-116213405D01*
X75560150Y-116295472D01*
X75726746Y-116346008D01*
X75900000Y-116363072D01*
X76238271Y-116363072D01*
X76603682Y-116728484D01*
X76582795Y-116759744D01*
X76504774Y-116948102D01*
X76465000Y-117148061D01*
X76465000Y-117351939D01*
X76504774Y-117551898D01*
X76582795Y-117740256D01*
X76696063Y-117909774D01*
X76840226Y-118053937D01*
X77009744Y-118167205D01*
X77198102Y-118245226D01*
X77398061Y-118285000D01*
X77601939Y-118285000D01*
X77801898Y-118245226D01*
X77990256Y-118167205D01*
X78159774Y-118053937D01*
X78303937Y-117909774D01*
X78417205Y-117740256D01*
X78495226Y-117551898D01*
X78535000Y-117351939D01*
X78535000Y-117154553D01*
X78596525Y-117246632D01*
X78803368Y-117453475D01*
X79046589Y-117615990D01*
X79316842Y-117727932D01*
X79603740Y-117785000D01*
X79896260Y-117785000D01*
X80183158Y-117727932D01*
X80453411Y-117615990D01*
X80696632Y-117453475D01*
X80903475Y-117246632D01*
X80968042Y-117150000D01*
X82461928Y-117150000D01*
X82465000Y-117589250D01*
X82623750Y-117748000D01*
X83473000Y-117748000D01*
X83473000Y-116673750D01*
X83727000Y-116673750D01*
X83727000Y-117748000D01*
X83747000Y-117748000D01*
X83747000Y-118002000D01*
X83727000Y-118002000D01*
X83727000Y-119076250D01*
X83885750Y-119235000D01*
X84100000Y-119238072D01*
X84224482Y-119225812D01*
X84344180Y-119189502D01*
X84454494Y-119130537D01*
X84551185Y-119051185D01*
X84616658Y-118971406D01*
X84622038Y-118977962D01*
X84756614Y-119088405D01*
X84910150Y-119170472D01*
X85076746Y-119221008D01*
X85250000Y-119238072D01*
X85750000Y-119238072D01*
X85923254Y-119221008D01*
X86089850Y-119170472D01*
X86243386Y-119088405D01*
X86377962Y-118977962D01*
X86488405Y-118843386D01*
X86496544Y-118828159D01*
X86598102Y-118870226D01*
X86798061Y-118910000D01*
X87001939Y-118910000D01*
X87201898Y-118870226D01*
X87390256Y-118792205D01*
X87525276Y-118701988D01*
X87534454Y-118732246D01*
X87605026Y-118864276D01*
X87673301Y-118947468D01*
X87700000Y-118980001D01*
X87728998Y-119003799D01*
X92415198Y-123690000D01*
X92297998Y-123690000D01*
X92297998Y-123848748D01*
X92139250Y-123690000D01*
X91925000Y-123686928D01*
X91800518Y-123699188D01*
X91680820Y-123735498D01*
X91570506Y-123794463D01*
X91473815Y-123873815D01*
X91408342Y-123953594D01*
X91402962Y-123947038D01*
X91268386Y-123836595D01*
X91114850Y-123754528D01*
X90948254Y-123703992D01*
X90775000Y-123686928D01*
X90275000Y-123686928D01*
X90101746Y-123703992D01*
X89935150Y-123754528D01*
X89781614Y-123836595D01*
X89647038Y-123947038D01*
X89536595Y-124081614D01*
X89528456Y-124096841D01*
X89426898Y-124054774D01*
X89226939Y-124015000D01*
X89023061Y-124015000D01*
X88823102Y-124054774D01*
X88634744Y-124132795D01*
X88465226Y-124246063D01*
X88321063Y-124390226D01*
X88207795Y-124559744D01*
X88129774Y-124748102D01*
X88090000Y-124948061D01*
X88090000Y-125151939D01*
X88129774Y-125351898D01*
X88207795Y-125540256D01*
X88321063Y-125709774D01*
X88465226Y-125853937D01*
X88634744Y-125967205D01*
X88823102Y-126045226D01*
X89023061Y-126085000D01*
X89226939Y-126085000D01*
X89299402Y-126070586D01*
X89220595Y-126166613D01*
X89138528Y-126320148D01*
X89087992Y-126486744D01*
X89070928Y-126659998D01*
X89070928Y-127560002D01*
X89087992Y-127733256D01*
X89138528Y-127899852D01*
X89220595Y-128053387D01*
X89331038Y-128187962D01*
X89433238Y-128271835D01*
X89357795Y-128384744D01*
X89279774Y-128573102D01*
X89240000Y-128773061D01*
X89240000Y-128976939D01*
X89279774Y-129176898D01*
X89357795Y-129365256D01*
X89439230Y-129487132D01*
X89425000Y-129486928D01*
X89300518Y-129499188D01*
X89180820Y-129535498D01*
X89070506Y-129594463D01*
X88973815Y-129673815D01*
X88894463Y-129770506D01*
X88835498Y-129880820D01*
X88799188Y-130000518D01*
X88786928Y-130125000D01*
X88790000Y-130564250D01*
X88948750Y-130723000D01*
X89798000Y-130723000D01*
X89798000Y-130703000D01*
X90052000Y-130703000D01*
X90052000Y-130723000D01*
X90072000Y-130723000D01*
X90072000Y-130977000D01*
X90052000Y-130977000D01*
X90052000Y-132051250D01*
X90210750Y-132210000D01*
X90425000Y-132213072D01*
X90549482Y-132200812D01*
X90669180Y-132164502D01*
X90779494Y-132105537D01*
X90876185Y-132026185D01*
X90941658Y-131946406D01*
X90947038Y-131952962D01*
X91081614Y-132063405D01*
X91178714Y-132115306D01*
X91154774Y-132173102D01*
X91115000Y-132373061D01*
X91115000Y-132576939D01*
X91154774Y-132776898D01*
X91232795Y-132965256D01*
X91346063Y-133134774D01*
X91490226Y-133278937D01*
X91659744Y-133392205D01*
X91848102Y-133470226D01*
X92048061Y-133510000D01*
X92251939Y-133510000D01*
X92451898Y-133470226D01*
X92640256Y-133392205D01*
X92809774Y-133278937D01*
X92953937Y-133134774D01*
X93067205Y-132965256D01*
X93145226Y-132776898D01*
X93185000Y-132576939D01*
X93185000Y-132373061D01*
X93145226Y-132173102D01*
X93067205Y-131984744D01*
X92953937Y-131815226D01*
X92910000Y-131771289D01*
X92910000Y-131616957D01*
X92946008Y-131498254D01*
X92963072Y-131325000D01*
X92963072Y-130375000D01*
X92946008Y-130201746D01*
X92895472Y-130035150D01*
X92813405Y-129881614D01*
X92702962Y-129747038D01*
X92637839Y-129693593D01*
X92659774Y-129678937D01*
X92803937Y-129534774D01*
X92917205Y-129365256D01*
X92995226Y-129176898D01*
X93018478Y-129060000D01*
X93046289Y-129060000D01*
X93090226Y-129103937D01*
X93259744Y-129217205D01*
X93448102Y-129295226D01*
X93648061Y-129335000D01*
X93851939Y-129335000D01*
X94051898Y-129295226D01*
X94240256Y-129217205D01*
X94409774Y-129103937D01*
X94553937Y-128959774D01*
X94667205Y-128790256D01*
X94745226Y-128601898D01*
X94785000Y-128401939D01*
X94785000Y-128198061D01*
X94745226Y-127998102D01*
X94667205Y-127809744D01*
X94553937Y-127640226D01*
X94510000Y-127596289D01*
X94510000Y-123987325D01*
X94513676Y-123950000D01*
X94510000Y-123912675D01*
X94510000Y-123912667D01*
X94499003Y-123801014D01*
X94455546Y-123657753D01*
X94384974Y-123525724D01*
X94290001Y-123409999D01*
X94261004Y-123386202D01*
X90110218Y-119235416D01*
X90139250Y-119235000D01*
X90298000Y-119076250D01*
X90298000Y-118002000D01*
X89448750Y-118002000D01*
X89290000Y-118160750D01*
X89288233Y-118413432D01*
X89000000Y-118125199D01*
X89000000Y-117424801D01*
X89288253Y-117136549D01*
X89286928Y-117150000D01*
X89290000Y-117589250D01*
X89448750Y-117748000D01*
X90298000Y-117748000D01*
X90298000Y-117728000D01*
X90552000Y-117728000D01*
X90552000Y-117748000D01*
X90572000Y-117748000D01*
X90572000Y-118002000D01*
X90552000Y-118002000D01*
X90552000Y-119076250D01*
X90710750Y-119235000D01*
X90925000Y-119238072D01*
X91049482Y-119225812D01*
X91169180Y-119189502D01*
X91279494Y-119130537D01*
X91376185Y-119051185D01*
X91441658Y-118971406D01*
X91447038Y-118977962D01*
X91581614Y-119088405D01*
X91735150Y-119170472D01*
X91901746Y-119221008D01*
X92075000Y-119238072D01*
X92575000Y-119238072D01*
X92748254Y-119221008D01*
X92914850Y-119170472D01*
X93068386Y-119088405D01*
X93202962Y-118977962D01*
X93313405Y-118843386D01*
X93321544Y-118828159D01*
X93423102Y-118870226D01*
X93623061Y-118910000D01*
X93826939Y-118910000D01*
X94026898Y-118870226D01*
X94215256Y-118792205D01*
X94384774Y-118678937D01*
X94528937Y-118534774D01*
X94642205Y-118365256D01*
X94720226Y-118176898D01*
X94760000Y-117976939D01*
X94760000Y-117773061D01*
X94720226Y-117573102D01*
X94642205Y-117384744D01*
X94528937Y-117215226D01*
X94384774Y-117071063D01*
X94215256Y-116957795D01*
X94026898Y-116879774D01*
X93826939Y-116840000D01*
X93623061Y-116840000D01*
X93423102Y-116879774D01*
X93321544Y-116921841D01*
X93313405Y-116906614D01*
X93246427Y-116825000D01*
X94705199Y-116825000D01*
X95058791Y-117178592D01*
X95015000Y-117398740D01*
X95015000Y-117691260D01*
X95072068Y-117978158D01*
X95184010Y-118248411D01*
X95346525Y-118491632D01*
X95553368Y-118698475D01*
X95727760Y-118815000D01*
X95553368Y-118931525D01*
X95346525Y-119138368D01*
X95184010Y-119381589D01*
X95072068Y-119651842D01*
X95015000Y-119938740D01*
X95015000Y-120231260D01*
X95072068Y-120518158D01*
X95184010Y-120788411D01*
X95346525Y-121031632D01*
X95553368Y-121238475D01*
X95796589Y-121400990D01*
X96066842Y-121512932D01*
X96353740Y-121570000D01*
X96646260Y-121570000D01*
X96933158Y-121512932D01*
X97203411Y-121400990D01*
X97446632Y-121238475D01*
X97653475Y-121031632D01*
X97815990Y-120788411D01*
X97927932Y-120518158D01*
X97985000Y-120231260D01*
X97985000Y-119938740D01*
X97927932Y-119651842D01*
X97815990Y-119381589D01*
X97653475Y-119138368D01*
X97446632Y-118931525D01*
X97272240Y-118815000D01*
X97446632Y-118698475D01*
X97653475Y-118491632D01*
X97815990Y-118248411D01*
X97927932Y-117978158D01*
X97985000Y-117691260D01*
X97985000Y-117398740D01*
X97927932Y-117111842D01*
X97815990Y-116841589D01*
X97653475Y-116598368D01*
X97446632Y-116391525D01*
X97264466Y-116269805D01*
X97381355Y-116200178D01*
X97597588Y-116005269D01*
X97771641Y-115771920D01*
X97896825Y-115509099D01*
X97941476Y-115361890D01*
X97820155Y-115132000D01*
X96627000Y-115132000D01*
X96627000Y-115152000D01*
X96373000Y-115152000D01*
X96373000Y-115132000D01*
X95179845Y-115132000D01*
X95087005Y-115307922D01*
X95057333Y-115305000D01*
X95057322Y-115305000D01*
X95020000Y-115301324D01*
X94982678Y-115305000D01*
X93028711Y-115305000D01*
X92984774Y-115261063D01*
X92815256Y-115147795D01*
X92626898Y-115069774D01*
X92426939Y-115030000D01*
X92223061Y-115030000D01*
X92023102Y-115069774D01*
X91834744Y-115147795D01*
X91685936Y-115247225D01*
X91684774Y-115246063D01*
X91515256Y-115132795D01*
X91326898Y-115054774D01*
X91126939Y-115015000D01*
X90923061Y-115015000D01*
X90723102Y-115054774D01*
X90534744Y-115132795D01*
X90365226Y-115246063D01*
X90321289Y-115290000D01*
X89337322Y-115290000D01*
X89299999Y-115286324D01*
X89262676Y-115290000D01*
X89262667Y-115290000D01*
X89151014Y-115300997D01*
X89007753Y-115344454D01*
X88875724Y-115415026D01*
X88875722Y-115415027D01*
X88875723Y-115415027D01*
X88788996Y-115486201D01*
X88788992Y-115486205D01*
X88759999Y-115509999D01*
X88736205Y-115538992D01*
X87729002Y-116546197D01*
X87699999Y-116569999D01*
X87644871Y-116637174D01*
X87605026Y-116685724D01*
X87558890Y-116772038D01*
X87534454Y-116817754D01*
X87490997Y-116961015D01*
X87485074Y-117021150D01*
X87390256Y-116957795D01*
X87201898Y-116879774D01*
X87001939Y-116840000D01*
X86798061Y-116840000D01*
X86598102Y-116879774D01*
X86496544Y-116921841D01*
X86488405Y-116906614D01*
X86377962Y-116772038D01*
X86243386Y-116661595D01*
X86089850Y-116579528D01*
X85923254Y-116528992D01*
X85837502Y-116520546D01*
X85845226Y-116501898D01*
X85885000Y-116301939D01*
X85885000Y-116098061D01*
X85845226Y-115898102D01*
X85767205Y-115709744D01*
X85653937Y-115540226D01*
X85509774Y-115396063D01*
X85340256Y-115282795D01*
X85151898Y-115204774D01*
X84951939Y-115165000D01*
X84748061Y-115165000D01*
X84548102Y-115204774D01*
X84359744Y-115282795D01*
X84190226Y-115396063D01*
X84046063Y-115540226D01*
X83932795Y-115709744D01*
X83854774Y-115898102D01*
X83815000Y-116098061D01*
X83815000Y-116301939D01*
X83854774Y-116501898D01*
X83867684Y-116533066D01*
X83727000Y-116673750D01*
X83473000Y-116673750D01*
X83314250Y-116515000D01*
X83100000Y-116511928D01*
X82975518Y-116524188D01*
X82855820Y-116560498D01*
X82745506Y-116619463D01*
X82648815Y-116698815D01*
X82569463Y-116795506D01*
X82510498Y-116905820D01*
X82474188Y-117025518D01*
X82461928Y-117150000D01*
X80968042Y-117150000D01*
X81065990Y-117003411D01*
X81177932Y-116733158D01*
X81235000Y-116446260D01*
X81235000Y-116153740D01*
X81177932Y-115866842D01*
X81065990Y-115596589D01*
X80903475Y-115353368D01*
X80771620Y-115221513D01*
X80844180Y-115199502D01*
X80954494Y-115140537D01*
X81051185Y-115061185D01*
X81130537Y-114964494D01*
X81189502Y-114854180D01*
X81225812Y-114734482D01*
X81238072Y-114610000D01*
X81238072Y-112910000D01*
X81225812Y-112785518D01*
X81189502Y-112665820D01*
X81130537Y-112555506D01*
X81051185Y-112458815D01*
X80954494Y-112379463D01*
X80844180Y-112320498D01*
X80724482Y-112284188D01*
X80600000Y-112271928D01*
X78900000Y-112271928D01*
X78775518Y-112284188D01*
X78655820Y-112320498D01*
X78545506Y-112379463D01*
X78486767Y-112427669D01*
X78417205Y-112259734D01*
X78303937Y-112090216D01*
X78186782Y-111973061D01*
X81765000Y-111973061D01*
X81765000Y-112176939D01*
X81804774Y-112376898D01*
X81882795Y-112565256D01*
X81996063Y-112734774D01*
X82140226Y-112878937D01*
X82309744Y-112992205D01*
X82498102Y-113070226D01*
X82698061Y-113110000D01*
X82901939Y-113110000D01*
X83101898Y-113070226D01*
X83203456Y-113028159D01*
X83211595Y-113043386D01*
X83322038Y-113177962D01*
X83456614Y-113288405D01*
X83610150Y-113370472D01*
X83776746Y-113421008D01*
X83862498Y-113429454D01*
X83854774Y-113448102D01*
X83815000Y-113648061D01*
X83815000Y-113851939D01*
X83854774Y-114051898D01*
X83932795Y-114240256D01*
X84046063Y-114409774D01*
X84190226Y-114553937D01*
X84359744Y-114667205D01*
X84548102Y-114745226D01*
X84748061Y-114785000D01*
X84951939Y-114785000D01*
X85151898Y-114745226D01*
X85340256Y-114667205D01*
X85509774Y-114553937D01*
X85653937Y-114409774D01*
X85767205Y-114240256D01*
X85845226Y-114051898D01*
X85885000Y-113851939D01*
X85885000Y-113648061D01*
X85845226Y-113448102D01*
X85832316Y-113416934D01*
X85973000Y-113276250D01*
X85973000Y-112202000D01*
X86227000Y-112202000D01*
X86227000Y-113276250D01*
X86385750Y-113435000D01*
X86600000Y-113438072D01*
X86724482Y-113425812D01*
X86844180Y-113389502D01*
X86954494Y-113330537D01*
X87051185Y-113251185D01*
X87130537Y-113154494D01*
X87189502Y-113044180D01*
X87225812Y-112924482D01*
X87238072Y-112800000D01*
X87235000Y-112360750D01*
X87076250Y-112202000D01*
X86227000Y-112202000D01*
X85973000Y-112202000D01*
X85953000Y-112202000D01*
X85953000Y-111948000D01*
X85973000Y-111948000D01*
X85973000Y-110873750D01*
X86227000Y-110873750D01*
X86227000Y-111948000D01*
X87076250Y-111948000D01*
X87235000Y-111789250D01*
X87235799Y-111675000D01*
X87461324Y-111675000D01*
X87465000Y-111712323D01*
X87465001Y-112812668D01*
X87461324Y-112850000D01*
X87465001Y-112887333D01*
X87475998Y-112998986D01*
X87484109Y-113025725D01*
X87519454Y-113142246D01*
X87590026Y-113274276D01*
X87632248Y-113325723D01*
X87685000Y-113390001D01*
X87713998Y-113413799D01*
X88736201Y-114436003D01*
X88759999Y-114465001D01*
X88812094Y-114507754D01*
X88875724Y-114559974D01*
X89007753Y-114630546D01*
X89151014Y-114674003D01*
X89300000Y-114688677D01*
X89337333Y-114685000D01*
X90321289Y-114685000D01*
X90365226Y-114728937D01*
X90534744Y-114842205D01*
X90723102Y-114920226D01*
X90923061Y-114960000D01*
X91126939Y-114960000D01*
X91326898Y-114920226D01*
X91515256Y-114842205D01*
X91675000Y-114735468D01*
X91834744Y-114842205D01*
X92023102Y-114920226D01*
X92223061Y-114960000D01*
X92426939Y-114960000D01*
X92626898Y-114920226D01*
X92815256Y-114842205D01*
X92984774Y-114728937D01*
X93028711Y-114685000D01*
X95002678Y-114685000D01*
X95040000Y-114688676D01*
X95077322Y-114685000D01*
X95077333Y-114685000D01*
X95077960Y-114684938D01*
X95179845Y-114878000D01*
X96373000Y-114878000D01*
X96373000Y-114858000D01*
X96627000Y-114858000D01*
X96627000Y-114878000D01*
X97820155Y-114878000D01*
X97941476Y-114648110D01*
X97896825Y-114500901D01*
X97771641Y-114238080D01*
X97597588Y-114004731D01*
X97381355Y-113809822D01*
X97264466Y-113740195D01*
X97446632Y-113618475D01*
X97653475Y-113411632D01*
X97815990Y-113168411D01*
X97927932Y-112898158D01*
X97985000Y-112611260D01*
X97985000Y-112318740D01*
X97927932Y-112031842D01*
X97815990Y-111761589D01*
X97653475Y-111518368D01*
X97521620Y-111386513D01*
X97594180Y-111364502D01*
X97704494Y-111305537D01*
X97801185Y-111226185D01*
X97880537Y-111129494D01*
X97939502Y-111019180D01*
X97975812Y-110899482D01*
X97988072Y-110775000D01*
X97988072Y-109075000D01*
X97975812Y-108950518D01*
X97939502Y-108830820D01*
X97880537Y-108720506D01*
X97801185Y-108623815D01*
X97704494Y-108544463D01*
X97594180Y-108485498D01*
X97474482Y-108449188D01*
X97350000Y-108436928D01*
X95650000Y-108436928D01*
X95525518Y-108449188D01*
X95405820Y-108485498D01*
X95295506Y-108544463D01*
X95198815Y-108623815D01*
X95119463Y-108720506D01*
X95060498Y-108830820D01*
X95024188Y-108950518D01*
X95011928Y-109075000D01*
X95011928Y-110775000D01*
X95024188Y-110899482D01*
X95060498Y-111019180D01*
X95119463Y-111129494D01*
X95198815Y-111226185D01*
X95295506Y-111305537D01*
X95405820Y-111364502D01*
X95478380Y-111386513D01*
X95346525Y-111518368D01*
X95184010Y-111761589D01*
X95072068Y-112031842D01*
X95015000Y-112318740D01*
X95015000Y-112611260D01*
X95058791Y-112831408D01*
X94725199Y-113165000D01*
X93946915Y-113165000D01*
X93955537Y-113154494D01*
X94014502Y-113044180D01*
X94050812Y-112924482D01*
X94063072Y-112800000D01*
X94060000Y-112360750D01*
X93901250Y-112202000D01*
X93052000Y-112202000D01*
X93052000Y-112222000D01*
X92798000Y-112222000D01*
X92798000Y-112202000D01*
X92778000Y-112202000D01*
X92778000Y-111948000D01*
X92798000Y-111948000D01*
X92798000Y-110873750D01*
X93052000Y-110873750D01*
X93052000Y-111948000D01*
X93901250Y-111948000D01*
X94060000Y-111789250D01*
X94063072Y-111350000D01*
X94050812Y-111225518D01*
X94014502Y-111105820D01*
X93955537Y-110995506D01*
X93876185Y-110898815D01*
X93779494Y-110819463D01*
X93669180Y-110760498D01*
X93549482Y-110724188D01*
X93425000Y-110711928D01*
X93210750Y-110715000D01*
X93052000Y-110873750D01*
X92798000Y-110873750D01*
X92639250Y-110715000D01*
X92425000Y-110711928D01*
X92300518Y-110724188D01*
X92180820Y-110760498D01*
X92070506Y-110819463D01*
X91973815Y-110898815D01*
X91908342Y-110978594D01*
X91902962Y-110972038D01*
X91768386Y-110861595D01*
X91614850Y-110779528D01*
X91448254Y-110728992D01*
X91275000Y-110711928D01*
X90775000Y-110711928D01*
X90601746Y-110728992D01*
X90435150Y-110779528D01*
X90281614Y-110861595D01*
X90147038Y-110972038D01*
X90036595Y-111106614D01*
X90028456Y-111121841D01*
X89926898Y-111079774D01*
X89900315Y-111074486D01*
X94261003Y-106713799D01*
X94290001Y-106690001D01*
X94323915Y-106648677D01*
X94384974Y-106574277D01*
X94455546Y-106442247D01*
X94475867Y-106375256D01*
X94499003Y-106298986D01*
X94510000Y-106187333D01*
X94510000Y-106187323D01*
X94513676Y-106150000D01*
X94510000Y-106112677D01*
X94510000Y-102413711D01*
X94553937Y-102369774D01*
X94667205Y-102200256D01*
X94745226Y-102011898D01*
X94785000Y-101811939D01*
X94785000Y-101608061D01*
X94745226Y-101408102D01*
X94667205Y-101219744D01*
X94553937Y-101050226D01*
X94409774Y-100906063D01*
X94240256Y-100792795D01*
X94051898Y-100714774D01*
X93851939Y-100675000D01*
X93648061Y-100675000D01*
X93448102Y-100714774D01*
X93259744Y-100792795D01*
X93193072Y-100837344D01*
X93193072Y-100069998D01*
X93176008Y-99896744D01*
X93141476Y-99782906D01*
X93169180Y-99774502D01*
X93279494Y-99715537D01*
X93376185Y-99636185D01*
X93455537Y-99539494D01*
X93514502Y-99429180D01*
X93550812Y-99309482D01*
X93563072Y-99185000D01*
X93560000Y-98745750D01*
X93401250Y-98587000D01*
X92552000Y-98587000D01*
X92552000Y-98607000D01*
X92298000Y-98607000D01*
X92298000Y-98587000D01*
X92278000Y-98587000D01*
X92278000Y-98333000D01*
X92298000Y-98333000D01*
X92298000Y-97258750D01*
X92552000Y-97258750D01*
X92552000Y-98333000D01*
X93401250Y-98333000D01*
X93560000Y-98174250D01*
X93563072Y-97735000D01*
X93550812Y-97610518D01*
X93514502Y-97490820D01*
X93455537Y-97380506D01*
X93376185Y-97283815D01*
X93279494Y-97204463D01*
X93169180Y-97145498D01*
X93049482Y-97109188D01*
X92925000Y-97096928D01*
X92710750Y-97100000D01*
X92552000Y-97258750D01*
X92298000Y-97258750D01*
X92139250Y-97100000D01*
X91925000Y-97096928D01*
X91800518Y-97109188D01*
X91680820Y-97145498D01*
X91570506Y-97204463D01*
X91473815Y-97283815D01*
X91408342Y-97363594D01*
X91402962Y-97357038D01*
X91268386Y-97246595D01*
X91114850Y-97164528D01*
X90948254Y-97113992D01*
X90775000Y-97096928D01*
X90275000Y-97096928D01*
X90101746Y-97113992D01*
X89935150Y-97164528D01*
X89781614Y-97246595D01*
X89647038Y-97357038D01*
X89536595Y-97491614D01*
X89528456Y-97506841D01*
X89426898Y-97464774D01*
X89226939Y-97425000D01*
X89023061Y-97425000D01*
X88823102Y-97464774D01*
X88634744Y-97542795D01*
X88465226Y-97656063D01*
X88321063Y-97800226D01*
X88207795Y-97969744D01*
X88129774Y-98158102D01*
X88090000Y-98358061D01*
X88090000Y-98561939D01*
X88129774Y-98761898D01*
X88207795Y-98950256D01*
X88321063Y-99119774D01*
X88465226Y-99263937D01*
X88634744Y-99377205D01*
X88823102Y-99455226D01*
X89023061Y-99495000D01*
X89226939Y-99495000D01*
X89294622Y-99481537D01*
X89216595Y-99576613D01*
X89134528Y-99730148D01*
X89083992Y-99896744D01*
X89066928Y-100069998D01*
X89066928Y-100970002D01*
X89083992Y-101143256D01*
X89134528Y-101309852D01*
X89216595Y-101463387D01*
X89327038Y-101597962D01*
X89431821Y-101683956D01*
X89357795Y-101794744D01*
X89279774Y-101983102D01*
X89240000Y-102183061D01*
X89240000Y-102386939D01*
X89279774Y-102586898D01*
X89357795Y-102775256D01*
X89439230Y-102897132D01*
X89425000Y-102896928D01*
X89300518Y-102909188D01*
X89180820Y-102945498D01*
X89070506Y-103004463D01*
X88973815Y-103083815D01*
X88894463Y-103180506D01*
X88835498Y-103290820D01*
X88799188Y-103410518D01*
X88786928Y-103535000D01*
X88790000Y-103974250D01*
X88948750Y-104133000D01*
X89798000Y-104133000D01*
X89798000Y-104113000D01*
X90052000Y-104113000D01*
X90052000Y-104133000D01*
X90072000Y-104133000D01*
X90072000Y-104387000D01*
X90052000Y-104387000D01*
X90052000Y-105461250D01*
X90210750Y-105620000D01*
X90425000Y-105623072D01*
X90549482Y-105610812D01*
X90669180Y-105574502D01*
X90779494Y-105515537D01*
X90876185Y-105436185D01*
X90941658Y-105356406D01*
X90947038Y-105362962D01*
X91081614Y-105473405D01*
X91178714Y-105525306D01*
X91154774Y-105583102D01*
X91115000Y-105783061D01*
X91115000Y-105986939D01*
X91154774Y-106186898D01*
X91232795Y-106375256D01*
X91346063Y-106544774D01*
X91490226Y-106688937D01*
X91659744Y-106802205D01*
X91848102Y-106880226D01*
X91928901Y-106896298D01*
X87714003Y-111111196D01*
X87684999Y-111134999D01*
X87629871Y-111202174D01*
X87590026Y-111250724D01*
X87536962Y-111350000D01*
X87519454Y-111382754D01*
X87475997Y-111526015D01*
X87465000Y-111637668D01*
X87465000Y-111637678D01*
X87461324Y-111675000D01*
X87235799Y-111675000D01*
X87238072Y-111350000D01*
X87225812Y-111225518D01*
X87189502Y-111105820D01*
X87130537Y-110995506D01*
X87051185Y-110898815D01*
X86954494Y-110819463D01*
X86844180Y-110760498D01*
X86724482Y-110724188D01*
X86600000Y-110711928D01*
X86385750Y-110715000D01*
X86227000Y-110873750D01*
X85973000Y-110873750D01*
X85814250Y-110715000D01*
X85600000Y-110711928D01*
X85475518Y-110724188D01*
X85355820Y-110760498D01*
X85245506Y-110819463D01*
X85148815Y-110898815D01*
X85083342Y-110978594D01*
X85077962Y-110972038D01*
X84943386Y-110861595D01*
X84789850Y-110779528D01*
X84623254Y-110728992D01*
X84450000Y-110711928D01*
X83950000Y-110711928D01*
X83776746Y-110728992D01*
X83610150Y-110779528D01*
X83456614Y-110861595D01*
X83322038Y-110972038D01*
X83211595Y-111106614D01*
X83203456Y-111121841D01*
X83101898Y-111079774D01*
X82901939Y-111040000D01*
X82698061Y-111040000D01*
X82498102Y-111079774D01*
X82309744Y-111157795D01*
X82140226Y-111271063D01*
X81996063Y-111415226D01*
X81882795Y-111584744D01*
X81804774Y-111773102D01*
X81765000Y-111973061D01*
X78186782Y-111973061D01*
X78159774Y-111946053D01*
X77990256Y-111832785D01*
X77801898Y-111754764D01*
X77601939Y-111714990D01*
X77398061Y-111714990D01*
X77198102Y-111754764D01*
X77009744Y-111832785D01*
X76840226Y-111946053D01*
X76696063Y-112090216D01*
X76582795Y-112259734D01*
X76504774Y-112448092D01*
X76465000Y-112648051D01*
X76465000Y-112851929D01*
X76504774Y-113051888D01*
X76582795Y-113240246D01*
X76603686Y-113271512D01*
X76238271Y-113636928D01*
X75900000Y-113636928D01*
X75726746Y-113653992D01*
X75560150Y-113704528D01*
X75406614Y-113786595D01*
X75272038Y-113897038D01*
X75266658Y-113903594D01*
X75201185Y-113823815D01*
X75104494Y-113744463D01*
X74994180Y-113685498D01*
X74874482Y-113649188D01*
X74750000Y-113636928D01*
X74535750Y-113640000D01*
X74525368Y-113650382D01*
X74535004Y-113601939D01*
X74535004Y-113398061D01*
X74495230Y-113198102D01*
X74417209Y-113009744D01*
X74303941Y-112840226D01*
X74260004Y-112796289D01*
X74260004Y-111577329D01*
X74263680Y-111540004D01*
X74260004Y-111502679D01*
X74260004Y-111502671D01*
X74249007Y-111391018D01*
X74205550Y-111247757D01*
X74134978Y-111115728D01*
X74040005Y-111000003D01*
X74011007Y-110976205D01*
X67641209Y-104606408D01*
X67685000Y-104386260D01*
X67685000Y-104093740D01*
X67627932Y-103806842D01*
X67515990Y-103536589D01*
X67353475Y-103293368D01*
X67221620Y-103161513D01*
X67294180Y-103139502D01*
X67404494Y-103080537D01*
X67501185Y-103001185D01*
X67580537Y-102904494D01*
X67639502Y-102794180D01*
X67675812Y-102674482D01*
X67688072Y-102550000D01*
X67688072Y-101608061D01*
X70939996Y-101608061D01*
X70939996Y-101811939D01*
X70979770Y-102011898D01*
X71057791Y-102200256D01*
X71171059Y-102369774D01*
X71315222Y-102513937D01*
X71484740Y-102627205D01*
X71673098Y-102705226D01*
X71873057Y-102745000D01*
X71935195Y-102745000D01*
X77751197Y-108561003D01*
X77774995Y-108590001D01*
X77803993Y-108613799D01*
X77890719Y-108684974D01*
X78022749Y-108755546D01*
X78166010Y-108799003D01*
X78277663Y-108810000D01*
X78277673Y-108810000D01*
X78314996Y-108813676D01*
X78352318Y-108810000D01*
X87571289Y-108810000D01*
X87615226Y-108853937D01*
X87784744Y-108967205D01*
X87973102Y-109045226D01*
X88173061Y-109085000D01*
X88376939Y-109085000D01*
X88576898Y-109045226D01*
X88765256Y-108967205D01*
X88934774Y-108853937D01*
X89078937Y-108709774D01*
X89192205Y-108540256D01*
X89270226Y-108351898D01*
X89310000Y-108151939D01*
X89310000Y-107948061D01*
X89270226Y-107748102D01*
X89192205Y-107559744D01*
X89078937Y-107390226D01*
X88934774Y-107246063D01*
X88765256Y-107132795D01*
X88576898Y-107054774D01*
X88376939Y-107015000D01*
X88173061Y-107015000D01*
X87973102Y-107054774D01*
X87784744Y-107132795D01*
X87615226Y-107246063D01*
X87571289Y-107290000D01*
X78629798Y-107290000D01*
X76324798Y-104985000D01*
X88786928Y-104985000D01*
X88799188Y-105109482D01*
X88835498Y-105229180D01*
X88894463Y-105339494D01*
X88973815Y-105436185D01*
X89070506Y-105515537D01*
X89180820Y-105574502D01*
X89300518Y-105610812D01*
X89425000Y-105623072D01*
X89639250Y-105620000D01*
X89798000Y-105461250D01*
X89798000Y-104387000D01*
X88948750Y-104387000D01*
X88790000Y-104545750D01*
X88786928Y-104985000D01*
X76324798Y-104985000D01*
X73009996Y-101670199D01*
X73009996Y-101608061D01*
X72970222Y-101408102D01*
X72892201Y-101219744D01*
X72778933Y-101050226D01*
X72634770Y-100906063D01*
X72465252Y-100792795D01*
X72276894Y-100714774D01*
X72243146Y-100708061D01*
X74040000Y-100708061D01*
X74040000Y-100911939D01*
X74079774Y-101111898D01*
X74157795Y-101300256D01*
X74271063Y-101469774D01*
X74415226Y-101613937D01*
X74584744Y-101727205D01*
X74773102Y-101805226D01*
X74973061Y-101845000D01*
X75176939Y-101845000D01*
X75376898Y-101805226D01*
X75565256Y-101727205D01*
X75734774Y-101613937D01*
X75778711Y-101570000D01*
X77646928Y-101570000D01*
X77646928Y-102035000D01*
X77663992Y-102208254D01*
X77714528Y-102374850D01*
X77796595Y-102528386D01*
X77907038Y-102662962D01*
X78041614Y-102773405D01*
X78056841Y-102781544D01*
X78014774Y-102883102D01*
X77975000Y-103083061D01*
X77975000Y-103286939D01*
X78014774Y-103486898D01*
X78092795Y-103675256D01*
X78206063Y-103844774D01*
X78350226Y-103988937D01*
X78519744Y-104102205D01*
X78708102Y-104180226D01*
X78908061Y-104220000D01*
X79111939Y-104220000D01*
X79311898Y-104180226D01*
X79500256Y-104102205D01*
X79669774Y-103988937D01*
X79813937Y-103844774D01*
X79927205Y-103675256D01*
X80005226Y-103486898D01*
X80045000Y-103286939D01*
X80045000Y-103083061D01*
X80005604Y-102885000D01*
X83446928Y-102885000D01*
X83459188Y-103009482D01*
X83495498Y-103129180D01*
X83554463Y-103239494D01*
X83633815Y-103336185D01*
X83730506Y-103415537D01*
X83840820Y-103474502D01*
X83960518Y-103510812D01*
X84085000Y-103523072D01*
X84524250Y-103520000D01*
X84683000Y-103361250D01*
X84683000Y-102512000D01*
X84937000Y-102512000D01*
X84937000Y-103361250D01*
X85095750Y-103520000D01*
X85535000Y-103523072D01*
X85659482Y-103510812D01*
X85779180Y-103474502D01*
X85889494Y-103415537D01*
X85986185Y-103336185D01*
X86065537Y-103239494D01*
X86124502Y-103129180D01*
X86160812Y-103009482D01*
X86173072Y-102885000D01*
X86170000Y-102670750D01*
X86011250Y-102512000D01*
X84937000Y-102512000D01*
X84683000Y-102512000D01*
X83608750Y-102512000D01*
X83450000Y-102670750D01*
X83446928Y-102885000D01*
X80005604Y-102885000D01*
X80005226Y-102883102D01*
X79963159Y-102781544D01*
X79978386Y-102773405D01*
X80112962Y-102662962D01*
X80223405Y-102528386D01*
X80305472Y-102374850D01*
X80356008Y-102208254D01*
X80373072Y-102035000D01*
X80373072Y-101570000D01*
X81946289Y-101570000D01*
X81990226Y-101613937D01*
X82159744Y-101727205D01*
X82348102Y-101805226D01*
X82548061Y-101845000D01*
X82751939Y-101845000D01*
X82951898Y-101805226D01*
X83140256Y-101727205D01*
X83309774Y-101613937D01*
X83453937Y-101469774D01*
X83567205Y-101300256D01*
X83596847Y-101228694D01*
X83707038Y-101362962D01*
X83713594Y-101368342D01*
X83633815Y-101433815D01*
X83554463Y-101530506D01*
X83495498Y-101640820D01*
X83459188Y-101760518D01*
X83446928Y-101885000D01*
X83450000Y-102099250D01*
X83608750Y-102258000D01*
X84683000Y-102258000D01*
X84683000Y-102238000D01*
X84937000Y-102238000D01*
X84937000Y-102258000D01*
X86011250Y-102258000D01*
X86170000Y-102099250D01*
X86173072Y-101885000D01*
X86160812Y-101760518D01*
X86124502Y-101640820D01*
X86065537Y-101530506D01*
X85986185Y-101433815D01*
X85906406Y-101368342D01*
X85912962Y-101362962D01*
X86023405Y-101228386D01*
X86105472Y-101074850D01*
X86156008Y-100908254D01*
X86173072Y-100735000D01*
X86173072Y-100235000D01*
X86156008Y-100061746D01*
X86105472Y-99895150D01*
X86023405Y-99741614D01*
X85912962Y-99607038D01*
X85778386Y-99496595D01*
X85763159Y-99488456D01*
X85805226Y-99386898D01*
X85845000Y-99186939D01*
X85845000Y-98983061D01*
X85805226Y-98783102D01*
X85727205Y-98594744D01*
X85613937Y-98425226D01*
X85469774Y-98281063D01*
X85300256Y-98167795D01*
X85111898Y-98089774D01*
X84911939Y-98050000D01*
X84708061Y-98050000D01*
X84508102Y-98089774D01*
X84319744Y-98167795D01*
X84150226Y-98281063D01*
X84006063Y-98425226D01*
X83892795Y-98594744D01*
X83814774Y-98783102D01*
X83775000Y-98983061D01*
X83775000Y-99186939D01*
X83814774Y-99386898D01*
X83856841Y-99488456D01*
X83841614Y-99496595D01*
X83707038Y-99607038D01*
X83596595Y-99741614D01*
X83514528Y-99895150D01*
X83463992Y-100061746D01*
X83455105Y-100151974D01*
X83453937Y-100150226D01*
X83309774Y-100006063D01*
X83140256Y-99892795D01*
X82951898Y-99814774D01*
X82751939Y-99775000D01*
X82548061Y-99775000D01*
X82348102Y-99814774D01*
X82159744Y-99892795D01*
X81990226Y-100006063D01*
X81946289Y-100050000D01*
X80249250Y-100050000D01*
X80211250Y-100012000D01*
X79137000Y-100012000D01*
X79137000Y-100032000D01*
X78883000Y-100032000D01*
X78883000Y-100012000D01*
X77808750Y-100012000D01*
X77770750Y-100050000D01*
X75778711Y-100050000D01*
X75734774Y-100006063D01*
X75565256Y-99892795D01*
X75376898Y-99814774D01*
X75176939Y-99775000D01*
X74973061Y-99775000D01*
X74773102Y-99814774D01*
X74584744Y-99892795D01*
X74415226Y-100006063D01*
X74271063Y-100150226D01*
X74157795Y-100319744D01*
X74079774Y-100508102D01*
X74040000Y-100708061D01*
X72243146Y-100708061D01*
X72076935Y-100675000D01*
X71873057Y-100675000D01*
X71673098Y-100714774D01*
X71484740Y-100792795D01*
X71315222Y-100906063D01*
X71171059Y-101050226D01*
X71057791Y-101219744D01*
X70979770Y-101408102D01*
X70939996Y-101608061D01*
X67688072Y-101608061D01*
X67688072Y-100850000D01*
X67675812Y-100725518D01*
X67639502Y-100605820D01*
X67580537Y-100495506D01*
X67501185Y-100398815D01*
X67404494Y-100319463D01*
X67294180Y-100260498D01*
X67174482Y-100224188D01*
X67050000Y-100211928D01*
X65350000Y-100211928D01*
X65225518Y-100224188D01*
X65105820Y-100260498D01*
X64995506Y-100319463D01*
X64898815Y-100398815D01*
X64819463Y-100495506D01*
X64760498Y-100605820D01*
X64724188Y-100725518D01*
X64711928Y-100850000D01*
X64711928Y-100940000D01*
X61992145Y-100940000D01*
X62093346Y-100695679D01*
X62185000Y-100234902D01*
X62185000Y-99765098D01*
X62109395Y-99385000D01*
X77646928Y-99385000D01*
X77650000Y-99599250D01*
X77808750Y-99758000D01*
X78883000Y-99758000D01*
X78883000Y-98908750D01*
X79137000Y-98908750D01*
X79137000Y-99758000D01*
X80211250Y-99758000D01*
X80370000Y-99599250D01*
X80373072Y-99385000D01*
X80360812Y-99260518D01*
X80324502Y-99140820D01*
X80265537Y-99030506D01*
X80186185Y-98933815D01*
X80089494Y-98854463D01*
X79979180Y-98795498D01*
X79859482Y-98759188D01*
X79735000Y-98746928D01*
X79295750Y-98750000D01*
X79137000Y-98908750D01*
X78883000Y-98908750D01*
X78724250Y-98750000D01*
X78285000Y-98746928D01*
X78160518Y-98759188D01*
X78040820Y-98795498D01*
X77930506Y-98854463D01*
X77833815Y-98933815D01*
X77754463Y-99030506D01*
X77695498Y-99140820D01*
X77659188Y-99260518D01*
X77646928Y-99385000D01*
X62109395Y-99385000D01*
X62093346Y-99304321D01*
X61913560Y-98870279D01*
X61652550Y-98479651D01*
X61320349Y-98147450D01*
X60929721Y-97886440D01*
X60495679Y-97706654D01*
X60034902Y-97615000D01*
X59565098Y-97615000D01*
X59104321Y-97706654D01*
X58670279Y-97886440D01*
X58279651Y-98147450D01*
X57947450Y-98479651D01*
X57686440Y-98870279D01*
X57506654Y-99304321D01*
X57415000Y-99765098D01*
X56873616Y-99765098D01*
X56843842Y-99500189D01*
X56701297Y-99052532D01*
X56510766Y-98696073D01*
X56169609Y-98509997D01*
X54679605Y-100000000D01*
X54320395Y-100000000D01*
X52830391Y-98509997D01*
X52489234Y-98696073D01*
X52273487Y-99113409D01*
X52143304Y-99564815D01*
X52103687Y-100032946D01*
X50160000Y-100032946D01*
X50160000Y-98330391D01*
X53009997Y-98330391D01*
X54500000Y-99820395D01*
X55990003Y-98330391D01*
X55803927Y-97989234D01*
X55386591Y-97773487D01*
X54935185Y-97643304D01*
X54467054Y-97603687D01*
X54000189Y-97656158D01*
X53552532Y-97798703D01*
X53196073Y-97989234D01*
X53009997Y-98330391D01*
X50160000Y-98330391D01*
X50160000Y-95660000D01*
X98840000Y-95660000D01*
X98840001Y-134340000D01*
G37*
%TD.AperFunction*%
D15*
X92552000Y-124923000D02*
X92572000Y-124923000D01*
X92572000Y-125177000D01*
X92552000Y-125177000D01*
X92552000Y-125197000D01*
X92298000Y-125197000D01*
X92298000Y-125177000D01*
X92278000Y-125177000D01*
X92278000Y-124923000D01*
X92298000Y-124923000D01*
X92298000Y-124903000D01*
X92552000Y-124903000D01*
X92552000Y-124923000D01*
%TA.AperFunction,Conductor*%
D16*
G36*
X92552000Y-124923000D02*
G01*
X92572000Y-124923000D01*
X92572000Y-125177000D01*
X92552000Y-125177000D01*
X92552000Y-125197000D01*
X92298000Y-125197000D01*
X92298000Y-125177000D01*
X92278000Y-125177000D01*
X92278000Y-124923000D01*
X92298000Y-124923000D01*
X92298000Y-124903000D01*
X92552000Y-124903000D01*
X92552000Y-124923000D01*
G37*
%TD.AperFunction*%
D15*
X73009748Y-114417205D02*
X73113222Y-114460066D01*
X73115000Y-114714250D01*
X73273750Y-114873000D01*
X74123000Y-114873000D01*
X74123000Y-114853000D01*
X74377000Y-114853000D01*
X74377000Y-114873000D01*
X74397000Y-114873000D01*
X74397000Y-115127000D01*
X74377000Y-115127000D01*
X74377000Y-115147000D01*
X74123000Y-115147000D01*
X74123000Y-115127000D01*
X73273750Y-115127000D01*
X73115000Y-115285750D01*
X73113222Y-115539932D01*
X73009743Y-115582795D01*
X72937415Y-115631123D01*
X72935000Y-115285750D01*
X72776250Y-115127000D01*
X71927000Y-115127000D01*
X71927000Y-115147000D01*
X71673000Y-115147000D01*
X71673000Y-115127000D01*
X71653000Y-115127000D01*
X71653000Y-114873000D01*
X71673000Y-114873000D01*
X71673000Y-114853000D01*
X71927000Y-114853000D01*
X71927000Y-114873000D01*
X72776250Y-114873000D01*
X72935000Y-114714250D01*
X72937415Y-114368874D01*
X73009748Y-114417205D01*
%TA.AperFunction,Conductor*%
D16*
G36*
X73009748Y-114417205D02*
G01*
X73113222Y-114460066D01*
X73115000Y-114714250D01*
X73273750Y-114873000D01*
X74123000Y-114873000D01*
X74123000Y-114853000D01*
X74377000Y-114853000D01*
X74377000Y-114873000D01*
X74397000Y-114873000D01*
X74397000Y-115127000D01*
X74377000Y-115127000D01*
X74377000Y-115147000D01*
X74123000Y-115147000D01*
X74123000Y-115127000D01*
X73273750Y-115127000D01*
X73115000Y-115285750D01*
X73113222Y-115539932D01*
X73009743Y-115582795D01*
X72937415Y-115631123D01*
X72935000Y-115285750D01*
X72776250Y-115127000D01*
X71927000Y-115127000D01*
X71927000Y-115147000D01*
X71673000Y-115147000D01*
X71673000Y-115127000D01*
X71653000Y-115127000D01*
X71653000Y-114873000D01*
X71673000Y-114873000D01*
X71673000Y-114853000D01*
X71927000Y-114853000D01*
X71927000Y-114873000D01*
X72776250Y-114873000D01*
X72935000Y-114714250D01*
X72937415Y-114368874D01*
X73009748Y-114417205D01*
G37*
%TD.AperFunction*%
%TD*%
M02*
