%TF.GenerationSoftware,KiCad,Pcbnew,5.1.12-84ad8e8a86~92~ubuntu20.04.1*%
%TF.CreationDate,2022-02-02T22:22:09-05:00*%
%TF.ProjectId,emg-filter,656d672d-6669-46c7-9465-722e6b696361,rev?*%
%TF.SameCoordinates,Original*%
%TF.FileFunction,Soldermask,Top*%
%TF.FilePolarity,Negative*%
%FSLAX46Y46*%
G04 Gerber Fmt 4.6, Leading zero omitted, Abs format (unit mm)*
G04 Created by KiCad (PCBNEW 5.1.12-84ad8e8a86~92~ubuntu20.04.1) date 2022-02-02 22:22:09*
%MOMM*%
%LPD*%
G01*
G04 APERTURE LIST*
%ADD10C,3.500000*%
%ADD11O,1.700000X1.700000*%
%ADD12R,1.700000X1.700000*%
%ADD13R,0.600000X0.450000*%
%ADD14R,0.450000X0.600000*%
%ADD15R,0.350000X1.200000*%
%ADD16R,1.200000X0.350000*%
%ADD17C,0.800000*%
G04 APERTURE END LIST*
%TO.C,U3*%
G36*
G01*
X69400000Y-113150000D02*
X69400000Y-112950000D01*
G75*
G02*
X69500000Y-112850000I100000J0D01*
G01*
X70775000Y-112850000D01*
G75*
G02*
X70875000Y-112950000I0J-100000D01*
G01*
X70875000Y-113150000D01*
G75*
G02*
X70775000Y-113250000I-100000J0D01*
G01*
X69500000Y-113250000D01*
G75*
G02*
X69400000Y-113150000I0J100000D01*
G01*
G37*
G36*
G01*
X69400000Y-113800000D02*
X69400000Y-113600000D01*
G75*
G02*
X69500000Y-113500000I100000J0D01*
G01*
X70775000Y-113500000D01*
G75*
G02*
X70875000Y-113600000I0J-100000D01*
G01*
X70875000Y-113800000D01*
G75*
G02*
X70775000Y-113900000I-100000J0D01*
G01*
X69500000Y-113900000D01*
G75*
G02*
X69400000Y-113800000I0J100000D01*
G01*
G37*
G36*
G01*
X69400000Y-114450000D02*
X69400000Y-114250000D01*
G75*
G02*
X69500000Y-114150000I100000J0D01*
G01*
X70775000Y-114150000D01*
G75*
G02*
X70875000Y-114250000I0J-100000D01*
G01*
X70875000Y-114450000D01*
G75*
G02*
X70775000Y-114550000I-100000J0D01*
G01*
X69500000Y-114550000D01*
G75*
G02*
X69400000Y-114450000I0J100000D01*
G01*
G37*
G36*
G01*
X69400000Y-115100000D02*
X69400000Y-114900000D01*
G75*
G02*
X69500000Y-114800000I100000J0D01*
G01*
X70775000Y-114800000D01*
G75*
G02*
X70875000Y-114900000I0J-100000D01*
G01*
X70875000Y-115100000D01*
G75*
G02*
X70775000Y-115200000I-100000J0D01*
G01*
X69500000Y-115200000D01*
G75*
G02*
X69400000Y-115100000I0J100000D01*
G01*
G37*
G36*
G01*
X69400000Y-115750000D02*
X69400000Y-115550000D01*
G75*
G02*
X69500000Y-115450000I100000J0D01*
G01*
X70775000Y-115450000D01*
G75*
G02*
X70875000Y-115550000I0J-100000D01*
G01*
X70875000Y-115750000D01*
G75*
G02*
X70775000Y-115850000I-100000J0D01*
G01*
X69500000Y-115850000D01*
G75*
G02*
X69400000Y-115750000I0J100000D01*
G01*
G37*
G36*
G01*
X69400000Y-116400000D02*
X69400000Y-116200000D01*
G75*
G02*
X69500000Y-116100000I100000J0D01*
G01*
X70775000Y-116100000D01*
G75*
G02*
X70875000Y-116200000I0J-100000D01*
G01*
X70875000Y-116400000D01*
G75*
G02*
X70775000Y-116500000I-100000J0D01*
G01*
X69500000Y-116500000D01*
G75*
G02*
X69400000Y-116400000I0J100000D01*
G01*
G37*
G36*
G01*
X69400000Y-117050000D02*
X69400000Y-116850000D01*
G75*
G02*
X69500000Y-116750000I100000J0D01*
G01*
X70775000Y-116750000D01*
G75*
G02*
X70875000Y-116850000I0J-100000D01*
G01*
X70875000Y-117050000D01*
G75*
G02*
X70775000Y-117150000I-100000J0D01*
G01*
X69500000Y-117150000D01*
G75*
G02*
X69400000Y-117050000I0J100000D01*
G01*
G37*
G36*
G01*
X75125000Y-117050000D02*
X75125000Y-116850000D01*
G75*
G02*
X75225000Y-116750000I100000J0D01*
G01*
X76500000Y-116750000D01*
G75*
G02*
X76600000Y-116850000I0J-100000D01*
G01*
X76600000Y-117050000D01*
G75*
G02*
X76500000Y-117150000I-100000J0D01*
G01*
X75225000Y-117150000D01*
G75*
G02*
X75125000Y-117050000I0J100000D01*
G01*
G37*
G36*
G01*
X75125000Y-116400000D02*
X75125000Y-116200000D01*
G75*
G02*
X75225000Y-116100000I100000J0D01*
G01*
X76500000Y-116100000D01*
G75*
G02*
X76600000Y-116200000I0J-100000D01*
G01*
X76600000Y-116400000D01*
G75*
G02*
X76500000Y-116500000I-100000J0D01*
G01*
X75225000Y-116500000D01*
G75*
G02*
X75125000Y-116400000I0J100000D01*
G01*
G37*
G36*
G01*
X75125000Y-115750000D02*
X75125000Y-115550000D01*
G75*
G02*
X75225000Y-115450000I100000J0D01*
G01*
X76500000Y-115450000D01*
G75*
G02*
X76600000Y-115550000I0J-100000D01*
G01*
X76600000Y-115750000D01*
G75*
G02*
X76500000Y-115850000I-100000J0D01*
G01*
X75225000Y-115850000D01*
G75*
G02*
X75125000Y-115750000I0J100000D01*
G01*
G37*
G36*
G01*
X75125000Y-115100000D02*
X75125000Y-114900000D01*
G75*
G02*
X75225000Y-114800000I100000J0D01*
G01*
X76500000Y-114800000D01*
G75*
G02*
X76600000Y-114900000I0J-100000D01*
G01*
X76600000Y-115100000D01*
G75*
G02*
X76500000Y-115200000I-100000J0D01*
G01*
X75225000Y-115200000D01*
G75*
G02*
X75125000Y-115100000I0J100000D01*
G01*
G37*
G36*
G01*
X75125000Y-114450000D02*
X75125000Y-114250000D01*
G75*
G02*
X75225000Y-114150000I100000J0D01*
G01*
X76500000Y-114150000D01*
G75*
G02*
X76600000Y-114250000I0J-100000D01*
G01*
X76600000Y-114450000D01*
G75*
G02*
X76500000Y-114550000I-100000J0D01*
G01*
X75225000Y-114550000D01*
G75*
G02*
X75125000Y-114450000I0J100000D01*
G01*
G37*
G36*
G01*
X75125000Y-113800000D02*
X75125000Y-113600000D01*
G75*
G02*
X75225000Y-113500000I100000J0D01*
G01*
X76500000Y-113500000D01*
G75*
G02*
X76600000Y-113600000I0J-100000D01*
G01*
X76600000Y-113800000D01*
G75*
G02*
X76500000Y-113900000I-100000J0D01*
G01*
X75225000Y-113900000D01*
G75*
G02*
X75125000Y-113800000I0J100000D01*
G01*
G37*
G36*
G01*
X75125000Y-113150000D02*
X75125000Y-112950000D01*
G75*
G02*
X75225000Y-112850000I100000J0D01*
G01*
X76500000Y-112850000D01*
G75*
G02*
X76600000Y-112950000I0J-100000D01*
G01*
X76600000Y-113150000D01*
G75*
G02*
X76500000Y-113250000I-100000J0D01*
G01*
X75225000Y-113250000D01*
G75*
G02*
X75125000Y-113150000I0J100000D01*
G01*
G37*
%TD*%
D10*
%TO.C,J11*%
X54500000Y-130000000D03*
X59800000Y-130000000D03*
%TD*%
%TO.C,J10*%
X54500000Y-124000000D03*
X59800000Y-124000000D03*
%TD*%
D11*
%TO.C,J7*%
X66200000Y-113750000D03*
D12*
X66200000Y-116290000D03*
%TD*%
%TO.C,R25*%
G36*
G01*
X95230000Y-129924998D02*
X95230000Y-130825002D01*
G75*
G02*
X94980002Y-131075000I-249998J0D01*
G01*
X94454998Y-131075000D01*
G75*
G02*
X94205000Y-130825002I0J249998D01*
G01*
X94205000Y-129924998D01*
G75*
G02*
X94454998Y-129675000I249998J0D01*
G01*
X94980002Y-129675000D01*
G75*
G02*
X95230000Y-129924998I0J-249998D01*
G01*
G37*
G36*
G01*
X97055000Y-129924998D02*
X97055000Y-130825002D01*
G75*
G02*
X96805002Y-131075000I-249998J0D01*
G01*
X96279998Y-131075000D01*
G75*
G02*
X96030000Y-130825002I0J249998D01*
G01*
X96030000Y-129924998D01*
G75*
G02*
X96279998Y-129675000I249998J0D01*
G01*
X96805002Y-129675000D01*
G75*
G02*
X97055000Y-129924998I0J-249998D01*
G01*
G37*
%TD*%
D13*
%TO.C,D2*%
X97350000Y-128321250D03*
X95250000Y-128321250D03*
%TD*%
%TO.C,R13*%
G36*
G01*
X97400002Y-125137500D02*
X96499998Y-125137500D01*
G75*
G02*
X96250000Y-124887502I0J249998D01*
G01*
X96250000Y-124362498D01*
G75*
G02*
X96499998Y-124112500I249998J0D01*
G01*
X97400002Y-124112500D01*
G75*
G02*
X97650000Y-124362498I0J-249998D01*
G01*
X97650000Y-124887502D01*
G75*
G02*
X97400002Y-125137500I-249998J0D01*
G01*
G37*
G36*
G01*
X97400002Y-126962500D02*
X96499998Y-126962500D01*
G75*
G02*
X96250000Y-126712502I0J249998D01*
G01*
X96250000Y-126187498D01*
G75*
G02*
X96499998Y-125937500I249998J0D01*
G01*
X97400002Y-125937500D01*
G75*
G02*
X97650000Y-126187498I0J-249998D01*
G01*
X97650000Y-126712502D01*
G75*
G02*
X97400002Y-126962500I-249998J0D01*
G01*
G37*
%TD*%
D14*
%TO.C,D1*%
X94900000Y-126587500D03*
X94900000Y-124487500D03*
%TD*%
%TO.C,R22*%
G36*
G01*
X87300000Y-128524998D02*
X87300000Y-129425002D01*
G75*
G02*
X87050002Y-129675000I-249998J0D01*
G01*
X86524998Y-129675000D01*
G75*
G02*
X86275000Y-129425002I0J249998D01*
G01*
X86275000Y-128524998D01*
G75*
G02*
X86524998Y-128275000I249998J0D01*
G01*
X87050002Y-128275000D01*
G75*
G02*
X87300000Y-128524998I0J-249998D01*
G01*
G37*
G36*
G01*
X89125000Y-128524998D02*
X89125000Y-129425002D01*
G75*
G02*
X88875002Y-129675000I-249998J0D01*
G01*
X88349998Y-129675000D01*
G75*
G02*
X88100000Y-129425002I0J249998D01*
G01*
X88100000Y-128524998D01*
G75*
G02*
X88349998Y-128275000I249998J0D01*
G01*
X88875002Y-128275000D01*
G75*
G02*
X89125000Y-128524998I0J-249998D01*
G01*
G37*
%TD*%
D15*
%TO.C,U5*%
X92150000Y-130850000D03*
X91500000Y-130850000D03*
X90850000Y-130850000D03*
X90200000Y-130850000D03*
X90200000Y-125050000D03*
X90850000Y-125050000D03*
X91500000Y-125050000D03*
X92150000Y-125050000D03*
%TD*%
D16*
%TO.C,U4*%
X78990000Y-128700000D03*
X78990000Y-128050000D03*
X78990000Y-127400000D03*
X78990000Y-126750000D03*
X84790000Y-126750000D03*
X84790000Y-127400000D03*
X84790000Y-128050000D03*
X84790000Y-128700000D03*
%TD*%
%TO.C,R19*%
G36*
G01*
X82290000Y-125300002D02*
X82290000Y-124399998D01*
G75*
G02*
X82539998Y-124150000I249998J0D01*
G01*
X83065002Y-124150000D01*
G75*
G02*
X83315000Y-124399998I0J-249998D01*
G01*
X83315000Y-125300002D01*
G75*
G02*
X83065002Y-125550000I-249998J0D01*
G01*
X82539998Y-125550000D01*
G75*
G02*
X82290000Y-125300002I0J249998D01*
G01*
G37*
G36*
G01*
X80465000Y-125300002D02*
X80465000Y-124399998D01*
G75*
G02*
X80714998Y-124150000I249998J0D01*
G01*
X81240002Y-124150000D01*
G75*
G02*
X81490000Y-124399998I0J-249998D01*
G01*
X81490000Y-125300002D01*
G75*
G02*
X81240002Y-125550000I-249998J0D01*
G01*
X80714998Y-125550000D01*
G75*
G02*
X80465000Y-125300002I0J249998D01*
G01*
G37*
%TD*%
D15*
%TO.C,U7*%
X92150000Y-104260000D03*
X91500000Y-104260000D03*
X90850000Y-104260000D03*
X90200000Y-104260000D03*
X90200000Y-98460000D03*
X90850000Y-98460000D03*
X91500000Y-98460000D03*
X92150000Y-98460000D03*
%TD*%
D16*
%TO.C,U6*%
X78990000Y-102110000D03*
X78990000Y-101460000D03*
X78990000Y-100810000D03*
X78990000Y-100160000D03*
X84790000Y-100160000D03*
X84790000Y-100810000D03*
X84790000Y-101460000D03*
X84790000Y-102110000D03*
%TD*%
%TO.C,R38*%
G36*
G01*
X95230000Y-103334998D02*
X95230000Y-104235002D01*
G75*
G02*
X94980002Y-104485000I-249998J0D01*
G01*
X94454998Y-104485000D01*
G75*
G02*
X94205000Y-104235002I0J249998D01*
G01*
X94205000Y-103334998D01*
G75*
G02*
X94454998Y-103085000I249998J0D01*
G01*
X94980002Y-103085000D01*
G75*
G02*
X95230000Y-103334998I0J-249998D01*
G01*
G37*
G36*
G01*
X97055000Y-103334998D02*
X97055000Y-104235002D01*
G75*
G02*
X96805002Y-104485000I-249998J0D01*
G01*
X96279998Y-104485000D01*
G75*
G02*
X96030000Y-104235002I0J249998D01*
G01*
X96030000Y-103334998D01*
G75*
G02*
X96279998Y-103085000I249998J0D01*
G01*
X96805002Y-103085000D01*
G75*
G02*
X97055000Y-103334998I0J-249998D01*
G01*
G37*
%TD*%
%TO.C,R36*%
G36*
G01*
X80424998Y-104960000D02*
X81325002Y-104960000D01*
G75*
G02*
X81575000Y-105209998I0J-249998D01*
G01*
X81575000Y-105735002D01*
G75*
G02*
X81325002Y-105985000I-249998J0D01*
G01*
X80424998Y-105985000D01*
G75*
G02*
X80175000Y-105735002I0J249998D01*
G01*
X80175000Y-105209998D01*
G75*
G02*
X80424998Y-104960000I249998J0D01*
G01*
G37*
G36*
G01*
X80424998Y-103135000D02*
X81325002Y-103135000D01*
G75*
G02*
X81575000Y-103384998I0J-249998D01*
G01*
X81575000Y-103910002D01*
G75*
G02*
X81325002Y-104160000I-249998J0D01*
G01*
X80424998Y-104160000D01*
G75*
G02*
X80175000Y-103910002I0J249998D01*
G01*
X80175000Y-103384998D01*
G75*
G02*
X80424998Y-103135000I249998J0D01*
G01*
G37*
%TD*%
%TO.C,R35*%
G36*
G01*
X87300000Y-101934998D02*
X87300000Y-102835002D01*
G75*
G02*
X87050002Y-103085000I-249998J0D01*
G01*
X86524998Y-103085000D01*
G75*
G02*
X86275000Y-102835002I0J249998D01*
G01*
X86275000Y-101934998D01*
G75*
G02*
X86524998Y-101685000I249998J0D01*
G01*
X87050002Y-101685000D01*
G75*
G02*
X87300000Y-101934998I0J-249998D01*
G01*
G37*
G36*
G01*
X89125000Y-101934998D02*
X89125000Y-102835002D01*
G75*
G02*
X88875002Y-103085000I-249998J0D01*
G01*
X88349998Y-103085000D01*
G75*
G02*
X88100000Y-102835002I0J249998D01*
G01*
X88100000Y-101934998D01*
G75*
G02*
X88349998Y-101685000I249998J0D01*
G01*
X88875002Y-101685000D01*
G75*
G02*
X89125000Y-101934998I0J-249998D01*
G01*
G37*
%TD*%
%TO.C,R34*%
G36*
G01*
X82424998Y-104960000D02*
X83325002Y-104960000D01*
G75*
G02*
X83575000Y-105209998I0J-249998D01*
G01*
X83575000Y-105735002D01*
G75*
G02*
X83325002Y-105985000I-249998J0D01*
G01*
X82424998Y-105985000D01*
G75*
G02*
X82175000Y-105735002I0J249998D01*
G01*
X82175000Y-105209998D01*
G75*
G02*
X82424998Y-104960000I249998J0D01*
G01*
G37*
G36*
G01*
X82424998Y-103135000D02*
X83325002Y-103135000D01*
G75*
G02*
X83575000Y-103384998I0J-249998D01*
G01*
X83575000Y-103910002D01*
G75*
G02*
X83325002Y-104160000I-249998J0D01*
G01*
X82424998Y-104160000D01*
G75*
G02*
X82175000Y-103910002I0J249998D01*
G01*
X82175000Y-103384998D01*
G75*
G02*
X82424998Y-103135000I249998J0D01*
G01*
G37*
%TD*%
%TO.C,R33*%
G36*
G01*
X73765002Y-98560000D02*
X72864998Y-98560000D01*
G75*
G02*
X72615000Y-98310002I0J249998D01*
G01*
X72615000Y-97784998D01*
G75*
G02*
X72864998Y-97535000I249998J0D01*
G01*
X73765002Y-97535000D01*
G75*
G02*
X74015000Y-97784998I0J-249998D01*
G01*
X74015000Y-98310002D01*
G75*
G02*
X73765002Y-98560000I-249998J0D01*
G01*
G37*
G36*
G01*
X73765002Y-100385000D02*
X72864998Y-100385000D01*
G75*
G02*
X72615000Y-100135002I0J249998D01*
G01*
X72615000Y-99609998D01*
G75*
G02*
X72864998Y-99360000I249998J0D01*
G01*
X73765002Y-99360000D01*
G75*
G02*
X74015000Y-99609998I0J-249998D01*
G01*
X74015000Y-100135002D01*
G75*
G02*
X73765002Y-100385000I-249998J0D01*
G01*
G37*
%TD*%
%TO.C,R32*%
G36*
G01*
X82290000Y-98710002D02*
X82290000Y-97809998D01*
G75*
G02*
X82539998Y-97560000I249998J0D01*
G01*
X83065002Y-97560000D01*
G75*
G02*
X83315000Y-97809998I0J-249998D01*
G01*
X83315000Y-98710002D01*
G75*
G02*
X83065002Y-98960000I-249998J0D01*
G01*
X82539998Y-98960000D01*
G75*
G02*
X82290000Y-98710002I0J249998D01*
G01*
G37*
G36*
G01*
X80465000Y-98710002D02*
X80465000Y-97809998D01*
G75*
G02*
X80714998Y-97560000I249998J0D01*
G01*
X81240002Y-97560000D01*
G75*
G02*
X81490000Y-97809998I0J-249998D01*
G01*
X81490000Y-98710002D01*
G75*
G02*
X81240002Y-98960000I-249998J0D01*
G01*
X80714998Y-98960000D01*
G75*
G02*
X80465000Y-98710002I0J249998D01*
G01*
G37*
%TD*%
%TO.C,R31*%
G36*
G01*
X88100000Y-100785002D02*
X88100000Y-99884998D01*
G75*
G02*
X88349998Y-99635000I249998J0D01*
G01*
X88875002Y-99635000D01*
G75*
G02*
X89125000Y-99884998I0J-249998D01*
G01*
X89125000Y-100785002D01*
G75*
G02*
X88875002Y-101035000I-249998J0D01*
G01*
X88349998Y-101035000D01*
G75*
G02*
X88100000Y-100785002I0J249998D01*
G01*
G37*
G36*
G01*
X86275000Y-100785002D02*
X86275000Y-99884998D01*
G75*
G02*
X86524998Y-99635000I249998J0D01*
G01*
X87050002Y-99635000D01*
G75*
G02*
X87300000Y-99884998I0J-249998D01*
G01*
X87300000Y-100785002D01*
G75*
G02*
X87050002Y-101035000I-249998J0D01*
G01*
X86524998Y-101035000D01*
G75*
G02*
X86275000Y-100785002I0J249998D01*
G01*
G37*
%TD*%
%TO.C,R30*%
G36*
G01*
X77255002Y-101325000D02*
X76354998Y-101325000D01*
G75*
G02*
X76105000Y-101075002I0J249998D01*
G01*
X76105000Y-100549998D01*
G75*
G02*
X76354998Y-100300000I249998J0D01*
G01*
X77255002Y-100300000D01*
G75*
G02*
X77505000Y-100549998I0J-249998D01*
G01*
X77505000Y-101075002D01*
G75*
G02*
X77255002Y-101325000I-249998J0D01*
G01*
G37*
G36*
G01*
X77255002Y-103150000D02*
X76354998Y-103150000D01*
G75*
G02*
X76105000Y-102900002I0J249998D01*
G01*
X76105000Y-102374998D01*
G75*
G02*
X76354998Y-102125000I249998J0D01*
G01*
X77255002Y-102125000D01*
G75*
G02*
X77505000Y-102374998I0J-249998D01*
G01*
X77505000Y-102900002D01*
G75*
G02*
X77255002Y-103150000I-249998J0D01*
G01*
G37*
%TD*%
%TO.C,R29*%
G36*
G01*
X69374998Y-102125000D02*
X70275002Y-102125000D01*
G75*
G02*
X70525000Y-102374998I0J-249998D01*
G01*
X70525000Y-102900002D01*
G75*
G02*
X70275002Y-103150000I-249998J0D01*
G01*
X69374998Y-103150000D01*
G75*
G02*
X69125000Y-102900002I0J249998D01*
G01*
X69125000Y-102374998D01*
G75*
G02*
X69374998Y-102125000I249998J0D01*
G01*
G37*
G36*
G01*
X69374998Y-100300000D02*
X70275002Y-100300000D01*
G75*
G02*
X70525000Y-100549998I0J-249998D01*
G01*
X70525000Y-101075002D01*
G75*
G02*
X70275002Y-101325000I-249998J0D01*
G01*
X69374998Y-101325000D01*
G75*
G02*
X69125000Y-101075002I0J249998D01*
G01*
X69125000Y-100549998D01*
G75*
G02*
X69374998Y-100300000I249998J0D01*
G01*
G37*
%TD*%
%TO.C,R28*%
G36*
G01*
X76475000Y-104910002D02*
X76475000Y-104009998D01*
G75*
G02*
X76724998Y-103760000I249998J0D01*
G01*
X77250002Y-103760000D01*
G75*
G02*
X77500000Y-104009998I0J-249998D01*
G01*
X77500000Y-104910002D01*
G75*
G02*
X77250002Y-105160000I-249998J0D01*
G01*
X76724998Y-105160000D01*
G75*
G02*
X76475000Y-104910002I0J249998D01*
G01*
G37*
G36*
G01*
X74650000Y-104910002D02*
X74650000Y-104009998D01*
G75*
G02*
X74899998Y-103760000I249998J0D01*
G01*
X75425002Y-103760000D01*
G75*
G02*
X75675000Y-104009998I0J-249998D01*
G01*
X75675000Y-104910002D01*
G75*
G02*
X75425002Y-105160000I-249998J0D01*
G01*
X74899998Y-105160000D01*
G75*
G02*
X74650000Y-104910002I0J249998D01*
G01*
G37*
%TD*%
%TO.C,R27*%
G36*
G01*
X70955000Y-104910002D02*
X70955000Y-104009998D01*
G75*
G02*
X71204998Y-103760000I249998J0D01*
G01*
X71730002Y-103760000D01*
G75*
G02*
X71980000Y-104009998I0J-249998D01*
G01*
X71980000Y-104910002D01*
G75*
G02*
X71730002Y-105160000I-249998J0D01*
G01*
X71204998Y-105160000D01*
G75*
G02*
X70955000Y-104910002I0J249998D01*
G01*
G37*
G36*
G01*
X69130000Y-104910002D02*
X69130000Y-104009998D01*
G75*
G02*
X69379998Y-103760000I249998J0D01*
G01*
X69905002Y-103760000D01*
G75*
G02*
X70155000Y-104009998I0J-249998D01*
G01*
X70155000Y-104910002D01*
G75*
G02*
X69905002Y-105160000I-249998J0D01*
G01*
X69379998Y-105160000D01*
G75*
G02*
X69130000Y-104910002I0J249998D01*
G01*
G37*
%TD*%
%TO.C,R26*%
G36*
G01*
X97400002Y-98547500D02*
X96499998Y-98547500D01*
G75*
G02*
X96250000Y-98297502I0J249998D01*
G01*
X96250000Y-97772498D01*
G75*
G02*
X96499998Y-97522500I249998J0D01*
G01*
X97400002Y-97522500D01*
G75*
G02*
X97650000Y-97772498I0J-249998D01*
G01*
X97650000Y-98297502D01*
G75*
G02*
X97400002Y-98547500I-249998J0D01*
G01*
G37*
G36*
G01*
X97400002Y-100372500D02*
X96499998Y-100372500D01*
G75*
G02*
X96250000Y-100122502I0J249998D01*
G01*
X96250000Y-99597498D01*
G75*
G02*
X96499998Y-99347500I249998J0D01*
G01*
X97400002Y-99347500D01*
G75*
G02*
X97650000Y-99597498I0J-249998D01*
G01*
X97650000Y-100122502D01*
G75*
G02*
X97400002Y-100372500I-249998J0D01*
G01*
G37*
%TD*%
D13*
%TO.C,D4*%
X97350000Y-101731250D03*
X95250000Y-101731250D03*
%TD*%
D14*
%TO.C,D3*%
X94900000Y-99997500D03*
X94900000Y-97897500D03*
%TD*%
%TO.C,C22*%
G36*
G01*
X75605000Y-98485000D02*
X75605000Y-99435000D01*
G75*
G02*
X75355000Y-99685000I-250000J0D01*
G01*
X74855000Y-99685000D01*
G75*
G02*
X74605000Y-99435000I0J250000D01*
G01*
X74605000Y-98485000D01*
G75*
G02*
X74855000Y-98235000I250000J0D01*
G01*
X75355000Y-98235000D01*
G75*
G02*
X75605000Y-98485000I0J-250000D01*
G01*
G37*
G36*
G01*
X77505000Y-98485000D02*
X77505000Y-99435000D01*
G75*
G02*
X77255000Y-99685000I-250000J0D01*
G01*
X76755000Y-99685000D01*
G75*
G02*
X76505000Y-99435000I0J250000D01*
G01*
X76505000Y-98485000D01*
G75*
G02*
X76755000Y-98235000I250000J0D01*
G01*
X77255000Y-98235000D01*
G75*
G02*
X77505000Y-98485000I0J-250000D01*
G01*
G37*
%TD*%
%TO.C,C21*%
G36*
G01*
X70125000Y-98485000D02*
X70125000Y-99435000D01*
G75*
G02*
X69875000Y-99685000I-250000J0D01*
G01*
X69375000Y-99685000D01*
G75*
G02*
X69125000Y-99435000I0J250000D01*
G01*
X69125000Y-98485000D01*
G75*
G02*
X69375000Y-98235000I250000J0D01*
G01*
X69875000Y-98235000D01*
G75*
G02*
X70125000Y-98485000I0J-250000D01*
G01*
G37*
G36*
G01*
X72025000Y-98485000D02*
X72025000Y-99435000D01*
G75*
G02*
X71775000Y-99685000I-250000J0D01*
G01*
X71275000Y-99685000D01*
G75*
G02*
X71025000Y-99435000I0J250000D01*
G01*
X71025000Y-98485000D01*
G75*
G02*
X71275000Y-98235000I250000J0D01*
G01*
X71775000Y-98235000D01*
G75*
G02*
X72025000Y-98485000I0J-250000D01*
G01*
G37*
%TD*%
%TO.C,C20*%
G36*
G01*
X72840000Y-104910000D02*
X73790000Y-104910000D01*
G75*
G02*
X74040000Y-105160000I0J-250000D01*
G01*
X74040000Y-105660000D01*
G75*
G02*
X73790000Y-105910000I-250000J0D01*
G01*
X72840000Y-105910000D01*
G75*
G02*
X72590000Y-105660000I0J250000D01*
G01*
X72590000Y-105160000D01*
G75*
G02*
X72840000Y-104910000I250000J0D01*
G01*
G37*
G36*
G01*
X72840000Y-103010000D02*
X73790000Y-103010000D01*
G75*
G02*
X74040000Y-103260000I0J-250000D01*
G01*
X74040000Y-103760000D01*
G75*
G02*
X73790000Y-104010000I-250000J0D01*
G01*
X72840000Y-104010000D01*
G75*
G02*
X72590000Y-103760000I0J250000D01*
G01*
X72590000Y-103260000D01*
G75*
G02*
X72840000Y-103010000I250000J0D01*
G01*
G37*
%TD*%
%TO.C,R17*%
G36*
G01*
X77255002Y-127915000D02*
X76354998Y-127915000D01*
G75*
G02*
X76105000Y-127665002I0J249998D01*
G01*
X76105000Y-127139998D01*
G75*
G02*
X76354998Y-126890000I249998J0D01*
G01*
X77255002Y-126890000D01*
G75*
G02*
X77505000Y-127139998I0J-249998D01*
G01*
X77505000Y-127665002D01*
G75*
G02*
X77255002Y-127915000I-249998J0D01*
G01*
G37*
G36*
G01*
X77255002Y-129740000D02*
X76354998Y-129740000D01*
G75*
G02*
X76105000Y-129490002I0J249998D01*
G01*
X76105000Y-128964998D01*
G75*
G02*
X76354998Y-128715000I249998J0D01*
G01*
X77255002Y-128715000D01*
G75*
G02*
X77505000Y-128964998I0J-249998D01*
G01*
X77505000Y-129490002D01*
G75*
G02*
X77255002Y-129740000I-249998J0D01*
G01*
G37*
%TD*%
%TO.C,R23*%
G36*
G01*
X80424998Y-131550000D02*
X81325002Y-131550000D01*
G75*
G02*
X81575000Y-131799998I0J-249998D01*
G01*
X81575000Y-132325002D01*
G75*
G02*
X81325002Y-132575000I-249998J0D01*
G01*
X80424998Y-132575000D01*
G75*
G02*
X80175000Y-132325002I0J249998D01*
G01*
X80175000Y-131799998D01*
G75*
G02*
X80424998Y-131550000I249998J0D01*
G01*
G37*
G36*
G01*
X80424998Y-129725000D02*
X81325002Y-129725000D01*
G75*
G02*
X81575000Y-129974998I0J-249998D01*
G01*
X81575000Y-130500002D01*
G75*
G02*
X81325002Y-130750000I-249998J0D01*
G01*
X80424998Y-130750000D01*
G75*
G02*
X80175000Y-130500002I0J249998D01*
G01*
X80175000Y-129974998D01*
G75*
G02*
X80424998Y-129725000I249998J0D01*
G01*
G37*
%TD*%
%TO.C,R21*%
G36*
G01*
X82424998Y-131550000D02*
X83325002Y-131550000D01*
G75*
G02*
X83575000Y-131799998I0J-249998D01*
G01*
X83575000Y-132325002D01*
G75*
G02*
X83325002Y-132575000I-249998J0D01*
G01*
X82424998Y-132575000D01*
G75*
G02*
X82175000Y-132325002I0J249998D01*
G01*
X82175000Y-131799998D01*
G75*
G02*
X82424998Y-131550000I249998J0D01*
G01*
G37*
G36*
G01*
X82424998Y-129725000D02*
X83325002Y-129725000D01*
G75*
G02*
X83575000Y-129974998I0J-249998D01*
G01*
X83575000Y-130500002D01*
G75*
G02*
X83325002Y-130750000I-249998J0D01*
G01*
X82424998Y-130750000D01*
G75*
G02*
X82175000Y-130500002I0J249998D01*
G01*
X82175000Y-129974998D01*
G75*
G02*
X82424998Y-129725000I249998J0D01*
G01*
G37*
%TD*%
%TO.C,R20*%
G36*
G01*
X73765002Y-125150000D02*
X72864998Y-125150000D01*
G75*
G02*
X72615000Y-124900002I0J249998D01*
G01*
X72615000Y-124374998D01*
G75*
G02*
X72864998Y-124125000I249998J0D01*
G01*
X73765002Y-124125000D01*
G75*
G02*
X74015000Y-124374998I0J-249998D01*
G01*
X74015000Y-124900002D01*
G75*
G02*
X73765002Y-125150000I-249998J0D01*
G01*
G37*
G36*
G01*
X73765002Y-126975000D02*
X72864998Y-126975000D01*
G75*
G02*
X72615000Y-126725002I0J249998D01*
G01*
X72615000Y-126199998D01*
G75*
G02*
X72864998Y-125950000I249998J0D01*
G01*
X73765002Y-125950000D01*
G75*
G02*
X74015000Y-126199998I0J-249998D01*
G01*
X74015000Y-126725002D01*
G75*
G02*
X73765002Y-126975000I-249998J0D01*
G01*
G37*
%TD*%
%TO.C,R18*%
G36*
G01*
X88100000Y-127375002D02*
X88100000Y-126474998D01*
G75*
G02*
X88349998Y-126225000I249998J0D01*
G01*
X88875002Y-126225000D01*
G75*
G02*
X89125000Y-126474998I0J-249998D01*
G01*
X89125000Y-127375002D01*
G75*
G02*
X88875002Y-127625000I-249998J0D01*
G01*
X88349998Y-127625000D01*
G75*
G02*
X88100000Y-127375002I0J249998D01*
G01*
G37*
G36*
G01*
X86275000Y-127375002D02*
X86275000Y-126474998D01*
G75*
G02*
X86524998Y-126225000I249998J0D01*
G01*
X87050002Y-126225000D01*
G75*
G02*
X87300000Y-126474998I0J-249998D01*
G01*
X87300000Y-127375002D01*
G75*
G02*
X87050002Y-127625000I-249998J0D01*
G01*
X86524998Y-127625000D01*
G75*
G02*
X86275000Y-127375002I0J249998D01*
G01*
G37*
%TD*%
%TO.C,R16*%
G36*
G01*
X69374998Y-128715000D02*
X70275002Y-128715000D01*
G75*
G02*
X70525000Y-128964998I0J-249998D01*
G01*
X70525000Y-129490002D01*
G75*
G02*
X70275002Y-129740000I-249998J0D01*
G01*
X69374998Y-129740000D01*
G75*
G02*
X69125000Y-129490002I0J249998D01*
G01*
X69125000Y-128964998D01*
G75*
G02*
X69374998Y-128715000I249998J0D01*
G01*
G37*
G36*
G01*
X69374998Y-126890000D02*
X70275002Y-126890000D01*
G75*
G02*
X70525000Y-127139998I0J-249998D01*
G01*
X70525000Y-127665002D01*
G75*
G02*
X70275002Y-127915000I-249998J0D01*
G01*
X69374998Y-127915000D01*
G75*
G02*
X69125000Y-127665002I0J249998D01*
G01*
X69125000Y-127139998D01*
G75*
G02*
X69374998Y-126890000I249998J0D01*
G01*
G37*
%TD*%
%TO.C,R15*%
G36*
G01*
X76475000Y-131500002D02*
X76475000Y-130599998D01*
G75*
G02*
X76724998Y-130350000I249998J0D01*
G01*
X77250002Y-130350000D01*
G75*
G02*
X77500000Y-130599998I0J-249998D01*
G01*
X77500000Y-131500002D01*
G75*
G02*
X77250002Y-131750000I-249998J0D01*
G01*
X76724998Y-131750000D01*
G75*
G02*
X76475000Y-131500002I0J249998D01*
G01*
G37*
G36*
G01*
X74650000Y-131500002D02*
X74650000Y-130599998D01*
G75*
G02*
X74899998Y-130350000I249998J0D01*
G01*
X75425002Y-130350000D01*
G75*
G02*
X75675000Y-130599998I0J-249998D01*
G01*
X75675000Y-131500002D01*
G75*
G02*
X75425002Y-131750000I-249998J0D01*
G01*
X74899998Y-131750000D01*
G75*
G02*
X74650000Y-131500002I0J249998D01*
G01*
G37*
%TD*%
%TO.C,R14*%
G36*
G01*
X70955000Y-131500002D02*
X70955000Y-130599998D01*
G75*
G02*
X71204998Y-130350000I249998J0D01*
G01*
X71730002Y-130350000D01*
G75*
G02*
X71980000Y-130599998I0J-249998D01*
G01*
X71980000Y-131500002D01*
G75*
G02*
X71730002Y-131750000I-249998J0D01*
G01*
X71204998Y-131750000D01*
G75*
G02*
X70955000Y-131500002I0J249998D01*
G01*
G37*
G36*
G01*
X69130000Y-131500002D02*
X69130000Y-130599998D01*
G75*
G02*
X69379998Y-130350000I249998J0D01*
G01*
X69905002Y-130350000D01*
G75*
G02*
X70155000Y-130599998I0J-249998D01*
G01*
X70155000Y-131500002D01*
G75*
G02*
X69905002Y-131750000I-249998J0D01*
G01*
X69379998Y-131750000D01*
G75*
G02*
X69130000Y-131500002I0J249998D01*
G01*
G37*
%TD*%
%TO.C,C15*%
G36*
G01*
X75605000Y-125075000D02*
X75605000Y-126025000D01*
G75*
G02*
X75355000Y-126275000I-250000J0D01*
G01*
X74855000Y-126275000D01*
G75*
G02*
X74605000Y-126025000I0J250000D01*
G01*
X74605000Y-125075000D01*
G75*
G02*
X74855000Y-124825000I250000J0D01*
G01*
X75355000Y-124825000D01*
G75*
G02*
X75605000Y-125075000I0J-250000D01*
G01*
G37*
G36*
G01*
X77505000Y-125075000D02*
X77505000Y-126025000D01*
G75*
G02*
X77255000Y-126275000I-250000J0D01*
G01*
X76755000Y-126275000D01*
G75*
G02*
X76505000Y-126025000I0J250000D01*
G01*
X76505000Y-125075000D01*
G75*
G02*
X76755000Y-124825000I250000J0D01*
G01*
X77255000Y-124825000D01*
G75*
G02*
X77505000Y-125075000I0J-250000D01*
G01*
G37*
%TD*%
%TO.C,C14*%
G36*
G01*
X70125000Y-125075000D02*
X70125000Y-126025000D01*
G75*
G02*
X69875000Y-126275000I-250000J0D01*
G01*
X69375000Y-126275000D01*
G75*
G02*
X69125000Y-126025000I0J250000D01*
G01*
X69125000Y-125075000D01*
G75*
G02*
X69375000Y-124825000I250000J0D01*
G01*
X69875000Y-124825000D01*
G75*
G02*
X70125000Y-125075000I0J-250000D01*
G01*
G37*
G36*
G01*
X72025000Y-125075000D02*
X72025000Y-126025000D01*
G75*
G02*
X71775000Y-126275000I-250000J0D01*
G01*
X71275000Y-126275000D01*
G75*
G02*
X71025000Y-126025000I0J250000D01*
G01*
X71025000Y-125075000D01*
G75*
G02*
X71275000Y-124825000I250000J0D01*
G01*
X71775000Y-124825000D01*
G75*
G02*
X72025000Y-125075000I0J-250000D01*
G01*
G37*
%TD*%
%TO.C,C13*%
G36*
G01*
X72840000Y-131500000D02*
X73790000Y-131500000D01*
G75*
G02*
X74040000Y-131750000I0J-250000D01*
G01*
X74040000Y-132250000D01*
G75*
G02*
X73790000Y-132500000I-250000J0D01*
G01*
X72840000Y-132500000D01*
G75*
G02*
X72590000Y-132250000I0J250000D01*
G01*
X72590000Y-131750000D01*
G75*
G02*
X72840000Y-131500000I250000J0D01*
G01*
G37*
G36*
G01*
X72840000Y-129600000D02*
X73790000Y-129600000D01*
G75*
G02*
X74040000Y-129850000I0J-250000D01*
G01*
X74040000Y-130350000D01*
G75*
G02*
X73790000Y-130600000I-250000J0D01*
G01*
X72840000Y-130600000D01*
G75*
G02*
X72590000Y-130350000I0J250000D01*
G01*
X72590000Y-129850000D01*
G75*
G02*
X72840000Y-129600000I250000J0D01*
G01*
G37*
%TD*%
%TO.C,C6*%
G36*
G01*
X76560000Y-109250000D02*
X76560000Y-110200000D01*
G75*
G02*
X76310000Y-110450000I-250000J0D01*
G01*
X75810000Y-110450000D01*
G75*
G02*
X75560000Y-110200000I0J250000D01*
G01*
X75560000Y-109250000D01*
G75*
G02*
X75810000Y-109000000I250000J0D01*
G01*
X76310000Y-109000000D01*
G75*
G02*
X76560000Y-109250000I0J-250000D01*
G01*
G37*
G36*
G01*
X78460000Y-109250000D02*
X78460000Y-110200000D01*
G75*
G02*
X78210000Y-110450000I-250000J0D01*
G01*
X77710000Y-110450000D01*
G75*
G02*
X77460000Y-110200000I0J250000D01*
G01*
X77460000Y-109250000D01*
G75*
G02*
X77710000Y-109000000I250000J0D01*
G01*
X78210000Y-109000000D01*
G75*
G02*
X78460000Y-109250000I0J-250000D01*
G01*
G37*
%TD*%
%TO.C,R8*%
G36*
G01*
X80110000Y-109274998D02*
X80110000Y-110175002D01*
G75*
G02*
X79860002Y-110425000I-249998J0D01*
G01*
X79334998Y-110425000D01*
G75*
G02*
X79085000Y-110175002I0J249998D01*
G01*
X79085000Y-109274998D01*
G75*
G02*
X79334998Y-109025000I249998J0D01*
G01*
X79860002Y-109025000D01*
G75*
G02*
X80110000Y-109274998I0J-249998D01*
G01*
G37*
G36*
G01*
X81935000Y-109274998D02*
X81935000Y-110175002D01*
G75*
G02*
X81685002Y-110425000I-249998J0D01*
G01*
X81159998Y-110425000D01*
G75*
G02*
X80910000Y-110175002I0J249998D01*
G01*
X80910000Y-109274998D01*
G75*
G02*
X81159998Y-109025000I249998J0D01*
G01*
X81685002Y-109025000D01*
G75*
G02*
X81935000Y-109274998I0J-249998D01*
G01*
G37*
%TD*%
%TO.C,R9*%
G36*
G01*
X80125000Y-119824998D02*
X80125000Y-120725002D01*
G75*
G02*
X79875002Y-120975000I-249998J0D01*
G01*
X79349998Y-120975000D01*
G75*
G02*
X79100000Y-120725002I0J249998D01*
G01*
X79100000Y-119824998D01*
G75*
G02*
X79349998Y-119575000I249998J0D01*
G01*
X79875002Y-119575000D01*
G75*
G02*
X80125000Y-119824998I0J-249998D01*
G01*
G37*
G36*
G01*
X81950000Y-119824998D02*
X81950000Y-120725002D01*
G75*
G02*
X81700002Y-120975000I-249998J0D01*
G01*
X81174998Y-120975000D01*
G75*
G02*
X80925000Y-120725002I0J249998D01*
G01*
X80925000Y-119824998D01*
G75*
G02*
X81174998Y-119575000I249998J0D01*
G01*
X81700002Y-119575000D01*
G75*
G02*
X81950000Y-119824998I0J-249998D01*
G01*
G37*
%TD*%
%TO.C,C7*%
G36*
G01*
X76575000Y-119800000D02*
X76575000Y-120750000D01*
G75*
G02*
X76325000Y-121000000I-250000J0D01*
G01*
X75825000Y-121000000D01*
G75*
G02*
X75575000Y-120750000I0J250000D01*
G01*
X75575000Y-119800000D01*
G75*
G02*
X75825000Y-119550000I250000J0D01*
G01*
X76325000Y-119550000D01*
G75*
G02*
X76575000Y-119800000I0J-250000D01*
G01*
G37*
G36*
G01*
X78475000Y-119800000D02*
X78475000Y-120750000D01*
G75*
G02*
X78225000Y-121000000I-250000J0D01*
G01*
X77725000Y-121000000D01*
G75*
G02*
X77475000Y-120750000I0J250000D01*
G01*
X77475000Y-119800000D01*
G75*
G02*
X77725000Y-119550000I250000J0D01*
G01*
X78225000Y-119550000D01*
G75*
G02*
X78475000Y-119800000I0J-250000D01*
G01*
G37*
%TD*%
%TO.C,R11*%
G36*
G01*
X73100000Y-118399998D02*
X73100000Y-119300002D01*
G75*
G02*
X72850002Y-119550000I-249998J0D01*
G01*
X72324998Y-119550000D01*
G75*
G02*
X72075000Y-119300002I0J249998D01*
G01*
X72075000Y-118399998D01*
G75*
G02*
X72324998Y-118150000I249998J0D01*
G01*
X72850002Y-118150000D01*
G75*
G02*
X73100000Y-118399998I0J-249998D01*
G01*
G37*
G36*
G01*
X74925000Y-118399998D02*
X74925000Y-119300002D01*
G75*
G02*
X74675002Y-119550000I-249998J0D01*
G01*
X74149998Y-119550000D01*
G75*
G02*
X73900000Y-119300002I0J249998D01*
G01*
X73900000Y-118399998D01*
G75*
G02*
X74149998Y-118150000I249998J0D01*
G01*
X74675002Y-118150000D01*
G75*
G02*
X74925000Y-118399998I0J-249998D01*
G01*
G37*
%TD*%
D15*
%TO.C,U2*%
X85830000Y-117875000D03*
X85180000Y-117875000D03*
X84530000Y-117875000D03*
X83880000Y-117875000D03*
X83880000Y-112075000D03*
X84530000Y-112075000D03*
X85180000Y-112075000D03*
X85830000Y-112075000D03*
%TD*%
%TO.C,U1*%
X92650000Y-117875000D03*
X92000000Y-117875000D03*
X91350000Y-117875000D03*
X90700000Y-117875000D03*
X90700000Y-112075000D03*
X91350000Y-112075000D03*
X92000000Y-112075000D03*
X92650000Y-112075000D03*
%TD*%
%TO.C,R12*%
G36*
G01*
X85250000Y-120350002D02*
X85250000Y-119449998D01*
G75*
G02*
X85499998Y-119200000I249998J0D01*
G01*
X86025002Y-119200000D01*
G75*
G02*
X86275000Y-119449998I0J-249998D01*
G01*
X86275000Y-120350002D01*
G75*
G02*
X86025002Y-120600000I-249998J0D01*
G01*
X85499998Y-120600000D01*
G75*
G02*
X85250000Y-120350002I0J249998D01*
G01*
G37*
G36*
G01*
X83425000Y-120350002D02*
X83425000Y-119449998D01*
G75*
G02*
X83674998Y-119200000I249998J0D01*
G01*
X84200002Y-119200000D01*
G75*
G02*
X84450000Y-119449998I0J-249998D01*
G01*
X84450000Y-120350002D01*
G75*
G02*
X84200002Y-120600000I-249998J0D01*
G01*
X83674998Y-120600000D01*
G75*
G02*
X83425000Y-120350002I0J249998D01*
G01*
G37*
%TD*%
%TO.C,R5*%
G36*
G01*
X85100000Y-109624998D02*
X85100000Y-110525002D01*
G75*
G02*
X84850002Y-110775000I-249998J0D01*
G01*
X84324998Y-110775000D01*
G75*
G02*
X84075000Y-110525002I0J249998D01*
G01*
X84075000Y-109624998D01*
G75*
G02*
X84324998Y-109375000I249998J0D01*
G01*
X84850002Y-109375000D01*
G75*
G02*
X85100000Y-109624998I0J-249998D01*
G01*
G37*
G36*
G01*
X86925000Y-109624998D02*
X86925000Y-110525002D01*
G75*
G02*
X86675002Y-110775000I-249998J0D01*
G01*
X86149998Y-110775000D01*
G75*
G02*
X85900000Y-110525002I0J249998D01*
G01*
X85900000Y-109624998D01*
G75*
G02*
X86149998Y-109375000I249998J0D01*
G01*
X86675002Y-109375000D01*
G75*
G02*
X86925000Y-109624998I0J-249998D01*
G01*
G37*
%TD*%
%TO.C,R4*%
G36*
G01*
X93100000Y-119374998D02*
X93100000Y-120275002D01*
G75*
G02*
X92850002Y-120525000I-249998J0D01*
G01*
X92324998Y-120525000D01*
G75*
G02*
X92075000Y-120275002I0J249998D01*
G01*
X92075000Y-119374998D01*
G75*
G02*
X92324998Y-119125000I249998J0D01*
G01*
X92850002Y-119125000D01*
G75*
G02*
X93100000Y-119374998I0J-249998D01*
G01*
G37*
G36*
G01*
X91275000Y-119374998D02*
X91275000Y-120275002D01*
G75*
G02*
X91025002Y-120525000I-249998J0D01*
G01*
X90499998Y-120525000D01*
G75*
G02*
X90250000Y-120275002I0J249998D01*
G01*
X90250000Y-119374998D01*
G75*
G02*
X90499998Y-119125000I249998J0D01*
G01*
X91025002Y-119125000D01*
G75*
G02*
X91275000Y-119374998I0J-249998D01*
G01*
G37*
%TD*%
%TO.C,R3*%
G36*
G01*
X92075000Y-122325002D02*
X92075000Y-121424998D01*
G75*
G02*
X92324998Y-121175000I249998J0D01*
G01*
X92850002Y-121175000D01*
G75*
G02*
X93100000Y-121424998I0J-249998D01*
G01*
X93100000Y-122325002D01*
G75*
G02*
X92850002Y-122575000I-249998J0D01*
G01*
X92324998Y-122575000D01*
G75*
G02*
X92075000Y-122325002I0J249998D01*
G01*
G37*
G36*
G01*
X90250000Y-122325002D02*
X90250000Y-121424998D01*
G75*
G02*
X90499998Y-121175000I249998J0D01*
G01*
X91025002Y-121175000D01*
G75*
G02*
X91275000Y-121424998I0J-249998D01*
G01*
X91275000Y-122325002D01*
G75*
G02*
X91025002Y-122575000I-249998J0D01*
G01*
X90499998Y-122575000D01*
G75*
G02*
X90250000Y-122325002I0J249998D01*
G01*
G37*
%TD*%
%TO.C,R2*%
G36*
G01*
X92725000Y-108525002D02*
X92725000Y-107624998D01*
G75*
G02*
X92974998Y-107375000I249998J0D01*
G01*
X93500002Y-107375000D01*
G75*
G02*
X93750000Y-107624998I0J-249998D01*
G01*
X93750000Y-108525002D01*
G75*
G02*
X93500002Y-108775000I-249998J0D01*
G01*
X92974998Y-108775000D01*
G75*
G02*
X92725000Y-108525002I0J249998D01*
G01*
G37*
G36*
G01*
X90900000Y-108525002D02*
X90900000Y-107624998D01*
G75*
G02*
X91149998Y-107375000I249998J0D01*
G01*
X91675002Y-107375000D01*
G75*
G02*
X91925000Y-107624998I0J-249998D01*
G01*
X91925000Y-108525002D01*
G75*
G02*
X91675002Y-108775000I-249998J0D01*
G01*
X91149998Y-108775000D01*
G75*
G02*
X90900000Y-108525002I0J249998D01*
G01*
G37*
%TD*%
%TO.C,R1*%
G36*
G01*
X91925000Y-109674998D02*
X91925000Y-110575002D01*
G75*
G02*
X91675002Y-110825000I-249998J0D01*
G01*
X91149998Y-110825000D01*
G75*
G02*
X90900000Y-110575002I0J249998D01*
G01*
X90900000Y-109674998D01*
G75*
G02*
X91149998Y-109425000I249998J0D01*
G01*
X91675002Y-109425000D01*
G75*
G02*
X91925000Y-109674998I0J-249998D01*
G01*
G37*
G36*
G01*
X93750000Y-109674998D02*
X93750000Y-110575002D01*
G75*
G02*
X93500002Y-110825000I-249998J0D01*
G01*
X92974998Y-110825000D01*
G75*
G02*
X92725000Y-110575002I0J249998D01*
G01*
X92725000Y-109674998D01*
G75*
G02*
X92974998Y-109425000I249998J0D01*
G01*
X93500002Y-109425000D01*
G75*
G02*
X93750000Y-109674998I0J-249998D01*
G01*
G37*
%TD*%
%TO.C,C8*%
G36*
G01*
X84400000Y-121500000D02*
X84400000Y-122450000D01*
G75*
G02*
X84150000Y-122700000I-250000J0D01*
G01*
X83650000Y-122700000D01*
G75*
G02*
X83400000Y-122450000I0J250000D01*
G01*
X83400000Y-121500000D01*
G75*
G02*
X83650000Y-121250000I250000J0D01*
G01*
X84150000Y-121250000D01*
G75*
G02*
X84400000Y-121500000I0J-250000D01*
G01*
G37*
G36*
G01*
X86300000Y-121500000D02*
X86300000Y-122450000D01*
G75*
G02*
X86050000Y-122700000I-250000J0D01*
G01*
X85550000Y-122700000D01*
G75*
G02*
X85300000Y-122450000I0J250000D01*
G01*
X85300000Y-121500000D01*
G75*
G02*
X85550000Y-121250000I250000J0D01*
G01*
X86050000Y-121250000D01*
G75*
G02*
X86300000Y-121500000I0J-250000D01*
G01*
G37*
%TD*%
%TO.C,C5*%
G36*
G01*
X85050000Y-107550000D02*
X85050000Y-108500000D01*
G75*
G02*
X84800000Y-108750000I-250000J0D01*
G01*
X84300000Y-108750000D01*
G75*
G02*
X84050000Y-108500000I0J250000D01*
G01*
X84050000Y-107550000D01*
G75*
G02*
X84300000Y-107300000I250000J0D01*
G01*
X84800000Y-107300000D01*
G75*
G02*
X85050000Y-107550000I0J-250000D01*
G01*
G37*
G36*
G01*
X86950000Y-107550000D02*
X86950000Y-108500000D01*
G75*
G02*
X86700000Y-108750000I-250000J0D01*
G01*
X86200000Y-108750000D01*
G75*
G02*
X85950000Y-108500000I0J250000D01*
G01*
X85950000Y-107550000D01*
G75*
G02*
X86200000Y-107300000I250000J0D01*
G01*
X86700000Y-107300000D01*
G75*
G02*
X86950000Y-107550000I0J-250000D01*
G01*
G37*
%TD*%
D11*
%TO.C,J2*%
X96500000Y-120085000D03*
X96500000Y-117545000D03*
X96500000Y-115005000D03*
X96500000Y-112465000D03*
D12*
X96500000Y-109925000D03*
%TD*%
D10*
%TO.C,J9*%
X54500000Y-118000000D03*
X59800000Y-118000000D03*
%TD*%
%TO.C,R10*%
G36*
G01*
X69600000Y-118399998D02*
X69600000Y-119300002D01*
G75*
G02*
X69350002Y-119550000I-249998J0D01*
G01*
X68824998Y-119550000D01*
G75*
G02*
X68575000Y-119300002I0J249998D01*
G01*
X68575000Y-118399998D01*
G75*
G02*
X68824998Y-118150000I249998J0D01*
G01*
X69350002Y-118150000D01*
G75*
G02*
X69600000Y-118399998I0J-249998D01*
G01*
G37*
G36*
G01*
X71425000Y-118399998D02*
X71425000Y-119300002D01*
G75*
G02*
X71175002Y-119550000I-249998J0D01*
G01*
X70649998Y-119550000D01*
G75*
G02*
X70400000Y-119300002I0J249998D01*
G01*
X70400000Y-118399998D01*
G75*
G02*
X70649998Y-118150000I249998J0D01*
G01*
X71175002Y-118150000D01*
G75*
G02*
X71425000Y-118399998I0J-249998D01*
G01*
G37*
%TD*%
%TO.C,R7*%
G36*
G01*
X70400000Y-111600002D02*
X70400000Y-110699998D01*
G75*
G02*
X70649998Y-110450000I249998J0D01*
G01*
X71175002Y-110450000D01*
G75*
G02*
X71425000Y-110699998I0J-249998D01*
G01*
X71425000Y-111600002D01*
G75*
G02*
X71175002Y-111850000I-249998J0D01*
G01*
X70649998Y-111850000D01*
G75*
G02*
X70400000Y-111600002I0J249998D01*
G01*
G37*
G36*
G01*
X68575000Y-111600002D02*
X68575000Y-110699998D01*
G75*
G02*
X68824998Y-110450000I249998J0D01*
G01*
X69350002Y-110450000D01*
G75*
G02*
X69600000Y-110699998I0J-249998D01*
G01*
X69600000Y-111600002D01*
G75*
G02*
X69350002Y-111850000I-249998J0D01*
G01*
X68824998Y-111850000D01*
G75*
G02*
X68575000Y-111600002I0J249998D01*
G01*
G37*
%TD*%
%TO.C,R6*%
G36*
G01*
X73900000Y-111600002D02*
X73900000Y-110699998D01*
G75*
G02*
X74149998Y-110450000I249998J0D01*
G01*
X74675002Y-110450000D01*
G75*
G02*
X74925000Y-110699998I0J-249998D01*
G01*
X74925000Y-111600002D01*
G75*
G02*
X74675002Y-111850000I-249998J0D01*
G01*
X74149998Y-111850000D01*
G75*
G02*
X73900000Y-111600002I0J249998D01*
G01*
G37*
G36*
G01*
X72075000Y-111600002D02*
X72075000Y-110699998D01*
G75*
G02*
X72324998Y-110450000I249998J0D01*
G01*
X72850002Y-110450000D01*
G75*
G02*
X73100000Y-110699998I0J-249998D01*
G01*
X73100000Y-111600002D01*
G75*
G02*
X72850002Y-111850000I-249998J0D01*
G01*
X72324998Y-111850000D01*
G75*
G02*
X72075000Y-111600002I0J249998D01*
G01*
G37*
%TD*%
D11*
%TO.C,J8*%
X79750000Y-116300000D03*
D12*
X79750000Y-113760000D03*
%TD*%
D10*
%TO.C,J6*%
X54500000Y-112000000D03*
X59800000Y-112000000D03*
%TD*%
%TO.C,J5*%
X54500000Y-106000000D03*
X59800000Y-106000000D03*
%TD*%
%TO.C,J4*%
X54500000Y-100000000D03*
X59800000Y-100000000D03*
%TD*%
D11*
%TO.C,J3*%
X66200000Y-128290000D03*
D12*
X66200000Y-125750000D03*
%TD*%
D11*
%TO.C,J1*%
X66200000Y-104240000D03*
D12*
X66200000Y-101700000D03*
%TD*%
D17*
X82800000Y-112075000D03*
X89625000Y-112075000D03*
X84810000Y-125675000D03*
X89125000Y-125050000D03*
X84810000Y-99085000D03*
X89125000Y-98460000D03*
X68500000Y-115000000D03*
X76050000Y-118550000D03*
X87250000Y-105225000D03*
X73425000Y-121975000D03*
X86550000Y-123860000D03*
X90525000Y-133525000D03*
X90525000Y-96450000D03*
X73425000Y-107950000D03*
X65350000Y-121950000D03*
X65350000Y-107950000D03*
X76050000Y-111450000D03*
X79000000Y-107150000D03*
X79000000Y-122975002D03*
X77500000Y-115000000D03*
X77500000Y-112749990D03*
X77500000Y-117250000D03*
X93725000Y-117875000D03*
X79010000Y-129775000D03*
X92150000Y-132475000D03*
X79010000Y-103185000D03*
X92150000Y-105885000D03*
X86900000Y-117875000D03*
X87625000Y-121950000D03*
X71974996Y-128300000D03*
X88275000Y-108050000D03*
X71974996Y-101710000D03*
X91025000Y-116050000D03*
X92000000Y-128875000D03*
X93750000Y-128300000D03*
X91025000Y-113925000D03*
X92000000Y-102285000D03*
X93750000Y-101710000D03*
X92325000Y-113925000D03*
X92325000Y-116065000D03*
X73500004Y-113500000D03*
X73499999Y-116500000D03*
X71700000Y-116550002D03*
X84850000Y-113750000D03*
X84850000Y-116200000D03*
X75075000Y-127400000D03*
X82650000Y-127400000D03*
X75075000Y-100810000D03*
X82650000Y-100810000D03*
X90275000Y-128875000D03*
X90275000Y-102285000D03*
X71825000Y-113400000D03*
M02*
