M48
; DRILL file {KiCad 5.1.12-84ad8e8a86~92~ubuntu20.04.1} date Thu 17 Feb 2022 07:09:15 PM EST
; FORMAT={-:-/ absolute / inch / decimal}
; #@! TF.CreationDate,2022-02-17T19:09:15-05:00
; #@! TF.GenerationSoftware,Kicad,Pcbnew,5.1.12-84ad8e8a86~92~ubuntu20.04.1
; #@! TF.FileFunction,Plated,1,2,PTH
FMAT,2
INCH
T1C0.0157
T2C0.0394
T3C0.0472
T4C0.0610
%
G90
G05
T1
X2.6931Y-4.0741
X2.7025Y-3.79
X2.7201Y-4.0455
X2.727Y-3.978
X2.7496Y-4.0193
X2.7789Y-3.993
X2.785Y-3.79
X2.87Y-3.79
X2.983Y-4.065
X3.0924Y-3.6976
X3.15Y-3.73
X3.21Y-3.76
X3.2576Y-3.8186
X3.5375Y-3.965
X3.5375Y-5.865
X3.54Y-2.065
X3.645Y0.485
X3.645Y0.435
X3.645Y0.385
X3.695Y0.485
X3.695Y0.435
X3.695Y0.385
X3.745Y0.485
X3.745Y0.435
X3.745Y0.385
X4.055Y0.485
X4.055Y0.435
X4.055Y0.385
X4.105Y0.485
X4.105Y0.435
X4.105Y0.385
X4.155Y0.485
X4.155Y0.435
X4.155Y0.385
X4.2094Y-3.6976
X4.26Y-7.75
X4.31Y-3.73
X4.36Y-7.75
X4.3675Y-0.65
X4.41Y-3.76
X4.46Y-7.75
X4.51Y0.285
X4.51Y-3.82
X4.56Y-7.75
X4.66Y-7.75
X4.71Y-3.79
X4.805Y0.485
X4.805Y0.435
X4.805Y0.385
X4.815Y-3.79
X4.855Y0.485
X4.855Y0.435
X4.855Y0.385
X4.905Y0.485
X4.905Y0.435
X4.905Y0.385
X5.095Y0.485
X5.095Y0.435
X5.095Y0.385
X5.145Y0.485
X5.145Y0.435
X5.145Y0.385
X5.1825Y-2.085
X5.1825Y-3.985
X5.1825Y-5.885
X5.195Y0.485
X5.195Y0.435
X5.195Y0.385
X5.32Y0.435
X5.39Y-3.8625
X5.4Y0.435
X5.48Y0.435
X5.546Y-3.9817
X5.625Y-3.79
X5.64Y0.26
X5.7Y0.315
X5.71Y-4.14
X5.7375Y-3.975
X5.74Y-4.23
X5.77Y-4.2
X5.8Y-4.17
X5.85Y-3.695
X5.91Y-3.73
X5.97Y-3.76
X6.02Y-3.82
T2
X2.345Y-0.9243
X2.345Y-1.0243
X2.345Y-1.1243
X2.345Y-1.2243
X2.345Y-1.3243
X2.345Y-2.8243
X2.345Y-2.9243
X2.345Y-3.0243
X2.345Y-3.1243
X2.345Y-3.2243
X2.345Y-4.7243
X2.345Y-4.8243
X2.345Y-4.9243
X2.345Y-5.0243
X2.345Y-5.1243
X2.345Y-6.6243
X2.345Y-6.7243
X2.345Y-6.8243
X2.345Y-6.9243
X2.345Y-7.0243
X3.41Y-7.85
X3.41Y-7.95
X3.4631Y-3.9228
X3.4631Y-4.0228
X3.4631Y-5.8228
X3.4631Y-5.9228
X3.4671Y-2.0224
X3.4671Y-2.1224
X3.51Y-7.85
X3.51Y-7.95
X3.538Y-0.6011
X3.538Y-0.7011
X3.538Y-1.548
X3.538Y-1.648
X3.538Y-2.5011
X3.538Y-2.6011
X3.538Y-3.448
X3.538Y-3.548
X3.538Y-4.4011
X3.538Y-4.5011
X3.538Y-5.348
X3.538Y-5.448
X3.538Y-6.3011
X3.538Y-6.4011
X3.538Y-7.248
X3.538Y-7.348
X3.61Y-7.85
X3.61Y-7.95
X3.6128Y-3.9228
X3.6128Y-4.0228
X3.6128Y-5.8228
X3.6128Y-5.9228
X3.6147Y-2.0224
X3.6147Y-2.1224
X3.71Y-7.85
X3.71Y-7.95
X3.81Y-7.85
X3.81Y-7.95
X3.91Y-7.85
X3.91Y-7.95
X4.01Y-7.85
X4.01Y-7.95
X4.11Y-7.85
X4.11Y-7.95
X4.21Y-7.85
X4.21Y-7.95
X4.31Y-0.577
X4.31Y-0.725
X4.31Y-7.85
X4.31Y-7.95
X4.41Y-0.577
X4.41Y-0.725
X4.41Y-7.85
X4.41Y-7.95
X4.51Y-7.85
X4.51Y-7.95
X4.61Y-7.85
X4.61Y-7.95
X4.645Y0.765
X4.645Y0.665
X4.645Y0.565
X4.71Y-7.85
X4.71Y-7.95
X4.81Y-7.85
X4.81Y-7.95
X4.91Y-7.85
X4.91Y-7.95
X5.01Y-7.85
X5.01Y-7.95
X5.1072Y-2.0272
X5.1072Y-2.1272
X5.1072Y-3.9272
X5.1072Y-4.0272
X5.1072Y-5.8272
X5.1072Y-5.9272
X5.11Y-7.85
X5.11Y-7.95
X5.182Y-0.602
X5.182Y-0.702
X5.182Y-1.5489
X5.182Y-1.6489
X5.182Y-2.502
X5.182Y-2.602
X5.182Y-3.4489
X5.182Y-3.5489
X5.182Y-4.402
X5.182Y-4.502
X5.182Y-5.3489
X5.182Y-5.4489
X5.182Y-6.302
X5.182Y-6.402
X5.182Y-7.2489
X5.182Y-7.3489
X5.21Y-7.85
X5.21Y-7.95
X5.2569Y-2.0272
X5.2569Y-2.1272
X5.2569Y-3.9272
X5.2569Y-4.0272
X5.2569Y-5.8272
X5.2569Y-5.9272
X5.31Y-7.85
X5.31Y-7.95
X6.375Y-0.9257
X6.375Y-1.0257
X6.375Y-1.1257
X6.375Y-1.2257
X6.375Y-1.3257
X6.375Y-2.8257
X6.375Y-2.9257
X6.375Y-3.0257
X6.375Y-3.1257
X6.375Y-3.2257
X6.375Y-4.7257
X6.375Y-4.8257
X6.375Y-4.9257
X6.375Y-5.0257
X6.375Y-5.1257
X6.375Y-6.6257
X6.375Y-6.7257
X6.375Y-6.8257
X6.375Y-6.9257
X6.375Y-7.0257
T3
X3.795Y0.71
X3.7981Y0.16
X3.9919Y0.71
X3.995Y0.16
T4
X2.99Y0.5387
X3.4219Y0.6427
X3.4219Y0.435
X3.4219Y0.2273
T4
G00X2.99Y0.3349
M15
G01X2.99Y0.3251
M16
G05
T0
M30
