%TF.GenerationSoftware,KiCad,Pcbnew,5.1.12-84ad8e8a86~92~ubuntu20.04.1*%
%TF.CreationDate,2022-01-25T12:25:37-05:00*%
%TF.ProjectId,emg-filter,656d672d-6669-46c7-9465-722e6b696361,rev?*%
%TF.SameCoordinates,Original*%
%TF.FileFunction,Profile,NP*%
%FSLAX46Y46*%
G04 Gerber Fmt 4.6, Leading zero omitted, Abs format (unit mm)*
G04 Created by KiCad (PCBNEW 5.1.12-84ad8e8a86~92~ubuntu20.04.1) date 2022-01-25 12:25:37*
%MOMM*%
%LPD*%
G01*
G04 APERTURE LIST*
%TA.AperFunction,Profile*%
%ADD10C,0.150000*%
%TD*%
%TA.AperFunction,Profile*%
%ADD11C,0.050000*%
%TD*%
G04 APERTURE END LIST*
D10*
X21820000Y10160000D02*
G75*
G03*
X21820000Y10160000I-1500000J0D01*
G01*
X202160000Y10160000D02*
G75*
G03*
X202160000Y10160000I-1500000J0D01*
G01*
X202160000Y-167640000D02*
G75*
G03*
X202160000Y-167640000I-1500000J0D01*
G01*
X21820000Y-167640000D02*
G75*
G03*
X21820000Y-167640000I-1500000J0D01*
G01*
D11*
X208915000Y-172720000D02*
G75*
G02*
X206430327Y-175260000I-2540560J-55D01*
G01*
X206375000Y18423173D02*
G75*
G02*
X208915000Y15938500I55J-2540560D01*
G01*
X12691827Y15875000D02*
G75*
G02*
X15176500Y18415000I2540560J55D01*
G01*
X15232415Y-175260000D02*
G75*
G02*
X12700000Y-172739236I-55J2532387D01*
G01*
X84510915Y-194290764D02*
G75*
G02*
X81978500Y-191770000I-55J2532387D01*
G01*
X79446085Y-175279236D02*
G75*
G02*
X81978500Y-177800000I55J-2532387D01*
G01*
X81978500Y-191770000D02*
X81978500Y-177800000D01*
X139045764Y-191777585D02*
G75*
G02*
X136525000Y-194310000I-2532387J-55D01*
G01*
X139065000Y-177800000D02*
G75*
G02*
X141585764Y-175267585I2532387J55D01*
G01*
X139065000Y-177800000D02*
X139045764Y-191777585D01*
X206430327Y-175260000D02*
X141585764Y-175267585D01*
X208915000Y15938500D02*
X208915000Y-172720000D01*
X15176500Y18415000D02*
X206375000Y18423173D01*
X12700000Y-3810000D02*
X12691827Y15875000D01*
X12700000Y-172739236D02*
X12700000Y-3810000D01*
X79446085Y-175279236D02*
X15232415Y-175260000D01*
X136525000Y-194310000D02*
X84510915Y-194290764D01*
M02*
