%TF.GenerationSoftware,KiCad,Pcbnew,5.1.12-84ad8e8a86~92~ubuntu20.04.1*%
%TF.CreationDate,2022-02-18T16:23:28-05:00*%
%TF.ProjectId,emg-filter,656d672d-6669-46c7-9465-722e6b696361,rev?*%
%TF.SameCoordinates,Original*%
%TF.FileFunction,Profile,NP*%
%FSLAX46Y46*%
G04 Gerber Fmt 4.6, Leading zero omitted, Abs format (unit mm)*
G04 Created by KiCad (PCBNEW 5.1.12-84ad8e8a86~92~ubuntu20.04.1) date 2022-02-18 16:23:28*
%MOMM*%
%LPD*%
G01*
G04 APERTURE LIST*
%TA.AperFunction,Profile*%
%ADD10C,0.150000*%
%TD*%
G04 APERTURE END LIST*
D10*
X59911240Y-191135000D02*
G75*
G03*
X59911240Y-191135000I-1500000J0D01*
G01*
X59911240Y24135000D02*
G75*
G03*
X59911240Y24135000I-1500000J0D01*
G01*
X164695000Y24135000D02*
G75*
G03*
X164695000Y24135000I-1500000J0D01*
G01*
X164695000Y-191135000D02*
G75*
G03*
X164695000Y-191135000I-1500000J0D01*
G01*
X167640000Y-193675000D02*
G75*
G02*
X165735000Y-195580000I-1905000J0D01*
G01*
X165735000Y28575000D02*
G75*
G02*
X167640000Y26670000I0J-1905000D01*
G01*
X53975000Y26670000D02*
G75*
G02*
X55880000Y28575000I1905000J0D01*
G01*
X55880000Y-195580000D02*
G75*
G02*
X53975000Y-193675000I0J1905000D01*
G01*
X80645000Y-195580000D02*
G75*
G02*
X82550000Y-197485000I0J-1905000D01*
G01*
X139065000Y-197485000D02*
G75*
G02*
X140970000Y-195580000I1905000J0D01*
G01*
X84455000Y-205740000D02*
G75*
G02*
X82550000Y-203835000I0J1905000D01*
G01*
X139065000Y-203835000D02*
G75*
G02*
X137160000Y-205740000I-1905000J0D01*
G01*
X84455000Y-205740000D02*
X137160000Y-205740000D01*
X82550000Y-197485000D02*
X82550000Y-203835000D01*
X55880000Y-195580000D02*
X80645000Y-195580000D01*
X53975000Y26670000D02*
X53975000Y-193675000D01*
X165735000Y28575000D02*
X55880000Y28575000D01*
X167640000Y-193675000D02*
X167640000Y26670000D01*
X140970000Y-195580000D02*
X165735000Y-195580000D01*
X139065000Y-203835000D02*
X139065000Y-197485000D01*
M02*
