%TF.GenerationSoftware,KiCad,Pcbnew,5.1.12-84ad8e8a86~92~ubuntu20.04.1*%
%TF.CreationDate,2022-01-23T19:48:35-05:00*%
%TF.ProjectId,emg-filter,656d672d-6669-46c7-9465-722e6b696361,rev?*%
%TF.SameCoordinates,Original*%
%TF.FileFunction,Other,User*%
%FSLAX46Y46*%
G04 Gerber Fmt 4.6, Leading zero omitted, Abs format (unit mm)*
G04 Created by KiCad (PCBNEW 5.1.12-84ad8e8a86~92~ubuntu20.04.1) date 2022-01-23 19:48:35*
%MOMM*%
%LPD*%
G01*
G04 APERTURE LIST*
%ADD10C,0.050000*%
G04 APERTURE END LIST*
D10*
%TO.C,D8*%
X45508980Y-40429220D02*
X42308980Y-40429220D01*
X42308980Y-40429220D02*
X42308980Y-38529220D01*
X45508980Y-38529220D02*
X42308980Y-38529220D01*
X45508980Y-40429220D02*
X45508980Y-38529220D01*
%TO.C,R51*%
X70861980Y-35984220D02*
X67501980Y-35984220D01*
X70861980Y-34084220D02*
X70861980Y-35984220D01*
X67501980Y-34084220D02*
X70861980Y-34084220D01*
X67501980Y-35984220D02*
X67501980Y-34084220D01*
%TO.C,C4*%
X158159980Y-82334540D02*
X161559980Y-82334540D01*
X158159980Y-84294540D02*
X158159980Y-82334540D01*
X161559980Y-84294540D02*
X158159980Y-84294540D01*
X161559980Y-82334540D02*
X161559980Y-84294540D01*
%TO.C,U54*%
X128060620Y-39415020D02*
X128060620Y-44915020D01*
X128060620Y-44915020D02*
X135760620Y-44915020D01*
X135760620Y-44915020D02*
X135760620Y-39415020D01*
X135760620Y-39415020D02*
X128060620Y-39415020D01*
%TO.C,U47*%
X135846980Y-78369540D02*
X128146980Y-78369540D01*
X135846980Y-83869540D02*
X135846980Y-78369540D01*
X128146980Y-83869540D02*
X135846980Y-83869540D01*
X128146980Y-78369540D02*
X128146980Y-83869540D01*
%TO.C,U40*%
X135795180Y-117353140D02*
X128095180Y-117353140D01*
X135795180Y-122853140D02*
X135795180Y-117353140D01*
X128095180Y-122853140D02*
X135795180Y-122853140D01*
X128095180Y-117353140D02*
X128095180Y-122853140D01*
%TO.C,U33*%
X128078220Y-156366400D02*
X128078220Y-161866400D01*
X128078220Y-161866400D02*
X135778220Y-161866400D01*
X135778220Y-161866400D02*
X135778220Y-156366400D01*
X135778220Y-156366400D02*
X128078220Y-156366400D01*
%TO.C,U26*%
X84750480Y-161855280D02*
X92450480Y-161855280D01*
X84750480Y-156355280D02*
X84750480Y-161855280D01*
X92450480Y-156355280D02*
X84750480Y-156355280D01*
X92450480Y-161855280D02*
X92450480Y-156355280D01*
%TO.C,U19*%
X84891180Y-122829440D02*
X92591180Y-122829440D01*
X84891180Y-117329440D02*
X84891180Y-122829440D01*
X92591180Y-117329440D02*
X84891180Y-117329440D01*
X92591180Y-122829440D02*
X92591180Y-117329440D01*
%TO.C,U12*%
X84896980Y-83837780D02*
X92596980Y-83837780D01*
X84896980Y-78337780D02*
X84896980Y-83837780D01*
X92596980Y-78337780D02*
X84896980Y-78337780D01*
X92596980Y-83837780D02*
X92596980Y-78337780D01*
%TO.C,U5*%
X84889980Y-44896220D02*
X92589980Y-44896220D01*
X84889980Y-39396220D02*
X84889980Y-44896220D01*
X92589980Y-39396220D02*
X84889980Y-39396220D01*
X92589980Y-44896220D02*
X92589980Y-39396220D01*
%TO.C,U4*%
X192746000Y-103524500D02*
X200446000Y-103524500D01*
X192746000Y-98024500D02*
X192746000Y-103524500D01*
X200446000Y-98024500D02*
X192746000Y-98024500D01*
X200446000Y-103524500D02*
X200446000Y-98024500D01*
%TO.C,U3*%
X20343500Y-103461000D02*
X28043500Y-103461000D01*
X20343500Y-97961000D02*
X20343500Y-103461000D01*
X28043500Y-97961000D02*
X20343500Y-97961000D01*
X28043500Y-103461000D02*
X28043500Y-97961000D01*
%TO.C,U2*%
X121443520Y-19541720D02*
X121443520Y-2901720D01*
X110143520Y-19541720D02*
X121443520Y-19541720D01*
X110143520Y-2901720D02*
X110143520Y-19541720D01*
X121443520Y-2901720D02*
X110143520Y-2901720D01*
%TO.C,U1*%
X107848520Y10965280D02*
X107848520Y-134720D01*
X114848520Y10965280D02*
X107848520Y10965280D01*
X114848520Y-134720D02*
X114848520Y10965280D01*
X107848520Y-134720D02*
X114848520Y-134720D01*
%TO.C,RV1*%
X117041520Y-67720D02*
X120641520Y-67720D01*
X117041520Y8582280D02*
X117041520Y-67720D01*
X120641520Y8582280D02*
X117041520Y8582280D01*
X120641520Y-67720D02*
X120641520Y8582280D01*
%TO.C,R325*%
X184055922Y-45577654D02*
X184055922Y-47477654D01*
X184055922Y-47477654D02*
X180695922Y-47477654D01*
X180695922Y-47477654D02*
X180695922Y-45577654D01*
X180695922Y-45577654D02*
X184055922Y-45577654D01*
%TO.C,R324*%
X184554620Y-37691020D02*
X186454620Y-37691020D01*
X186454620Y-37691020D02*
X186454620Y-41051020D01*
X186454620Y-41051020D02*
X184554620Y-41051020D01*
X184554620Y-41051020D02*
X184554620Y-37691020D01*
%TO.C,R323*%
X184459620Y-45401020D02*
X184459620Y-43501020D01*
X184459620Y-43501020D02*
X187819620Y-43501020D01*
X187819620Y-43501020D02*
X187819620Y-45401020D01*
X187819620Y-45401020D02*
X184459620Y-45401020D01*
%TO.C,R322*%
X182300620Y-37527020D02*
X182300620Y-35627020D01*
X182300620Y-35627020D02*
X185660620Y-35627020D01*
X185660620Y-35627020D02*
X185660620Y-37527020D01*
X185660620Y-37527020D02*
X182300620Y-37527020D01*
%TO.C,R321*%
X177188620Y-45922520D02*
X179088620Y-45922520D01*
X179088620Y-45922520D02*
X179088620Y-49282520D01*
X179088620Y-49282520D02*
X177188620Y-49282520D01*
X177188620Y-49282520D02*
X177188620Y-45922520D01*
%TO.C,R320*%
X180358620Y-45496020D02*
X178458620Y-45496020D01*
X178458620Y-45496020D02*
X178458620Y-42136020D01*
X178458620Y-42136020D02*
X180358620Y-42136020D01*
X180358620Y-42136020D02*
X180358620Y-45496020D01*
%TO.C,R319*%
X177188620Y-35786020D02*
X179088620Y-35786020D01*
X179088620Y-35786020D02*
X179088620Y-39146020D01*
X179088620Y-39146020D02*
X177188620Y-39146020D01*
X177188620Y-39146020D02*
X177188620Y-35786020D01*
%TO.C,R318*%
X180358620Y-35336020D02*
X178458620Y-35336020D01*
X178458620Y-35336020D02*
X178458620Y-31976020D01*
X178458620Y-31976020D02*
X180358620Y-31976020D01*
X180358620Y-31976020D02*
X180358620Y-35336020D01*
%TO.C,R317*%
X175156620Y-45922520D02*
X177056620Y-45922520D01*
X177056620Y-45922520D02*
X177056620Y-49282520D01*
X177056620Y-49282520D02*
X175156620Y-49282520D01*
X175156620Y-49282520D02*
X175156620Y-45922520D01*
%TO.C,R316*%
X175156620Y-35786020D02*
X177056620Y-35786020D01*
X177056620Y-35786020D02*
X177056620Y-39146020D01*
X177056620Y-39146020D02*
X175156620Y-39146020D01*
X175156620Y-39146020D02*
X175156620Y-35786020D01*
%TO.C,R315*%
X170801620Y-41469020D02*
X170801620Y-43369020D01*
X170801620Y-43369020D02*
X167441620Y-43369020D01*
X167441620Y-43369020D02*
X167441620Y-41469020D01*
X167441620Y-41469020D02*
X170801620Y-41469020D01*
%TO.C,R314*%
X167441620Y-45401020D02*
X167441620Y-43501020D01*
X167441620Y-43501020D02*
X170801620Y-43501020D01*
X170801620Y-43501020D02*
X170801620Y-45401020D01*
X170801620Y-45401020D02*
X167441620Y-45401020D01*
%TO.C,R313*%
X170778120Y-31563020D02*
X170778120Y-33463020D01*
X170778120Y-33463020D02*
X167418120Y-33463020D01*
X167418120Y-33463020D02*
X167418120Y-31563020D01*
X167418120Y-31563020D02*
X170778120Y-31563020D01*
%TO.C,R312*%
X167418120Y-35495020D02*
X167418120Y-33595020D01*
X167418120Y-33595020D02*
X170778120Y-33595020D01*
X170778120Y-33595020D02*
X170778120Y-35495020D01*
X170778120Y-35495020D02*
X167418120Y-35495020D01*
%TO.C,R311*%
X165377620Y-45565020D02*
X167277620Y-45565020D01*
X167277620Y-45565020D02*
X167277620Y-48925020D01*
X167277620Y-48925020D02*
X165377620Y-48925020D01*
X165377620Y-48925020D02*
X165377620Y-45565020D01*
%TO.C,R310*%
X165377620Y-42112520D02*
X167277620Y-42112520D01*
X167277620Y-42112520D02*
X167277620Y-45472520D01*
X167277620Y-45472520D02*
X165377620Y-45472520D01*
X165377620Y-45472520D02*
X165377620Y-42112520D01*
%TO.C,R309*%
X165377620Y-35682520D02*
X167277620Y-35682520D01*
X167277620Y-35682520D02*
X167277620Y-39042520D01*
X167277620Y-39042520D02*
X165377620Y-39042520D01*
X165377620Y-39042520D02*
X165377620Y-35682520D01*
%TO.C,R308*%
X165377620Y-32126520D02*
X167277620Y-32126520D01*
X167277620Y-32126520D02*
X167277620Y-35486520D01*
X167277620Y-35486520D02*
X165377620Y-35486520D01*
X165377620Y-35486520D02*
X165377620Y-32126520D01*
%TO.C,R307*%
X158043620Y-47306020D02*
X158043620Y-45406020D01*
X158043620Y-45406020D02*
X161403620Y-45406020D01*
X161403620Y-45406020D02*
X161403620Y-47306020D01*
X161403620Y-47306020D02*
X158043620Y-47306020D01*
%TO.C,R306*%
X158170620Y-37400020D02*
X158170620Y-35500020D01*
X158170620Y-35500020D02*
X161530620Y-35500020D01*
X161530620Y-35500020D02*
X161530620Y-37400020D01*
X161530620Y-37400020D02*
X158170620Y-37400020D01*
%TO.C,R305*%
X154614620Y-46163020D02*
X154614620Y-44263020D01*
X154614620Y-44263020D02*
X157974620Y-44263020D01*
X157974620Y-44263020D02*
X157974620Y-46163020D01*
X157974620Y-46163020D02*
X154614620Y-46163020D01*
%TO.C,R304*%
X154741620Y-36257020D02*
X154741620Y-34357020D01*
X154741620Y-34357020D02*
X158101620Y-34357020D01*
X158101620Y-34357020D02*
X158101620Y-36257020D01*
X158101620Y-36257020D02*
X154741620Y-36257020D01*
%TO.C,R303*%
X153148620Y-48327020D02*
X153148620Y-50227020D01*
X153148620Y-50227020D02*
X149788620Y-50227020D01*
X149788620Y-50227020D02*
X149788620Y-48327020D01*
X149788620Y-48327020D02*
X153148620Y-48327020D01*
%TO.C,R302*%
X151185620Y-46163020D02*
X151185620Y-44263020D01*
X151185620Y-44263020D02*
X154545620Y-44263020D01*
X154545620Y-44263020D02*
X154545620Y-46163020D01*
X154545620Y-46163020D02*
X151185620Y-46163020D01*
%TO.C,R301*%
X153214620Y-38421020D02*
X153214620Y-40321020D01*
X153214620Y-40321020D02*
X149854620Y-40321020D01*
X149854620Y-40321020D02*
X149854620Y-38421020D01*
X149854620Y-38421020D02*
X153214620Y-38421020D01*
%TO.C,R300*%
X151209120Y-36257020D02*
X151209120Y-34357020D01*
X151209120Y-34357020D02*
X154569120Y-34357020D01*
X154569120Y-34357020D02*
X154569120Y-36257020D01*
X154569120Y-36257020D02*
X151209120Y-36257020D01*
%TO.C,R299*%
X147756620Y-46163020D02*
X147756620Y-44263020D01*
X147756620Y-44263020D02*
X151116620Y-44263020D01*
X151116620Y-44263020D02*
X151116620Y-46163020D01*
X151116620Y-46163020D02*
X147756620Y-46163020D01*
%TO.C,R298*%
X147756620Y-36257020D02*
X147756620Y-34357020D01*
X147756620Y-34357020D02*
X151116620Y-34357020D01*
X151116620Y-34357020D02*
X151116620Y-36257020D01*
X151116620Y-36257020D02*
X147756620Y-36257020D01*
%TO.C,R297*%
X131939620Y-45025020D02*
X131939620Y-46925020D01*
X131939620Y-46925020D02*
X128579620Y-46925020D01*
X128579620Y-46925020D02*
X128579620Y-45025020D01*
X128579620Y-45025020D02*
X131939620Y-45025020D01*
%TO.C,R296*%
X131939620Y-37405020D02*
X131939620Y-39305020D01*
X131939620Y-39305020D02*
X128579620Y-39305020D01*
X128579620Y-39305020D02*
X128579620Y-37405020D01*
X128579620Y-37405020D02*
X131939620Y-37405020D01*
%TO.C,R295*%
X132008620Y-46925020D02*
X132008620Y-45025020D01*
X132008620Y-45025020D02*
X135368620Y-45025020D01*
X135368620Y-45025020D02*
X135368620Y-46925020D01*
X135368620Y-46925020D02*
X132008620Y-46925020D01*
%TO.C,R294*%
X132008620Y-39305020D02*
X132008620Y-37405020D01*
X132008620Y-37405020D02*
X135368620Y-37405020D01*
X135368620Y-37405020D02*
X135368620Y-39305020D01*
X135368620Y-39305020D02*
X132008620Y-39305020D01*
%TO.C,R293*%
X143856237Y-50366211D02*
X143856237Y-48466211D01*
X143856237Y-48466211D02*
X147216237Y-48466211D01*
X147216237Y-48466211D02*
X147216237Y-50366211D01*
X147216237Y-50366211D02*
X143856237Y-50366211D01*
%TO.C,R292*%
X147306620Y-34357020D02*
X147306620Y-36257020D01*
X147306620Y-36257020D02*
X143946620Y-36257020D01*
X143946620Y-36257020D02*
X143946620Y-34357020D01*
X143946620Y-34357020D02*
X147306620Y-34357020D01*
%TO.C,R291*%
X142758120Y-43247020D02*
X142758120Y-45147020D01*
X142758120Y-45147020D02*
X139398120Y-45147020D01*
X139398120Y-45147020D02*
X139398120Y-43247020D01*
X139398120Y-43247020D02*
X142758120Y-43247020D01*
%TO.C,R290*%
X142758120Y-39183020D02*
X142758120Y-41083020D01*
X142758120Y-41083020D02*
X139398120Y-41083020D01*
X139398120Y-41083020D02*
X139398120Y-39183020D01*
X139398120Y-39183020D02*
X142758120Y-39183020D01*
%TO.C,R289*%
X180782282Y-84532174D02*
X184142282Y-84532174D01*
X180782282Y-86432174D02*
X180782282Y-84532174D01*
X184142282Y-86432174D02*
X180782282Y-86432174D01*
X184142282Y-84532174D02*
X184142282Y-86432174D01*
%TO.C,R288*%
X184640980Y-80005540D02*
X184640980Y-76645540D01*
X186540980Y-80005540D02*
X184640980Y-80005540D01*
X186540980Y-76645540D02*
X186540980Y-80005540D01*
X184640980Y-76645540D02*
X186540980Y-76645540D01*
%TO.C,R287*%
X187905980Y-84355540D02*
X184545980Y-84355540D01*
X187905980Y-82455540D02*
X187905980Y-84355540D01*
X184545980Y-82455540D02*
X187905980Y-82455540D01*
X184545980Y-84355540D02*
X184545980Y-82455540D01*
%TO.C,R286*%
X185746980Y-76481540D02*
X182386980Y-76481540D01*
X185746980Y-74581540D02*
X185746980Y-76481540D01*
X182386980Y-74581540D02*
X185746980Y-74581540D01*
X182386980Y-76481540D02*
X182386980Y-74581540D01*
%TO.C,R285*%
X177274980Y-88237040D02*
X177274980Y-84877040D01*
X179174980Y-88237040D02*
X177274980Y-88237040D01*
X179174980Y-84877040D02*
X179174980Y-88237040D01*
X177274980Y-84877040D02*
X179174980Y-84877040D01*
%TO.C,R284*%
X180444980Y-81090540D02*
X180444980Y-84450540D01*
X178544980Y-81090540D02*
X180444980Y-81090540D01*
X178544980Y-84450540D02*
X178544980Y-81090540D01*
X180444980Y-84450540D02*
X178544980Y-84450540D01*
%TO.C,R283*%
X177274980Y-78100540D02*
X177274980Y-74740540D01*
X179174980Y-78100540D02*
X177274980Y-78100540D01*
X179174980Y-74740540D02*
X179174980Y-78100540D01*
X177274980Y-74740540D02*
X179174980Y-74740540D01*
%TO.C,R282*%
X180444980Y-70930540D02*
X180444980Y-74290540D01*
X178544980Y-70930540D02*
X180444980Y-70930540D01*
X178544980Y-74290540D02*
X178544980Y-70930540D01*
X180444980Y-74290540D02*
X178544980Y-74290540D01*
%TO.C,R281*%
X175242980Y-88237040D02*
X175242980Y-84877040D01*
X177142980Y-88237040D02*
X175242980Y-88237040D01*
X177142980Y-84877040D02*
X177142980Y-88237040D01*
X175242980Y-84877040D02*
X177142980Y-84877040D01*
%TO.C,R280*%
X175242980Y-78100540D02*
X175242980Y-74740540D01*
X177142980Y-78100540D02*
X175242980Y-78100540D01*
X177142980Y-74740540D02*
X177142980Y-78100540D01*
X175242980Y-74740540D02*
X177142980Y-74740540D01*
%TO.C,R279*%
X167527980Y-80423540D02*
X170887980Y-80423540D01*
X167527980Y-82323540D02*
X167527980Y-80423540D01*
X170887980Y-82323540D02*
X167527980Y-82323540D01*
X170887980Y-80423540D02*
X170887980Y-82323540D01*
%TO.C,R278*%
X170887980Y-84355540D02*
X167527980Y-84355540D01*
X170887980Y-82455540D02*
X170887980Y-84355540D01*
X167527980Y-82455540D02*
X170887980Y-82455540D01*
X167527980Y-84355540D02*
X167527980Y-82455540D01*
%TO.C,R277*%
X167504480Y-70517540D02*
X170864480Y-70517540D01*
X167504480Y-72417540D02*
X167504480Y-70517540D01*
X170864480Y-72417540D02*
X167504480Y-72417540D01*
X170864480Y-70517540D02*
X170864480Y-72417540D01*
%TO.C,R276*%
X170864480Y-74449540D02*
X167504480Y-74449540D01*
X170864480Y-72549540D02*
X170864480Y-74449540D01*
X167504480Y-72549540D02*
X170864480Y-72549540D01*
X167504480Y-74449540D02*
X167504480Y-72549540D01*
%TO.C,R275*%
X165463980Y-87879540D02*
X165463980Y-84519540D01*
X167363980Y-87879540D02*
X165463980Y-87879540D01*
X167363980Y-84519540D02*
X167363980Y-87879540D01*
X165463980Y-84519540D02*
X167363980Y-84519540D01*
%TO.C,R274*%
X165463980Y-84427040D02*
X165463980Y-81067040D01*
X167363980Y-84427040D02*
X165463980Y-84427040D01*
X167363980Y-81067040D02*
X167363980Y-84427040D01*
X165463980Y-81067040D02*
X167363980Y-81067040D01*
%TO.C,R273*%
X165463980Y-77997040D02*
X165463980Y-74637040D01*
X167363980Y-77997040D02*
X165463980Y-77997040D01*
X167363980Y-74637040D02*
X167363980Y-77997040D01*
X165463980Y-74637040D02*
X167363980Y-74637040D01*
%TO.C,R272*%
X165463980Y-74441040D02*
X165463980Y-71081040D01*
X167363980Y-74441040D02*
X165463980Y-74441040D01*
X167363980Y-71081040D02*
X167363980Y-74441040D01*
X165463980Y-71081040D02*
X167363980Y-71081040D01*
%TO.C,R271*%
X161489980Y-86260540D02*
X158129980Y-86260540D01*
X161489980Y-84360540D02*
X161489980Y-86260540D01*
X158129980Y-84360540D02*
X161489980Y-84360540D01*
X158129980Y-86260540D02*
X158129980Y-84360540D01*
%TO.C,R270*%
X161616980Y-76354540D02*
X158256980Y-76354540D01*
X161616980Y-74454540D02*
X161616980Y-76354540D01*
X158256980Y-74454540D02*
X161616980Y-74454540D01*
X158256980Y-76354540D02*
X158256980Y-74454540D01*
%TO.C,R269*%
X158060980Y-85117540D02*
X154700980Y-85117540D01*
X158060980Y-83217540D02*
X158060980Y-85117540D01*
X154700980Y-83217540D02*
X158060980Y-83217540D01*
X154700980Y-85117540D02*
X154700980Y-83217540D01*
%TO.C,R268*%
X158187980Y-75211540D02*
X154827980Y-75211540D01*
X158187980Y-73311540D02*
X158187980Y-75211540D01*
X154827980Y-73311540D02*
X158187980Y-73311540D01*
X154827980Y-75211540D02*
X154827980Y-73311540D01*
%TO.C,R267*%
X149874980Y-87281540D02*
X153234980Y-87281540D01*
X149874980Y-89181540D02*
X149874980Y-87281540D01*
X153234980Y-89181540D02*
X149874980Y-89181540D01*
X153234980Y-87281540D02*
X153234980Y-89181540D01*
%TO.C,R266*%
X154631980Y-85117540D02*
X151271980Y-85117540D01*
X154631980Y-83217540D02*
X154631980Y-85117540D01*
X151271980Y-83217540D02*
X154631980Y-83217540D01*
X151271980Y-85117540D02*
X151271980Y-83217540D01*
%TO.C,R265*%
X149940980Y-77375540D02*
X153300980Y-77375540D01*
X149940980Y-79275540D02*
X149940980Y-77375540D01*
X153300980Y-79275540D02*
X149940980Y-79275540D01*
X153300980Y-77375540D02*
X153300980Y-79275540D01*
%TO.C,R264*%
X154655480Y-75211540D02*
X151295480Y-75211540D01*
X154655480Y-73311540D02*
X154655480Y-75211540D01*
X151295480Y-73311540D02*
X154655480Y-73311540D01*
X151295480Y-75211540D02*
X151295480Y-73311540D01*
%TO.C,R263*%
X151202980Y-85117540D02*
X147842980Y-85117540D01*
X151202980Y-83217540D02*
X151202980Y-85117540D01*
X147842980Y-83217540D02*
X151202980Y-83217540D01*
X147842980Y-85117540D02*
X147842980Y-83217540D01*
%TO.C,R262*%
X151202980Y-75211540D02*
X147842980Y-75211540D01*
X151202980Y-73311540D02*
X151202980Y-75211540D01*
X147842980Y-73311540D02*
X151202980Y-73311540D01*
X147842980Y-75211540D02*
X147842980Y-73311540D01*
%TO.C,R261*%
X128665980Y-83979540D02*
X132025980Y-83979540D01*
X128665980Y-85879540D02*
X128665980Y-83979540D01*
X132025980Y-85879540D02*
X128665980Y-85879540D01*
X132025980Y-83979540D02*
X132025980Y-85879540D01*
%TO.C,R260*%
X128665980Y-76359540D02*
X132025980Y-76359540D01*
X128665980Y-78259540D02*
X128665980Y-76359540D01*
X132025980Y-78259540D02*
X128665980Y-78259540D01*
X132025980Y-76359540D02*
X132025980Y-78259540D01*
%TO.C,R259*%
X135454980Y-85879540D02*
X132094980Y-85879540D01*
X135454980Y-83979540D02*
X135454980Y-85879540D01*
X132094980Y-83979540D02*
X135454980Y-83979540D01*
X132094980Y-85879540D02*
X132094980Y-83979540D01*
%TO.C,R258*%
X135454980Y-78259540D02*
X132094980Y-78259540D01*
X135454980Y-76359540D02*
X135454980Y-78259540D01*
X132094980Y-76359540D02*
X135454980Y-76359540D01*
X132094980Y-78259540D02*
X132094980Y-76359540D01*
%TO.C,R257*%
X147302597Y-89320731D02*
X143942597Y-89320731D01*
X147302597Y-87420731D02*
X147302597Y-89320731D01*
X143942597Y-87420731D02*
X147302597Y-87420731D01*
X143942597Y-89320731D02*
X143942597Y-87420731D01*
%TO.C,R256*%
X144032980Y-73311540D02*
X147392980Y-73311540D01*
X144032980Y-75211540D02*
X144032980Y-73311540D01*
X147392980Y-75211540D02*
X144032980Y-75211540D01*
X147392980Y-73311540D02*
X147392980Y-75211540D01*
%TO.C,R255*%
X139484480Y-82201540D02*
X142844480Y-82201540D01*
X139484480Y-84101540D02*
X139484480Y-82201540D01*
X142844480Y-84101540D02*
X139484480Y-84101540D01*
X142844480Y-82201540D02*
X142844480Y-84101540D01*
%TO.C,R254*%
X139484480Y-78137540D02*
X142844480Y-78137540D01*
X139484480Y-80037540D02*
X139484480Y-78137540D01*
X142844480Y-80037540D02*
X139484480Y-80037540D01*
X142844480Y-78137540D02*
X142844480Y-80037540D01*
%TO.C,R253*%
X180730482Y-123515774D02*
X184090482Y-123515774D01*
X180730482Y-125415774D02*
X180730482Y-123515774D01*
X184090482Y-125415774D02*
X180730482Y-125415774D01*
X184090482Y-123515774D02*
X184090482Y-125415774D01*
%TO.C,R252*%
X184589180Y-118989140D02*
X184589180Y-115629140D01*
X186489180Y-118989140D02*
X184589180Y-118989140D01*
X186489180Y-115629140D02*
X186489180Y-118989140D01*
X184589180Y-115629140D02*
X186489180Y-115629140D01*
%TO.C,R251*%
X187854180Y-123339140D02*
X184494180Y-123339140D01*
X187854180Y-121439140D02*
X187854180Y-123339140D01*
X184494180Y-121439140D02*
X187854180Y-121439140D01*
X184494180Y-123339140D02*
X184494180Y-121439140D01*
%TO.C,R250*%
X185695180Y-115465140D02*
X182335180Y-115465140D01*
X185695180Y-113565140D02*
X185695180Y-115465140D01*
X182335180Y-113565140D02*
X185695180Y-113565140D01*
X182335180Y-115465140D02*
X182335180Y-113565140D01*
%TO.C,R249*%
X177223180Y-127220640D02*
X177223180Y-123860640D01*
X179123180Y-127220640D02*
X177223180Y-127220640D01*
X179123180Y-123860640D02*
X179123180Y-127220640D01*
X177223180Y-123860640D02*
X179123180Y-123860640D01*
%TO.C,R248*%
X180393180Y-120074140D02*
X180393180Y-123434140D01*
X178493180Y-120074140D02*
X180393180Y-120074140D01*
X178493180Y-123434140D02*
X178493180Y-120074140D01*
X180393180Y-123434140D02*
X178493180Y-123434140D01*
%TO.C,R247*%
X177223180Y-117084140D02*
X177223180Y-113724140D01*
X179123180Y-117084140D02*
X177223180Y-117084140D01*
X179123180Y-113724140D02*
X179123180Y-117084140D01*
X177223180Y-113724140D02*
X179123180Y-113724140D01*
%TO.C,R246*%
X180393180Y-109914140D02*
X180393180Y-113274140D01*
X178493180Y-109914140D02*
X180393180Y-109914140D01*
X178493180Y-113274140D02*
X178493180Y-109914140D01*
X180393180Y-113274140D02*
X178493180Y-113274140D01*
%TO.C,R245*%
X175191180Y-127220640D02*
X175191180Y-123860640D01*
X177091180Y-127220640D02*
X175191180Y-127220640D01*
X177091180Y-123860640D02*
X177091180Y-127220640D01*
X175191180Y-123860640D02*
X177091180Y-123860640D01*
%TO.C,R244*%
X175191180Y-117084140D02*
X175191180Y-113724140D01*
X177091180Y-117084140D02*
X175191180Y-117084140D01*
X177091180Y-113724140D02*
X177091180Y-117084140D01*
X175191180Y-113724140D02*
X177091180Y-113724140D01*
%TO.C,R243*%
X167476180Y-119407140D02*
X170836180Y-119407140D01*
X167476180Y-121307140D02*
X167476180Y-119407140D01*
X170836180Y-121307140D02*
X167476180Y-121307140D01*
X170836180Y-119407140D02*
X170836180Y-121307140D01*
%TO.C,R242*%
X170836180Y-123339140D02*
X167476180Y-123339140D01*
X170836180Y-121439140D02*
X170836180Y-123339140D01*
X167476180Y-121439140D02*
X170836180Y-121439140D01*
X167476180Y-123339140D02*
X167476180Y-121439140D01*
%TO.C,R241*%
X167452680Y-109501140D02*
X170812680Y-109501140D01*
X167452680Y-111401140D02*
X167452680Y-109501140D01*
X170812680Y-111401140D02*
X167452680Y-111401140D01*
X170812680Y-109501140D02*
X170812680Y-111401140D01*
%TO.C,R240*%
X170812680Y-113433140D02*
X167452680Y-113433140D01*
X170812680Y-111533140D02*
X170812680Y-113433140D01*
X167452680Y-111533140D02*
X170812680Y-111533140D01*
X167452680Y-113433140D02*
X167452680Y-111533140D01*
%TO.C,R239*%
X165412180Y-126863140D02*
X165412180Y-123503140D01*
X167312180Y-126863140D02*
X165412180Y-126863140D01*
X167312180Y-123503140D02*
X167312180Y-126863140D01*
X165412180Y-123503140D02*
X167312180Y-123503140D01*
%TO.C,R238*%
X165412180Y-123410640D02*
X165412180Y-120050640D01*
X167312180Y-123410640D02*
X165412180Y-123410640D01*
X167312180Y-120050640D02*
X167312180Y-123410640D01*
X165412180Y-120050640D02*
X167312180Y-120050640D01*
%TO.C,R237*%
X165412180Y-116980640D02*
X165412180Y-113620640D01*
X167312180Y-116980640D02*
X165412180Y-116980640D01*
X167312180Y-113620640D02*
X167312180Y-116980640D01*
X165412180Y-113620640D02*
X167312180Y-113620640D01*
%TO.C,R236*%
X165412180Y-113424640D02*
X165412180Y-110064640D01*
X167312180Y-113424640D02*
X165412180Y-113424640D01*
X167312180Y-110064640D02*
X167312180Y-113424640D01*
X165412180Y-110064640D02*
X167312180Y-110064640D01*
%TO.C,R235*%
X161438180Y-125244140D02*
X158078180Y-125244140D01*
X161438180Y-123344140D02*
X161438180Y-125244140D01*
X158078180Y-123344140D02*
X161438180Y-123344140D01*
X158078180Y-125244140D02*
X158078180Y-123344140D01*
%TO.C,R234*%
X161565180Y-115338140D02*
X158205180Y-115338140D01*
X161565180Y-113438140D02*
X161565180Y-115338140D01*
X158205180Y-113438140D02*
X161565180Y-113438140D01*
X158205180Y-115338140D02*
X158205180Y-113438140D01*
%TO.C,R233*%
X158009180Y-124101140D02*
X154649180Y-124101140D01*
X158009180Y-122201140D02*
X158009180Y-124101140D01*
X154649180Y-122201140D02*
X158009180Y-122201140D01*
X154649180Y-124101140D02*
X154649180Y-122201140D01*
%TO.C,R232*%
X158136180Y-114195140D02*
X154776180Y-114195140D01*
X158136180Y-112295140D02*
X158136180Y-114195140D01*
X154776180Y-112295140D02*
X158136180Y-112295140D01*
X154776180Y-114195140D02*
X154776180Y-112295140D01*
%TO.C,R231*%
X149823180Y-126265140D02*
X153183180Y-126265140D01*
X149823180Y-128165140D02*
X149823180Y-126265140D01*
X153183180Y-128165140D02*
X149823180Y-128165140D01*
X153183180Y-126265140D02*
X153183180Y-128165140D01*
%TO.C,R230*%
X154580180Y-124101140D02*
X151220180Y-124101140D01*
X154580180Y-122201140D02*
X154580180Y-124101140D01*
X151220180Y-122201140D02*
X154580180Y-122201140D01*
X151220180Y-124101140D02*
X151220180Y-122201140D01*
%TO.C,R229*%
X149889180Y-116359140D02*
X153249180Y-116359140D01*
X149889180Y-118259140D02*
X149889180Y-116359140D01*
X153249180Y-118259140D02*
X149889180Y-118259140D01*
X153249180Y-116359140D02*
X153249180Y-118259140D01*
%TO.C,R228*%
X154603680Y-114195140D02*
X151243680Y-114195140D01*
X154603680Y-112295140D02*
X154603680Y-114195140D01*
X151243680Y-112295140D02*
X154603680Y-112295140D01*
X151243680Y-114195140D02*
X151243680Y-112295140D01*
%TO.C,R227*%
X151151180Y-124101140D02*
X147791180Y-124101140D01*
X151151180Y-122201140D02*
X151151180Y-124101140D01*
X147791180Y-122201140D02*
X151151180Y-122201140D01*
X147791180Y-124101140D02*
X147791180Y-122201140D01*
%TO.C,R226*%
X151151180Y-114195140D02*
X147791180Y-114195140D01*
X151151180Y-112295140D02*
X151151180Y-114195140D01*
X147791180Y-112295140D02*
X151151180Y-112295140D01*
X147791180Y-114195140D02*
X147791180Y-112295140D01*
%TO.C,R225*%
X128614180Y-122963140D02*
X131974180Y-122963140D01*
X128614180Y-124863140D02*
X128614180Y-122963140D01*
X131974180Y-124863140D02*
X128614180Y-124863140D01*
X131974180Y-122963140D02*
X131974180Y-124863140D01*
%TO.C,R224*%
X128614180Y-115343140D02*
X131974180Y-115343140D01*
X128614180Y-117243140D02*
X128614180Y-115343140D01*
X131974180Y-117243140D02*
X128614180Y-117243140D01*
X131974180Y-115343140D02*
X131974180Y-117243140D01*
%TO.C,R223*%
X135403180Y-124863140D02*
X132043180Y-124863140D01*
X135403180Y-122963140D02*
X135403180Y-124863140D01*
X132043180Y-122963140D02*
X135403180Y-122963140D01*
X132043180Y-124863140D02*
X132043180Y-122963140D01*
%TO.C,R222*%
X135403180Y-117243140D02*
X132043180Y-117243140D01*
X135403180Y-115343140D02*
X135403180Y-117243140D01*
X132043180Y-115343140D02*
X135403180Y-115343140D01*
X132043180Y-117243140D02*
X132043180Y-115343140D01*
%TO.C,R221*%
X147250797Y-128304331D02*
X143890797Y-128304331D01*
X147250797Y-126404331D02*
X147250797Y-128304331D01*
X143890797Y-126404331D02*
X147250797Y-126404331D01*
X143890797Y-128304331D02*
X143890797Y-126404331D01*
%TO.C,R220*%
X143981180Y-112295140D02*
X147341180Y-112295140D01*
X143981180Y-114195140D02*
X143981180Y-112295140D01*
X147341180Y-114195140D02*
X143981180Y-114195140D01*
X147341180Y-112295140D02*
X147341180Y-114195140D01*
%TO.C,R219*%
X139432680Y-121185140D02*
X142792680Y-121185140D01*
X139432680Y-123085140D02*
X139432680Y-121185140D01*
X142792680Y-123085140D02*
X139432680Y-123085140D01*
X142792680Y-121185140D02*
X142792680Y-123085140D01*
%TO.C,R218*%
X139432680Y-117121140D02*
X142792680Y-117121140D01*
X139432680Y-119021140D02*
X139432680Y-117121140D01*
X142792680Y-119021140D02*
X139432680Y-119021140D01*
X142792680Y-117121140D02*
X142792680Y-119021140D01*
%TO.C,R217*%
X184073522Y-162529034D02*
X184073522Y-164429034D01*
X184073522Y-164429034D02*
X180713522Y-164429034D01*
X180713522Y-164429034D02*
X180713522Y-162529034D01*
X180713522Y-162529034D02*
X184073522Y-162529034D01*
%TO.C,R216*%
X184572220Y-154642400D02*
X186472220Y-154642400D01*
X186472220Y-154642400D02*
X186472220Y-158002400D01*
X186472220Y-158002400D02*
X184572220Y-158002400D01*
X184572220Y-158002400D02*
X184572220Y-154642400D01*
%TO.C,R215*%
X184477220Y-162352400D02*
X184477220Y-160452400D01*
X184477220Y-160452400D02*
X187837220Y-160452400D01*
X187837220Y-160452400D02*
X187837220Y-162352400D01*
X187837220Y-162352400D02*
X184477220Y-162352400D01*
%TO.C,R214*%
X182318220Y-154478400D02*
X182318220Y-152578400D01*
X182318220Y-152578400D02*
X185678220Y-152578400D01*
X185678220Y-152578400D02*
X185678220Y-154478400D01*
X185678220Y-154478400D02*
X182318220Y-154478400D01*
%TO.C,R213*%
X177206220Y-162873900D02*
X179106220Y-162873900D01*
X179106220Y-162873900D02*
X179106220Y-166233900D01*
X179106220Y-166233900D02*
X177206220Y-166233900D01*
X177206220Y-166233900D02*
X177206220Y-162873900D01*
%TO.C,R212*%
X180376220Y-162447400D02*
X178476220Y-162447400D01*
X178476220Y-162447400D02*
X178476220Y-159087400D01*
X178476220Y-159087400D02*
X180376220Y-159087400D01*
X180376220Y-159087400D02*
X180376220Y-162447400D01*
%TO.C,R211*%
X177206220Y-152737400D02*
X179106220Y-152737400D01*
X179106220Y-152737400D02*
X179106220Y-156097400D01*
X179106220Y-156097400D02*
X177206220Y-156097400D01*
X177206220Y-156097400D02*
X177206220Y-152737400D01*
%TO.C,R210*%
X180376220Y-152287400D02*
X178476220Y-152287400D01*
X178476220Y-152287400D02*
X178476220Y-148927400D01*
X178476220Y-148927400D02*
X180376220Y-148927400D01*
X180376220Y-148927400D02*
X180376220Y-152287400D01*
%TO.C,R209*%
X175174220Y-162873900D02*
X177074220Y-162873900D01*
X177074220Y-162873900D02*
X177074220Y-166233900D01*
X177074220Y-166233900D02*
X175174220Y-166233900D01*
X175174220Y-166233900D02*
X175174220Y-162873900D01*
%TO.C,R208*%
X175174220Y-152737400D02*
X177074220Y-152737400D01*
X177074220Y-152737400D02*
X177074220Y-156097400D01*
X177074220Y-156097400D02*
X175174220Y-156097400D01*
X175174220Y-156097400D02*
X175174220Y-152737400D01*
%TO.C,R207*%
X170819220Y-158420400D02*
X170819220Y-160320400D01*
X170819220Y-160320400D02*
X167459220Y-160320400D01*
X167459220Y-160320400D02*
X167459220Y-158420400D01*
X167459220Y-158420400D02*
X170819220Y-158420400D01*
%TO.C,R206*%
X167459220Y-162352400D02*
X167459220Y-160452400D01*
X167459220Y-160452400D02*
X170819220Y-160452400D01*
X170819220Y-160452400D02*
X170819220Y-162352400D01*
X170819220Y-162352400D02*
X167459220Y-162352400D01*
%TO.C,R205*%
X170795720Y-148514400D02*
X170795720Y-150414400D01*
X170795720Y-150414400D02*
X167435720Y-150414400D01*
X167435720Y-150414400D02*
X167435720Y-148514400D01*
X167435720Y-148514400D02*
X170795720Y-148514400D01*
%TO.C,R204*%
X167435720Y-152446400D02*
X167435720Y-150546400D01*
X167435720Y-150546400D02*
X170795720Y-150546400D01*
X170795720Y-150546400D02*
X170795720Y-152446400D01*
X170795720Y-152446400D02*
X167435720Y-152446400D01*
%TO.C,R203*%
X165395220Y-162516400D02*
X167295220Y-162516400D01*
X167295220Y-162516400D02*
X167295220Y-165876400D01*
X167295220Y-165876400D02*
X165395220Y-165876400D01*
X165395220Y-165876400D02*
X165395220Y-162516400D01*
%TO.C,R202*%
X165395220Y-159063900D02*
X167295220Y-159063900D01*
X167295220Y-159063900D02*
X167295220Y-162423900D01*
X167295220Y-162423900D02*
X165395220Y-162423900D01*
X165395220Y-162423900D02*
X165395220Y-159063900D01*
%TO.C,R201*%
X165395220Y-152633900D02*
X167295220Y-152633900D01*
X167295220Y-152633900D02*
X167295220Y-155993900D01*
X167295220Y-155993900D02*
X165395220Y-155993900D01*
X165395220Y-155993900D02*
X165395220Y-152633900D01*
%TO.C,R200*%
X165395220Y-149077900D02*
X167295220Y-149077900D01*
X167295220Y-149077900D02*
X167295220Y-152437900D01*
X167295220Y-152437900D02*
X165395220Y-152437900D01*
X165395220Y-152437900D02*
X165395220Y-149077900D01*
%TO.C,R199*%
X158061220Y-164257400D02*
X158061220Y-162357400D01*
X158061220Y-162357400D02*
X161421220Y-162357400D01*
X161421220Y-162357400D02*
X161421220Y-164257400D01*
X161421220Y-164257400D02*
X158061220Y-164257400D01*
%TO.C,R198*%
X158188220Y-154351400D02*
X158188220Y-152451400D01*
X158188220Y-152451400D02*
X161548220Y-152451400D01*
X161548220Y-152451400D02*
X161548220Y-154351400D01*
X161548220Y-154351400D02*
X158188220Y-154351400D01*
%TO.C,R197*%
X154632220Y-163114400D02*
X154632220Y-161214400D01*
X154632220Y-161214400D02*
X157992220Y-161214400D01*
X157992220Y-161214400D02*
X157992220Y-163114400D01*
X157992220Y-163114400D02*
X154632220Y-163114400D01*
%TO.C,R196*%
X154759220Y-153208400D02*
X154759220Y-151308400D01*
X154759220Y-151308400D02*
X158119220Y-151308400D01*
X158119220Y-151308400D02*
X158119220Y-153208400D01*
X158119220Y-153208400D02*
X154759220Y-153208400D01*
%TO.C,R195*%
X153166220Y-165278400D02*
X153166220Y-167178400D01*
X153166220Y-167178400D02*
X149806220Y-167178400D01*
X149806220Y-167178400D02*
X149806220Y-165278400D01*
X149806220Y-165278400D02*
X153166220Y-165278400D01*
%TO.C,R194*%
X151203220Y-163114400D02*
X151203220Y-161214400D01*
X151203220Y-161214400D02*
X154563220Y-161214400D01*
X154563220Y-161214400D02*
X154563220Y-163114400D01*
X154563220Y-163114400D02*
X151203220Y-163114400D01*
%TO.C,R193*%
X153232220Y-155372400D02*
X153232220Y-157272400D01*
X153232220Y-157272400D02*
X149872220Y-157272400D01*
X149872220Y-157272400D02*
X149872220Y-155372400D01*
X149872220Y-155372400D02*
X153232220Y-155372400D01*
%TO.C,R192*%
X151226720Y-153208400D02*
X151226720Y-151308400D01*
X151226720Y-151308400D02*
X154586720Y-151308400D01*
X154586720Y-151308400D02*
X154586720Y-153208400D01*
X154586720Y-153208400D02*
X151226720Y-153208400D01*
%TO.C,R191*%
X147774220Y-163114400D02*
X147774220Y-161214400D01*
X147774220Y-161214400D02*
X151134220Y-161214400D01*
X151134220Y-161214400D02*
X151134220Y-163114400D01*
X151134220Y-163114400D02*
X147774220Y-163114400D01*
%TO.C,R190*%
X147774220Y-153208400D02*
X147774220Y-151308400D01*
X147774220Y-151308400D02*
X151134220Y-151308400D01*
X151134220Y-151308400D02*
X151134220Y-153208400D01*
X151134220Y-153208400D02*
X147774220Y-153208400D01*
%TO.C,R189*%
X131957220Y-161976400D02*
X131957220Y-163876400D01*
X131957220Y-163876400D02*
X128597220Y-163876400D01*
X128597220Y-163876400D02*
X128597220Y-161976400D01*
X128597220Y-161976400D02*
X131957220Y-161976400D01*
%TO.C,R188*%
X131957220Y-154356400D02*
X131957220Y-156256400D01*
X131957220Y-156256400D02*
X128597220Y-156256400D01*
X128597220Y-156256400D02*
X128597220Y-154356400D01*
X128597220Y-154356400D02*
X131957220Y-154356400D01*
%TO.C,R187*%
X132026220Y-163876400D02*
X132026220Y-161976400D01*
X132026220Y-161976400D02*
X135386220Y-161976400D01*
X135386220Y-161976400D02*
X135386220Y-163876400D01*
X135386220Y-163876400D02*
X132026220Y-163876400D01*
%TO.C,R186*%
X132026220Y-156256400D02*
X132026220Y-154356400D01*
X132026220Y-154356400D02*
X135386220Y-154356400D01*
X135386220Y-154356400D02*
X135386220Y-156256400D01*
X135386220Y-156256400D02*
X132026220Y-156256400D01*
%TO.C,R185*%
X143873837Y-167317591D02*
X143873837Y-165417591D01*
X143873837Y-165417591D02*
X147233837Y-165417591D01*
X147233837Y-165417591D02*
X147233837Y-167317591D01*
X147233837Y-167317591D02*
X143873837Y-167317591D01*
%TO.C,R184*%
X147324220Y-151308400D02*
X147324220Y-153208400D01*
X147324220Y-153208400D02*
X143964220Y-153208400D01*
X143964220Y-153208400D02*
X143964220Y-151308400D01*
X143964220Y-151308400D02*
X147324220Y-151308400D01*
%TO.C,R183*%
X142775720Y-160198400D02*
X142775720Y-162098400D01*
X142775720Y-162098400D02*
X139415720Y-162098400D01*
X139415720Y-162098400D02*
X139415720Y-160198400D01*
X139415720Y-160198400D02*
X142775720Y-160198400D01*
%TO.C,R182*%
X142775720Y-156134400D02*
X142775720Y-158034400D01*
X142775720Y-158034400D02*
X139415720Y-158034400D01*
X139415720Y-158034400D02*
X139415720Y-156134400D01*
X139415720Y-156134400D02*
X142775720Y-156134400D01*
%TO.C,R181*%
X39815178Y-155692646D02*
X36455178Y-155692646D01*
X39815178Y-153792646D02*
X39815178Y-155692646D01*
X36455178Y-153792646D02*
X39815178Y-153792646D01*
X36455178Y-155692646D02*
X36455178Y-153792646D01*
%TO.C,R180*%
X35956480Y-160219280D02*
X35956480Y-163579280D01*
X34056480Y-160219280D02*
X35956480Y-160219280D01*
X34056480Y-163579280D02*
X34056480Y-160219280D01*
X35956480Y-163579280D02*
X34056480Y-163579280D01*
%TO.C,R179*%
X32691480Y-155869280D02*
X36051480Y-155869280D01*
X32691480Y-157769280D02*
X32691480Y-155869280D01*
X36051480Y-157769280D02*
X32691480Y-157769280D01*
X36051480Y-155869280D02*
X36051480Y-157769280D01*
%TO.C,R178*%
X34850480Y-163743280D02*
X38210480Y-163743280D01*
X34850480Y-165643280D02*
X34850480Y-163743280D01*
X38210480Y-165643280D02*
X34850480Y-165643280D01*
X38210480Y-163743280D02*
X38210480Y-165643280D01*
%TO.C,R177*%
X43322480Y-151987780D02*
X43322480Y-155347780D01*
X41422480Y-151987780D02*
X43322480Y-151987780D01*
X41422480Y-155347780D02*
X41422480Y-151987780D01*
X43322480Y-155347780D02*
X41422480Y-155347780D01*
%TO.C,R176*%
X40152480Y-159134280D02*
X40152480Y-155774280D01*
X42052480Y-159134280D02*
X40152480Y-159134280D01*
X42052480Y-155774280D02*
X42052480Y-159134280D01*
X40152480Y-155774280D02*
X42052480Y-155774280D01*
%TO.C,R175*%
X43322480Y-162124280D02*
X43322480Y-165484280D01*
X41422480Y-162124280D02*
X43322480Y-162124280D01*
X41422480Y-165484280D02*
X41422480Y-162124280D01*
X43322480Y-165484280D02*
X41422480Y-165484280D01*
%TO.C,R174*%
X40152480Y-169294280D02*
X40152480Y-165934280D01*
X42052480Y-169294280D02*
X40152480Y-169294280D01*
X42052480Y-165934280D02*
X42052480Y-169294280D01*
X40152480Y-165934280D02*
X42052480Y-165934280D01*
%TO.C,R173*%
X45354480Y-151987780D02*
X45354480Y-155347780D01*
X43454480Y-151987780D02*
X45354480Y-151987780D01*
X43454480Y-155347780D02*
X43454480Y-151987780D01*
X45354480Y-155347780D02*
X43454480Y-155347780D01*
%TO.C,R172*%
X45354480Y-162124280D02*
X45354480Y-165484280D01*
X43454480Y-162124280D02*
X45354480Y-162124280D01*
X43454480Y-165484280D02*
X43454480Y-162124280D01*
X45354480Y-165484280D02*
X43454480Y-165484280D01*
%TO.C,R171*%
X53069480Y-159801280D02*
X49709480Y-159801280D01*
X53069480Y-157901280D02*
X53069480Y-159801280D01*
X49709480Y-157901280D02*
X53069480Y-157901280D01*
X49709480Y-159801280D02*
X49709480Y-157901280D01*
%TO.C,R170*%
X49709480Y-155869280D02*
X53069480Y-155869280D01*
X49709480Y-157769280D02*
X49709480Y-155869280D01*
X53069480Y-157769280D02*
X49709480Y-157769280D01*
X53069480Y-155869280D02*
X53069480Y-157769280D01*
%TO.C,R169*%
X53092980Y-169707280D02*
X49732980Y-169707280D01*
X53092980Y-167807280D02*
X53092980Y-169707280D01*
X49732980Y-167807280D02*
X53092980Y-167807280D01*
X49732980Y-169707280D02*
X49732980Y-167807280D01*
%TO.C,R168*%
X49732980Y-165775280D02*
X53092980Y-165775280D01*
X49732980Y-167675280D02*
X49732980Y-165775280D01*
X53092980Y-167675280D02*
X49732980Y-167675280D01*
X53092980Y-165775280D02*
X53092980Y-167675280D01*
%TO.C,R167*%
X55133480Y-152345280D02*
X55133480Y-155705280D01*
X53233480Y-152345280D02*
X55133480Y-152345280D01*
X53233480Y-155705280D02*
X53233480Y-152345280D01*
X55133480Y-155705280D02*
X53233480Y-155705280D01*
%TO.C,R166*%
X55133480Y-155797780D02*
X55133480Y-159157780D01*
X53233480Y-155797780D02*
X55133480Y-155797780D01*
X53233480Y-159157780D02*
X53233480Y-155797780D01*
X55133480Y-159157780D02*
X53233480Y-159157780D01*
%TO.C,R165*%
X55133480Y-162227780D02*
X55133480Y-165587780D01*
X53233480Y-162227780D02*
X55133480Y-162227780D01*
X53233480Y-165587780D02*
X53233480Y-162227780D01*
X55133480Y-165587780D02*
X53233480Y-165587780D01*
%TO.C,R164*%
X55133480Y-165783780D02*
X55133480Y-169143780D01*
X53233480Y-165783780D02*
X55133480Y-165783780D01*
X53233480Y-169143780D02*
X53233480Y-165783780D01*
X55133480Y-169143780D02*
X53233480Y-169143780D01*
%TO.C,R163*%
X59107480Y-153964280D02*
X62467480Y-153964280D01*
X59107480Y-155864280D02*
X59107480Y-153964280D01*
X62467480Y-155864280D02*
X59107480Y-155864280D01*
X62467480Y-153964280D02*
X62467480Y-155864280D01*
%TO.C,R162*%
X58980480Y-163870280D02*
X62340480Y-163870280D01*
X58980480Y-165770280D02*
X58980480Y-163870280D01*
X62340480Y-165770280D02*
X58980480Y-165770280D01*
X62340480Y-163870280D02*
X62340480Y-165770280D01*
%TO.C,R161*%
X62536480Y-155107280D02*
X65896480Y-155107280D01*
X62536480Y-157007280D02*
X62536480Y-155107280D01*
X65896480Y-157007280D02*
X62536480Y-157007280D01*
X65896480Y-155107280D02*
X65896480Y-157007280D01*
%TO.C,R160*%
X62409480Y-165013280D02*
X65769480Y-165013280D01*
X62409480Y-166913280D02*
X62409480Y-165013280D01*
X65769480Y-166913280D02*
X62409480Y-166913280D01*
X65769480Y-165013280D02*
X65769480Y-166913280D01*
%TO.C,R159*%
X70722480Y-152943280D02*
X67362480Y-152943280D01*
X70722480Y-151043280D02*
X70722480Y-152943280D01*
X67362480Y-151043280D02*
X70722480Y-151043280D01*
X67362480Y-152943280D02*
X67362480Y-151043280D01*
%TO.C,R158*%
X65965480Y-155107280D02*
X69325480Y-155107280D01*
X65965480Y-157007280D02*
X65965480Y-155107280D01*
X69325480Y-157007280D02*
X65965480Y-157007280D01*
X69325480Y-155107280D02*
X69325480Y-157007280D01*
%TO.C,R157*%
X70656480Y-162849280D02*
X67296480Y-162849280D01*
X70656480Y-160949280D02*
X70656480Y-162849280D01*
X67296480Y-160949280D02*
X70656480Y-160949280D01*
X67296480Y-162849280D02*
X67296480Y-160949280D01*
%TO.C,R156*%
X65941980Y-165013280D02*
X69301980Y-165013280D01*
X65941980Y-166913280D02*
X65941980Y-165013280D01*
X69301980Y-166913280D02*
X65941980Y-166913280D01*
X69301980Y-165013280D02*
X69301980Y-166913280D01*
%TO.C,R155*%
X69394480Y-155107280D02*
X72754480Y-155107280D01*
X69394480Y-157007280D02*
X69394480Y-155107280D01*
X72754480Y-157007280D02*
X69394480Y-157007280D01*
X72754480Y-155107280D02*
X72754480Y-157007280D01*
%TO.C,R154*%
X69394480Y-165013280D02*
X72754480Y-165013280D01*
X69394480Y-166913280D02*
X69394480Y-165013280D01*
X72754480Y-166913280D02*
X69394480Y-166913280D01*
X72754480Y-165013280D02*
X72754480Y-166913280D01*
%TO.C,R153*%
X91931480Y-156245280D02*
X88571480Y-156245280D01*
X91931480Y-154345280D02*
X91931480Y-156245280D01*
X88571480Y-154345280D02*
X91931480Y-154345280D01*
X88571480Y-156245280D02*
X88571480Y-154345280D01*
%TO.C,R152*%
X91931480Y-163865280D02*
X88571480Y-163865280D01*
X91931480Y-161965280D02*
X91931480Y-163865280D01*
X88571480Y-161965280D02*
X91931480Y-161965280D01*
X88571480Y-163865280D02*
X88571480Y-161965280D01*
%TO.C,R151*%
X85142480Y-154345280D02*
X88502480Y-154345280D01*
X85142480Y-156245280D02*
X85142480Y-154345280D01*
X88502480Y-156245280D02*
X85142480Y-156245280D01*
X88502480Y-154345280D02*
X88502480Y-156245280D01*
%TO.C,R150*%
X85142480Y-161965280D02*
X88502480Y-161965280D01*
X85142480Y-163865280D02*
X85142480Y-161965280D01*
X88502480Y-163865280D02*
X85142480Y-163865280D01*
X88502480Y-161965280D02*
X88502480Y-163865280D01*
%TO.C,R149*%
X73294863Y-150904089D02*
X76654863Y-150904089D01*
X73294863Y-152804089D02*
X73294863Y-150904089D01*
X76654863Y-152804089D02*
X73294863Y-152804089D01*
X76654863Y-150904089D02*
X76654863Y-152804089D01*
%TO.C,R148*%
X76564480Y-166913280D02*
X73204480Y-166913280D01*
X76564480Y-165013280D02*
X76564480Y-166913280D01*
X73204480Y-165013280D02*
X76564480Y-165013280D01*
X73204480Y-166913280D02*
X73204480Y-165013280D01*
%TO.C,R147*%
X81112980Y-158023280D02*
X77752980Y-158023280D01*
X81112980Y-156123280D02*
X81112980Y-158023280D01*
X77752980Y-156123280D02*
X81112980Y-156123280D01*
X77752980Y-158023280D02*
X77752980Y-156123280D01*
%TO.C,R146*%
X81112980Y-162087280D02*
X77752980Y-162087280D01*
X81112980Y-160187280D02*
X81112980Y-162087280D01*
X77752980Y-160187280D02*
X81112980Y-160187280D01*
X77752980Y-162087280D02*
X77752980Y-160187280D01*
%TO.C,R145*%
X39955878Y-116666806D02*
X36595878Y-116666806D01*
X39955878Y-114766806D02*
X39955878Y-116666806D01*
X36595878Y-114766806D02*
X39955878Y-114766806D01*
X36595878Y-116666806D02*
X36595878Y-114766806D01*
%TO.C,R144*%
X36097180Y-121193440D02*
X36097180Y-124553440D01*
X34197180Y-121193440D02*
X36097180Y-121193440D01*
X34197180Y-124553440D02*
X34197180Y-121193440D01*
X36097180Y-124553440D02*
X34197180Y-124553440D01*
%TO.C,R143*%
X32832180Y-116843440D02*
X36192180Y-116843440D01*
X32832180Y-118743440D02*
X32832180Y-116843440D01*
X36192180Y-118743440D02*
X32832180Y-118743440D01*
X36192180Y-116843440D02*
X36192180Y-118743440D01*
%TO.C,R142*%
X34991180Y-124717440D02*
X38351180Y-124717440D01*
X34991180Y-126617440D02*
X34991180Y-124717440D01*
X38351180Y-126617440D02*
X34991180Y-126617440D01*
X38351180Y-124717440D02*
X38351180Y-126617440D01*
%TO.C,R141*%
X43463180Y-112961940D02*
X43463180Y-116321940D01*
X41563180Y-112961940D02*
X43463180Y-112961940D01*
X41563180Y-116321940D02*
X41563180Y-112961940D01*
X43463180Y-116321940D02*
X41563180Y-116321940D01*
%TO.C,R140*%
X40293180Y-120108440D02*
X40293180Y-116748440D01*
X42193180Y-120108440D02*
X40293180Y-120108440D01*
X42193180Y-116748440D02*
X42193180Y-120108440D01*
X40293180Y-116748440D02*
X42193180Y-116748440D01*
%TO.C,R139*%
X43463180Y-123098440D02*
X43463180Y-126458440D01*
X41563180Y-123098440D02*
X43463180Y-123098440D01*
X41563180Y-126458440D02*
X41563180Y-123098440D01*
X43463180Y-126458440D02*
X41563180Y-126458440D01*
%TO.C,R138*%
X40293180Y-130268440D02*
X40293180Y-126908440D01*
X42193180Y-130268440D02*
X40293180Y-130268440D01*
X42193180Y-126908440D02*
X42193180Y-130268440D01*
X40293180Y-126908440D02*
X42193180Y-126908440D01*
%TO.C,R137*%
X45495180Y-112961940D02*
X45495180Y-116321940D01*
X43595180Y-112961940D02*
X45495180Y-112961940D01*
X43595180Y-116321940D02*
X43595180Y-112961940D01*
X45495180Y-116321940D02*
X43595180Y-116321940D01*
%TO.C,R136*%
X45495180Y-123098440D02*
X45495180Y-126458440D01*
X43595180Y-123098440D02*
X45495180Y-123098440D01*
X43595180Y-126458440D02*
X43595180Y-123098440D01*
X45495180Y-126458440D02*
X43595180Y-126458440D01*
%TO.C,R135*%
X53210180Y-120775440D02*
X49850180Y-120775440D01*
X53210180Y-118875440D02*
X53210180Y-120775440D01*
X49850180Y-118875440D02*
X53210180Y-118875440D01*
X49850180Y-120775440D02*
X49850180Y-118875440D01*
%TO.C,R134*%
X49850180Y-116843440D02*
X53210180Y-116843440D01*
X49850180Y-118743440D02*
X49850180Y-116843440D01*
X53210180Y-118743440D02*
X49850180Y-118743440D01*
X53210180Y-116843440D02*
X53210180Y-118743440D01*
%TO.C,R133*%
X53233680Y-130681440D02*
X49873680Y-130681440D01*
X53233680Y-128781440D02*
X53233680Y-130681440D01*
X49873680Y-128781440D02*
X53233680Y-128781440D01*
X49873680Y-130681440D02*
X49873680Y-128781440D01*
%TO.C,R132*%
X49873680Y-126749440D02*
X53233680Y-126749440D01*
X49873680Y-128649440D02*
X49873680Y-126749440D01*
X53233680Y-128649440D02*
X49873680Y-128649440D01*
X53233680Y-126749440D02*
X53233680Y-128649440D01*
%TO.C,R131*%
X55274180Y-113319440D02*
X55274180Y-116679440D01*
X53374180Y-113319440D02*
X55274180Y-113319440D01*
X53374180Y-116679440D02*
X53374180Y-113319440D01*
X55274180Y-116679440D02*
X53374180Y-116679440D01*
%TO.C,R130*%
X55274180Y-116771940D02*
X55274180Y-120131940D01*
X53374180Y-116771940D02*
X55274180Y-116771940D01*
X53374180Y-120131940D02*
X53374180Y-116771940D01*
X55274180Y-120131940D02*
X53374180Y-120131940D01*
%TO.C,R129*%
X55274180Y-123201940D02*
X55274180Y-126561940D01*
X53374180Y-123201940D02*
X55274180Y-123201940D01*
X53374180Y-126561940D02*
X53374180Y-123201940D01*
X55274180Y-126561940D02*
X53374180Y-126561940D01*
%TO.C,R128*%
X55274180Y-126757940D02*
X55274180Y-130117940D01*
X53374180Y-126757940D02*
X55274180Y-126757940D01*
X53374180Y-130117940D02*
X53374180Y-126757940D01*
X55274180Y-130117940D02*
X53374180Y-130117940D01*
%TO.C,R127*%
X59248180Y-114938440D02*
X62608180Y-114938440D01*
X59248180Y-116838440D02*
X59248180Y-114938440D01*
X62608180Y-116838440D02*
X59248180Y-116838440D01*
X62608180Y-114938440D02*
X62608180Y-116838440D01*
%TO.C,R126*%
X59121180Y-124844440D02*
X62481180Y-124844440D01*
X59121180Y-126744440D02*
X59121180Y-124844440D01*
X62481180Y-126744440D02*
X59121180Y-126744440D01*
X62481180Y-124844440D02*
X62481180Y-126744440D01*
%TO.C,R125*%
X62677180Y-116081440D02*
X66037180Y-116081440D01*
X62677180Y-117981440D02*
X62677180Y-116081440D01*
X66037180Y-117981440D02*
X62677180Y-117981440D01*
X66037180Y-116081440D02*
X66037180Y-117981440D01*
%TO.C,R124*%
X62550180Y-125987440D02*
X65910180Y-125987440D01*
X62550180Y-127887440D02*
X62550180Y-125987440D01*
X65910180Y-127887440D02*
X62550180Y-127887440D01*
X65910180Y-125987440D02*
X65910180Y-127887440D01*
%TO.C,R123*%
X70863180Y-113917440D02*
X67503180Y-113917440D01*
X70863180Y-112017440D02*
X70863180Y-113917440D01*
X67503180Y-112017440D02*
X70863180Y-112017440D01*
X67503180Y-113917440D02*
X67503180Y-112017440D01*
%TO.C,R122*%
X66106180Y-116081440D02*
X69466180Y-116081440D01*
X66106180Y-117981440D02*
X66106180Y-116081440D01*
X69466180Y-117981440D02*
X66106180Y-117981440D01*
X69466180Y-116081440D02*
X69466180Y-117981440D01*
%TO.C,R121*%
X70797180Y-123823440D02*
X67437180Y-123823440D01*
X70797180Y-121923440D02*
X70797180Y-123823440D01*
X67437180Y-121923440D02*
X70797180Y-121923440D01*
X67437180Y-123823440D02*
X67437180Y-121923440D01*
%TO.C,R120*%
X66082680Y-125987440D02*
X69442680Y-125987440D01*
X66082680Y-127887440D02*
X66082680Y-125987440D01*
X69442680Y-127887440D02*
X66082680Y-127887440D01*
X69442680Y-125987440D02*
X69442680Y-127887440D01*
%TO.C,R119*%
X69535180Y-116081440D02*
X72895180Y-116081440D01*
X69535180Y-117981440D02*
X69535180Y-116081440D01*
X72895180Y-117981440D02*
X69535180Y-117981440D01*
X72895180Y-116081440D02*
X72895180Y-117981440D01*
%TO.C,R118*%
X69535180Y-125987440D02*
X72895180Y-125987440D01*
X69535180Y-127887440D02*
X69535180Y-125987440D01*
X72895180Y-127887440D02*
X69535180Y-127887440D01*
X72895180Y-125987440D02*
X72895180Y-127887440D01*
%TO.C,R117*%
X92072180Y-117219440D02*
X88712180Y-117219440D01*
X92072180Y-115319440D02*
X92072180Y-117219440D01*
X88712180Y-115319440D02*
X92072180Y-115319440D01*
X88712180Y-117219440D02*
X88712180Y-115319440D01*
%TO.C,R116*%
X92072180Y-124839440D02*
X88712180Y-124839440D01*
X92072180Y-122939440D02*
X92072180Y-124839440D01*
X88712180Y-122939440D02*
X92072180Y-122939440D01*
X88712180Y-124839440D02*
X88712180Y-122939440D01*
%TO.C,R115*%
X85283180Y-115319440D02*
X88643180Y-115319440D01*
X85283180Y-117219440D02*
X85283180Y-115319440D01*
X88643180Y-117219440D02*
X85283180Y-117219440D01*
X88643180Y-115319440D02*
X88643180Y-117219440D01*
%TO.C,R114*%
X85283180Y-122939440D02*
X88643180Y-122939440D01*
X85283180Y-124839440D02*
X85283180Y-122939440D01*
X88643180Y-124839440D02*
X85283180Y-124839440D01*
X88643180Y-122939440D02*
X88643180Y-124839440D01*
%TO.C,R113*%
X73435563Y-111878249D02*
X76795563Y-111878249D01*
X73435563Y-113778249D02*
X73435563Y-111878249D01*
X76795563Y-113778249D02*
X73435563Y-113778249D01*
X76795563Y-111878249D02*
X76795563Y-113778249D01*
%TO.C,R112*%
X76705180Y-127887440D02*
X73345180Y-127887440D01*
X76705180Y-125987440D02*
X76705180Y-127887440D01*
X73345180Y-125987440D02*
X76705180Y-125987440D01*
X73345180Y-127887440D02*
X73345180Y-125987440D01*
%TO.C,R111*%
X81253680Y-118997440D02*
X77893680Y-118997440D01*
X81253680Y-117097440D02*
X81253680Y-118997440D01*
X77893680Y-117097440D02*
X81253680Y-117097440D01*
X77893680Y-118997440D02*
X77893680Y-117097440D01*
%TO.C,R110*%
X81253680Y-123061440D02*
X77893680Y-123061440D01*
X81253680Y-121161440D02*
X81253680Y-123061440D01*
X77893680Y-121161440D02*
X81253680Y-121161440D01*
X77893680Y-123061440D02*
X77893680Y-121161440D01*
%TO.C,R109*%
X39961678Y-77675146D02*
X36601678Y-77675146D01*
X39961678Y-75775146D02*
X39961678Y-77675146D01*
X36601678Y-75775146D02*
X39961678Y-75775146D01*
X36601678Y-77675146D02*
X36601678Y-75775146D01*
%TO.C,R108*%
X36102980Y-82201780D02*
X36102980Y-85561780D01*
X34202980Y-82201780D02*
X36102980Y-82201780D01*
X34202980Y-85561780D02*
X34202980Y-82201780D01*
X36102980Y-85561780D02*
X34202980Y-85561780D01*
%TO.C,R107*%
X32837980Y-77851780D02*
X36197980Y-77851780D01*
X32837980Y-79751780D02*
X32837980Y-77851780D01*
X36197980Y-79751780D02*
X32837980Y-79751780D01*
X36197980Y-77851780D02*
X36197980Y-79751780D01*
%TO.C,R106*%
X34996980Y-85725780D02*
X38356980Y-85725780D01*
X34996980Y-87625780D02*
X34996980Y-85725780D01*
X38356980Y-87625780D02*
X34996980Y-87625780D01*
X38356980Y-85725780D02*
X38356980Y-87625780D01*
%TO.C,R105*%
X43468980Y-73970280D02*
X43468980Y-77330280D01*
X41568980Y-73970280D02*
X43468980Y-73970280D01*
X41568980Y-77330280D02*
X41568980Y-73970280D01*
X43468980Y-77330280D02*
X41568980Y-77330280D01*
%TO.C,R104*%
X40298980Y-81116780D02*
X40298980Y-77756780D01*
X42198980Y-81116780D02*
X40298980Y-81116780D01*
X42198980Y-77756780D02*
X42198980Y-81116780D01*
X40298980Y-77756780D02*
X42198980Y-77756780D01*
%TO.C,R103*%
X43468980Y-84106780D02*
X43468980Y-87466780D01*
X41568980Y-84106780D02*
X43468980Y-84106780D01*
X41568980Y-87466780D02*
X41568980Y-84106780D01*
X43468980Y-87466780D02*
X41568980Y-87466780D01*
%TO.C,R102*%
X40298980Y-91276780D02*
X40298980Y-87916780D01*
X42198980Y-91276780D02*
X40298980Y-91276780D01*
X42198980Y-87916780D02*
X42198980Y-91276780D01*
X40298980Y-87916780D02*
X42198980Y-87916780D01*
%TO.C,R101*%
X45500980Y-73970280D02*
X45500980Y-77330280D01*
X43600980Y-73970280D02*
X45500980Y-73970280D01*
X43600980Y-77330280D02*
X43600980Y-73970280D01*
X45500980Y-77330280D02*
X43600980Y-77330280D01*
%TO.C,R100*%
X45500980Y-84106780D02*
X45500980Y-87466780D01*
X43600980Y-84106780D02*
X45500980Y-84106780D01*
X43600980Y-87466780D02*
X43600980Y-84106780D01*
X45500980Y-87466780D02*
X43600980Y-87466780D01*
%TO.C,R99*%
X53215980Y-81783780D02*
X49855980Y-81783780D01*
X53215980Y-79883780D02*
X53215980Y-81783780D01*
X49855980Y-79883780D02*
X53215980Y-79883780D01*
X49855980Y-81783780D02*
X49855980Y-79883780D01*
%TO.C,R98*%
X49855980Y-77851780D02*
X53215980Y-77851780D01*
X49855980Y-79751780D02*
X49855980Y-77851780D01*
X53215980Y-79751780D02*
X49855980Y-79751780D01*
X53215980Y-77851780D02*
X53215980Y-79751780D01*
%TO.C,R97*%
X53239480Y-91689780D02*
X49879480Y-91689780D01*
X53239480Y-89789780D02*
X53239480Y-91689780D01*
X49879480Y-89789780D02*
X53239480Y-89789780D01*
X49879480Y-91689780D02*
X49879480Y-89789780D01*
%TO.C,R96*%
X49879480Y-87757780D02*
X53239480Y-87757780D01*
X49879480Y-89657780D02*
X49879480Y-87757780D01*
X53239480Y-89657780D02*
X49879480Y-89657780D01*
X53239480Y-87757780D02*
X53239480Y-89657780D01*
%TO.C,R95*%
X55279980Y-74327780D02*
X55279980Y-77687780D01*
X53379980Y-74327780D02*
X55279980Y-74327780D01*
X53379980Y-77687780D02*
X53379980Y-74327780D01*
X55279980Y-77687780D02*
X53379980Y-77687780D01*
%TO.C,R94*%
X55279980Y-77780280D02*
X55279980Y-81140280D01*
X53379980Y-77780280D02*
X55279980Y-77780280D01*
X53379980Y-81140280D02*
X53379980Y-77780280D01*
X55279980Y-81140280D02*
X53379980Y-81140280D01*
%TO.C,R93*%
X55279980Y-84210280D02*
X55279980Y-87570280D01*
X53379980Y-84210280D02*
X55279980Y-84210280D01*
X53379980Y-87570280D02*
X53379980Y-84210280D01*
X55279980Y-87570280D02*
X53379980Y-87570280D01*
%TO.C,R92*%
X55279980Y-87766280D02*
X55279980Y-91126280D01*
X53379980Y-87766280D02*
X55279980Y-87766280D01*
X53379980Y-91126280D02*
X53379980Y-87766280D01*
X55279980Y-91126280D02*
X53379980Y-91126280D01*
%TO.C,R91*%
X59253980Y-75946780D02*
X62613980Y-75946780D01*
X59253980Y-77846780D02*
X59253980Y-75946780D01*
X62613980Y-77846780D02*
X59253980Y-77846780D01*
X62613980Y-75946780D02*
X62613980Y-77846780D01*
%TO.C,R90*%
X59126980Y-85852780D02*
X62486980Y-85852780D01*
X59126980Y-87752780D02*
X59126980Y-85852780D01*
X62486980Y-87752780D02*
X59126980Y-87752780D01*
X62486980Y-85852780D02*
X62486980Y-87752780D01*
%TO.C,R89*%
X62682980Y-77089780D02*
X66042980Y-77089780D01*
X62682980Y-78989780D02*
X62682980Y-77089780D01*
X66042980Y-78989780D02*
X62682980Y-78989780D01*
X66042980Y-77089780D02*
X66042980Y-78989780D01*
%TO.C,R88*%
X62555980Y-86995780D02*
X65915980Y-86995780D01*
X62555980Y-88895780D02*
X62555980Y-86995780D01*
X65915980Y-88895780D02*
X62555980Y-88895780D01*
X65915980Y-86995780D02*
X65915980Y-88895780D01*
%TO.C,R87*%
X70868980Y-74925780D02*
X67508980Y-74925780D01*
X70868980Y-73025780D02*
X70868980Y-74925780D01*
X67508980Y-73025780D02*
X70868980Y-73025780D01*
X67508980Y-74925780D02*
X67508980Y-73025780D01*
%TO.C,R86*%
X66111980Y-77089780D02*
X69471980Y-77089780D01*
X66111980Y-78989780D02*
X66111980Y-77089780D01*
X69471980Y-78989780D02*
X66111980Y-78989780D01*
X69471980Y-77089780D02*
X69471980Y-78989780D01*
%TO.C,R85*%
X70802980Y-84831780D02*
X67442980Y-84831780D01*
X70802980Y-82931780D02*
X70802980Y-84831780D01*
X67442980Y-82931780D02*
X70802980Y-82931780D01*
X67442980Y-84831780D02*
X67442980Y-82931780D01*
%TO.C,R84*%
X66088480Y-86995780D02*
X69448480Y-86995780D01*
X66088480Y-88895780D02*
X66088480Y-86995780D01*
X69448480Y-88895780D02*
X66088480Y-88895780D01*
X69448480Y-86995780D02*
X69448480Y-88895780D01*
%TO.C,R83*%
X69540980Y-77089780D02*
X72900980Y-77089780D01*
X69540980Y-78989780D02*
X69540980Y-77089780D01*
X72900980Y-78989780D02*
X69540980Y-78989780D01*
X72900980Y-77089780D02*
X72900980Y-78989780D01*
%TO.C,R82*%
X69540980Y-86995780D02*
X72900980Y-86995780D01*
X69540980Y-88895780D02*
X69540980Y-86995780D01*
X72900980Y-88895780D02*
X69540980Y-88895780D01*
X72900980Y-86995780D02*
X72900980Y-88895780D01*
%TO.C,R81*%
X92077980Y-78227780D02*
X88717980Y-78227780D01*
X92077980Y-76327780D02*
X92077980Y-78227780D01*
X88717980Y-76327780D02*
X92077980Y-76327780D01*
X88717980Y-78227780D02*
X88717980Y-76327780D01*
%TO.C,R80*%
X92077980Y-85847780D02*
X88717980Y-85847780D01*
X92077980Y-83947780D02*
X92077980Y-85847780D01*
X88717980Y-83947780D02*
X92077980Y-83947780D01*
X88717980Y-85847780D02*
X88717980Y-83947780D01*
%TO.C,R79*%
X85288980Y-76327780D02*
X88648980Y-76327780D01*
X85288980Y-78227780D02*
X85288980Y-76327780D01*
X88648980Y-78227780D02*
X85288980Y-78227780D01*
X88648980Y-76327780D02*
X88648980Y-78227780D01*
%TO.C,R78*%
X85288980Y-83947780D02*
X88648980Y-83947780D01*
X85288980Y-85847780D02*
X85288980Y-83947780D01*
X88648980Y-85847780D02*
X85288980Y-85847780D01*
X88648980Y-83947780D02*
X88648980Y-85847780D01*
%TO.C,R77*%
X73441363Y-72886589D02*
X76801363Y-72886589D01*
X73441363Y-74786589D02*
X73441363Y-72886589D01*
X76801363Y-74786589D02*
X73441363Y-74786589D01*
X76801363Y-72886589D02*
X76801363Y-74786589D01*
%TO.C,R76*%
X76710980Y-88895780D02*
X73350980Y-88895780D01*
X76710980Y-86995780D02*
X76710980Y-88895780D01*
X73350980Y-86995780D02*
X76710980Y-86995780D01*
X73350980Y-88895780D02*
X73350980Y-86995780D01*
%TO.C,R75*%
X81259480Y-80005780D02*
X77899480Y-80005780D01*
X81259480Y-78105780D02*
X81259480Y-80005780D01*
X77899480Y-78105780D02*
X81259480Y-78105780D01*
X77899480Y-80005780D02*
X77899480Y-78105780D01*
%TO.C,R74*%
X81259480Y-84069780D02*
X77899480Y-84069780D01*
X81259480Y-82169780D02*
X81259480Y-84069780D01*
X77899480Y-82169780D02*
X81259480Y-82169780D01*
X77899480Y-84069780D02*
X77899480Y-82169780D01*
%TO.C,R73*%
X39954678Y-38733586D02*
X36594678Y-38733586D01*
X39954678Y-36833586D02*
X39954678Y-38733586D01*
X36594678Y-36833586D02*
X39954678Y-36833586D01*
X36594678Y-38733586D02*
X36594678Y-36833586D01*
%TO.C,R72*%
X36095980Y-43260220D02*
X36095980Y-46620220D01*
X34195980Y-43260220D02*
X36095980Y-43260220D01*
X34195980Y-46620220D02*
X34195980Y-43260220D01*
X36095980Y-46620220D02*
X34195980Y-46620220D01*
%TO.C,R71*%
X32830980Y-38910220D02*
X36190980Y-38910220D01*
X32830980Y-40810220D02*
X32830980Y-38910220D01*
X36190980Y-40810220D02*
X32830980Y-40810220D01*
X36190980Y-38910220D02*
X36190980Y-40810220D01*
%TO.C,R70*%
X34989980Y-46784220D02*
X38349980Y-46784220D01*
X34989980Y-48684220D02*
X34989980Y-46784220D01*
X38349980Y-48684220D02*
X34989980Y-48684220D01*
X38349980Y-46784220D02*
X38349980Y-48684220D01*
%TO.C,R69*%
X43461980Y-35028720D02*
X43461980Y-38388720D01*
X41561980Y-35028720D02*
X43461980Y-35028720D01*
X41561980Y-38388720D02*
X41561980Y-35028720D01*
X43461980Y-38388720D02*
X41561980Y-38388720D01*
%TO.C,R68*%
X40291980Y-42175220D02*
X40291980Y-38815220D01*
X42191980Y-42175220D02*
X40291980Y-42175220D01*
X42191980Y-38815220D02*
X42191980Y-42175220D01*
X40291980Y-38815220D02*
X42191980Y-38815220D01*
%TO.C,R67*%
X43461980Y-45165220D02*
X43461980Y-48525220D01*
X41561980Y-45165220D02*
X43461980Y-45165220D01*
X41561980Y-48525220D02*
X41561980Y-45165220D01*
X43461980Y-48525220D02*
X41561980Y-48525220D01*
%TO.C,R66*%
X40291980Y-52335220D02*
X40291980Y-48975220D01*
X42191980Y-52335220D02*
X40291980Y-52335220D01*
X42191980Y-48975220D02*
X42191980Y-52335220D01*
X40291980Y-48975220D02*
X42191980Y-48975220D01*
%TO.C,R65*%
X45493980Y-35028720D02*
X45493980Y-38388720D01*
X43593980Y-35028720D02*
X45493980Y-35028720D01*
X43593980Y-38388720D02*
X43593980Y-35028720D01*
X45493980Y-38388720D02*
X43593980Y-38388720D01*
%TO.C,R64*%
X45493980Y-45165220D02*
X45493980Y-48525220D01*
X43593980Y-45165220D02*
X45493980Y-45165220D01*
X43593980Y-48525220D02*
X43593980Y-45165220D01*
X45493980Y-48525220D02*
X43593980Y-48525220D01*
%TO.C,R63*%
X53208980Y-42842220D02*
X49848980Y-42842220D01*
X53208980Y-40942220D02*
X53208980Y-42842220D01*
X49848980Y-40942220D02*
X53208980Y-40942220D01*
X49848980Y-42842220D02*
X49848980Y-40942220D01*
%TO.C,R62*%
X49848980Y-38910220D02*
X53208980Y-38910220D01*
X49848980Y-40810220D02*
X49848980Y-38910220D01*
X53208980Y-40810220D02*
X49848980Y-40810220D01*
X53208980Y-38910220D02*
X53208980Y-40810220D01*
%TO.C,R61*%
X53232480Y-52748220D02*
X49872480Y-52748220D01*
X53232480Y-50848220D02*
X53232480Y-52748220D01*
X49872480Y-50848220D02*
X53232480Y-50848220D01*
X49872480Y-52748220D02*
X49872480Y-50848220D01*
%TO.C,R60*%
X49872480Y-48816220D02*
X53232480Y-48816220D01*
X49872480Y-50716220D02*
X49872480Y-48816220D01*
X53232480Y-50716220D02*
X49872480Y-50716220D01*
X53232480Y-48816220D02*
X53232480Y-50716220D01*
%TO.C,R59*%
X55272980Y-35386220D02*
X55272980Y-38746220D01*
X53372980Y-35386220D02*
X55272980Y-35386220D01*
X53372980Y-38746220D02*
X53372980Y-35386220D01*
X55272980Y-38746220D02*
X53372980Y-38746220D01*
%TO.C,R58*%
X55272980Y-38838720D02*
X55272980Y-42198720D01*
X53372980Y-38838720D02*
X55272980Y-38838720D01*
X53372980Y-42198720D02*
X53372980Y-38838720D01*
X55272980Y-42198720D02*
X53372980Y-42198720D01*
%TO.C,R57*%
X55272980Y-45268720D02*
X55272980Y-48628720D01*
X53372980Y-45268720D02*
X55272980Y-45268720D01*
X53372980Y-48628720D02*
X53372980Y-45268720D01*
X55272980Y-48628720D02*
X53372980Y-48628720D01*
%TO.C,R56*%
X55272980Y-48824720D02*
X55272980Y-52184720D01*
X53372980Y-48824720D02*
X55272980Y-48824720D01*
X53372980Y-52184720D02*
X53372980Y-48824720D01*
X55272980Y-52184720D02*
X53372980Y-52184720D01*
%TO.C,R55*%
X59246980Y-37005220D02*
X62606980Y-37005220D01*
X59246980Y-38905220D02*
X59246980Y-37005220D01*
X62606980Y-38905220D02*
X59246980Y-38905220D01*
X62606980Y-37005220D02*
X62606980Y-38905220D01*
%TO.C,R54*%
X59119980Y-46911220D02*
X62479980Y-46911220D01*
X59119980Y-48811220D02*
X59119980Y-46911220D01*
X62479980Y-48811220D02*
X59119980Y-48811220D01*
X62479980Y-46911220D02*
X62479980Y-48811220D01*
%TO.C,R53*%
X62675980Y-38148220D02*
X66035980Y-38148220D01*
X62675980Y-40048220D02*
X62675980Y-38148220D01*
X66035980Y-40048220D02*
X62675980Y-40048220D01*
X66035980Y-38148220D02*
X66035980Y-40048220D01*
%TO.C,R52*%
X62548980Y-48054220D02*
X65908980Y-48054220D01*
X62548980Y-49954220D02*
X62548980Y-48054220D01*
X65908980Y-49954220D02*
X62548980Y-49954220D01*
X65908980Y-48054220D02*
X65908980Y-49954220D01*
%TO.C,R50*%
X66104980Y-38148220D02*
X69464980Y-38148220D01*
X66104980Y-40048220D02*
X66104980Y-38148220D01*
X69464980Y-40048220D02*
X66104980Y-40048220D01*
X69464980Y-38148220D02*
X69464980Y-40048220D01*
%TO.C,R49*%
X70795980Y-45890220D02*
X67435980Y-45890220D01*
X70795980Y-43990220D02*
X70795980Y-45890220D01*
X67435980Y-43990220D02*
X70795980Y-43990220D01*
X67435980Y-45890220D02*
X67435980Y-43990220D01*
%TO.C,R48*%
X66081480Y-48054220D02*
X69441480Y-48054220D01*
X66081480Y-49954220D02*
X66081480Y-48054220D01*
X69441480Y-49954220D02*
X66081480Y-49954220D01*
X69441480Y-48054220D02*
X69441480Y-49954220D01*
%TO.C,R47*%
X69533980Y-38148220D02*
X72893980Y-38148220D01*
X69533980Y-40048220D02*
X69533980Y-38148220D01*
X72893980Y-40048220D02*
X69533980Y-40048220D01*
X72893980Y-38148220D02*
X72893980Y-40048220D01*
%TO.C,R46*%
X69533980Y-48054220D02*
X72893980Y-48054220D01*
X69533980Y-49954220D02*
X69533980Y-48054220D01*
X72893980Y-49954220D02*
X69533980Y-49954220D01*
X72893980Y-48054220D02*
X72893980Y-49954220D01*
%TO.C,R45*%
X92070980Y-39286220D02*
X88710980Y-39286220D01*
X92070980Y-37386220D02*
X92070980Y-39286220D01*
X88710980Y-37386220D02*
X92070980Y-37386220D01*
X88710980Y-39286220D02*
X88710980Y-37386220D01*
%TO.C,R44*%
X92070980Y-46906220D02*
X88710980Y-46906220D01*
X92070980Y-45006220D02*
X92070980Y-46906220D01*
X88710980Y-45006220D02*
X92070980Y-45006220D01*
X88710980Y-46906220D02*
X88710980Y-45006220D01*
%TO.C,R43*%
X85281980Y-37386220D02*
X88641980Y-37386220D01*
X85281980Y-39286220D02*
X85281980Y-37386220D01*
X88641980Y-39286220D02*
X85281980Y-39286220D01*
X88641980Y-37386220D02*
X88641980Y-39286220D01*
%TO.C,R42*%
X85281980Y-45006220D02*
X88641980Y-45006220D01*
X85281980Y-46906220D02*
X85281980Y-45006220D01*
X88641980Y-46906220D02*
X85281980Y-46906220D01*
X88641980Y-45006220D02*
X88641980Y-46906220D01*
%TO.C,R41*%
X73434363Y-33945029D02*
X76794363Y-33945029D01*
X73434363Y-35845029D02*
X73434363Y-33945029D01*
X76794363Y-35845029D02*
X73434363Y-35845029D01*
X76794363Y-33945029D02*
X76794363Y-35845029D01*
%TO.C,R40*%
X76703980Y-49954220D02*
X73343980Y-49954220D01*
X76703980Y-48054220D02*
X76703980Y-49954220D01*
X73343980Y-48054220D02*
X76703980Y-48054220D01*
X73343980Y-49954220D02*
X73343980Y-48054220D01*
%TO.C,R39*%
X81252480Y-41064220D02*
X77892480Y-41064220D01*
X81252480Y-39164220D02*
X81252480Y-41064220D01*
X77892480Y-39164220D02*
X81252480Y-39164220D01*
X77892480Y-41064220D02*
X77892480Y-39164220D01*
%TO.C,R38*%
X81252480Y-45128220D02*
X77892480Y-45128220D01*
X81252480Y-43228220D02*
X81252480Y-45128220D01*
X77892480Y-43228220D02*
X81252480Y-43228220D01*
X77892480Y-45128220D02*
X77892480Y-43228220D01*
%TO.C,R37*%
X112329000Y-157405280D02*
X112329000Y-160765280D01*
X110429000Y-157405280D02*
X112329000Y-157405280D01*
X110429000Y-160765280D02*
X110429000Y-157405280D01*
X112329000Y-160765280D02*
X110429000Y-160765280D01*
%TO.C,R36*%
X112043000Y-147063500D02*
X108683000Y-147063500D01*
X112043000Y-145163500D02*
X112043000Y-147063500D01*
X108683000Y-145163500D02*
X112043000Y-145163500D01*
X108683000Y-147063500D02*
X108683000Y-145163500D01*
%TO.C,R35*%
X112329000Y-160943500D02*
X112329000Y-164303500D01*
X110429000Y-160943500D02*
X112329000Y-160943500D01*
X110429000Y-164303500D02*
X110429000Y-160943500D01*
X112329000Y-164303500D02*
X110429000Y-164303500D01*
%TO.C,R34*%
X124530020Y-160276500D02*
X127890020Y-160276500D01*
X124530020Y-162176500D02*
X124530020Y-160276500D01*
X127890020Y-162176500D02*
X124530020Y-162176500D01*
X127890020Y-160276500D02*
X127890020Y-162176500D01*
%TO.C,R33*%
X95937500Y-162176500D02*
X92577500Y-162176500D01*
X95937500Y-160276500D02*
X95937500Y-162176500D01*
X92577500Y-160276500D02*
X95937500Y-160276500D01*
X92577500Y-162176500D02*
X92577500Y-160276500D01*
%TO.C,R32*%
X110297000Y-157405280D02*
X110297000Y-160765280D01*
X108397000Y-157405280D02*
X110297000Y-157405280D01*
X108397000Y-160765280D02*
X108397000Y-157405280D01*
X110297000Y-160765280D02*
X108397000Y-160765280D01*
%TO.C,R31*%
X129987000Y-141253000D02*
X129987000Y-137893000D01*
X131887000Y-141253000D02*
X129987000Y-141253000D01*
X131887000Y-137893000D02*
X131887000Y-141253000D01*
X129987000Y-137893000D02*
X131887000Y-137893000D01*
%TO.C,R30*%
X127955000Y-141253000D02*
X127955000Y-137893000D01*
X129855000Y-141253000D02*
X127955000Y-141253000D01*
X129855000Y-137893000D02*
X129855000Y-141253000D01*
X127955000Y-137893000D02*
X129855000Y-137893000D01*
%TO.C,R29*%
X90744000Y-141253000D02*
X90744000Y-137893000D01*
X92644000Y-141253000D02*
X90744000Y-141253000D01*
X92644000Y-137893000D02*
X92644000Y-141253000D01*
X90744000Y-137893000D02*
X92644000Y-137893000D01*
%TO.C,R28*%
X88712000Y-141253000D02*
X88712000Y-137893000D01*
X90612000Y-141253000D02*
X88712000Y-141253000D01*
X90612000Y-137893000D02*
X90612000Y-141253000D01*
X88712000Y-137893000D02*
X90612000Y-137893000D01*
%TO.C,R27*%
X112329000Y-118398500D02*
X112329000Y-121758500D01*
X110429000Y-118398500D02*
X112329000Y-118398500D01*
X110429000Y-121758500D02*
X110429000Y-118398500D01*
X112329000Y-121758500D02*
X110429000Y-121758500D01*
%TO.C,R26*%
X124601180Y-121287500D02*
X127961180Y-121287500D01*
X124601180Y-123187500D02*
X124601180Y-121287500D01*
X127961180Y-123187500D02*
X124601180Y-123187500D01*
X127961180Y-121287500D02*
X127961180Y-123187500D01*
%TO.C,R25*%
X96084180Y-123187500D02*
X92724180Y-123187500D01*
X96084180Y-121287500D02*
X96084180Y-123187500D01*
X92724180Y-121287500D02*
X96084180Y-121287500D01*
X92724180Y-123187500D02*
X92724180Y-121287500D01*
%TO.C,R24*%
X110297000Y-118398500D02*
X110297000Y-121758500D01*
X108397000Y-118398500D02*
X110297000Y-118398500D01*
X108397000Y-121758500D02*
X108397000Y-118398500D01*
X110297000Y-121758500D02*
X108397000Y-121758500D01*
%TO.C,R23*%
X130241000Y-102327500D02*
X130241000Y-98967500D01*
X132141000Y-102327500D02*
X130241000Y-102327500D01*
X132141000Y-98967500D02*
X132141000Y-102327500D01*
X130241000Y-98967500D02*
X132141000Y-98967500D01*
%TO.C,R22*%
X128209000Y-102327500D02*
X128209000Y-98967500D01*
X130109000Y-102327500D02*
X128209000Y-102327500D01*
X130109000Y-98967500D02*
X130109000Y-102327500D01*
X128209000Y-98967500D02*
X130109000Y-98967500D01*
%TO.C,R21*%
X90744000Y-102327500D02*
X90744000Y-98967500D01*
X92644000Y-102327500D02*
X90744000Y-102327500D01*
X92644000Y-98967500D02*
X92644000Y-102327500D01*
X90744000Y-98967500D02*
X92644000Y-98967500D01*
%TO.C,R20*%
X88712000Y-102327500D02*
X88712000Y-98967500D01*
X90612000Y-102327500D02*
X88712000Y-102327500D01*
X90612000Y-98967500D02*
X90612000Y-102327500D01*
X88712000Y-98967500D02*
X90612000Y-98967500D01*
%TO.C,R19*%
X112329000Y-79409500D02*
X112329000Y-82769500D01*
X110429000Y-79409500D02*
X112329000Y-79409500D01*
X110429000Y-82769500D02*
X110429000Y-79409500D01*
X112329000Y-82769500D02*
X110429000Y-82769500D01*
%TO.C,R18*%
X124590980Y-82298500D02*
X127950980Y-82298500D01*
X124590980Y-84198500D02*
X124590980Y-82298500D01*
X127950980Y-84198500D02*
X124590980Y-84198500D01*
X127950980Y-82298500D02*
X127950980Y-84198500D01*
%TO.C,R17*%
X96137480Y-84135000D02*
X92777480Y-84135000D01*
X96137480Y-82235000D02*
X96137480Y-84135000D01*
X92777480Y-82235000D02*
X96137480Y-82235000D01*
X92777480Y-84135000D02*
X92777480Y-82235000D01*
%TO.C,R16*%
X110297000Y-79409500D02*
X110297000Y-82769500D01*
X108397000Y-79409500D02*
X110297000Y-79409500D01*
X108397000Y-82769500D02*
X108397000Y-79409500D01*
X110297000Y-82769500D02*
X108397000Y-82769500D01*
%TO.C,R15*%
X130368000Y-63465500D02*
X130368000Y-60105500D01*
X132268000Y-63465500D02*
X130368000Y-63465500D01*
X132268000Y-60105500D02*
X132268000Y-63465500D01*
X130368000Y-60105500D02*
X132268000Y-60105500D01*
%TO.C,R14*%
X128336000Y-63465500D02*
X128336000Y-60105500D01*
X130236000Y-63465500D02*
X128336000Y-63465500D01*
X130236000Y-60105500D02*
X130236000Y-63465500D01*
X128336000Y-60105500D02*
X130236000Y-60105500D01*
%TO.C,R13*%
X90744000Y-63465500D02*
X90744000Y-60105500D01*
X92644000Y-63465500D02*
X90744000Y-63465500D01*
X92644000Y-60105500D02*
X92644000Y-63465500D01*
X90744000Y-60105500D02*
X92644000Y-60105500D01*
%TO.C,R12*%
X88712000Y-63465500D02*
X88712000Y-60105500D01*
X90612000Y-63465500D02*
X88712000Y-63465500D01*
X90612000Y-60105500D02*
X90612000Y-63465500D01*
X88712000Y-60105500D02*
X90612000Y-60105500D01*
%TO.C,R11*%
X112329000Y-40420500D02*
X112329000Y-43780500D01*
X110429000Y-40420500D02*
X112329000Y-40420500D01*
X110429000Y-43780500D02*
X110429000Y-40420500D01*
X112329000Y-43780500D02*
X110429000Y-43780500D01*
%TO.C,R10*%
X124565620Y-43373000D02*
X127925620Y-43373000D01*
X124565620Y-45273000D02*
X124565620Y-43373000D01*
X127925620Y-45273000D02*
X124565620Y-45273000D01*
X127925620Y-43373000D02*
X127925620Y-45273000D01*
%TO.C,R9*%
X96068980Y-45209500D02*
X92708980Y-45209500D01*
X96068980Y-43309500D02*
X96068980Y-45209500D01*
X92708980Y-43309500D02*
X96068980Y-43309500D01*
X92708980Y-45209500D02*
X92708980Y-43309500D01*
%TO.C,R8*%
X110297000Y-40420500D02*
X110297000Y-43780500D01*
X108397000Y-40420500D02*
X110297000Y-40420500D01*
X108397000Y-43780500D02*
X108397000Y-40420500D01*
X110297000Y-43780500D02*
X108397000Y-43780500D01*
%TO.C,R7*%
X143291520Y-5916720D02*
X143291520Y-2556720D01*
X145191520Y-5916720D02*
X143291520Y-5916720D01*
X145191520Y-2556720D02*
X145191520Y-5916720D01*
X143291520Y-2556720D02*
X145191520Y-2556720D01*
%TO.C,R6*%
X143291520Y-1913720D02*
X143291520Y1446280D01*
X145191520Y-1913720D02*
X143291520Y-1913720D01*
X145191520Y1446280D02*
X145191520Y-1913720D01*
X143291520Y1446280D02*
X145191520Y1446280D01*
%TO.C,R5*%
X114113520Y-619720D02*
X117473520Y-619720D01*
X114113520Y-2519720D02*
X114113520Y-619720D01*
X117473520Y-2519720D02*
X114113520Y-2519720D01*
X117473520Y-619720D02*
X117473520Y-2519720D01*
%TO.C,R4*%
X116870520Y5825280D02*
X116870520Y2465280D01*
X114970520Y5825280D02*
X116870520Y5825280D01*
X114970520Y2465280D02*
X114970520Y5825280D01*
X116870520Y2465280D02*
X114970520Y2465280D01*
%TO.C,R3*%
X117796520Y-619720D02*
X121156520Y-619720D01*
X117796520Y-2519720D02*
X117796520Y-619720D01*
X121156520Y-2519720D02*
X117796520Y-2519720D01*
X121156520Y-619720D02*
X121156520Y-2519720D01*
%TO.C,R2*%
X90967520Y-8687220D02*
X90967520Y-5327220D01*
X92867520Y-8687220D02*
X90967520Y-8687220D01*
X92867520Y-5327220D02*
X92867520Y-8687220D01*
X90967520Y-5327220D02*
X92867520Y-5327220D01*
%TO.C,R1*%
X90967520Y1830280D02*
X90967520Y5190280D01*
X92867520Y1830280D02*
X90967520Y1830280D01*
X92867520Y5190280D02*
X92867520Y1830280D01*
X90967520Y5190280D02*
X92867520Y5190280D01*
%TO.C,J3*%
X136420000Y-191675000D02*
X136420000Y-185525000D01*
X84570000Y-191675000D02*
X136420000Y-191675000D01*
X84570000Y-185525000D02*
X84570000Y-191675000D01*
X136420000Y-185525000D02*
X84570000Y-185525000D01*
%TO.C,D36*%
X175141620Y-43882020D02*
X178341620Y-43882020D01*
X178341620Y-43882020D02*
X178341620Y-45782020D01*
X175141620Y-45782020D02*
X178341620Y-45782020D01*
X175141620Y-43882020D02*
X175141620Y-45782020D01*
%TO.C,D35*%
X175141620Y-33722020D02*
X178341620Y-33722020D01*
X178341620Y-33722020D02*
X178341620Y-35622020D01*
X175141620Y-35622020D02*
X178341620Y-35622020D01*
X175141620Y-33722020D02*
X175141620Y-35622020D01*
%TO.C,D34*%
X178341620Y-43750020D02*
X175141620Y-43750020D01*
X175141620Y-43750020D02*
X175141620Y-41850020D01*
X178341620Y-41850020D02*
X175141620Y-41850020D01*
X178341620Y-43750020D02*
X178341620Y-41850020D01*
%TO.C,D33*%
X178341620Y-33590020D02*
X175141620Y-33590020D01*
X175141620Y-33590020D02*
X175141620Y-31690020D01*
X178341620Y-31690020D02*
X175141620Y-31690020D01*
X178341620Y-33590020D02*
X178341620Y-31690020D01*
%TO.C,D32*%
X175227980Y-82836540D02*
X175227980Y-84736540D01*
X175227980Y-84736540D02*
X178427980Y-84736540D01*
X178427980Y-82836540D02*
X178427980Y-84736540D01*
X175227980Y-82836540D02*
X178427980Y-82836540D01*
%TO.C,D31*%
X175227980Y-72676540D02*
X175227980Y-74576540D01*
X175227980Y-74576540D02*
X178427980Y-74576540D01*
X178427980Y-72676540D02*
X178427980Y-74576540D01*
X175227980Y-72676540D02*
X178427980Y-72676540D01*
%TO.C,D30*%
X178427980Y-82704540D02*
X178427980Y-80804540D01*
X178427980Y-80804540D02*
X175227980Y-80804540D01*
X175227980Y-82704540D02*
X175227980Y-80804540D01*
X178427980Y-82704540D02*
X175227980Y-82704540D01*
%TO.C,D29*%
X178427980Y-72544540D02*
X178427980Y-70644540D01*
X178427980Y-70644540D02*
X175227980Y-70644540D01*
X175227980Y-72544540D02*
X175227980Y-70644540D01*
X178427980Y-72544540D02*
X175227980Y-72544540D01*
%TO.C,D28*%
X175176180Y-121820140D02*
X175176180Y-123720140D01*
X175176180Y-123720140D02*
X178376180Y-123720140D01*
X178376180Y-121820140D02*
X178376180Y-123720140D01*
X175176180Y-121820140D02*
X178376180Y-121820140D01*
%TO.C,D27*%
X175176180Y-111660140D02*
X175176180Y-113560140D01*
X175176180Y-113560140D02*
X178376180Y-113560140D01*
X178376180Y-111660140D02*
X178376180Y-113560140D01*
X175176180Y-111660140D02*
X178376180Y-111660140D01*
%TO.C,D26*%
X178376180Y-121688140D02*
X178376180Y-119788140D01*
X178376180Y-119788140D02*
X175176180Y-119788140D01*
X175176180Y-121688140D02*
X175176180Y-119788140D01*
X178376180Y-121688140D02*
X175176180Y-121688140D01*
%TO.C,D25*%
X178376180Y-111528140D02*
X178376180Y-109628140D01*
X178376180Y-109628140D02*
X175176180Y-109628140D01*
X175176180Y-111528140D02*
X175176180Y-109628140D01*
X178376180Y-111528140D02*
X175176180Y-111528140D01*
%TO.C,D24*%
X175159220Y-160833400D02*
X178359220Y-160833400D01*
X178359220Y-160833400D02*
X178359220Y-162733400D01*
X175159220Y-162733400D02*
X178359220Y-162733400D01*
X175159220Y-160833400D02*
X175159220Y-162733400D01*
%TO.C,D23*%
X175159220Y-150673400D02*
X178359220Y-150673400D01*
X178359220Y-150673400D02*
X178359220Y-152573400D01*
X175159220Y-152573400D02*
X178359220Y-152573400D01*
X175159220Y-150673400D02*
X175159220Y-152573400D01*
%TO.C,D22*%
X178359220Y-160701400D02*
X175159220Y-160701400D01*
X175159220Y-160701400D02*
X175159220Y-158801400D01*
X178359220Y-158801400D02*
X175159220Y-158801400D01*
X178359220Y-160701400D02*
X178359220Y-158801400D01*
%TO.C,D21*%
X178359220Y-150541400D02*
X175159220Y-150541400D01*
X175159220Y-150541400D02*
X175159220Y-148641400D01*
X178359220Y-148641400D02*
X175159220Y-148641400D01*
X178359220Y-150541400D02*
X178359220Y-148641400D01*
%TO.C,D20*%
X45369480Y-157388280D02*
X45369480Y-155488280D01*
X45369480Y-155488280D02*
X42169480Y-155488280D01*
X42169480Y-157388280D02*
X42169480Y-155488280D01*
X45369480Y-157388280D02*
X42169480Y-157388280D01*
%TO.C,D19*%
X45369480Y-167548280D02*
X45369480Y-165648280D01*
X45369480Y-165648280D02*
X42169480Y-165648280D01*
X42169480Y-167548280D02*
X42169480Y-165648280D01*
X45369480Y-167548280D02*
X42169480Y-167548280D01*
%TO.C,D18*%
X42169480Y-157520280D02*
X42169480Y-159420280D01*
X42169480Y-159420280D02*
X45369480Y-159420280D01*
X45369480Y-157520280D02*
X45369480Y-159420280D01*
X42169480Y-157520280D02*
X45369480Y-157520280D01*
%TO.C,D17*%
X42169480Y-167680280D02*
X42169480Y-169580280D01*
X42169480Y-169580280D02*
X45369480Y-169580280D01*
X45369480Y-167680280D02*
X45369480Y-169580280D01*
X42169480Y-167680280D02*
X45369480Y-167680280D01*
%TO.C,D16*%
X45510180Y-118362440D02*
X45510180Y-116462440D01*
X45510180Y-116462440D02*
X42310180Y-116462440D01*
X42310180Y-118362440D02*
X42310180Y-116462440D01*
X45510180Y-118362440D02*
X42310180Y-118362440D01*
%TO.C,D15*%
X45510180Y-128522440D02*
X45510180Y-126622440D01*
X45510180Y-126622440D02*
X42310180Y-126622440D01*
X42310180Y-128522440D02*
X42310180Y-126622440D01*
X45510180Y-128522440D02*
X42310180Y-128522440D01*
%TO.C,D14*%
X42310180Y-118494440D02*
X42310180Y-120394440D01*
X42310180Y-120394440D02*
X45510180Y-120394440D01*
X45510180Y-118494440D02*
X45510180Y-120394440D01*
X42310180Y-118494440D02*
X45510180Y-118494440D01*
%TO.C,D13*%
X42310180Y-128654440D02*
X42310180Y-130554440D01*
X42310180Y-130554440D02*
X45510180Y-130554440D01*
X45510180Y-128654440D02*
X45510180Y-130554440D01*
X42310180Y-128654440D02*
X45510180Y-128654440D01*
%TO.C,D12*%
X45515980Y-79370780D02*
X45515980Y-77470780D01*
X45515980Y-77470780D02*
X42315980Y-77470780D01*
X42315980Y-79370780D02*
X42315980Y-77470780D01*
X45515980Y-79370780D02*
X42315980Y-79370780D01*
%TO.C,D11*%
X45515980Y-89530780D02*
X45515980Y-87630780D01*
X45515980Y-87630780D02*
X42315980Y-87630780D01*
X42315980Y-89530780D02*
X42315980Y-87630780D01*
X45515980Y-89530780D02*
X42315980Y-89530780D01*
%TO.C,D10*%
X42315980Y-79502780D02*
X42315980Y-81402780D01*
X42315980Y-81402780D02*
X45515980Y-81402780D01*
X45515980Y-79502780D02*
X45515980Y-81402780D01*
X42315980Y-79502780D02*
X45515980Y-79502780D01*
%TO.C,D9*%
X42315980Y-89662780D02*
X42315980Y-91562780D01*
X42315980Y-91562780D02*
X45515980Y-91562780D01*
X45515980Y-89662780D02*
X45515980Y-91562780D01*
X42315980Y-89662780D02*
X45515980Y-89662780D01*
%TO.C,D7*%
X45508980Y-50589220D02*
X42308980Y-50589220D01*
X42308980Y-50589220D02*
X42308980Y-48689220D01*
X45508980Y-48689220D02*
X42308980Y-48689220D01*
X45508980Y-50589220D02*
X45508980Y-48689220D01*
%TO.C,D6*%
X42308980Y-40561220D02*
X45508980Y-40561220D01*
X45508980Y-40561220D02*
X45508980Y-42461220D01*
X42308980Y-42461220D02*
X45508980Y-42461220D01*
X42308980Y-40561220D02*
X42308980Y-42461220D01*
%TO.C,D5*%
X42308980Y-50721220D02*
X45508980Y-50721220D01*
X45508980Y-50721220D02*
X45508980Y-52621220D01*
X42308980Y-52621220D02*
X45508980Y-52621220D01*
X42308980Y-50721220D02*
X42308980Y-52621220D01*
%TO.C,D4*%
X143159520Y-2556720D02*
X143159520Y-5916720D01*
X141259520Y-2556720D02*
X143159520Y-2556720D01*
X141259520Y-5916720D02*
X141259520Y-2556720D01*
X143159520Y-5916720D02*
X141259520Y-5916720D01*
%TO.C,D3*%
X143159520Y1446280D02*
X143159520Y-1913720D01*
X141259520Y1446280D02*
X143159520Y1446280D01*
X141259520Y-1913720D02*
X141259520Y1446280D01*
X143159520Y-1913720D02*
X141259520Y-1913720D01*
%TO.C,D2*%
X109958520Y-6354720D02*
X107658520Y-6354720D01*
X107658520Y-10754720D02*
X107658520Y-6354720D01*
X109958520Y-10754720D02*
X107658520Y-10754720D01*
X109958520Y-6354720D02*
X109958520Y-10754720D01*
%TO.C,D1*%
X109148520Y-419720D02*
X109148520Y-2719720D01*
X113548520Y-2719720D02*
X109148520Y-2719720D01*
X113548520Y-419720D02*
X113548520Y-2719720D01*
X109148520Y-419720D02*
X113548520Y-419720D01*
%TO.C,C213*%
X170821620Y-39407020D02*
X170821620Y-41367020D01*
X170821620Y-41367020D02*
X167421620Y-41367020D01*
X167421620Y-41367020D02*
X167421620Y-39407020D01*
X167421620Y-39407020D02*
X170821620Y-39407020D01*
%TO.C,C212*%
X170821620Y-29501020D02*
X170821620Y-31461020D01*
X170821620Y-31461020D02*
X167421620Y-31461020D01*
X167421620Y-31461020D02*
X167421620Y-29501020D01*
X167421620Y-29501020D02*
X170821620Y-29501020D01*
%TO.C,C211*%
X169339620Y-48884020D02*
X167379620Y-48884020D01*
X167379620Y-48884020D02*
X167379620Y-45484020D01*
X167379620Y-45484020D02*
X169339620Y-45484020D01*
X169339620Y-45484020D02*
X169339620Y-48884020D01*
%TO.C,C210*%
X169339620Y-39039020D02*
X167379620Y-39039020D01*
X167379620Y-39039020D02*
X167379620Y-35639020D01*
X167379620Y-35639020D02*
X169339620Y-35639020D01*
X169339620Y-35639020D02*
X169339620Y-39039020D01*
%TO.C,C209*%
X155242620Y-49707020D02*
X153282620Y-49707020D01*
X153282620Y-49707020D02*
X153282620Y-46307020D01*
X153282620Y-46307020D02*
X155242620Y-46307020D01*
X155242620Y-46307020D02*
X155242620Y-49707020D01*
%TO.C,C208*%
X155369620Y-39801020D02*
X153409620Y-39801020D01*
X153409620Y-39801020D02*
X153409620Y-36401020D01*
X153409620Y-36401020D02*
X155369620Y-36401020D01*
X155369620Y-36401020D02*
X155369620Y-39801020D01*
%TO.C,C207*%
X157274620Y-49707020D02*
X155314620Y-49707020D01*
X155314620Y-49707020D02*
X155314620Y-46307020D01*
X155314620Y-46307020D02*
X157274620Y-46307020D01*
X157274620Y-46307020D02*
X157274620Y-49707020D01*
%TO.C,C206*%
X157401620Y-39801020D02*
X155441620Y-39801020D01*
X155441620Y-39801020D02*
X155441620Y-36401020D01*
X155441620Y-36401020D02*
X157401620Y-36401020D01*
X157401620Y-36401020D02*
X157401620Y-39801020D01*
%TO.C,C205*%
X153168620Y-46265020D02*
X153168620Y-48225020D01*
X153168620Y-48225020D02*
X149768620Y-48225020D01*
X149768620Y-48225020D02*
X149768620Y-46265020D01*
X149768620Y-46265020D02*
X153168620Y-46265020D01*
%TO.C,C204*%
X153234620Y-36359020D02*
X153234620Y-38319020D01*
X153234620Y-38319020D02*
X149834620Y-38319020D01*
X149834620Y-38319020D02*
X149834620Y-36359020D01*
X149834620Y-36359020D02*
X153234620Y-36359020D01*
%TO.C,C203*%
X141725620Y-35639020D02*
X143685620Y-35639020D01*
X143685620Y-35639020D02*
X143685620Y-39039020D01*
X143685620Y-39039020D02*
X141725620Y-39039020D01*
X141725620Y-39039020D02*
X141725620Y-35639020D01*
%TO.C,C202*%
X149654620Y-39801020D02*
X147694620Y-39801020D01*
X147694620Y-39801020D02*
X147694620Y-36401020D01*
X147694620Y-36401020D02*
X149654620Y-36401020D01*
X149654620Y-36401020D02*
X149654620Y-39801020D01*
%TO.C,C201*%
X147236237Y-46404211D02*
X147236237Y-48364211D01*
X147236237Y-48364211D02*
X143836237Y-48364211D01*
X143836237Y-48364211D02*
X143836237Y-46404211D01*
X143836237Y-46404211D02*
X147236237Y-46404211D01*
%TO.C,C200*%
X147326620Y-36359020D02*
X147326620Y-38319020D01*
X147326620Y-38319020D02*
X143926620Y-38319020D01*
X143926620Y-38319020D02*
X143926620Y-36359020D01*
X143926620Y-36359020D02*
X147326620Y-36359020D01*
%TO.C,C199*%
X139325620Y-43217020D02*
X139325620Y-45177020D01*
X139325620Y-45177020D02*
X135925620Y-45177020D01*
X135925620Y-45177020D02*
X135925620Y-43217020D01*
X135925620Y-43217020D02*
X139325620Y-43217020D01*
%TO.C,C198*%
X139325620Y-39153020D02*
X139325620Y-41113020D01*
X139325620Y-41113020D02*
X135925620Y-41113020D01*
X135925620Y-41113020D02*
X135925620Y-39153020D01*
X135925620Y-39153020D02*
X139325620Y-39153020D01*
%TO.C,C197*%
X167507980Y-78361540D02*
X170907980Y-78361540D01*
X167507980Y-80321540D02*
X167507980Y-78361540D01*
X170907980Y-80321540D02*
X167507980Y-80321540D01*
X170907980Y-78361540D02*
X170907980Y-80321540D01*
%TO.C,C196*%
X167507980Y-68455540D02*
X170907980Y-68455540D01*
X167507980Y-70415540D02*
X167507980Y-68455540D01*
X170907980Y-70415540D02*
X167507980Y-70415540D01*
X170907980Y-68455540D02*
X170907980Y-70415540D01*
%TO.C,C195*%
X169425980Y-84438540D02*
X169425980Y-87838540D01*
X167465980Y-84438540D02*
X169425980Y-84438540D01*
X167465980Y-87838540D02*
X167465980Y-84438540D01*
X169425980Y-87838540D02*
X167465980Y-87838540D01*
%TO.C,C194*%
X169425980Y-74593540D02*
X169425980Y-77993540D01*
X167465980Y-74593540D02*
X169425980Y-74593540D01*
X167465980Y-77993540D02*
X167465980Y-74593540D01*
X169425980Y-77993540D02*
X167465980Y-77993540D01*
%TO.C,C193*%
X155328980Y-85261540D02*
X155328980Y-88661540D01*
X153368980Y-85261540D02*
X155328980Y-85261540D01*
X153368980Y-88661540D02*
X153368980Y-85261540D01*
X155328980Y-88661540D02*
X153368980Y-88661540D01*
%TO.C,C192*%
X155455980Y-75355540D02*
X155455980Y-78755540D01*
X153495980Y-75355540D02*
X155455980Y-75355540D01*
X153495980Y-78755540D02*
X153495980Y-75355540D01*
X155455980Y-78755540D02*
X153495980Y-78755540D01*
%TO.C,C191*%
X157360980Y-85261540D02*
X157360980Y-88661540D01*
X155400980Y-85261540D02*
X157360980Y-85261540D01*
X155400980Y-88661540D02*
X155400980Y-85261540D01*
X157360980Y-88661540D02*
X155400980Y-88661540D01*
%TO.C,C190*%
X157487980Y-75355540D02*
X157487980Y-78755540D01*
X155527980Y-75355540D02*
X157487980Y-75355540D01*
X155527980Y-78755540D02*
X155527980Y-75355540D01*
X157487980Y-78755540D02*
X155527980Y-78755540D01*
%TO.C,C189*%
X149854980Y-85219540D02*
X153254980Y-85219540D01*
X149854980Y-87179540D02*
X149854980Y-85219540D01*
X153254980Y-87179540D02*
X149854980Y-87179540D01*
X153254980Y-85219540D02*
X153254980Y-87179540D01*
%TO.C,C188*%
X149920980Y-75313540D02*
X153320980Y-75313540D01*
X149920980Y-77273540D02*
X149920980Y-75313540D01*
X153320980Y-77273540D02*
X149920980Y-77273540D01*
X153320980Y-75313540D02*
X153320980Y-77273540D01*
%TO.C,C187*%
X141811980Y-77993540D02*
X141811980Y-74593540D01*
X143771980Y-77993540D02*
X141811980Y-77993540D01*
X143771980Y-74593540D02*
X143771980Y-77993540D01*
X141811980Y-74593540D02*
X143771980Y-74593540D01*
%TO.C,C186*%
X149740980Y-75355540D02*
X149740980Y-78755540D01*
X147780980Y-75355540D02*
X149740980Y-75355540D01*
X147780980Y-78755540D02*
X147780980Y-75355540D01*
X149740980Y-78755540D02*
X147780980Y-78755540D01*
%TO.C,C185*%
X143922597Y-85358731D02*
X147322597Y-85358731D01*
X143922597Y-87318731D02*
X143922597Y-85358731D01*
X147322597Y-87318731D02*
X143922597Y-87318731D01*
X147322597Y-85358731D02*
X147322597Y-87318731D01*
%TO.C,C184*%
X144012980Y-75313540D02*
X147412980Y-75313540D01*
X144012980Y-77273540D02*
X144012980Y-75313540D01*
X147412980Y-77273540D02*
X144012980Y-77273540D01*
X147412980Y-75313540D02*
X147412980Y-77273540D01*
%TO.C,C183*%
X136011980Y-82171540D02*
X139411980Y-82171540D01*
X136011980Y-84131540D02*
X136011980Y-82171540D01*
X139411980Y-84131540D02*
X136011980Y-84131540D01*
X139411980Y-82171540D02*
X139411980Y-84131540D01*
%TO.C,C182*%
X136011980Y-78107540D02*
X139411980Y-78107540D01*
X136011980Y-80067540D02*
X136011980Y-78107540D01*
X139411980Y-80067540D02*
X136011980Y-80067540D01*
X139411980Y-78107540D02*
X139411980Y-80067540D01*
%TO.C,C181*%
X167456180Y-117345140D02*
X170856180Y-117345140D01*
X167456180Y-119305140D02*
X167456180Y-117345140D01*
X170856180Y-119305140D02*
X167456180Y-119305140D01*
X170856180Y-117345140D02*
X170856180Y-119305140D01*
%TO.C,C180*%
X167456180Y-107439140D02*
X170856180Y-107439140D01*
X167456180Y-109399140D02*
X167456180Y-107439140D01*
X170856180Y-109399140D02*
X167456180Y-109399140D01*
X170856180Y-107439140D02*
X170856180Y-109399140D01*
%TO.C,C179*%
X169374180Y-123422140D02*
X169374180Y-126822140D01*
X167414180Y-123422140D02*
X169374180Y-123422140D01*
X167414180Y-126822140D02*
X167414180Y-123422140D01*
X169374180Y-126822140D02*
X167414180Y-126822140D01*
%TO.C,C178*%
X169374180Y-113577140D02*
X169374180Y-116977140D01*
X167414180Y-113577140D02*
X169374180Y-113577140D01*
X167414180Y-116977140D02*
X167414180Y-113577140D01*
X169374180Y-116977140D02*
X167414180Y-116977140D01*
%TO.C,C177*%
X155277180Y-124245140D02*
X155277180Y-127645140D01*
X153317180Y-124245140D02*
X155277180Y-124245140D01*
X153317180Y-127645140D02*
X153317180Y-124245140D01*
X155277180Y-127645140D02*
X153317180Y-127645140D01*
%TO.C,C176*%
X155404180Y-114339140D02*
X155404180Y-117739140D01*
X153444180Y-114339140D02*
X155404180Y-114339140D01*
X153444180Y-117739140D02*
X153444180Y-114339140D01*
X155404180Y-117739140D02*
X153444180Y-117739140D01*
%TO.C,C175*%
X157309180Y-124245140D02*
X157309180Y-127645140D01*
X155349180Y-124245140D02*
X157309180Y-124245140D01*
X155349180Y-127645140D02*
X155349180Y-124245140D01*
X157309180Y-127645140D02*
X155349180Y-127645140D01*
%TO.C,C174*%
X157436180Y-114339140D02*
X157436180Y-117739140D01*
X155476180Y-114339140D02*
X157436180Y-114339140D01*
X155476180Y-117739140D02*
X155476180Y-114339140D01*
X157436180Y-117739140D02*
X155476180Y-117739140D01*
%TO.C,C173*%
X149803180Y-124203140D02*
X153203180Y-124203140D01*
X149803180Y-126163140D02*
X149803180Y-124203140D01*
X153203180Y-126163140D02*
X149803180Y-126163140D01*
X153203180Y-124203140D02*
X153203180Y-126163140D01*
%TO.C,C172*%
X149869180Y-114297140D02*
X153269180Y-114297140D01*
X149869180Y-116257140D02*
X149869180Y-114297140D01*
X153269180Y-116257140D02*
X149869180Y-116257140D01*
X153269180Y-114297140D02*
X153269180Y-116257140D01*
%TO.C,C171*%
X141760180Y-116977140D02*
X141760180Y-113577140D01*
X143720180Y-116977140D02*
X141760180Y-116977140D01*
X143720180Y-113577140D02*
X143720180Y-116977140D01*
X141760180Y-113577140D02*
X143720180Y-113577140D01*
%TO.C,C170*%
X149689180Y-114339140D02*
X149689180Y-117739140D01*
X147729180Y-114339140D02*
X149689180Y-114339140D01*
X147729180Y-117739140D02*
X147729180Y-114339140D01*
X149689180Y-117739140D02*
X147729180Y-117739140D01*
%TO.C,C169*%
X143870797Y-124342331D02*
X147270797Y-124342331D01*
X143870797Y-126302331D02*
X143870797Y-124342331D01*
X147270797Y-126302331D02*
X143870797Y-126302331D01*
X147270797Y-124342331D02*
X147270797Y-126302331D01*
%TO.C,C168*%
X143961180Y-114297140D02*
X147361180Y-114297140D01*
X143961180Y-116257140D02*
X143961180Y-114297140D01*
X147361180Y-116257140D02*
X143961180Y-116257140D01*
X147361180Y-114297140D02*
X147361180Y-116257140D01*
%TO.C,C167*%
X135960180Y-121155140D02*
X139360180Y-121155140D01*
X135960180Y-123115140D02*
X135960180Y-121155140D01*
X139360180Y-123115140D02*
X135960180Y-123115140D01*
X139360180Y-121155140D02*
X139360180Y-123115140D01*
%TO.C,C166*%
X135960180Y-117091140D02*
X139360180Y-117091140D01*
X135960180Y-119051140D02*
X135960180Y-117091140D01*
X139360180Y-119051140D02*
X135960180Y-119051140D01*
X139360180Y-117091140D02*
X139360180Y-119051140D01*
%TO.C,C165*%
X170839220Y-156358400D02*
X170839220Y-158318400D01*
X170839220Y-158318400D02*
X167439220Y-158318400D01*
X167439220Y-158318400D02*
X167439220Y-156358400D01*
X167439220Y-156358400D02*
X170839220Y-156358400D01*
%TO.C,C164*%
X170839220Y-146452400D02*
X170839220Y-148412400D01*
X170839220Y-148412400D02*
X167439220Y-148412400D01*
X167439220Y-148412400D02*
X167439220Y-146452400D01*
X167439220Y-146452400D02*
X170839220Y-146452400D01*
%TO.C,C163*%
X169357220Y-165835400D02*
X167397220Y-165835400D01*
X167397220Y-165835400D02*
X167397220Y-162435400D01*
X167397220Y-162435400D02*
X169357220Y-162435400D01*
X169357220Y-162435400D02*
X169357220Y-165835400D01*
%TO.C,C162*%
X169357220Y-155990400D02*
X167397220Y-155990400D01*
X167397220Y-155990400D02*
X167397220Y-152590400D01*
X167397220Y-152590400D02*
X169357220Y-152590400D01*
X169357220Y-152590400D02*
X169357220Y-155990400D01*
%TO.C,C161*%
X155260220Y-166658400D02*
X153300220Y-166658400D01*
X153300220Y-166658400D02*
X153300220Y-163258400D01*
X153300220Y-163258400D02*
X155260220Y-163258400D01*
X155260220Y-163258400D02*
X155260220Y-166658400D01*
%TO.C,C160*%
X155387220Y-156752400D02*
X153427220Y-156752400D01*
X153427220Y-156752400D02*
X153427220Y-153352400D01*
X153427220Y-153352400D02*
X155387220Y-153352400D01*
X155387220Y-153352400D02*
X155387220Y-156752400D01*
%TO.C,C159*%
X157292220Y-166658400D02*
X155332220Y-166658400D01*
X155332220Y-166658400D02*
X155332220Y-163258400D01*
X155332220Y-163258400D02*
X157292220Y-163258400D01*
X157292220Y-163258400D02*
X157292220Y-166658400D01*
%TO.C,C158*%
X157419220Y-156752400D02*
X155459220Y-156752400D01*
X155459220Y-156752400D02*
X155459220Y-153352400D01*
X155459220Y-153352400D02*
X157419220Y-153352400D01*
X157419220Y-153352400D02*
X157419220Y-156752400D01*
%TO.C,C157*%
X153186220Y-163216400D02*
X153186220Y-165176400D01*
X153186220Y-165176400D02*
X149786220Y-165176400D01*
X149786220Y-165176400D02*
X149786220Y-163216400D01*
X149786220Y-163216400D02*
X153186220Y-163216400D01*
%TO.C,C156*%
X153252220Y-153310400D02*
X153252220Y-155270400D01*
X153252220Y-155270400D02*
X149852220Y-155270400D01*
X149852220Y-155270400D02*
X149852220Y-153310400D01*
X149852220Y-153310400D02*
X153252220Y-153310400D01*
%TO.C,C155*%
X141743220Y-152590400D02*
X143703220Y-152590400D01*
X143703220Y-152590400D02*
X143703220Y-155990400D01*
X143703220Y-155990400D02*
X141743220Y-155990400D01*
X141743220Y-155990400D02*
X141743220Y-152590400D01*
%TO.C,C154*%
X149672220Y-156752400D02*
X147712220Y-156752400D01*
X147712220Y-156752400D02*
X147712220Y-153352400D01*
X147712220Y-153352400D02*
X149672220Y-153352400D01*
X149672220Y-153352400D02*
X149672220Y-156752400D01*
%TO.C,C153*%
X147253837Y-163355591D02*
X147253837Y-165315591D01*
X147253837Y-165315591D02*
X143853837Y-165315591D01*
X143853837Y-165315591D02*
X143853837Y-163355591D01*
X143853837Y-163355591D02*
X147253837Y-163355591D01*
%TO.C,C152*%
X147344220Y-153310400D02*
X147344220Y-155270400D01*
X147344220Y-155270400D02*
X143944220Y-155270400D01*
X143944220Y-155270400D02*
X143944220Y-153310400D01*
X143944220Y-153310400D02*
X147344220Y-153310400D01*
%TO.C,C151*%
X139343220Y-160168400D02*
X139343220Y-162128400D01*
X139343220Y-162128400D02*
X135943220Y-162128400D01*
X135943220Y-162128400D02*
X135943220Y-160168400D01*
X135943220Y-160168400D02*
X139343220Y-160168400D01*
%TO.C,C150*%
X139343220Y-156104400D02*
X139343220Y-158064400D01*
X139343220Y-158064400D02*
X135943220Y-158064400D01*
X135943220Y-158064400D02*
X135943220Y-156104400D01*
X135943220Y-156104400D02*
X139343220Y-156104400D01*
%TO.C,C149*%
X53089480Y-161863280D02*
X49689480Y-161863280D01*
X53089480Y-159903280D02*
X53089480Y-161863280D01*
X49689480Y-159903280D02*
X53089480Y-159903280D01*
X49689480Y-161863280D02*
X49689480Y-159903280D01*
%TO.C,C148*%
X53089480Y-171769280D02*
X49689480Y-171769280D01*
X53089480Y-169809280D02*
X53089480Y-171769280D01*
X49689480Y-169809280D02*
X53089480Y-169809280D01*
X49689480Y-171769280D02*
X49689480Y-169809280D01*
%TO.C,C147*%
X51171480Y-155786280D02*
X51171480Y-152386280D01*
X53131480Y-155786280D02*
X51171480Y-155786280D01*
X53131480Y-152386280D02*
X53131480Y-155786280D01*
X51171480Y-152386280D02*
X53131480Y-152386280D01*
%TO.C,C146*%
X51171480Y-165631280D02*
X51171480Y-162231280D01*
X53131480Y-165631280D02*
X51171480Y-165631280D01*
X53131480Y-162231280D02*
X53131480Y-165631280D01*
X51171480Y-162231280D02*
X53131480Y-162231280D01*
%TO.C,C145*%
X65268480Y-154963280D02*
X65268480Y-151563280D01*
X67228480Y-154963280D02*
X65268480Y-154963280D01*
X67228480Y-151563280D02*
X67228480Y-154963280D01*
X65268480Y-151563280D02*
X67228480Y-151563280D01*
%TO.C,C144*%
X65141480Y-164869280D02*
X65141480Y-161469280D01*
X67101480Y-164869280D02*
X65141480Y-164869280D01*
X67101480Y-161469280D02*
X67101480Y-164869280D01*
X65141480Y-161469280D02*
X67101480Y-161469280D01*
%TO.C,C143*%
X63236480Y-154963280D02*
X63236480Y-151563280D01*
X65196480Y-154963280D02*
X63236480Y-154963280D01*
X65196480Y-151563280D02*
X65196480Y-154963280D01*
X63236480Y-151563280D02*
X65196480Y-151563280D01*
%TO.C,C142*%
X63109480Y-164869280D02*
X63109480Y-161469280D01*
X65069480Y-164869280D02*
X63109480Y-164869280D01*
X65069480Y-161469280D02*
X65069480Y-164869280D01*
X63109480Y-161469280D02*
X65069480Y-161469280D01*
%TO.C,C141*%
X70742480Y-155005280D02*
X67342480Y-155005280D01*
X70742480Y-153045280D02*
X70742480Y-155005280D01*
X67342480Y-153045280D02*
X70742480Y-153045280D01*
X67342480Y-155005280D02*
X67342480Y-153045280D01*
%TO.C,C140*%
X70676480Y-164911280D02*
X67276480Y-164911280D01*
X70676480Y-162951280D02*
X70676480Y-164911280D01*
X67276480Y-162951280D02*
X70676480Y-162951280D01*
X67276480Y-164911280D02*
X67276480Y-162951280D01*
%TO.C,C139*%
X78785480Y-162231280D02*
X78785480Y-165631280D01*
X76825480Y-162231280D02*
X78785480Y-162231280D01*
X76825480Y-165631280D02*
X76825480Y-162231280D01*
X78785480Y-165631280D02*
X76825480Y-165631280D01*
%TO.C,C138*%
X70856480Y-164869280D02*
X70856480Y-161469280D01*
X72816480Y-164869280D02*
X70856480Y-164869280D01*
X72816480Y-161469280D02*
X72816480Y-164869280D01*
X70856480Y-161469280D02*
X72816480Y-161469280D01*
%TO.C,C137*%
X76674863Y-154866089D02*
X73274863Y-154866089D01*
X76674863Y-152906089D02*
X76674863Y-154866089D01*
X73274863Y-152906089D02*
X76674863Y-152906089D01*
X73274863Y-154866089D02*
X73274863Y-152906089D01*
%TO.C,C136*%
X76584480Y-164911280D02*
X73184480Y-164911280D01*
X76584480Y-162951280D02*
X76584480Y-164911280D01*
X73184480Y-162951280D02*
X76584480Y-162951280D01*
X73184480Y-164911280D02*
X73184480Y-162951280D01*
%TO.C,C135*%
X84585480Y-158053280D02*
X81185480Y-158053280D01*
X84585480Y-156093280D02*
X84585480Y-158053280D01*
X81185480Y-156093280D02*
X84585480Y-156093280D01*
X81185480Y-158053280D02*
X81185480Y-156093280D01*
%TO.C,C134*%
X84585480Y-162117280D02*
X81185480Y-162117280D01*
X84585480Y-160157280D02*
X84585480Y-162117280D01*
X81185480Y-160157280D02*
X84585480Y-160157280D01*
X81185480Y-162117280D02*
X81185480Y-160157280D01*
%TO.C,C133*%
X53230180Y-122837440D02*
X49830180Y-122837440D01*
X53230180Y-120877440D02*
X53230180Y-122837440D01*
X49830180Y-120877440D02*
X53230180Y-120877440D01*
X49830180Y-122837440D02*
X49830180Y-120877440D01*
%TO.C,C132*%
X53230180Y-132743440D02*
X49830180Y-132743440D01*
X53230180Y-130783440D02*
X53230180Y-132743440D01*
X49830180Y-130783440D02*
X53230180Y-130783440D01*
X49830180Y-132743440D02*
X49830180Y-130783440D01*
%TO.C,C131*%
X51312180Y-116760440D02*
X51312180Y-113360440D01*
X53272180Y-116760440D02*
X51312180Y-116760440D01*
X53272180Y-113360440D02*
X53272180Y-116760440D01*
X51312180Y-113360440D02*
X53272180Y-113360440D01*
%TO.C,C130*%
X51312180Y-126605440D02*
X51312180Y-123205440D01*
X53272180Y-126605440D02*
X51312180Y-126605440D01*
X53272180Y-123205440D02*
X53272180Y-126605440D01*
X51312180Y-123205440D02*
X53272180Y-123205440D01*
%TO.C,C129*%
X65409180Y-115937440D02*
X65409180Y-112537440D01*
X67369180Y-115937440D02*
X65409180Y-115937440D01*
X67369180Y-112537440D02*
X67369180Y-115937440D01*
X65409180Y-112537440D02*
X67369180Y-112537440D01*
%TO.C,C128*%
X65282180Y-125843440D02*
X65282180Y-122443440D01*
X67242180Y-125843440D02*
X65282180Y-125843440D01*
X67242180Y-122443440D02*
X67242180Y-125843440D01*
X65282180Y-122443440D02*
X67242180Y-122443440D01*
%TO.C,C127*%
X63377180Y-115937440D02*
X63377180Y-112537440D01*
X65337180Y-115937440D02*
X63377180Y-115937440D01*
X65337180Y-112537440D02*
X65337180Y-115937440D01*
X63377180Y-112537440D02*
X65337180Y-112537440D01*
%TO.C,C126*%
X63250180Y-125843440D02*
X63250180Y-122443440D01*
X65210180Y-125843440D02*
X63250180Y-125843440D01*
X65210180Y-122443440D02*
X65210180Y-125843440D01*
X63250180Y-122443440D02*
X65210180Y-122443440D01*
%TO.C,C125*%
X70883180Y-115979440D02*
X67483180Y-115979440D01*
X70883180Y-114019440D02*
X70883180Y-115979440D01*
X67483180Y-114019440D02*
X70883180Y-114019440D01*
X67483180Y-115979440D02*
X67483180Y-114019440D01*
%TO.C,C124*%
X70817180Y-125885440D02*
X67417180Y-125885440D01*
X70817180Y-123925440D02*
X70817180Y-125885440D01*
X67417180Y-123925440D02*
X70817180Y-123925440D01*
X67417180Y-125885440D02*
X67417180Y-123925440D01*
%TO.C,C123*%
X78926180Y-123205440D02*
X78926180Y-126605440D01*
X76966180Y-123205440D02*
X78926180Y-123205440D01*
X76966180Y-126605440D02*
X76966180Y-123205440D01*
X78926180Y-126605440D02*
X76966180Y-126605440D01*
%TO.C,C122*%
X70997180Y-125843440D02*
X70997180Y-122443440D01*
X72957180Y-125843440D02*
X70997180Y-125843440D01*
X72957180Y-122443440D02*
X72957180Y-125843440D01*
X70997180Y-122443440D02*
X72957180Y-122443440D01*
%TO.C,C121*%
X76815563Y-115840249D02*
X73415563Y-115840249D01*
X76815563Y-113880249D02*
X76815563Y-115840249D01*
X73415563Y-113880249D02*
X76815563Y-113880249D01*
X73415563Y-115840249D02*
X73415563Y-113880249D01*
%TO.C,C120*%
X76725180Y-125885440D02*
X73325180Y-125885440D01*
X76725180Y-123925440D02*
X76725180Y-125885440D01*
X73325180Y-123925440D02*
X76725180Y-123925440D01*
X73325180Y-125885440D02*
X73325180Y-123925440D01*
%TO.C,C119*%
X84726180Y-119027440D02*
X81326180Y-119027440D01*
X84726180Y-117067440D02*
X84726180Y-119027440D01*
X81326180Y-117067440D02*
X84726180Y-117067440D01*
X81326180Y-119027440D02*
X81326180Y-117067440D01*
%TO.C,C118*%
X84726180Y-123091440D02*
X81326180Y-123091440D01*
X84726180Y-121131440D02*
X84726180Y-123091440D01*
X81326180Y-121131440D02*
X84726180Y-121131440D01*
X81326180Y-123091440D02*
X81326180Y-121131440D01*
%TO.C,C117*%
X53235980Y-83845780D02*
X49835980Y-83845780D01*
X53235980Y-81885780D02*
X53235980Y-83845780D01*
X49835980Y-81885780D02*
X53235980Y-81885780D01*
X49835980Y-83845780D02*
X49835980Y-81885780D01*
%TO.C,C116*%
X53235980Y-93751780D02*
X49835980Y-93751780D01*
X53235980Y-91791780D02*
X53235980Y-93751780D01*
X49835980Y-91791780D02*
X53235980Y-91791780D01*
X49835980Y-93751780D02*
X49835980Y-91791780D01*
%TO.C,C115*%
X51317980Y-77768780D02*
X51317980Y-74368780D01*
X53277980Y-77768780D02*
X51317980Y-77768780D01*
X53277980Y-74368780D02*
X53277980Y-77768780D01*
X51317980Y-74368780D02*
X53277980Y-74368780D01*
%TO.C,C114*%
X51317980Y-87613780D02*
X51317980Y-84213780D01*
X53277980Y-87613780D02*
X51317980Y-87613780D01*
X53277980Y-84213780D02*
X53277980Y-87613780D01*
X51317980Y-84213780D02*
X53277980Y-84213780D01*
%TO.C,C113*%
X65414980Y-76945780D02*
X65414980Y-73545780D01*
X67374980Y-76945780D02*
X65414980Y-76945780D01*
X67374980Y-73545780D02*
X67374980Y-76945780D01*
X65414980Y-73545780D02*
X67374980Y-73545780D01*
%TO.C,C112*%
X65287980Y-86851780D02*
X65287980Y-83451780D01*
X67247980Y-86851780D02*
X65287980Y-86851780D01*
X67247980Y-83451780D02*
X67247980Y-86851780D01*
X65287980Y-83451780D02*
X67247980Y-83451780D01*
%TO.C,C111*%
X63382980Y-76945780D02*
X63382980Y-73545780D01*
X65342980Y-76945780D02*
X63382980Y-76945780D01*
X65342980Y-73545780D02*
X65342980Y-76945780D01*
X63382980Y-73545780D02*
X65342980Y-73545780D01*
%TO.C,C110*%
X63255980Y-86851780D02*
X63255980Y-83451780D01*
X65215980Y-86851780D02*
X63255980Y-86851780D01*
X65215980Y-83451780D02*
X65215980Y-86851780D01*
X63255980Y-83451780D02*
X65215980Y-83451780D01*
%TO.C,C109*%
X70888980Y-76987780D02*
X67488980Y-76987780D01*
X70888980Y-75027780D02*
X70888980Y-76987780D01*
X67488980Y-75027780D02*
X70888980Y-75027780D01*
X67488980Y-76987780D02*
X67488980Y-75027780D01*
%TO.C,C108*%
X70822980Y-86893780D02*
X67422980Y-86893780D01*
X70822980Y-84933780D02*
X70822980Y-86893780D01*
X67422980Y-84933780D02*
X70822980Y-84933780D01*
X67422980Y-86893780D02*
X67422980Y-84933780D01*
%TO.C,C107*%
X78931980Y-84213780D02*
X78931980Y-87613780D01*
X76971980Y-84213780D02*
X78931980Y-84213780D01*
X76971980Y-87613780D02*
X76971980Y-84213780D01*
X78931980Y-87613780D02*
X76971980Y-87613780D01*
%TO.C,C106*%
X71002980Y-86851780D02*
X71002980Y-83451780D01*
X72962980Y-86851780D02*
X71002980Y-86851780D01*
X72962980Y-83451780D02*
X72962980Y-86851780D01*
X71002980Y-83451780D02*
X72962980Y-83451780D01*
%TO.C,C105*%
X76821363Y-76848589D02*
X73421363Y-76848589D01*
X76821363Y-74888589D02*
X76821363Y-76848589D01*
X73421363Y-74888589D02*
X76821363Y-74888589D01*
X73421363Y-76848589D02*
X73421363Y-74888589D01*
%TO.C,C104*%
X76730980Y-86893780D02*
X73330980Y-86893780D01*
X76730980Y-84933780D02*
X76730980Y-86893780D01*
X73330980Y-84933780D02*
X76730980Y-84933780D01*
X73330980Y-86893780D02*
X73330980Y-84933780D01*
%TO.C,C103*%
X84731980Y-80035780D02*
X81331980Y-80035780D01*
X84731980Y-78075780D02*
X84731980Y-80035780D01*
X81331980Y-78075780D02*
X84731980Y-78075780D01*
X81331980Y-80035780D02*
X81331980Y-78075780D01*
%TO.C,C102*%
X84731980Y-84099780D02*
X81331980Y-84099780D01*
X84731980Y-82139780D02*
X84731980Y-84099780D01*
X81331980Y-82139780D02*
X84731980Y-82139780D01*
X81331980Y-84099780D02*
X81331980Y-82139780D01*
%TO.C,C101*%
X53228980Y-44904220D02*
X49828980Y-44904220D01*
X53228980Y-42944220D02*
X53228980Y-44904220D01*
X49828980Y-42944220D02*
X53228980Y-42944220D01*
X49828980Y-44904220D02*
X49828980Y-42944220D01*
%TO.C,C100*%
X53228980Y-54810220D02*
X49828980Y-54810220D01*
X53228980Y-52850220D02*
X53228980Y-54810220D01*
X49828980Y-52850220D02*
X53228980Y-52850220D01*
X49828980Y-54810220D02*
X49828980Y-52850220D01*
%TO.C,C99*%
X51310980Y-38827220D02*
X51310980Y-35427220D01*
X53270980Y-38827220D02*
X51310980Y-38827220D01*
X53270980Y-35427220D02*
X53270980Y-38827220D01*
X51310980Y-35427220D02*
X53270980Y-35427220D01*
%TO.C,C98*%
X51310980Y-48672220D02*
X51310980Y-45272220D01*
X53270980Y-48672220D02*
X51310980Y-48672220D01*
X53270980Y-45272220D02*
X53270980Y-48672220D01*
X51310980Y-45272220D02*
X53270980Y-45272220D01*
%TO.C,C97*%
X65407980Y-38004220D02*
X65407980Y-34604220D01*
X67367980Y-38004220D02*
X65407980Y-38004220D01*
X67367980Y-34604220D02*
X67367980Y-38004220D01*
X65407980Y-34604220D02*
X67367980Y-34604220D01*
%TO.C,C96*%
X65280980Y-47910220D02*
X65280980Y-44510220D01*
X67240980Y-47910220D02*
X65280980Y-47910220D01*
X67240980Y-44510220D02*
X67240980Y-47910220D01*
X65280980Y-44510220D02*
X67240980Y-44510220D01*
%TO.C,C95*%
X63375980Y-38004220D02*
X63375980Y-34604220D01*
X65335980Y-38004220D02*
X63375980Y-38004220D01*
X65335980Y-34604220D02*
X65335980Y-38004220D01*
X63375980Y-34604220D02*
X65335980Y-34604220D01*
%TO.C,C94*%
X63248980Y-47910220D02*
X63248980Y-44510220D01*
X65208980Y-47910220D02*
X63248980Y-47910220D01*
X65208980Y-44510220D02*
X65208980Y-47910220D01*
X63248980Y-44510220D02*
X65208980Y-44510220D01*
%TO.C,C93*%
X70881980Y-38046220D02*
X67481980Y-38046220D01*
X70881980Y-36086220D02*
X70881980Y-38046220D01*
X67481980Y-36086220D02*
X70881980Y-36086220D01*
X67481980Y-38046220D02*
X67481980Y-36086220D01*
%TO.C,C92*%
X70815980Y-47952220D02*
X67415980Y-47952220D01*
X70815980Y-45992220D02*
X70815980Y-47952220D01*
X67415980Y-45992220D02*
X70815980Y-45992220D01*
X67415980Y-47952220D02*
X67415980Y-45992220D01*
%TO.C,C91*%
X78924980Y-45272220D02*
X78924980Y-48672220D01*
X76964980Y-45272220D02*
X78924980Y-45272220D01*
X76964980Y-48672220D02*
X76964980Y-45272220D01*
X78924980Y-48672220D02*
X76964980Y-48672220D01*
%TO.C,C90*%
X70995980Y-47910220D02*
X70995980Y-44510220D01*
X72955980Y-47910220D02*
X70995980Y-47910220D01*
X72955980Y-44510220D02*
X72955980Y-47910220D01*
X70995980Y-44510220D02*
X72955980Y-44510220D01*
%TO.C,C89*%
X76814363Y-37907029D02*
X73414363Y-37907029D01*
X76814363Y-35947029D02*
X76814363Y-37907029D01*
X73414363Y-35947029D02*
X76814363Y-35947029D01*
X73414363Y-37907029D02*
X73414363Y-35947029D01*
%TO.C,C88*%
X76723980Y-47952220D02*
X73323980Y-47952220D01*
X76723980Y-45992220D02*
X76723980Y-47952220D01*
X73323980Y-45992220D02*
X76723980Y-45992220D01*
X73323980Y-47952220D02*
X73323980Y-45992220D01*
%TO.C,C87*%
X84724980Y-41094220D02*
X81324980Y-41094220D01*
X84724980Y-39134220D02*
X84724980Y-41094220D01*
X81324980Y-39134220D02*
X84724980Y-39134220D01*
X81324980Y-41094220D02*
X81324980Y-39134220D01*
%TO.C,C86*%
X84724980Y-45158220D02*
X81324980Y-45158220D01*
X84724980Y-43198220D02*
X84724980Y-45158220D01*
X81324980Y-43198220D02*
X84724980Y-43198220D01*
X81324980Y-45158220D02*
X81324980Y-43198220D01*
%TO.C,C85*%
X18188500Y-97995000D02*
X18188500Y-101395000D01*
X16228500Y-97995000D02*
X18188500Y-97995000D01*
X16228500Y-101395000D02*
X16228500Y-97995000D01*
X18188500Y-101395000D02*
X16228500Y-101395000D01*
%TO.C,C84*%
X190591000Y-98058500D02*
X190591000Y-101458500D01*
X188631000Y-98058500D02*
X190591000Y-98058500D01*
X188631000Y-101458500D02*
X188631000Y-98058500D01*
X190591000Y-101458500D02*
X188631000Y-101458500D01*
%TO.C,C83*%
X20220500Y-97995000D02*
X20220500Y-101395000D01*
X18260500Y-97995000D02*
X20220500Y-97995000D01*
X18260500Y-101395000D02*
X18260500Y-97995000D01*
X20220500Y-101395000D02*
X18260500Y-101395000D01*
%TO.C,C82*%
X192623000Y-98058500D02*
X192623000Y-101458500D01*
X190663000Y-98058500D02*
X192623000Y-98058500D01*
X190663000Y-101458500D02*
X190663000Y-98058500D01*
X192623000Y-101458500D02*
X190663000Y-101458500D01*
%TO.C,C81*%
X202601000Y-104760500D02*
X202601000Y-101360500D01*
X204561000Y-104760500D02*
X202601000Y-104760500D01*
X204561000Y-101360500D02*
X204561000Y-104760500D01*
X202601000Y-101360500D02*
X204561000Y-101360500D01*
%TO.C,C80*%
X30198500Y-104697000D02*
X30198500Y-101297000D01*
X32158500Y-104697000D02*
X30198500Y-104697000D01*
X32158500Y-101297000D02*
X32158500Y-104697000D01*
X30198500Y-101297000D02*
X32158500Y-101297000D01*
%TO.C,C79*%
X28166500Y-104697000D02*
X28166500Y-101297000D01*
X30126500Y-104697000D02*
X28166500Y-104697000D01*
X30126500Y-101297000D02*
X30126500Y-104697000D01*
X28166500Y-101297000D02*
X30126500Y-101297000D01*
%TO.C,C78*%
X200569000Y-104760500D02*
X200569000Y-101360500D01*
X202529000Y-104760500D02*
X200569000Y-104760500D01*
X202529000Y-101360500D02*
X202529000Y-104760500D01*
X200569000Y-101360500D02*
X202529000Y-101360500D01*
%TO.C,C77*%
X139070520Y-5936720D02*
X139070520Y-2536720D01*
X141030520Y-5936720D02*
X139070520Y-5936720D01*
X141030520Y-2536720D02*
X141030520Y-5936720D01*
X139070520Y-2536720D02*
X141030520Y-2536720D01*
%TO.C,C76*%
X136911520Y-1933720D02*
X136911520Y1466280D01*
X138871520Y-1933720D02*
X136911520Y-1933720D01*
X138871520Y1466280D02*
X138871520Y-1933720D01*
X136911520Y1466280D02*
X138871520Y1466280D01*
%TO.C,C75*%
X136911520Y-5936720D02*
X136911520Y-2536720D01*
X138871520Y-5936720D02*
X136911520Y-5936720D01*
X138871520Y-2536720D02*
X138871520Y-5936720D01*
X136911520Y-2536720D02*
X138871520Y-2536720D01*
%TO.C,C74*%
X139070520Y-1933720D02*
X139070520Y1466280D01*
X141030520Y-1933720D02*
X139070520Y-1933720D01*
X141030520Y1466280D02*
X141030520Y-1933720D01*
X139070520Y1466280D02*
X141030520Y1466280D01*
%TO.C,C73*%
X134752520Y-5936720D02*
X134752520Y-2536720D01*
X136712520Y-5936720D02*
X134752520Y-5936720D01*
X136712520Y-2536720D02*
X136712520Y-5936720D01*
X134752520Y-2536720D02*
X136712520Y-2536720D01*
%TO.C,C72*%
X134752520Y-1933720D02*
X134752520Y1466280D01*
X136712520Y-1933720D02*
X134752520Y-1933720D01*
X136712520Y1466280D02*
X136712520Y-1933720D01*
X134752520Y1466280D02*
X136712520Y1466280D01*
%TO.C,C71*%
X126267519Y-2304720D02*
X126267519Y-3154720D01*
X129267519Y-2304720D02*
X126267519Y-2304720D01*
X129267519Y-3154720D02*
X129267519Y-2304720D01*
X126267519Y-3154720D02*
X123517519Y-3154720D01*
X132017519Y-3154720D02*
X129267519Y-3154720D01*
X132017519Y-3154720D02*
X133167519Y-4304720D01*
X123517519Y-3154720D02*
X122367519Y-4304720D01*
X133167519Y-4304720D02*
X133167519Y-13954720D01*
X122367519Y-4304720D02*
X122367519Y-13954720D01*
X126267519Y-13954720D02*
X122367519Y-13954720D01*
X126267519Y-14804720D02*
X126267519Y-13954720D01*
X129267519Y-14804720D02*
X126267519Y-14804720D01*
X129267519Y-13954720D02*
X129267519Y-14804720D01*
X133167519Y-13954720D02*
X129267519Y-13954720D01*
%TO.C,C70*%
X126267519Y10395280D02*
X126267519Y9545280D01*
X129267519Y10395280D02*
X126267519Y10395280D01*
X129267519Y9545280D02*
X129267519Y10395280D01*
X126267519Y9545280D02*
X123517519Y9545280D01*
X132017519Y9545280D02*
X129267519Y9545280D01*
X132017519Y9545280D02*
X133167519Y8395280D01*
X123517519Y9545280D02*
X122367519Y8395280D01*
X133167519Y8395280D02*
X133167519Y-1254720D01*
X122367519Y8395280D02*
X122367519Y-1254720D01*
X126267519Y-1254720D02*
X122367519Y-1254720D01*
X126267519Y-2104720D02*
X126267519Y-1254720D01*
X129267519Y-2104720D02*
X126267519Y-2104720D01*
X129267519Y-1254720D02*
X129267519Y-2104720D01*
X133167519Y-1254720D02*
X129267519Y-1254720D01*
%TO.C,C69*%
X62614240Y-118922360D02*
X59214240Y-118922360D01*
X62614240Y-116962360D02*
X62614240Y-118922360D01*
X59214240Y-116962360D02*
X62614240Y-116962360D01*
X59214240Y-118922360D02*
X59214240Y-116962360D01*
%TO.C,C68*%
X59160980Y-39007220D02*
X62560980Y-39007220D01*
X59160980Y-40967220D02*
X59160980Y-39007220D01*
X62560980Y-40967220D02*
X59160980Y-40967220D01*
X62560980Y-39007220D02*
X62560980Y-40967220D01*
%TO.C,C67*%
X84585280Y-160088140D02*
X81185280Y-160088140D01*
X84585280Y-158128140D02*
X84585280Y-160088140D01*
X81185280Y-158128140D02*
X84585280Y-158128140D01*
X81185280Y-160088140D02*
X81185280Y-158128140D01*
%TO.C,C66*%
X187798180Y-125417140D02*
X184398180Y-125417140D01*
X187798180Y-123457140D02*
X187798180Y-125417140D01*
X184398180Y-123457140D02*
X187798180Y-123457140D01*
X184398180Y-125417140D02*
X184398180Y-123457140D01*
%TO.C,C65*%
X158297180Y-111392140D02*
X161697180Y-111392140D01*
X158297180Y-113352140D02*
X158297180Y-111392140D01*
X161697180Y-113352140D02*
X158297180Y-113352140D01*
X161697180Y-111392140D02*
X161697180Y-113352140D01*
%TO.C,C64*%
X59036480Y-155946280D02*
X62436480Y-155946280D01*
X59036480Y-157906280D02*
X59036480Y-155946280D01*
X62436480Y-157906280D02*
X59036480Y-157906280D01*
X62436480Y-155946280D02*
X62436480Y-157906280D01*
%TO.C,C63*%
X36210980Y-38808220D02*
X32810980Y-38808220D01*
X36210980Y-36848220D02*
X36210980Y-38808220D01*
X32810980Y-36848220D02*
X36210980Y-36848220D01*
X32810980Y-38808220D02*
X32810980Y-36848220D01*
%TO.C,C62*%
X84722440Y-119095960D02*
X84722440Y-121055960D01*
X84722440Y-121055960D02*
X81322440Y-121055960D01*
X81322440Y-121055960D02*
X81322440Y-119095960D01*
X81322440Y-119095960D02*
X84722440Y-119095960D01*
%TO.C,C61*%
X44783480Y-161843280D02*
X41383480Y-161843280D01*
X44783480Y-159883280D02*
X44783480Y-161843280D01*
X41383480Y-159883280D02*
X44783480Y-159883280D01*
X41383480Y-161843280D02*
X41383480Y-159883280D01*
%TO.C,C60*%
X41634980Y-81841780D02*
X45034980Y-81841780D01*
X41634980Y-83801780D02*
X41634980Y-81841780D01*
X45034980Y-83801780D02*
X41634980Y-83801780D01*
X45034980Y-81841780D02*
X45034980Y-83801780D01*
%TO.C,C59*%
X178674500Y-166367900D02*
X178674500Y-168327900D01*
X178674500Y-168327900D02*
X175274500Y-168327900D01*
X175274500Y-168327900D02*
X175274500Y-166367900D01*
X175274500Y-166367900D02*
X178674500Y-166367900D01*
%TO.C,C58*%
X184451520Y-164472180D02*
X184451520Y-162512180D01*
X184451520Y-162512180D02*
X187851520Y-162512180D01*
X187851520Y-162512180D02*
X187851520Y-164472180D01*
X187851520Y-164472180D02*
X184451520Y-164472180D01*
%TO.C,C57*%
X158286980Y-72428540D02*
X161686980Y-72428540D01*
X158286980Y-74388540D02*
X158286980Y-72428540D01*
X161686980Y-74388540D02*
X158286980Y-74388540D01*
X161686980Y-72428540D02*
X161686980Y-74388540D01*
%TO.C,C56*%
X161501520Y-162186180D02*
X158101520Y-162186180D01*
X161501520Y-160226180D02*
X161501520Y-162186180D01*
X158101520Y-160226180D02*
X161501520Y-160226180D01*
X158101520Y-162186180D02*
X158101520Y-160226180D01*
%TO.C,C55*%
X45578500Y-34889000D02*
X42178500Y-34889000D01*
X45578500Y-32929000D02*
X45578500Y-34889000D01*
X42178500Y-32929000D02*
X45578500Y-32929000D01*
X42178500Y-34889000D02*
X42178500Y-32929000D01*
%TO.C,C54*%
X175249100Y-90337200D02*
X175249100Y-88377200D01*
X175249100Y-88377200D02*
X178649100Y-88377200D01*
X178649100Y-88377200D02*
X178649100Y-90337200D01*
X178649100Y-90337200D02*
X175249100Y-90337200D01*
%TO.C,C53*%
X106712520Y-8681720D02*
G75*
G03*
X106712520Y-8681720I-6500000J0D01*
G01*
%TO.C,C52*%
X106759520Y5288280D02*
G75*
G03*
X106759520Y5288280I-6500000J0D01*
G01*
%TO.C,C51*%
X158109180Y-121298140D02*
X161509180Y-121298140D01*
X158109180Y-123258140D02*
X158109180Y-121298140D01*
X161509180Y-123258140D02*
X158109180Y-123258140D01*
X161509180Y-121298140D02*
X161509180Y-123258140D01*
%TO.C,C50*%
X58972980Y-48913220D02*
X62372980Y-48913220D01*
X58972980Y-50873220D02*
X58972980Y-48913220D01*
X62372980Y-50873220D02*
X58972980Y-50873220D01*
X62372980Y-48913220D02*
X62372980Y-50873220D01*
%TO.C,C49*%
X41924500Y-151919500D02*
X41924500Y-149959500D01*
X41924500Y-149959500D02*
X45324500Y-149959500D01*
X45324500Y-149959500D02*
X45324500Y-151919500D01*
X45324500Y-151919500D02*
X41924500Y-151919500D01*
%TO.C,C48*%
X32671480Y-153787280D02*
X36071480Y-153787280D01*
X32671480Y-155747280D02*
X32671480Y-153787280D01*
X36071480Y-155747280D02*
X32671480Y-155747280D01*
X36071480Y-153787280D02*
X36071480Y-155747280D01*
%TO.C,C47*%
X161689520Y-150320180D02*
X161689520Y-152280180D01*
X161689520Y-152280180D02*
X158289520Y-152280180D01*
X158289520Y-152280180D02*
X158289520Y-150320180D01*
X158289520Y-150320180D02*
X161689520Y-150320180D01*
%TO.C,C46*%
X92688980Y-41166220D02*
X96088980Y-41166220D01*
X92688980Y-43126220D02*
X92688980Y-41166220D01*
X96088980Y-43126220D02*
X92688980Y-43126220D01*
X96088980Y-41166220D02*
X96088980Y-43126220D01*
%TO.C,C45*%
X187839620Y-45535020D02*
X187839620Y-47495020D01*
X187839620Y-47495020D02*
X184439620Y-47495020D01*
X184439620Y-47495020D02*
X184439620Y-45535020D01*
X184439620Y-45535020D02*
X187839620Y-45535020D01*
%TO.C,C44*%
X45451500Y-71918000D02*
X45451500Y-73878000D01*
X45451500Y-73878000D02*
X42051500Y-73878000D01*
X42051500Y-73878000D02*
X42051500Y-71918000D01*
X42051500Y-71918000D02*
X45451500Y-71918000D01*
%TO.C,C43*%
X44973980Y-44904220D02*
X41573980Y-44904220D01*
X44973980Y-42944220D02*
X44973980Y-44904220D01*
X41573980Y-42944220D02*
X44973980Y-42944220D01*
X41573980Y-44904220D02*
X41573980Y-42944220D01*
%TO.C,C42*%
X59082240Y-126868360D02*
X62482240Y-126868360D01*
X59082240Y-128828360D02*
X59082240Y-126868360D01*
X62482240Y-128828360D02*
X59082240Y-128828360D01*
X62482240Y-126868360D02*
X62482240Y-128828360D01*
%TO.C,C41*%
X175185600Y-49362800D02*
X178585600Y-49362800D01*
X175185600Y-51322800D02*
X175185600Y-49362800D01*
X178585600Y-51322800D02*
X175185600Y-51322800D01*
X178585600Y-49362800D02*
X178585600Y-51322800D01*
%TO.C,C40*%
X45451500Y-110907000D02*
X45451500Y-112867000D01*
X45451500Y-112867000D02*
X42051500Y-112867000D01*
X42051500Y-112867000D02*
X42051500Y-110907000D01*
X42051500Y-110907000D02*
X45451500Y-110907000D01*
%TO.C,C39*%
X175635180Y-117361140D02*
X179035180Y-117361140D01*
X175635180Y-119321140D02*
X175635180Y-117361140D01*
X179035180Y-119321140D02*
X175635180Y-119321140D01*
X179035180Y-117361140D02*
X179035180Y-119321140D01*
%TO.C,C38*%
X179151980Y-80357540D02*
X175751980Y-80357540D01*
X179151980Y-78397540D02*
X179151980Y-80357540D01*
X175751980Y-78397540D02*
X179151980Y-78397540D01*
X175751980Y-80357540D02*
X175751980Y-78397540D01*
%TO.C,C37*%
X171058100Y-80494700D02*
X171058100Y-78534700D01*
X171058100Y-78534700D02*
X174458100Y-78534700D01*
X174458100Y-78534700D02*
X174458100Y-80494700D01*
X174458100Y-80494700D02*
X171058100Y-80494700D01*
%TO.C,C36*%
X174407300Y-117498300D02*
X174407300Y-119458300D01*
X174407300Y-119458300D02*
X171007300Y-119458300D01*
X171007300Y-119458300D02*
X171007300Y-117498300D01*
X171007300Y-117498300D02*
X174407300Y-117498300D01*
%TO.C,C35*%
X81412520Y-3396720D02*
X81412520Y3280D01*
X83372520Y-3396720D02*
X81412520Y-3396720D01*
X83372520Y3280D02*
X83372520Y-3396720D01*
X81412520Y3280D02*
X83372520Y3280D01*
%TO.C,C34*%
X127910020Y-158130680D02*
X127910020Y-160090680D01*
X127910020Y-160090680D02*
X124510020Y-160090680D01*
X124510020Y-160090680D02*
X124510020Y-158130680D01*
X124510020Y-158130680D02*
X127910020Y-158130680D01*
%TO.C,C33*%
X62372980Y-87810780D02*
X62372980Y-89770780D01*
X62372980Y-89770780D02*
X58972980Y-89770780D01*
X58972980Y-89770780D02*
X58972980Y-87810780D01*
X58972980Y-87810780D02*
X62372980Y-87810780D01*
%TO.C,C32*%
X171020000Y-158485400D02*
X171020000Y-156525400D01*
X171020000Y-156525400D02*
X174420000Y-156525400D01*
X174420000Y-156525400D02*
X174420000Y-158485400D01*
X174420000Y-158485400D02*
X171020000Y-158485400D01*
%TO.C,C31*%
X139362920Y-121083900D02*
X135962920Y-121083900D01*
X139362920Y-119123900D02*
X139362920Y-121083900D01*
X135962920Y-119123900D02*
X139362920Y-119123900D01*
X135962920Y-121083900D02*
X135962920Y-119123900D01*
%TO.C,C30*%
X179060620Y-39439020D02*
X179060620Y-41399020D01*
X179060620Y-41399020D02*
X175660620Y-41399020D01*
X175660620Y-41399020D02*
X175660620Y-39439020D01*
X175660620Y-39439020D02*
X179060620Y-39439020D01*
%TO.C,C29*%
X175688520Y-158376180D02*
X175688520Y-156416180D01*
X175688520Y-156416180D02*
X179088520Y-156416180D01*
X179088520Y-156416180D02*
X179088520Y-158376180D01*
X179088520Y-158376180D02*
X175688520Y-158376180D01*
%TO.C,C28*%
X84724980Y-43126220D02*
X81324980Y-43126220D01*
X84724980Y-41166220D02*
X84724980Y-43126220D01*
X81324980Y-41166220D02*
X84724980Y-41166220D01*
X81324980Y-43126220D02*
X81324980Y-41166220D01*
%TO.C,C27*%
X170933600Y-39583800D02*
X174333600Y-39583800D01*
X170933600Y-41543800D02*
X170933600Y-39583800D01*
X174333600Y-41543800D02*
X170933600Y-41543800D01*
X174333600Y-39583800D02*
X174333600Y-41543800D01*
%TO.C,C26*%
X83444520Y-3396720D02*
X83444520Y3280D01*
X85404520Y-3396720D02*
X83444520Y-3396720D01*
X85404520Y3280D02*
X85404520Y-3396720D01*
X83444520Y3280D02*
X85404520Y3280D01*
%TO.C,C25*%
X124581180Y-119139140D02*
X127981180Y-119139140D01*
X124581180Y-121099140D02*
X124581180Y-119139140D01*
X127981180Y-121099140D02*
X124581180Y-121099140D01*
X127981180Y-119139140D02*
X127981180Y-121099140D01*
%TO.C,C24*%
X127970980Y-82135540D02*
X124570980Y-82135540D01*
X127970980Y-80175540D02*
X127970980Y-82135540D01*
X124570980Y-80175540D02*
X127970980Y-80175540D01*
X124570980Y-82135540D02*
X124570980Y-80175540D01*
%TO.C,C23*%
X84735140Y-82072040D02*
X81335140Y-82072040D01*
X84735140Y-80112040D02*
X84735140Y-82072040D01*
X81335140Y-80112040D02*
X84735140Y-80112040D01*
X81335140Y-82072040D02*
X81335140Y-80112040D01*
%TO.C,C22*%
X175198300Y-129300800D02*
X175198300Y-127340800D01*
X175198300Y-127340800D02*
X178598300Y-127340800D01*
X178598300Y-127340800D02*
X178598300Y-129300800D01*
X178598300Y-129300800D02*
X175198300Y-129300800D01*
%TO.C,C21*%
X79380520Y-3396720D02*
X79380520Y3280D01*
X81340520Y-3396720D02*
X79380520Y-3396720D01*
X81340520Y3280D02*
X81340520Y-3396720D01*
X79380520Y3280D02*
X81340520Y3280D01*
%TO.C,C20*%
X41622240Y-122859360D02*
X41622240Y-120899360D01*
X41622240Y-120899360D02*
X45022240Y-120899360D01*
X45022240Y-120899360D02*
X45022240Y-122859360D01*
X45022240Y-122859360D02*
X41622240Y-122859360D01*
%TO.C,C19*%
X124545620Y-43177020D02*
X124545620Y-41217020D01*
X124545620Y-41217020D02*
X127945620Y-41217020D01*
X127945620Y-41217020D02*
X127945620Y-43177020D01*
X127945620Y-43177020D02*
X124545620Y-43177020D01*
%TO.C,C18*%
X49769500Y-120749500D02*
X49769500Y-122709500D01*
X49769500Y-122709500D02*
X46369500Y-122709500D01*
X46369500Y-122709500D02*
X46369500Y-120749500D01*
X46369500Y-120749500D02*
X49769500Y-120749500D01*
%TO.C,C17*%
X49706000Y-44731500D02*
X46306000Y-44731500D01*
X49706000Y-42771500D02*
X49706000Y-44731500D01*
X46306000Y-42771500D02*
X49706000Y-42771500D01*
X46306000Y-44731500D02*
X46306000Y-42771500D01*
%TO.C,C16*%
X96157480Y-82087280D02*
X92757480Y-82087280D01*
X96157480Y-80127280D02*
X96157480Y-82087280D01*
X92757480Y-80127280D02*
X96157480Y-80127280D01*
X92757480Y-82087280D02*
X92757480Y-80127280D01*
%TO.C,C15*%
X158200620Y-35430020D02*
X158200620Y-33470020D01*
X158200620Y-33470020D02*
X161600620Y-33470020D01*
X161600620Y-33470020D02*
X161600620Y-35430020D01*
X161600620Y-35430020D02*
X158200620Y-35430020D01*
%TO.C,C14*%
X49614625Y-159756332D02*
X49614625Y-161716332D01*
X49614625Y-161716332D02*
X46214625Y-161716332D01*
X46214625Y-161716332D02*
X46214625Y-159756332D01*
X46214625Y-159756332D02*
X49614625Y-159756332D01*
%TO.C,C13*%
X32810980Y-75745780D02*
X36210980Y-75745780D01*
X32810980Y-77705780D02*
X32810980Y-75745780D01*
X36210980Y-77705780D02*
X32810980Y-77705780D01*
X36210980Y-75745780D02*
X36210980Y-77705780D01*
%TO.C,C12*%
X62309480Y-167812280D02*
X58909480Y-167812280D01*
X62309480Y-165852280D02*
X62309480Y-167812280D01*
X58909480Y-165852280D02*
X62309480Y-165852280D01*
X58909480Y-167812280D02*
X58909480Y-165852280D01*
%TO.C,C11*%
X92564480Y-158105280D02*
X95964480Y-158105280D01*
X92564480Y-160065280D02*
X92564480Y-158105280D01*
X95964480Y-160065280D02*
X92564480Y-160065280D01*
X95964480Y-158105280D02*
X95964480Y-160065280D01*
%TO.C,C10*%
X139345140Y-158140840D02*
X139345140Y-160100840D01*
X139345140Y-160100840D02*
X135945140Y-160100840D01*
X135945140Y-160100840D02*
X135945140Y-158140840D01*
X135945140Y-158140840D02*
X139345140Y-158140840D01*
%TO.C,C9*%
X46306000Y-83657000D02*
X46306000Y-81697000D01*
X46306000Y-81697000D02*
X49706000Y-81697000D01*
X49706000Y-81697000D02*
X49706000Y-83657000D01*
X49706000Y-83657000D02*
X46306000Y-83657000D01*
%TO.C,C8*%
X161473620Y-43376020D02*
X161473620Y-45336020D01*
X161473620Y-45336020D02*
X158073620Y-45336020D01*
X158073620Y-45336020D02*
X158073620Y-43376020D01*
X158073620Y-43376020D02*
X161473620Y-43376020D01*
%TO.C,C7*%
X59099980Y-77904780D02*
X62499980Y-77904780D01*
X59099980Y-79864780D02*
X59099980Y-77904780D01*
X62499980Y-79864780D02*
X59099980Y-79864780D01*
X62499980Y-77904780D02*
X62499980Y-79864780D01*
%TO.C,C6*%
X184509980Y-84493540D02*
X187909980Y-84493540D01*
X184509980Y-86453540D02*
X184509980Y-84493540D01*
X187909980Y-86453540D02*
X184509980Y-86453540D01*
X187909980Y-84493540D02*
X187909980Y-86453540D01*
%TO.C,C5*%
X32812180Y-114681440D02*
X36212180Y-114681440D01*
X32812180Y-116641440D02*
X32812180Y-114681440D01*
X36212180Y-116641440D02*
X32812180Y-116641440D01*
X36212180Y-114681440D02*
X36212180Y-116641440D01*
%TO.C,C3*%
X92704180Y-119126440D02*
X96104180Y-119126440D01*
X92704180Y-121086440D02*
X92704180Y-119126440D01*
X96104180Y-121086440D02*
X92704180Y-121086440D01*
X96104180Y-119126440D02*
X96104180Y-121086440D01*
%TO.C,C2*%
X139327360Y-41178920D02*
X139327360Y-43138920D01*
X139327360Y-43138920D02*
X135927360Y-43138920D01*
X135927360Y-43138920D02*
X135927360Y-41178920D01*
X135927360Y-41178920D02*
X139327360Y-41178920D01*
%TO.C,C1*%
X139411180Y-82099980D02*
X136011180Y-82099980D01*
X139411180Y-80139980D02*
X139411180Y-82099980D01*
X136011180Y-80139980D02*
X139411180Y-80139980D01*
X136011180Y-82099980D02*
X136011180Y-80139980D01*
%TD*%
M02*
