M48
; DRILL file {KiCad 5.1.12-84ad8e8a86~92~ubuntu20.04.1} date Tue 25 Jan 2022 12:25:31 PM EST
; FORMAT={-:-/ absolute / inch / decimal}
; #@! TF.CreationDate,2022-01-25T12:25:31-05:00
; #@! TF.GenerationSoftware,Kicad,Pcbnew,5.1.12-84ad8e8a86~92~ubuntu20.04.1
; #@! TF.FileFunction,Plated,1,4,PTH
FMAT,2
INCH
T1C0.0157
T2C0.0394
T3C0.0472
T4C0.0610
%
G90
G05
T1
X0.6Y0.6
X0.6Y0.4
X0.6Y0.2
X0.6Y0.0
X0.6Y-0.2
X0.6Y-0.4
X0.6Y-0.6
X0.6Y-0.8
X0.6Y-1.0
X0.6Y-1.2
X0.6Y-1.4
X0.6Y-1.6
X0.6Y-1.8
X0.6Y-2.0
X0.6Y-2.2
X0.6Y-2.4
X0.6Y-2.6
X0.6Y-2.8
X0.6Y-3.0
X0.6Y-3.2
X0.6Y-3.4
X0.6Y-3.6
X0.6Y-3.8
X0.6Y-4.0
X0.6Y-4.2
X0.6Y-4.4
X0.6Y-4.6
X0.6Y-4.8
X0.6Y-5.0
X0.6Y-5.2
X0.6Y-5.4
X0.6Y-5.6
X0.6Y-5.8
X0.6Y-6.0
X0.6Y-6.2
X0.6Y-6.4
X0.6Y-6.6
X0.6Y-6.8
X0.6774Y-4.0125
X0.6775Y-3.8375
X0.8Y-6.8
X0.825Y0.6
X0.925Y-3.975
X0.925Y-4.025
X0.925Y-4.075
X1.0Y-6.8
X1.05Y0.6
X1.065Y-4.085
X1.1475Y-3.9675
X1.2Y-6.8
X1.2275Y-3.9675
X1.2275Y-4.1425
X1.275Y0.6
X1.3175Y-6.2375
X1.3175Y-6.28
X1.3225Y-1.6325
X1.3225Y-1.675
X1.3225Y-3.165
X1.3225Y-3.2075
X1.3225Y-4.7
X1.3225Y-4.7425
X1.3425Y-6.4825
X1.3475Y-1.8775
X1.3475Y-3.41
X1.3475Y-4.945
X1.4Y-6.8
X1.435Y-6.1815
X1.44Y-1.5765
X1.44Y-3.109
X1.44Y-4.644
X1.5Y0.6
X1.6Y-6.8
X1.61Y-6.2925
X1.61Y-6.3625
X1.615Y-1.6875
X1.615Y-1.7575
X1.615Y-3.22
X1.615Y-3.29
X1.615Y-4.755
X1.615Y-4.825
X1.63Y-5.945
X1.635Y-2.87
X1.635Y-4.405
X1.64Y-1.335
X1.7Y0.6
X1.792Y-6.3419
X1.7975Y-1.7372
X1.7975Y-4.8054
X1.7977Y-3.2703
X1.8Y-6.8
X1.802Y-5.9415
X1.802Y-6.014
X1.8028Y-6.399
X1.8075Y-1.3368
X1.8075Y-1.4093
X1.8075Y-4.405
X1.8075Y-4.4775
X1.8077Y-2.8699
X1.8077Y-2.9424
X1.8083Y-1.7943
X1.8083Y-4.8625
X1.8086Y-3.3274
X1.825Y-6.16
X1.825Y-6.555
X1.83Y-1.55
X1.83Y-1.945
X1.83Y-3.09
X1.83Y-3.485
X1.83Y-4.62
X1.83Y-5.015
X1.885Y-6.73
X1.89Y-2.125
X1.89Y-3.6575
X1.89Y-5.1925
X1.9Y0.6
X1.93Y-6.08
X1.935Y-1.475
X1.935Y-3.0075
X1.935Y-4.5425
X1.935Y-6.47
X1.94Y-1.865
X1.94Y-3.3975
X1.94Y-4.9325
X1.94Y-6.24
X1.945Y-1.635
X1.945Y-3.1675
X1.945Y-4.7025
X1.95Y-6.41
X1.9525Y-6.0125
X1.955Y-1.405
X1.955Y-1.805
X1.955Y-3.3375
X1.955Y-4.8725
X1.9575Y-2.94
X1.9575Y-4.475
X1.975Y-6.47
X1.98Y-1.865
X1.98Y-3.3975
X1.98Y-4.9325
X1.985Y-6.08
X1.985Y-6.785
X1.99Y-1.475
X1.99Y-2.18
X1.99Y-3.0075
X1.99Y-3.7125
X1.99Y-4.5425
X1.99Y-5.2475
X2.0019Y-6.4169
X2.0069Y-1.8119
X2.0069Y-3.3444
X2.0069Y-4.8794
X2.055Y-5.97
X2.06Y-1.365
X2.06Y-2.8975
X2.06Y-4.4325
X2.1Y0.6
X2.115Y-3.655
X2.115Y-6.335
X2.115Y-6.725
X2.12Y-1.73
X2.12Y-2.12
X2.12Y-3.2625
X2.12Y-4.7975
X2.12Y-5.19
X2.2Y-6.16
X2.2Y-6.56
X2.2Y-6.8
X2.205Y-1.55
X2.205Y-1.95
X2.205Y-3.09
X2.205Y-3.49
X2.205Y-4.62
X2.205Y-5.02
X2.2085Y-6.07
X2.2135Y-1.465
X2.2135Y-2.9975
X2.2135Y-4.5325
X2.3Y0.6
X2.34Y-6.045
X2.34Y-6.435
X2.345Y-1.435
X2.345Y-1.825
X2.345Y-2.975
X2.345Y-3.365
X2.345Y-4.505
X2.345Y-4.895
X2.345Y-6.64
X2.35Y-2.035
X2.35Y-3.5675
X2.35Y-5.1025
X2.3525Y-6.25
X2.3575Y-1.645
X2.3575Y-3.1775
X2.3575Y-4.7125
X2.4Y-6.8
X2.4205Y-6.64
X2.4255Y-2.035
X2.4255Y-3.5675
X2.4255Y-5.1025
X2.5Y0.6
X2.6Y-6.8
X2.7Y0.6
X2.8Y-6.8
X2.828Y-6.3265
X2.833Y-1.7215
X2.833Y-3.254
X2.833Y-4.789
X2.875Y-6.495
X2.88Y-1.89
X2.88Y-3.4225
X2.88Y-4.9575
X2.9Y0.6
X2.965Y-6.315
X2.97Y-1.71
X2.97Y-3.2425
X2.97Y-4.7775
X3.0Y-6.8
X3.033Y-6.146
X3.035Y-6.34
X3.038Y-1.541
X3.038Y-3.0735
X3.038Y-4.6085
X3.04Y-1.735
X3.04Y-3.2675
X3.04Y-4.8025
X3.064Y-6.5455
X3.069Y-1.9405
X3.069Y-3.473
X3.069Y-5.008
X3.1Y0.6
X3.1705Y-6.2635
X3.1755Y-1.6585
X3.1755Y-3.191
X3.1755Y-4.726
X3.2Y-6.8
X3.3Y0.6
X3.35Y-7.275
X3.35Y-7.575
X3.4532Y-6.204
X3.4532Y-6.324
X3.4587Y-1.5993
X3.4587Y-1.7193
X3.4587Y-4.6675
X3.4587Y-4.7875
X3.459Y-3.1324
X3.459Y-3.2524
X3.5Y0.6
X3.512Y-6.264
X3.5175Y-1.6593
X3.5175Y-4.7275
X3.5177Y-3.1924
X3.53Y-1.8782
X3.53Y-2.9735
X3.53Y-3.4113
X3.53Y-4.5086
X3.53Y-4.9464
X3.53Y-6.045
X3.535Y0.0125
X3.535Y-0.1475
X3.55Y-7.275
X3.55Y-7.575
X3.5532Y-6.159
X3.5532Y-6.369
X3.5587Y-1.5543
X3.5587Y-1.7643
X3.5587Y-4.6225
X3.5587Y-4.8325
X3.559Y-3.0874
X3.559Y-3.2974
X3.575Y0.0125
X3.575Y-0.0275
X3.575Y-0.0675
X3.575Y-0.1075
X3.575Y-0.1475
X3.675Y-2.3975
X3.675Y-2.4625
X3.675Y-3.9275
X3.675Y-3.9975
X3.675Y-5.4625
X3.675Y-5.5325
X3.7Y0.6
X3.705Y-6.265
X3.71Y-1.66
X3.71Y-3.1925
X3.71Y-4.7275
X3.75Y-7.275
X3.75Y-7.575
X3.755Y-1.815
X3.805Y-1.6425
X3.805Y-1.7425
X3.805Y-6.2475
X3.805Y-6.3475
X3.81Y-3.1775
X3.81Y-3.2725
X3.81Y-4.7125
X3.81Y-4.8125
X3.9Y0.6
X3.95Y-7.275
X3.95Y-7.575
X3.9635Y-0.2615
X3.9635Y-0.3015
X3.9635Y-0.3415
X3.9635Y-0.3815
X3.9635Y-0.4215
X3.965Y0.2875
X3.965Y0.2475
X3.965Y0.2075
X3.965Y0.1675
X3.965Y0.1275
X4.0035Y-0.2615
X4.0035Y-0.4215
X4.005Y0.2875
X4.005Y0.1275
X4.0435Y-0.2615
X4.0435Y-0.4215
X4.045Y0.2875
X4.045Y0.1275
X4.0835Y-0.2615
X4.0835Y-0.4215
X4.085Y0.2875
X4.085Y0.1275
X4.1Y0.6
X4.1235Y-0.2615
X4.1235Y-0.3015
X4.1235Y-0.3415
X4.1235Y-0.3815
X4.1235Y-0.4215
X4.125Y0.2875
X4.125Y0.2475
X4.125Y0.2075
X4.125Y0.1675
X4.125Y0.1275
X4.15Y-7.275
X4.15Y-7.575
X4.2Y-7.175
X4.3Y0.6
X4.3Y-7.145
X4.35Y-7.275
X4.35Y-7.575
X4.4Y-7.115
X4.5Y0.6
X4.5Y-7.235
X4.55Y-7.275
X4.55Y-7.575
X4.65Y-7.325
X4.7Y0.6
X4.75Y-7.275
X4.75Y-7.575
X4.8Y-7.235
X4.83Y-0.045
X4.83Y-0.0882
X4.83Y-0.13
X4.87Y-0.045
X4.87Y-0.0882
X4.87Y-0.13
X4.875Y-1.645
X4.875Y-1.745
X4.875Y-6.2475
X4.875Y-6.345
X4.88Y-3.275
X4.88Y-4.7125
X4.88Y-4.8125
X4.8813Y-3.1787
X4.9Y0.6
X4.91Y-0.045
X4.91Y-0.0882
X4.91Y-0.13
X4.935Y-1.815
X4.95Y-7.275
X4.95Y-7.575
X4.9775Y-1.66
X4.9775Y-6.265
X4.98Y-3.1925
X4.98Y-4.7275
X5.01Y-5.4625
X5.01Y-5.5325
X5.02Y-3.9275
X5.02Y-3.9975
X5.025Y-2.3975
X5.0275Y-2.46
X5.1Y0.6
X5.1283Y-1.555
X5.1283Y-1.765
X5.129Y-6.1594
X5.129Y-6.3694
X5.1297Y-4.6235
X5.1297Y-4.8335
X5.1317Y-3.0887
X5.1317Y-3.2987
X5.15Y-7.275
X5.15Y-7.575
X5.155Y-4.9474
X5.155Y-6.0455
X5.16Y-0.045
X5.16Y-0.0882
X5.16Y-0.13
X5.165Y-3.4126
X5.165Y-4.5075
X5.1696Y-1.66
X5.17Y-1.8789
X5.17Y-2.9748
X5.1703Y-6.2644
X5.1709Y-4.7285
X5.173Y-3.1937
X5.2Y-0.045
X5.2Y-0.0882
X5.2Y-0.13
X5.2283Y-1.6
X5.2283Y-1.72
X5.229Y-6.2044
X5.229Y-6.3244
X5.2297Y-4.6685
X5.2297Y-4.7885
X5.2317Y-3.1337
X5.2317Y-3.2537
X5.24Y-0.045
X5.24Y-0.0882
X5.24Y-0.13
X5.28Y-0.045
X5.28Y-0.0882
X5.28Y-0.13
X5.3Y0.6
X5.3438Y0.08
X5.3438Y-0.0882
X5.3438Y-0.255
X5.35Y-7.275
X5.35Y-7.575
X5.4288Y0.08
X5.4288Y-0.0882
X5.4288Y-0.255
X5.5Y0.6
X5.5Y-6.8
X5.512Y-1.6615
X5.512Y-6.2665
X5.5138Y0.08
X5.5138Y-0.0882
X5.5138Y-0.255
X5.5145Y-3.194
X5.5145Y-4.729
X5.5988Y0.08
X5.6185Y-1.3795
X5.6185Y-5.9845
X5.621Y-2.912
X5.621Y-4.447
X5.6475Y-1.585
X5.6475Y-6.19
X5.6495Y-1.779
X5.6495Y-6.384
X5.65Y-3.1175
X5.65Y-4.6525
X5.652Y-3.3115
X5.652Y-4.8465
X5.6788Y-0.255
X5.7Y0.6
X5.7Y-6.8
X5.7175Y-1.61
X5.7175Y-6.215
X5.72Y-3.1425
X5.72Y-4.6775
X5.74Y-0.045
X5.8075Y-1.43
X5.8075Y-6.0325
X5.81Y-2.9625
X5.81Y-4.4975
X5.8545Y-1.5985
X5.8545Y-6.2035
X5.857Y-3.131
X5.857Y-4.666
X5.9Y0.6
X5.9Y-6.8
X6.1Y0.6
X6.1Y-6.8
X6.262Y-1.285
X6.262Y-5.89
X6.2645Y-2.8175
X6.2645Y-4.3525
X6.3Y0.6
X6.3Y-6.8
X6.33Y-1.675
X6.33Y-6.28
X6.3325Y-3.2075
X6.3325Y-4.7425
X6.3375Y-1.285
X6.3375Y-5.89
X6.34Y-2.8175
X6.34Y-4.3525
X6.3425Y-6.0925
X6.3425Y-6.4825
X6.345Y-1.49
X6.345Y-1.88
X6.345Y-4.5575
X6.345Y-4.9475
X6.3475Y-3.0225
X6.3475Y-3.4125
X6.474Y-1.855
X6.474Y-6.46
X6.4765Y-3.3875
X6.4765Y-4.9225
X6.4825Y-5.9675
X6.4825Y-6.3675
X6.485Y-1.365
X6.485Y-1.765
X6.485Y-4.4325
X6.485Y-4.8325
X6.4875Y-2.8975
X6.4875Y-3.2975
X6.5Y0.6
X6.5Y-6.8
X6.5675Y-1.59
X6.5675Y-6.195
X6.57Y-1.2
X6.57Y-3.1225
X6.57Y-4.265
X6.57Y-4.6575
X6.57Y-5.805
X6.575Y-2.73
X6.6275Y-1.955
X6.6275Y-6.56
X6.63Y-3.4875
X6.63Y-5.0225
X6.6806Y-1.5081
X6.6806Y-6.1131
X6.6831Y-3.0406
X6.6831Y-4.5756
X6.6975Y-1.14
X6.6975Y-1.845
X6.6975Y-5.745
X6.6975Y-6.45
X6.7Y0.6
X6.7Y-2.6725
X6.7Y-3.3775
X6.7Y-4.2075
X6.7Y-4.9125
X6.7Y-6.8
X6.7075Y-1.455
X6.7075Y-6.06
X6.71Y-2.9875
X6.71Y-4.5225
X6.73Y-1.9125
X6.73Y-6.5175
X6.7325Y-1.515
X6.7325Y-3.445
X6.7325Y-4.98
X6.7325Y-6.12
X6.735Y-3.0475
X6.735Y-4.5825
X6.7425Y-1.685
X6.7425Y-6.29
X6.745Y-3.2175
X6.745Y-4.7525
X6.7475Y-1.455
X6.7475Y-6.06
X6.75Y-2.9875
X6.75Y-4.5225
X6.7525Y-1.845
X6.7525Y-6.45
X6.755Y-3.3775
X6.755Y-4.9125
X6.7975Y-1.195
X6.7975Y-5.8
X6.8Y-2.7275
X6.8Y-4.2625
X6.8575Y-5.9725
X6.8575Y-6.3675
X6.86Y-1.37
X6.86Y-1.765
X6.86Y-4.4375
X6.86Y-4.8325
X6.8625Y-2.9025
X6.8625Y-3.2975
X6.8788Y-1.5251
X6.8794Y-6.1295
X6.8796Y-1.9101
X6.8796Y-1.9826
X6.8801Y-4.5935
X6.8803Y-6.5145
X6.8803Y-6.587
X6.8809Y-4.9785
X6.8809Y-5.051
X6.8822Y-3.0587
X6.883Y-3.4437
X6.883Y-3.5162
X6.8896Y-1.5822
X6.8903Y-6.1865
X6.8909Y-4.6506
X6.893Y-3.1158
X6.9Y0.6
X6.9Y-6.8
X7.055Y-1.98
X7.055Y-5.055
X7.055Y-6.59
X7.06Y-3.52
X7.0725Y-1.5625
X7.0725Y-1.6325
X7.0725Y-6.1675
X7.0725Y-6.2375
X7.075Y-3.095
X7.075Y-3.165
X7.075Y-4.63
X7.075Y-4.7
X7.1Y0.6
X7.1Y-6.8
X7.2475Y-1.7435
X7.2475Y-6.3485
X7.2485Y-4.811
X7.25Y-3.276
X7.3Y0.6
X7.3Y-6.8
X7.325Y-4.11
X7.34Y-1.4425
X7.34Y-6.0475
X7.3425Y-2.975
X7.3425Y-4.51
X7.365Y-1.645
X7.365Y-1.6875
X7.365Y-6.25
X7.365Y-6.2925
X7.3675Y-3.1775
X7.3675Y-3.22
X7.3675Y-4.7125
X7.3675Y-4.755
X7.3794Y-4.0315
X7.38Y-3.99
X7.38Y-4.075
X7.465Y-3.8375
X7.5Y0.6
X7.5Y-6.8
X7.7Y0.6
X7.7Y-6.8
X7.8526Y-4.1046
X7.9Y0.6
X7.9Y-6.8
X7.935Y-3.9675
X8.015Y-3.9675
X8.015Y-4.145
X8.1Y0.6
X8.1Y0.4
X8.1Y0.2
X8.1Y0.0
X8.1Y-0.2
X8.1Y-0.4
X8.1Y-0.6
X8.1Y-0.8
X8.1Y-1.0
X8.1Y-1.2
X8.1Y-1.4
X8.1Y-1.6
X8.1Y-1.8
X8.1Y-2.0
X8.1Y-2.2
X8.1Y-2.4
X8.1Y-2.6
X8.1Y-2.8
X8.1Y-3.0
X8.1Y-3.2
X8.1Y-3.4
X8.1Y-3.6
X8.1Y-3.8
X8.1Y-4.0
X8.1Y-4.2
X8.1Y-4.4
X8.1Y-4.6
X8.1Y-4.8
X8.1Y-5.0
X8.1Y-5.2
X8.1Y-5.4
X8.1Y-5.6
X8.1Y-5.8
X8.1Y-6.0
X8.1Y-6.2
X8.1Y-6.4
X8.1Y-6.6
X8.1Y-6.8
T2
X3.4Y-7.375
X3.4Y-7.475
X3.5Y-7.375
X3.5Y-7.475
X3.6Y-7.375
X3.6Y-7.475
X3.7Y-7.375
X3.7Y-7.475
X3.8Y-7.375
X3.8Y-7.475
X3.9Y-7.375
X3.9Y-7.475
X4.0Y-7.375
X4.0Y-7.475
X4.1Y-7.375
X4.1Y-7.475
X4.2Y-7.375
X4.2Y-7.475
X4.3Y-7.375
X4.3Y-7.475
X4.4Y-7.375
X4.4Y-7.475
X4.5Y-7.375
X4.5Y-7.475
X4.6Y-7.375
X4.6Y-7.475
X4.6788Y0.2682
X4.6788Y0.1682
X4.6788Y0.0682
X4.7Y-7.375
X4.7Y-7.475
X4.8Y-7.375
X4.8Y-7.475
X4.9Y-7.375
X4.9Y-7.475
X5.0Y-7.375
X5.0Y-7.475
X5.1Y-7.375
X5.1Y-7.475
X5.2Y-7.375
X5.2Y-7.475
X5.3Y-7.375
X5.3Y-7.475
T3
X3.8469Y-0.3418
X3.8488Y0.2082
X4.0438Y-0.3418
X4.0457Y0.2082
T4
X3.0238Y0.0382
X3.0238Y-0.1695
X3.4738Y0.1409
X3.4738Y-0.0668
X3.4738Y-0.2745
X3.9208Y-5.624
X3.9208Y-5.8799
X3.9208Y-6.1358
X3.9209Y-6.3917
X3.9209Y-6.6476
X3.9209Y-6.9035
X3.9215Y-1.0185
X3.9215Y-1.2744
X3.9215Y-1.5303
X3.9215Y-2.5535
X3.9215Y-2.8094
X3.9215Y-3.0653
X3.9215Y-4.0885
X3.9215Y-4.3444
X3.9215Y-4.6003
X3.9216Y-1.7862
X3.9216Y-2.0421
X3.9216Y-2.298
X3.9216Y-3.3212
X3.9216Y-3.5771
X3.9216Y-3.833
X3.9216Y-4.8562
X3.9216Y-5.1121
X3.9216Y-5.368
X4.1285Y-5.624
X4.1285Y-5.8799
X4.1285Y-6.1358
X4.1286Y-6.3917
X4.1286Y-6.6476
X4.1286Y-6.9035
X4.1292Y-1.0185
X4.1292Y-1.2744
X4.1292Y-1.5303
X4.1292Y-2.5535
X4.1292Y-2.8094
X4.1292Y-3.0653
X4.1292Y-4.0885
X4.1292Y-4.3444
X4.1292Y-4.6003
X4.1293Y-1.7862
X4.1293Y-2.0421
X4.1293Y-2.298
X4.1293Y-3.3212
X4.1293Y-3.5771
X4.1293Y-3.833
X4.1293Y-4.8562
X4.1293Y-5.1121
X4.1293Y-5.368
X4.5597Y-1.019
X4.5597Y-1.2749
X4.5597Y-1.5308
X4.5598Y-1.7867
X4.5598Y-2.0426
X4.5598Y-2.2985
X4.5607Y-5.6235
X4.5607Y-5.8794
X4.5607Y-6.1353
X4.5608Y-6.3912
X4.5608Y-6.6471
X4.5608Y-6.903
X4.5612Y-4.0885
X4.5612Y-4.3444
X4.5612Y-4.6003
X4.5613Y-4.8562
X4.5613Y-5.1121
X4.5613Y-5.368
X4.5617Y-2.554
X4.5617Y-2.8099
X4.5617Y-3.0658
X4.5618Y-3.3217
X4.5618Y-3.5776
X4.5618Y-3.8335
X4.7674Y-1.019
X4.7674Y-1.2749
X4.7674Y-1.5308
X4.7675Y-1.7867
X4.7675Y-2.0426
X4.7675Y-2.2985
X4.7684Y-5.6235
X4.7684Y-5.8794
X4.7684Y-6.1353
X4.7685Y-6.3912
X4.7685Y-6.6471
X4.7685Y-6.903
X4.7689Y-4.0885
X4.7689Y-4.3444
X4.7689Y-4.6003
X4.769Y-4.8562
X4.769Y-5.1121
X4.769Y-5.368
X4.7694Y-2.554
X4.7694Y-2.8099
X4.7694Y-3.0658
X4.7695Y-3.3217
X4.7695Y-3.5776
X4.7695Y-3.8335
T0
M30
