%TF.GenerationSoftware,KiCad,Pcbnew,5.1.12-84ad8e8a86~92~ubuntu20.04.1*%
%TF.CreationDate,2022-02-15T15:36:19-05:00*%
%TF.ProjectId,emg-filter,656d672d-6669-46c7-9465-722e6b696361,rev?*%
%TF.SameCoordinates,Original*%
%TF.FileFunction,Soldermask,Bot*%
%TF.FilePolarity,Negative*%
%FSLAX46Y46*%
G04 Gerber Fmt 4.6, Leading zero omitted, Abs format (unit mm)*
G04 Created by KiCad (PCBNEW 5.1.12-84ad8e8a86~92~ubuntu20.04.1) date 2022-02-15 15:36:19*
%MOMM*%
%LPD*%
G01*
G04 APERTURE LIST*
%ADD10R,1.700000X1.700000*%
%ADD11O,1.700000X1.700000*%
%ADD12C,3.500000*%
%ADD13R,2.400000X2.400000*%
%ADD14C,2.400000*%
%ADD15C,0.800000*%
G04 APERTURE END LIST*
D10*
%TO.C,J15*%
X131624000Y-39342000D03*
D11*
X131624000Y-41882000D03*
%TD*%
D10*
%TO.C,J13*%
X131624000Y-15292000D03*
D11*
X131624000Y-17832000D03*
%TD*%
D10*
%TO.C,RV1*%
X117983000Y14351000D03*
D11*
X117983000Y16891000D03*
X117983000Y19431000D03*
%TD*%
%TO.C,J41*%
X133524000Y-150552000D03*
D10*
X133524000Y-148012000D03*
%TD*%
D11*
%TO.C,J40*%
X129724000Y-150552000D03*
D10*
X129724000Y-148012000D03*
%TD*%
%TO.C,J39*%
X133524000Y-99752000D03*
D11*
X133524000Y-102292000D03*
%TD*%
D10*
%TO.C,J38*%
X129724000Y-99752000D03*
D11*
X129724000Y-102292000D03*
%TD*%
D10*
%TO.C,J37*%
X133524000Y-51492000D03*
D11*
X133524000Y-54032000D03*
%TD*%
D10*
%TO.C,J36*%
X129724000Y-51492000D03*
D11*
X129724000Y-54032000D03*
%TD*%
D10*
%TO.C,J35*%
X109474000Y-14657000D03*
D11*
X112014000Y-14657000D03*
%TD*%
D10*
%TO.C,J34*%
X109474000Y-18415000D03*
D11*
X112014000Y-18415000D03*
%TD*%
D10*
%TO.C,J33*%
X91814000Y-53908000D03*
D11*
X91814000Y-51368000D03*
%TD*%
D10*
%TO.C,J32*%
X88064000Y-53908000D03*
D11*
X88064000Y-51368000D03*
%TD*%
D10*
%TO.C,J31*%
X91764000Y-102178000D03*
D11*
X91764000Y-99638000D03*
%TD*%
%TO.C,J30*%
X87964000Y-99638000D03*
D10*
X87964000Y-102178000D03*
%TD*%
%TO.C,J29*%
X91764000Y-150438000D03*
D11*
X91764000Y-147898000D03*
%TD*%
D10*
%TO.C,J28*%
X87964000Y-150438000D03*
D11*
X87964000Y-147898000D03*
%TD*%
%TO.C,J27*%
X131624000Y-186662000D03*
D10*
X131624000Y-184122000D03*
%TD*%
D11*
%TO.C,J26*%
X161924000Y-178452000D03*
X161924000Y-175912000D03*
X161924000Y-173372000D03*
X161924000Y-170832000D03*
D10*
X161924000Y-168292000D03*
%TD*%
%TO.C,J25*%
X131624000Y-160072000D03*
D11*
X131624000Y-162612000D03*
%TD*%
D10*
%TO.C,J24*%
X131624000Y-135862000D03*
D11*
X131624000Y-138402000D03*
%TD*%
D10*
%TO.C,J23*%
X161924000Y-120032000D03*
D11*
X161924000Y-122572000D03*
X161924000Y-125112000D03*
X161924000Y-127652000D03*
X161924000Y-130192000D03*
%TD*%
D10*
%TO.C,J22*%
X131624000Y-111812000D03*
D11*
X131624000Y-114352000D03*
%TD*%
%TO.C,J21*%
X131624000Y-90142000D03*
D10*
X131624000Y-87602000D03*
%TD*%
D11*
%TO.C,J20*%
X161924000Y-81932000D03*
X161924000Y-79392000D03*
X161924000Y-76852000D03*
X161924000Y-74312000D03*
D10*
X161924000Y-71772000D03*
%TD*%
D11*
%TO.C,J19*%
X131624000Y-66092000D03*
D10*
X131624000Y-63552000D03*
%TD*%
%TO.C,J18*%
X89864000Y-17808000D03*
D11*
X89864000Y-15268000D03*
%TD*%
D10*
%TO.C,J17*%
X59564000Y-33638000D03*
D11*
X59564000Y-31098000D03*
X59564000Y-28558000D03*
X59564000Y-26018000D03*
X59564000Y-23478000D03*
%TD*%
D10*
%TO.C,J16*%
X89864000Y-41858000D03*
D11*
X89864000Y-39318000D03*
%TD*%
D10*
%TO.C,J14*%
X161924000Y-23512000D03*
D11*
X161924000Y-26052000D03*
X161924000Y-28592000D03*
X161924000Y-31132000D03*
X161924000Y-33672000D03*
%TD*%
%TO.C,J12*%
X89864000Y-63528000D03*
D10*
X89864000Y-66068000D03*
%TD*%
D11*
%TO.C,J11*%
X59564000Y-71738000D03*
X59564000Y-74278000D03*
X59564000Y-76818000D03*
X59564000Y-79358000D03*
D10*
X59564000Y-81898000D03*
%TD*%
D11*
%TO.C,J10*%
X89864000Y-87578000D03*
D10*
X89864000Y-90118000D03*
%TD*%
D11*
%TO.C,J9*%
X89864000Y-160048000D03*
D10*
X89864000Y-162588000D03*
%TD*%
D11*
%TO.C,J8*%
X59564000Y-168258000D03*
X59564000Y-170798000D03*
X59564000Y-173338000D03*
X59564000Y-175878000D03*
D10*
X59564000Y-178418000D03*
%TD*%
%TO.C,J7*%
X89864000Y-186638000D03*
D11*
X89864000Y-184098000D03*
%TD*%
D10*
%TO.C,J6*%
X89864000Y-114328000D03*
D11*
X89864000Y-111788000D03*
%TD*%
%TO.C,J5*%
X59564000Y-119998000D03*
X59564000Y-122538000D03*
X59564000Y-125078000D03*
X59564000Y-127618000D03*
D10*
X59564000Y-130158000D03*
%TD*%
%TO.C,J4*%
X89864000Y-138378000D03*
D11*
X89864000Y-135838000D03*
%TD*%
%TO.C,J3*%
X86614000Y-201930000D03*
X86614000Y-199390000D03*
X89154000Y-201930000D03*
X89154000Y-199390000D03*
X91694000Y-201930000D03*
X91694000Y-199390000D03*
X94234000Y-201930000D03*
X94234000Y-199390000D03*
X96774000Y-201930000D03*
X96774000Y-199390000D03*
X99314000Y-201930000D03*
X99314000Y-199390000D03*
X101854000Y-201930000D03*
X101854000Y-199390000D03*
X104394000Y-201930000D03*
X104394000Y-199390000D03*
X106934000Y-201930000D03*
X106934000Y-199390000D03*
X109474000Y-201930000D03*
X109474000Y-199390000D03*
X112014000Y-201930000D03*
X112014000Y-199390000D03*
X114554000Y-201930000D03*
X114554000Y-199390000D03*
X117094000Y-201930000D03*
X117094000Y-199390000D03*
X119634000Y-201930000D03*
X119634000Y-199390000D03*
X122174000Y-201930000D03*
X122174000Y-199390000D03*
X124714000Y-201930000D03*
X124714000Y-199390000D03*
X127254000Y-201930000D03*
X127254000Y-199390000D03*
X129794000Y-201930000D03*
X129794000Y-199390000D03*
X132334000Y-201930000D03*
X132334000Y-199390000D03*
X134874000Y-201930000D03*
D10*
X134874000Y-199390000D03*
%TD*%
D12*
%TO.C,J2*%
X86916917Y16324000D03*
X86916917Y11049000D03*
X86916917Y5774000D03*
%TD*%
%TO.C,J1*%
X75946000Y8382000D03*
X75946000Y13682000D03*
%TD*%
D13*
%TO.C,C9*%
X101473000Y4064000D03*
D14*
X96473000Y4064000D03*
%TD*%
D13*
%TO.C,C1*%
X96393000Y18034000D03*
D14*
X101393000Y18034000D03*
%TD*%
D15*
X137160000Y11049000D03*
X139192000Y11049000D03*
X135128000Y11049000D03*
X129413000Y11049000D03*
X130683000Y11049000D03*
X131953000Y11049000D03*
X133223000Y11049000D03*
X133223000Y12319000D03*
X130683000Y12319000D03*
X129413000Y12319000D03*
X131953000Y12319000D03*
X133223000Y9779000D03*
X130683000Y9779000D03*
X131953000Y9779000D03*
X129413000Y9779000D03*
X130683000Y8509000D03*
X129413000Y8509000D03*
X131953000Y8509000D03*
X130683000Y13589000D03*
X129413000Y13589000D03*
X131953000Y13589000D03*
X124587000Y9779000D03*
X124587000Y12319000D03*
X123317000Y9779000D03*
X124587000Y11049000D03*
X122047000Y11049000D03*
X122047000Y12319000D03*
X120777000Y9779000D03*
X123317000Y12319000D03*
X122047000Y9779000D03*
X120777000Y11049000D03*
X120777000Y12319000D03*
X123317000Y11049000D03*
X120777000Y13589000D03*
X123317000Y13589000D03*
X122047000Y13589000D03*
X124587000Y13589000D03*
X124587000Y8509000D03*
X122047000Y8509000D03*
X123317000Y8509000D03*
X120777000Y8509000D03*
X115189000Y8509000D03*
X115189000Y5969000D03*
X113919000Y8509000D03*
X113919000Y7239000D03*
X113919000Y5969000D03*
X115189000Y7239000D03*
X95123000Y13589000D03*
X92583000Y13589000D03*
X93853000Y13589000D03*
X95123000Y11049000D03*
X92583000Y11049000D03*
X91313000Y13589000D03*
X93853000Y9779000D03*
X92583000Y8509000D03*
X91313000Y11049000D03*
X91313000Y12319000D03*
X93853000Y12319000D03*
X91313000Y9779000D03*
X95123000Y8509000D03*
X93853000Y11049000D03*
X91313000Y8509000D03*
X92583000Y9779000D03*
X92583000Y12319000D03*
X93853000Y8509000D03*
X95123000Y9779000D03*
X95123000Y12319000D03*
X102997000Y11049000D03*
X102997000Y12319000D03*
X102997000Y9779000D03*
X104267000Y12319000D03*
X104267000Y11049000D03*
X105537000Y11049000D03*
X105537000Y9779000D03*
X104267000Y9779000D03*
X105537000Y12319000D03*
X69265800Y-101041200D03*
X140868400Y-101135839D03*
X75768200Y-103251000D03*
X145732500Y-100965000D03*
X89852500Y-148971000D03*
X131635500Y-149479000D03*
X131635500Y-101219000D03*
X131635500Y-52959000D03*
X89916000Y-52451000D03*
X110934500Y-16510000D03*
X89852500Y-100711000D03*
X115824000Y-196850000D03*
X113284000Y-196850000D03*
X110744000Y-196850000D03*
X108204000Y-196850000D03*
X118364000Y-196850000D03*
X135128000Y15367004D03*
X137160000Y15367000D03*
X139192000Y15367004D03*
X141224000Y15367004D03*
X135128000Y16637004D03*
X141224000Y16637004D03*
X137160000Y16637000D03*
X139192000Y16637004D03*
X137287000Y-100012500D03*
X138747500Y-101219000D03*
X68075096Y-100911100D03*
X67183000Y-99758500D03*
X135128000Y6731000D03*
X137160000Y6731000D03*
X139192000Y6731000D03*
X143256000Y6731000D03*
X135128000Y5461000D03*
X137160000Y5461000D03*
X139192000Y5461000D03*
X143256000Y5461000D03*
X82742264Y-96993215D03*
X152908000Y-97028000D03*
X114554000Y-97028000D03*
X119634000Y-96266000D03*
X72898000Y-96266000D03*
X142875000Y-96266000D03*
X122301000Y-96266000D03*
X81534000Y-95504000D03*
X151638000Y-95504000D03*
X112014000Y-95504000D03*
X80010000Y-94742000D03*
X150114004Y-94742000D03*
X109474000Y-94742000D03*
X148590000Y-93853000D03*
X78546487Y-93919513D03*
X106919513Y-93919513D03*
X69839006Y-102091107D03*
X68405595Y-103482995D03*
X147320000Y-105918000D03*
X145796000Y-107442000D03*
X69090994Y-102754809D03*
X70583505Y-101423466D03*
X145034000Y-105156000D03*
X146558000Y-106680006D03*
M02*
