M48
; DRILL file {KiCad 5.1.12-84ad8e8a86~92~ubuntu20.04.1} date Thu 03 Feb 2022 08:06:28 PM EST
; FORMAT={-:-/ absolute / inch / decimal}
; #@! TF.CreationDate,2022-02-03T20:06:28-05:00
; #@! TF.GenerationSoftware,Kicad,Pcbnew,5.1.12-84ad8e8a86~92~ubuntu20.04.1
; #@! TF.FileFunction,Plated,1,4,PTH
FMAT,2
INCH
T1C0.0157
T2C0.0394
T3C0.0610
%
G90
G05
T1
X2.5728Y-4.25
X2.5728Y-4.8012
X2.6969Y-4.5276
X2.8228Y-4.5886
X2.8278Y-4.4646
X2.8337Y-4.0043
X2.8337Y-5.0512
X2.8907Y-4.25
X2.8907Y-4.8022
X2.8937Y-4.5866
X2.8937Y-4.4685
X2.9557Y-3.9689
X2.9557Y-5.0157
X2.9941Y-4.3878
X2.9941Y-4.6673
X3.0512Y-4.439
X3.0512Y-4.5276
X3.0512Y-4.6161
X3.1102Y-4.2185
X3.1102Y-4.8415
X3.1106Y-4.0624
X3.1106Y-5.1093
X3.2539Y-3.9689
X3.2539Y-5.0157
X3.2598Y-4.4124
X3.339Y-3.901
X3.339Y-4.9478
X3.3406Y-4.4783
X3.3406Y-4.5748
X3.4075Y-4.8764
X3.4213Y-4.6407
X3.435Y-4.1427
X3.4498Y-4.8012
X3.4754Y-4.2539
X3.5089Y-3.8764
X3.5089Y-4.9232
X3.5285Y-4.4124
X3.5541Y-4.027
X3.5541Y-5.0738
X3.564Y-3.7972
X3.564Y-5.2569
X3.5837Y-4.4852
X3.5837Y-4.5689
X3.622Y-4.027
X3.622Y-5.0738
X3.628Y-4.1687
X3.628Y-5.2156
X3.6348Y-4.4852
X3.6348Y-4.5695
X3.69Y-4.6407
X3.6909Y-4.0043
X3.6909Y-5.0512
T2
X2.6063Y-4.0039
X2.6063Y-4.1039
X2.6063Y-4.4783
X2.6063Y-4.5783
X2.6063Y-4.9508
X2.6063Y-5.0508
X3.1398Y-4.4787
X3.1398Y-4.5787
X3.7992Y-4.3278
X3.7992Y-4.4278
X3.7992Y-4.5278
X3.7992Y-4.6278
X3.7992Y-4.7278
T3
X2.1457Y-3.937
X2.1457Y-4.1732
X2.1457Y-4.4094
X2.1457Y-4.6457
X2.1457Y-4.8819
X2.1457Y-5.1181
T3
G00X2.3494Y-3.937
M15
G01X2.3593Y-3.937
M16
G05
G00X2.3494Y-4.1732
M15
G01X2.3593Y-4.1732
M16
G05
G00X2.3494Y-4.4094
M15
G01X2.3593Y-4.4094
M16
G05
G00X2.3494Y-4.6457
M15
G01X2.3593Y-4.6457
M16
G05
G00X2.3494Y-4.8819
M15
G01X2.3593Y-4.8819
M16
G05
G00X2.3494Y-5.1181
M15
G01X2.3593Y-5.1181
M16
G05
T0
M30
